%TF.GenerationSoftware,KiCad,Pcbnew,7.0.5*%
%TF.CreationDate,2024-03-06T09:17:32-05:00*%
%TF.ProjectId,SaberCord_Copy_Male,53616265-7243-46f7-9264-5f436f70795f,rev?*%
%TF.SameCoordinates,Original*%
%TF.FileFunction,Paste,Top*%
%TF.FilePolarity,Positive*%
%FSLAX46Y46*%
G04 Gerber Fmt 4.6, Leading zero omitted, Abs format (unit mm)*
G04 Created by KiCad (PCBNEW 7.0.5) date 2024-03-06 09:17:32*
%MOMM*%
%LPD*%
G01*
G04 APERTURE LIST*
%ADD10O,1.000000X1.700000*%
%ADD11O,1.000000X1.800000*%
%ADD12R,0.300000X1.000000*%
%ADD13C,0.600000*%
G04 APERTURE END LIST*
%TO.C,J2*%
G36*
X137735000Y-88130000D02*
G01*
X137435000Y-88130000D01*
X137435000Y-87130000D01*
X137735000Y-87130000D01*
X137735000Y-88130000D01*
G37*
G36*
X138235000Y-88130000D02*
G01*
X137935000Y-88130000D01*
X137935000Y-87130000D01*
X138235000Y-87130000D01*
X138235000Y-88130000D01*
G37*
G36*
X138735000Y-88130000D02*
G01*
X138435000Y-88130000D01*
X138435000Y-87130000D01*
X138735000Y-87130000D01*
X138735000Y-88130000D01*
G37*
G36*
X139235000Y-88130000D02*
G01*
X138935000Y-88130000D01*
X138935000Y-87130000D01*
X139235000Y-87130000D01*
X139235000Y-88130000D01*
G37*
G36*
X139735000Y-88130000D02*
G01*
X139435000Y-88130000D01*
X139435000Y-87130000D01*
X139735000Y-87130000D01*
X139735000Y-88130000D01*
G37*
G36*
X140235000Y-88130000D02*
G01*
X139935000Y-88130000D01*
X139935000Y-87130000D01*
X140235000Y-87130000D01*
X140235000Y-88130000D01*
G37*
G36*
X140735000Y-88130000D02*
G01*
X140435000Y-88130000D01*
X140435000Y-87130000D01*
X140735000Y-87130000D01*
X140735000Y-88130000D01*
G37*
G36*
X141235000Y-88130000D02*
G01*
X140935000Y-88130000D01*
X140935000Y-87130000D01*
X141235000Y-87130000D01*
X141235000Y-88130000D01*
G37*
G36*
X141735000Y-88130000D02*
G01*
X141435000Y-88130000D01*
X141435000Y-87130000D01*
X141735000Y-87130000D01*
X141735000Y-88130000D01*
G37*
G36*
X142235000Y-88130000D02*
G01*
X141935000Y-88130000D01*
X141935000Y-87130000D01*
X142235000Y-87130000D01*
X142235000Y-88130000D01*
G37*
G36*
X142735000Y-88130000D02*
G01*
X142435000Y-88130000D01*
X142435000Y-87130000D01*
X142735000Y-87130000D01*
X142735000Y-88130000D01*
G37*
G36*
X143235000Y-88130000D02*
G01*
X142935000Y-88130000D01*
X142935000Y-87130000D01*
X143235000Y-87130000D01*
X143235000Y-88130000D01*
G37*
G36*
X137579000Y-88543000D02*
G01*
X137603000Y-88548000D01*
X137627000Y-88555000D01*
X137651000Y-88563000D01*
X137674000Y-88574000D01*
X137696000Y-88587000D01*
X137716000Y-88601000D01*
X137736000Y-88617000D01*
X137753000Y-88635000D01*
X137770000Y-88654000D01*
X137785000Y-88674000D01*
X137798000Y-88695000D01*
X137809000Y-88718000D01*
X137818000Y-88741000D01*
X137825000Y-88765000D01*
X137831000Y-88790000D01*
X137834000Y-88815000D01*
X137835000Y-88840000D01*
X137834000Y-88865000D01*
X137831000Y-88890000D01*
X137825000Y-88914000D01*
X137818000Y-88939000D01*
X137809000Y-88962000D01*
X137798000Y-88984000D01*
X137785000Y-89006000D01*
X137770000Y-89026000D01*
X137753000Y-89045000D01*
X137736000Y-89063000D01*
X137716000Y-89079000D01*
X137696000Y-89093000D01*
X137674000Y-89106000D01*
X137651000Y-89116000D01*
X137627000Y-89125000D01*
X137603000Y-89132000D01*
X137579000Y-89137000D01*
X137554000Y-89139000D01*
X137529000Y-89140000D01*
X137503000Y-89138000D01*
X137479000Y-89135000D01*
X137454000Y-89129000D01*
X137430000Y-89121000D01*
X137407000Y-89111000D01*
X137385000Y-89100000D01*
X137364000Y-89086000D01*
X137344000Y-89071000D01*
X137325000Y-89054000D01*
X137308000Y-89036000D01*
X137292000Y-89016000D01*
X137278000Y-88995000D01*
X137266000Y-88973000D01*
X137256000Y-88950000D01*
X137248000Y-88927000D01*
X137241000Y-88902000D01*
X137237000Y-88877000D01*
X137235000Y-88852000D01*
X137235000Y-88827000D01*
X137237000Y-88802000D01*
X137241000Y-88777000D01*
X137248000Y-88753000D01*
X137256000Y-88729000D01*
X137266000Y-88706000D01*
X137278000Y-88684000D01*
X137292000Y-88664000D01*
X137308000Y-88644000D01*
X137325000Y-88626000D01*
X137344000Y-88609000D01*
X137364000Y-88594000D01*
X137385000Y-88580000D01*
X137407000Y-88568000D01*
X137430000Y-88559000D01*
X137454000Y-88551000D01*
X137479000Y-88545000D01*
X137503000Y-88542000D01*
X137529000Y-88540000D01*
X137554000Y-88540000D01*
X137579000Y-88543000D01*
G37*
G36*
X137979000Y-89243000D02*
G01*
X138003000Y-89248000D01*
X138028000Y-89255000D01*
X138051000Y-89263000D01*
X138074000Y-89274000D01*
X138096000Y-89287000D01*
X138116000Y-89301000D01*
X138136000Y-89317000D01*
X138154000Y-89335000D01*
X138170000Y-89354000D01*
X138185000Y-89374000D01*
X138198000Y-89395000D01*
X138209000Y-89418000D01*
X138218000Y-89441000D01*
X138225000Y-89465000D01*
X138231000Y-89490000D01*
X138234000Y-89515000D01*
X138235000Y-89540000D01*
X138234000Y-89565000D01*
X138231000Y-89590000D01*
X138225000Y-89614000D01*
X138218000Y-89639000D01*
X138209000Y-89662000D01*
X138198000Y-89684000D01*
X138185000Y-89706000D01*
X138170000Y-89726000D01*
X138154000Y-89745000D01*
X138136000Y-89763000D01*
X138116000Y-89779000D01*
X138096000Y-89793000D01*
X138074000Y-89806000D01*
X138051000Y-89816000D01*
X138028000Y-89825000D01*
X138003000Y-89832000D01*
X137979000Y-89837000D01*
X137954000Y-89839000D01*
X137929000Y-89840000D01*
X137903000Y-89838000D01*
X137879000Y-89835000D01*
X137854000Y-89829000D01*
X137830000Y-89821000D01*
X137807000Y-89811000D01*
X137785000Y-89800000D01*
X137764000Y-89786000D01*
X137744000Y-89771000D01*
X137725000Y-89754000D01*
X137708000Y-89736000D01*
X137692000Y-89716000D01*
X137678000Y-89695000D01*
X137666000Y-89673000D01*
X137656000Y-89650000D01*
X137648000Y-89627000D01*
X137641000Y-89602000D01*
X137637000Y-89577000D01*
X137635000Y-89552000D01*
X137635000Y-89527000D01*
X137637000Y-89502000D01*
X137641000Y-89478000D01*
X137648000Y-89453000D01*
X137656000Y-89429000D01*
X137666000Y-89406000D01*
X137678000Y-89384000D01*
X137692000Y-89364000D01*
X137708000Y-89344000D01*
X137725000Y-89326000D01*
X137744000Y-89309000D01*
X137764000Y-89294000D01*
X137785000Y-89280000D01*
X137807000Y-89268000D01*
X137830000Y-89259000D01*
X137854000Y-89251000D01*
X137879000Y-89245000D01*
X137903000Y-89242000D01*
X137929000Y-89240000D01*
X137954000Y-89240000D01*
X137979000Y-89243000D01*
G37*
G36*
X138779000Y-89243000D02*
G01*
X138803000Y-89248000D01*
X138828000Y-89255000D01*
X138851000Y-89263000D01*
X138874000Y-89274000D01*
X138896000Y-89287000D01*
X138916000Y-89301000D01*
X138936000Y-89317000D01*
X138954000Y-89335000D01*
X138970000Y-89354000D01*
X138985000Y-89374000D01*
X138998000Y-89395000D01*
X139009000Y-89418000D01*
X139018000Y-89441000D01*
X139026000Y-89465000D01*
X139031000Y-89490000D01*
X139034000Y-89515000D01*
X139035000Y-89540000D01*
X139034000Y-89565000D01*
X139031000Y-89590000D01*
X139026000Y-89614000D01*
X139018000Y-89639000D01*
X139009000Y-89662000D01*
X138998000Y-89684000D01*
X138985000Y-89706000D01*
X138970000Y-89726000D01*
X138954000Y-89745000D01*
X138936000Y-89763000D01*
X138916000Y-89779000D01*
X138896000Y-89793000D01*
X138874000Y-89806000D01*
X138851000Y-89816000D01*
X138828000Y-89825000D01*
X138803000Y-89832000D01*
X138779000Y-89837000D01*
X138754000Y-89839000D01*
X138729000Y-89840000D01*
X138704000Y-89838000D01*
X138679000Y-89835000D01*
X138654000Y-89829000D01*
X138630000Y-89821000D01*
X138607000Y-89811000D01*
X138585000Y-89800000D01*
X138564000Y-89786000D01*
X138544000Y-89771000D01*
X138525000Y-89754000D01*
X138508000Y-89736000D01*
X138492000Y-89716000D01*
X138478000Y-89695000D01*
X138466000Y-89673000D01*
X138456000Y-89650000D01*
X138448000Y-89627000D01*
X138441000Y-89602000D01*
X138437000Y-89577000D01*
X138435000Y-89552000D01*
X138435000Y-89527000D01*
X138437000Y-89502000D01*
X138441000Y-89478000D01*
X138448000Y-89453000D01*
X138456000Y-89429000D01*
X138466000Y-89406000D01*
X138478000Y-89384000D01*
X138492000Y-89364000D01*
X138508000Y-89344000D01*
X138525000Y-89326000D01*
X138544000Y-89309000D01*
X138564000Y-89294000D01*
X138585000Y-89280000D01*
X138607000Y-89268000D01*
X138630000Y-89259000D01*
X138654000Y-89251000D01*
X138679000Y-89245000D01*
X138704000Y-89242000D01*
X138729000Y-89240000D01*
X138754000Y-89240000D01*
X138779000Y-89243000D01*
G37*
G36*
X139179000Y-88543000D02*
G01*
X139203000Y-88548000D01*
X139227000Y-88555000D01*
X139251000Y-88563000D01*
X139274000Y-88574000D01*
X139295000Y-88587000D01*
X139316000Y-88601000D01*
X139335000Y-88617000D01*
X139353000Y-88635000D01*
X139370000Y-88654000D01*
X139385000Y-88674000D01*
X139398000Y-88695000D01*
X139409000Y-88718000D01*
X139418000Y-88741000D01*
X139425000Y-88765000D01*
X139431000Y-88790000D01*
X139434000Y-88815000D01*
X139435000Y-88840000D01*
X139434000Y-88865000D01*
X139431000Y-88890000D01*
X139425000Y-88914000D01*
X139418000Y-88939000D01*
X139409000Y-88962000D01*
X139398000Y-88984000D01*
X139385000Y-89006000D01*
X139370000Y-89026000D01*
X139353000Y-89045000D01*
X139335000Y-89063000D01*
X139316000Y-89079000D01*
X139295000Y-89093000D01*
X139274000Y-89106000D01*
X139251000Y-89116000D01*
X139227000Y-89125000D01*
X139203000Y-89132000D01*
X139179000Y-89137000D01*
X139154000Y-89139000D01*
X139128000Y-89140000D01*
X139103000Y-89138000D01*
X139079000Y-89135000D01*
X139054000Y-89129000D01*
X139030000Y-89121000D01*
X139007000Y-89111000D01*
X138985000Y-89100000D01*
X138964000Y-89086000D01*
X138943000Y-89071000D01*
X138925000Y-89054000D01*
X138908000Y-89036000D01*
X138892000Y-89016000D01*
X138878000Y-88995000D01*
X138866000Y-88973000D01*
X138856000Y-88950000D01*
X138848000Y-88927000D01*
X138841000Y-88902000D01*
X138837000Y-88877000D01*
X138835000Y-88852000D01*
X138835000Y-88827000D01*
X138837000Y-88802000D01*
X138841000Y-88777000D01*
X138848000Y-88753000D01*
X138856000Y-88729000D01*
X138866000Y-88706000D01*
X138878000Y-88684000D01*
X138892000Y-88664000D01*
X138908000Y-88644000D01*
X138925000Y-88626000D01*
X138943000Y-88609000D01*
X138964000Y-88594000D01*
X138985000Y-88580000D01*
X139007000Y-88568000D01*
X139030000Y-88559000D01*
X139054000Y-88551000D01*
X139079000Y-88545000D01*
X139103000Y-88542000D01*
X139128000Y-88540000D01*
X139154000Y-88540000D01*
X139179000Y-88543000D01*
G37*
G36*
X139579000Y-89243000D02*
G01*
X139603000Y-89248000D01*
X139627000Y-89255000D01*
X139651000Y-89263000D01*
X139674000Y-89274000D01*
X139696000Y-89287000D01*
X139716000Y-89301000D01*
X139736000Y-89317000D01*
X139753000Y-89335000D01*
X139770000Y-89354000D01*
X139785000Y-89374000D01*
X139798000Y-89395000D01*
X139809000Y-89418000D01*
X139818000Y-89441000D01*
X139825000Y-89465000D01*
X139831000Y-89490000D01*
X139834000Y-89515000D01*
X139835000Y-89540000D01*
X139834000Y-89565000D01*
X139831000Y-89590000D01*
X139825000Y-89614000D01*
X139818000Y-89639000D01*
X139809000Y-89662000D01*
X139798000Y-89684000D01*
X139785000Y-89706000D01*
X139770000Y-89726000D01*
X139753000Y-89745000D01*
X139736000Y-89763000D01*
X139716000Y-89779000D01*
X139696000Y-89793000D01*
X139674000Y-89806000D01*
X139651000Y-89816000D01*
X139627000Y-89825000D01*
X139603000Y-89832000D01*
X139579000Y-89837000D01*
X139554000Y-89839000D01*
X139528000Y-89840000D01*
X139503000Y-89838000D01*
X139479000Y-89835000D01*
X139454000Y-89829000D01*
X139430000Y-89821000D01*
X139407000Y-89811000D01*
X139385000Y-89800000D01*
X139364000Y-89786000D01*
X139344000Y-89771000D01*
X139325000Y-89754000D01*
X139308000Y-89736000D01*
X139292000Y-89716000D01*
X139278000Y-89695000D01*
X139266000Y-89673000D01*
X139256000Y-89650000D01*
X139248000Y-89627000D01*
X139241000Y-89602000D01*
X139237000Y-89577000D01*
X139235000Y-89552000D01*
X139235000Y-89527000D01*
X139237000Y-89502000D01*
X139241000Y-89478000D01*
X139248000Y-89453000D01*
X139256000Y-89429000D01*
X139266000Y-89406000D01*
X139278000Y-89384000D01*
X139292000Y-89364000D01*
X139308000Y-89344000D01*
X139325000Y-89326000D01*
X139344000Y-89309000D01*
X139364000Y-89294000D01*
X139385000Y-89280000D01*
X139407000Y-89268000D01*
X139430000Y-89259000D01*
X139454000Y-89251000D01*
X139479000Y-89245000D01*
X139503000Y-89242000D01*
X139528000Y-89240000D01*
X139554000Y-89240000D01*
X139579000Y-89243000D01*
G37*
G36*
X139979000Y-88543000D02*
G01*
X140003000Y-88548000D01*
X140028000Y-88555000D01*
X140051000Y-88563000D01*
X140074000Y-88574000D01*
X140096000Y-88587000D01*
X140116000Y-88601000D01*
X140136000Y-88617000D01*
X140154000Y-88635000D01*
X140170000Y-88654000D01*
X140185000Y-88674000D01*
X140198000Y-88695000D01*
X140209000Y-88718000D01*
X140218000Y-88741000D01*
X140225000Y-88765000D01*
X140231000Y-88790000D01*
X140234000Y-88815000D01*
X140235000Y-88840000D01*
X140234000Y-88865000D01*
X140231000Y-88890000D01*
X140225000Y-88914000D01*
X140218000Y-88939000D01*
X140209000Y-88962000D01*
X140198000Y-88984000D01*
X140185000Y-89006000D01*
X140170000Y-89026000D01*
X140154000Y-89045000D01*
X140136000Y-89063000D01*
X140116000Y-89079000D01*
X140096000Y-89093000D01*
X140074000Y-89106000D01*
X140051000Y-89116000D01*
X140028000Y-89125000D01*
X140003000Y-89132000D01*
X139979000Y-89137000D01*
X139954000Y-89139000D01*
X139929000Y-89140000D01*
X139903000Y-89138000D01*
X139879000Y-89135000D01*
X139854000Y-89129000D01*
X139830000Y-89121000D01*
X139807000Y-89111000D01*
X139785000Y-89100000D01*
X139764000Y-89086000D01*
X139744000Y-89071000D01*
X139725000Y-89054000D01*
X139708000Y-89036000D01*
X139692000Y-89016000D01*
X139678000Y-88995000D01*
X139666000Y-88973000D01*
X139656000Y-88950000D01*
X139648000Y-88927000D01*
X139641000Y-88902000D01*
X139637000Y-88877000D01*
X139635000Y-88852000D01*
X139635000Y-88827000D01*
X139637000Y-88802000D01*
X139641000Y-88777000D01*
X139648000Y-88753000D01*
X139656000Y-88729000D01*
X139666000Y-88706000D01*
X139678000Y-88684000D01*
X139692000Y-88664000D01*
X139708000Y-88644000D01*
X139725000Y-88626000D01*
X139744000Y-88609000D01*
X139764000Y-88594000D01*
X139785000Y-88580000D01*
X139807000Y-88568000D01*
X139830000Y-88559000D01*
X139854000Y-88551000D01*
X139879000Y-88545000D01*
X139903000Y-88542000D01*
X139929000Y-88540000D01*
X139954000Y-88540000D01*
X139979000Y-88543000D01*
G37*
G36*
X140779000Y-88543000D02*
G01*
X140803000Y-88548000D01*
X140828000Y-88555000D01*
X140851000Y-88563000D01*
X140874000Y-88574000D01*
X140896000Y-88587000D01*
X140916000Y-88601000D01*
X140936000Y-88617000D01*
X140954000Y-88635000D01*
X140970000Y-88654000D01*
X140985000Y-88674000D01*
X140998000Y-88695000D01*
X141009000Y-88718000D01*
X141018000Y-88741000D01*
X141025000Y-88765000D01*
X141031000Y-88790000D01*
X141034000Y-88815000D01*
X141035000Y-88840000D01*
X141034000Y-88865000D01*
X141031000Y-88890000D01*
X141025000Y-88914000D01*
X141018000Y-88939000D01*
X141009000Y-88962000D01*
X140998000Y-88984000D01*
X140985000Y-89006000D01*
X140970000Y-89026000D01*
X140954000Y-89045000D01*
X140936000Y-89063000D01*
X140916000Y-89079000D01*
X140896000Y-89093000D01*
X140874000Y-89106000D01*
X140851000Y-89116000D01*
X140828000Y-89125000D01*
X140803000Y-89132000D01*
X140779000Y-89137000D01*
X140754000Y-89139000D01*
X140729000Y-89140000D01*
X140704000Y-89138000D01*
X140679000Y-89135000D01*
X140654000Y-89129000D01*
X140630000Y-89121000D01*
X140607000Y-89111000D01*
X140585000Y-89100000D01*
X140564000Y-89086000D01*
X140544000Y-89071000D01*
X140525000Y-89054000D01*
X140508000Y-89036000D01*
X140492000Y-89016000D01*
X140478000Y-88995000D01*
X140466000Y-88973000D01*
X140456000Y-88950000D01*
X140448000Y-88927000D01*
X140441000Y-88902000D01*
X140437000Y-88877000D01*
X140435000Y-88852000D01*
X140435000Y-88827000D01*
X140437000Y-88802000D01*
X140441000Y-88777000D01*
X140448000Y-88753000D01*
X140456000Y-88729000D01*
X140466000Y-88706000D01*
X140478000Y-88684000D01*
X140492000Y-88664000D01*
X140508000Y-88644000D01*
X140525000Y-88626000D01*
X140544000Y-88609000D01*
X140564000Y-88594000D01*
X140585000Y-88580000D01*
X140607000Y-88568000D01*
X140630000Y-88559000D01*
X140654000Y-88551000D01*
X140679000Y-88545000D01*
X140704000Y-88542000D01*
X140729000Y-88540000D01*
X140754000Y-88540000D01*
X140779000Y-88543000D01*
G37*
G36*
X141179000Y-89243000D02*
G01*
X141203000Y-89248000D01*
X141227000Y-89255000D01*
X141251000Y-89263000D01*
X141274000Y-89274000D01*
X141295000Y-89287000D01*
X141316000Y-89301000D01*
X141335000Y-89317000D01*
X141353000Y-89335000D01*
X141370000Y-89354000D01*
X141385000Y-89374000D01*
X141398000Y-89395000D01*
X141409000Y-89418000D01*
X141418000Y-89441000D01*
X141425000Y-89465000D01*
X141431000Y-89490000D01*
X141434000Y-89515000D01*
X141435000Y-89540000D01*
X141434000Y-89565000D01*
X141431000Y-89590000D01*
X141425000Y-89614000D01*
X141418000Y-89639000D01*
X141409000Y-89662000D01*
X141398000Y-89684000D01*
X141385000Y-89706000D01*
X141370000Y-89726000D01*
X141353000Y-89745000D01*
X141335000Y-89763000D01*
X141316000Y-89779000D01*
X141295000Y-89793000D01*
X141274000Y-89806000D01*
X141251000Y-89816000D01*
X141227000Y-89825000D01*
X141203000Y-89832000D01*
X141179000Y-89837000D01*
X141154000Y-89839000D01*
X141128000Y-89840000D01*
X141103000Y-89838000D01*
X141079000Y-89835000D01*
X141054000Y-89829000D01*
X141030000Y-89821000D01*
X141007000Y-89811000D01*
X140985000Y-89800000D01*
X140963000Y-89786000D01*
X140943000Y-89771000D01*
X140925000Y-89754000D01*
X140908000Y-89736000D01*
X140892000Y-89716000D01*
X140878000Y-89695000D01*
X140866000Y-89673000D01*
X140856000Y-89650000D01*
X140848000Y-89627000D01*
X140841000Y-89602000D01*
X140837000Y-89577000D01*
X140835000Y-89552000D01*
X140835000Y-89527000D01*
X140837000Y-89502000D01*
X140841000Y-89478000D01*
X140848000Y-89453000D01*
X140856000Y-89429000D01*
X140866000Y-89406000D01*
X140878000Y-89384000D01*
X140892000Y-89364000D01*
X140908000Y-89344000D01*
X140925000Y-89326000D01*
X140943000Y-89309000D01*
X140963000Y-89294000D01*
X140985000Y-89280000D01*
X141007000Y-89268000D01*
X141030000Y-89259000D01*
X141054000Y-89251000D01*
X141079000Y-89245000D01*
X141103000Y-89242000D01*
X141128000Y-89240000D01*
X141154000Y-89240000D01*
X141179000Y-89243000D01*
G37*
G36*
X141579000Y-88543000D02*
G01*
X141603000Y-88548000D01*
X141627000Y-88555000D01*
X141651000Y-88563000D01*
X141674000Y-88574000D01*
X141696000Y-88587000D01*
X141716000Y-88601000D01*
X141736000Y-88617000D01*
X141753000Y-88635000D01*
X141770000Y-88654000D01*
X141785000Y-88674000D01*
X141798000Y-88695000D01*
X141809000Y-88718000D01*
X141818000Y-88741000D01*
X141825000Y-88765000D01*
X141831000Y-88790000D01*
X141834000Y-88815000D01*
X141835000Y-88840000D01*
X141834000Y-88865000D01*
X141831000Y-88890000D01*
X141825000Y-88914000D01*
X141818000Y-88939000D01*
X141809000Y-88962000D01*
X141798000Y-88984000D01*
X141785000Y-89006000D01*
X141770000Y-89026000D01*
X141753000Y-89045000D01*
X141736000Y-89063000D01*
X141716000Y-89079000D01*
X141696000Y-89093000D01*
X141674000Y-89106000D01*
X141651000Y-89116000D01*
X141627000Y-89125000D01*
X141603000Y-89132000D01*
X141579000Y-89137000D01*
X141554000Y-89139000D01*
X141528000Y-89140000D01*
X141503000Y-89138000D01*
X141479000Y-89135000D01*
X141454000Y-89129000D01*
X141430000Y-89121000D01*
X141407000Y-89111000D01*
X141385000Y-89100000D01*
X141364000Y-89086000D01*
X141344000Y-89071000D01*
X141325000Y-89054000D01*
X141308000Y-89036000D01*
X141292000Y-89016000D01*
X141278000Y-88995000D01*
X141266000Y-88973000D01*
X141256000Y-88950000D01*
X141248000Y-88927000D01*
X141241000Y-88902000D01*
X141237000Y-88877000D01*
X141235000Y-88852000D01*
X141235000Y-88827000D01*
X141237000Y-88802000D01*
X141241000Y-88777000D01*
X141248000Y-88753000D01*
X141256000Y-88729000D01*
X141266000Y-88706000D01*
X141278000Y-88684000D01*
X141292000Y-88664000D01*
X141308000Y-88644000D01*
X141325000Y-88626000D01*
X141344000Y-88609000D01*
X141364000Y-88594000D01*
X141385000Y-88580000D01*
X141407000Y-88568000D01*
X141430000Y-88559000D01*
X141454000Y-88551000D01*
X141479000Y-88545000D01*
X141503000Y-88542000D01*
X141528000Y-88540000D01*
X141554000Y-88540000D01*
X141579000Y-88543000D01*
G37*
G36*
X141979000Y-89243000D02*
G01*
X142003000Y-89248000D01*
X142028000Y-89255000D01*
X142051000Y-89263000D01*
X142074000Y-89274000D01*
X142096000Y-89287000D01*
X142116000Y-89301000D01*
X142136000Y-89317000D01*
X142154000Y-89335000D01*
X142170000Y-89354000D01*
X142185000Y-89374000D01*
X142198000Y-89395000D01*
X142209000Y-89418000D01*
X142218000Y-89441000D01*
X142225000Y-89465000D01*
X142231000Y-89490000D01*
X142234000Y-89515000D01*
X142235000Y-89540000D01*
X142234000Y-89565000D01*
X142231000Y-89590000D01*
X142225000Y-89614000D01*
X142218000Y-89639000D01*
X142209000Y-89662000D01*
X142198000Y-89684000D01*
X142185000Y-89706000D01*
X142170000Y-89726000D01*
X142154000Y-89745000D01*
X142136000Y-89763000D01*
X142116000Y-89779000D01*
X142096000Y-89793000D01*
X142074000Y-89806000D01*
X142051000Y-89816000D01*
X142028000Y-89825000D01*
X142003000Y-89832000D01*
X141979000Y-89837000D01*
X141954000Y-89839000D01*
X141929000Y-89840000D01*
X141903000Y-89838000D01*
X141879000Y-89835000D01*
X141854000Y-89829000D01*
X141830000Y-89821000D01*
X141807000Y-89811000D01*
X141785000Y-89800000D01*
X141764000Y-89786000D01*
X141744000Y-89771000D01*
X141725000Y-89754000D01*
X141708000Y-89736000D01*
X141692000Y-89716000D01*
X141678000Y-89695000D01*
X141666000Y-89673000D01*
X141656000Y-89650000D01*
X141648000Y-89627000D01*
X141641000Y-89602000D01*
X141637000Y-89577000D01*
X141635000Y-89552000D01*
X141635000Y-89527000D01*
X141637000Y-89502000D01*
X141641000Y-89478000D01*
X141648000Y-89453000D01*
X141656000Y-89429000D01*
X141666000Y-89406000D01*
X141678000Y-89384000D01*
X141692000Y-89364000D01*
X141708000Y-89344000D01*
X141725000Y-89326000D01*
X141744000Y-89309000D01*
X141764000Y-89294000D01*
X141785000Y-89280000D01*
X141807000Y-89268000D01*
X141830000Y-89259000D01*
X141854000Y-89251000D01*
X141879000Y-89245000D01*
X141903000Y-89242000D01*
X141929000Y-89240000D01*
X141954000Y-89240000D01*
X141979000Y-89243000D01*
G37*
G36*
X142779000Y-89243000D02*
G01*
X142803000Y-89248000D01*
X142828000Y-89255000D01*
X142851000Y-89263000D01*
X142874000Y-89274000D01*
X142896000Y-89287000D01*
X142916000Y-89301000D01*
X142936000Y-89317000D01*
X142954000Y-89335000D01*
X142970000Y-89354000D01*
X142985000Y-89374000D01*
X142998000Y-89395000D01*
X143009000Y-89418000D01*
X143018000Y-89441000D01*
X143025000Y-89465000D01*
X143031000Y-89490000D01*
X143034000Y-89515000D01*
X143035000Y-89540000D01*
X143034000Y-89565000D01*
X143031000Y-89590000D01*
X143025000Y-89614000D01*
X143018000Y-89639000D01*
X143009000Y-89662000D01*
X142998000Y-89684000D01*
X142985000Y-89706000D01*
X142970000Y-89726000D01*
X142954000Y-89745000D01*
X142936000Y-89763000D01*
X142916000Y-89779000D01*
X142896000Y-89793000D01*
X142874000Y-89806000D01*
X142851000Y-89816000D01*
X142828000Y-89825000D01*
X142803000Y-89832000D01*
X142779000Y-89837000D01*
X142754000Y-89839000D01*
X142729000Y-89840000D01*
X142704000Y-89838000D01*
X142679000Y-89835000D01*
X142654000Y-89829000D01*
X142630000Y-89821000D01*
X142607000Y-89811000D01*
X142585000Y-89800000D01*
X142564000Y-89786000D01*
X142544000Y-89771000D01*
X142525000Y-89754000D01*
X142508000Y-89736000D01*
X142492000Y-89716000D01*
X142478000Y-89695000D01*
X142466000Y-89673000D01*
X142456000Y-89650000D01*
X142448000Y-89627000D01*
X142441000Y-89602000D01*
X142437000Y-89577000D01*
X142435000Y-89552000D01*
X142435000Y-89527000D01*
X142437000Y-89502000D01*
X142441000Y-89478000D01*
X142448000Y-89453000D01*
X142456000Y-89429000D01*
X142466000Y-89406000D01*
X142478000Y-89384000D01*
X142492000Y-89364000D01*
X142508000Y-89344000D01*
X142525000Y-89326000D01*
X142544000Y-89309000D01*
X142564000Y-89294000D01*
X142585000Y-89280000D01*
X142607000Y-89268000D01*
X142630000Y-89259000D01*
X142654000Y-89251000D01*
X142679000Y-89245000D01*
X142704000Y-89242000D01*
X142729000Y-89240000D01*
X142754000Y-89240000D01*
X142779000Y-89243000D01*
G37*
G36*
X143179000Y-88543000D02*
G01*
X143203000Y-88548000D01*
X143227000Y-88555000D01*
X143251000Y-88563000D01*
X143274000Y-88574000D01*
X143295000Y-88587000D01*
X143316000Y-88601000D01*
X143335000Y-88617000D01*
X143353000Y-88635000D01*
X143370000Y-88654000D01*
X143385000Y-88674000D01*
X143398000Y-88695000D01*
X143409000Y-88718000D01*
X143418000Y-88741000D01*
X143425000Y-88765000D01*
X143431000Y-88790000D01*
X143434000Y-88815000D01*
X143435000Y-88840000D01*
X143434000Y-88865000D01*
X143431000Y-88890000D01*
X143425000Y-88914000D01*
X143418000Y-88939000D01*
X143409000Y-88962000D01*
X143398000Y-88984000D01*
X143385000Y-89006000D01*
X143370000Y-89026000D01*
X143353000Y-89045000D01*
X143335000Y-89063000D01*
X143316000Y-89079000D01*
X143295000Y-89093000D01*
X143274000Y-89106000D01*
X143251000Y-89116000D01*
X143227000Y-89125000D01*
X143203000Y-89132000D01*
X143179000Y-89137000D01*
X143154000Y-89139000D01*
X143128000Y-89140000D01*
X143103000Y-89138000D01*
X143079000Y-89135000D01*
X143054000Y-89129000D01*
X143030000Y-89121000D01*
X143007000Y-89111000D01*
X142985000Y-89100000D01*
X142963000Y-89086000D01*
X142943000Y-89071000D01*
X142925000Y-89054000D01*
X142908000Y-89036000D01*
X142892000Y-89016000D01*
X142878000Y-88995000D01*
X142866000Y-88973000D01*
X142856000Y-88950000D01*
X142848000Y-88927000D01*
X142841000Y-88902000D01*
X142837000Y-88877000D01*
X142835000Y-88852000D01*
X142835000Y-88827000D01*
X142837000Y-88802000D01*
X142841000Y-88777000D01*
X142848000Y-88753000D01*
X142856000Y-88729000D01*
X142866000Y-88706000D01*
X142878000Y-88684000D01*
X142892000Y-88664000D01*
X142908000Y-88644000D01*
X142925000Y-88626000D01*
X142943000Y-88609000D01*
X142963000Y-88594000D01*
X142985000Y-88580000D01*
X143007000Y-88568000D01*
X143030000Y-88559000D01*
X143054000Y-88551000D01*
X143079000Y-88545000D01*
X143103000Y-88542000D01*
X143128000Y-88540000D01*
X143154000Y-88540000D01*
X143179000Y-88543000D01*
G37*
G36*
X135887000Y-92931000D02*
G01*
X135912000Y-92934000D01*
X135937000Y-92938000D01*
X135961000Y-92942000D01*
X135985000Y-92949000D01*
X136009000Y-92956000D01*
X136033000Y-92965000D01*
X136056000Y-92974000D01*
X136078000Y-92985000D01*
X136100000Y-92997000D01*
X136121000Y-93010000D01*
X136142000Y-93024000D01*
X136162000Y-93039000D01*
X136181000Y-93055000D01*
X136199000Y-93072000D01*
X136217000Y-93090000D01*
X136233000Y-93109000D01*
X136249000Y-93128000D01*
X136263000Y-93148000D01*
X136277000Y-93169000D01*
X136289000Y-93191000D01*
X136300000Y-93213000D01*
X136311000Y-93236000D01*
X136320000Y-93259000D01*
X136328000Y-93283000D01*
X136335000Y-93307000D01*
X136340000Y-93331000D01*
X136344000Y-93355000D01*
X136348000Y-93380000D01*
X136349000Y-93405000D01*
X136350000Y-93430000D01*
X136350000Y-94230000D01*
X136349000Y-94255000D01*
X136348000Y-94280000D01*
X136344000Y-94304000D01*
X136340000Y-94329000D01*
X136335000Y-94353000D01*
X136328000Y-94377000D01*
X136320000Y-94401000D01*
X136311000Y-94424000D01*
X136300000Y-94447000D01*
X136289000Y-94469000D01*
X136277000Y-94491000D01*
X136263000Y-94512000D01*
X136249000Y-94532000D01*
X136233000Y-94551000D01*
X136217000Y-94570000D01*
X136199000Y-94588000D01*
X136181000Y-94605000D01*
X136162000Y-94621000D01*
X136142000Y-94636000D01*
X136121000Y-94650000D01*
X136100000Y-94663000D01*
X136078000Y-94675000D01*
X136056000Y-94686000D01*
X136033000Y-94695000D01*
X136009000Y-94704000D01*
X135985000Y-94711000D01*
X135961000Y-94717000D01*
X135937000Y-94722000D01*
X135912000Y-94726000D01*
X135887000Y-94729000D01*
X135862000Y-94730000D01*
X135838000Y-94730000D01*
X135813000Y-94729000D01*
X135788000Y-94726000D01*
X135763000Y-94722000D01*
X135739000Y-94717000D01*
X135715000Y-94711000D01*
X135691000Y-94704000D01*
X135667000Y-94695000D01*
X135644000Y-94686000D01*
X135622000Y-94675000D01*
X135600000Y-94663000D01*
X135579000Y-94650000D01*
X135558000Y-94636000D01*
X135538000Y-94621000D01*
X135519000Y-94605000D01*
X135501000Y-94588000D01*
X135483000Y-94570000D01*
X135467000Y-94551000D01*
X135451000Y-94532000D01*
X135437000Y-94512000D01*
X135423000Y-94491000D01*
X135411000Y-94469000D01*
X135400000Y-94447000D01*
X135389000Y-94424000D01*
X135380000Y-94401000D01*
X135372000Y-94377000D01*
X135365000Y-94353000D01*
X135360000Y-94329000D01*
X135356000Y-94304000D01*
X135352000Y-94280000D01*
X135351000Y-94255000D01*
X135350000Y-94230000D01*
X135350000Y-93430000D01*
X135351000Y-93405000D01*
X135352000Y-93380000D01*
X135356000Y-93355000D01*
X135360000Y-93331000D01*
X135365000Y-93307000D01*
X135372000Y-93283000D01*
X135380000Y-93259000D01*
X135389000Y-93236000D01*
X135400000Y-93213000D01*
X135411000Y-93191000D01*
X135423000Y-93169000D01*
X135437000Y-93148000D01*
X135451000Y-93128000D01*
X135467000Y-93109000D01*
X135483000Y-93090000D01*
X135501000Y-93072000D01*
X135519000Y-93055000D01*
X135538000Y-93039000D01*
X135558000Y-93024000D01*
X135579000Y-93010000D01*
X135600000Y-92997000D01*
X135622000Y-92985000D01*
X135644000Y-92974000D01*
X135667000Y-92965000D01*
X135691000Y-92956000D01*
X135715000Y-92949000D01*
X135739000Y-92942000D01*
X135763000Y-92938000D01*
X135788000Y-92934000D01*
X135813000Y-92931000D01*
X135838000Y-92930000D01*
X135862000Y-92930000D01*
X135887000Y-92931000D01*
G37*
G36*
X136247000Y-88591000D02*
G01*
X136272000Y-88594000D01*
X136297000Y-88597000D01*
X136321000Y-88602000D01*
X136345000Y-88609000D01*
X136369000Y-88616000D01*
X136393000Y-88624000D01*
X136416000Y-88634000D01*
X136438000Y-88645000D01*
X136460000Y-88657000D01*
X136481000Y-88670000D01*
X136502000Y-88684000D01*
X136522000Y-88699000D01*
X136541000Y-88715000D01*
X136559000Y-88732000D01*
X136576000Y-88750000D01*
X136593000Y-88768000D01*
X136608000Y-88788000D01*
X136623000Y-88808000D01*
X136637000Y-88829000D01*
X136649000Y-88851000D01*
X136660000Y-88873000D01*
X136671000Y-88896000D01*
X136680000Y-88919000D01*
X136688000Y-88942000D01*
X136694000Y-88966000D01*
X136700000Y-88991000D01*
X136704000Y-89015000D01*
X136707000Y-89040000D01*
X136709000Y-89065000D01*
X136710000Y-89090000D01*
X136710000Y-89790000D01*
X136709000Y-89815000D01*
X136707000Y-89840000D01*
X136704000Y-89864000D01*
X136700000Y-89889000D01*
X136694000Y-89913000D01*
X136688000Y-89937000D01*
X136680000Y-89961000D01*
X136671000Y-89984000D01*
X136660000Y-90007000D01*
X136649000Y-90029000D01*
X136637000Y-90051000D01*
X136623000Y-90071000D01*
X136608000Y-90092000D01*
X136593000Y-90111000D01*
X136576000Y-90130000D01*
X136559000Y-90148000D01*
X136541000Y-90165000D01*
X136522000Y-90181000D01*
X136502000Y-90196000D01*
X136481000Y-90210000D01*
X136460000Y-90223000D01*
X136438000Y-90235000D01*
X136416000Y-90246000D01*
X136393000Y-90255000D01*
X136369000Y-90264000D01*
X136345000Y-90271000D01*
X136321000Y-90277000D01*
X136297000Y-90282000D01*
X136272000Y-90286000D01*
X136247000Y-90288000D01*
X136222000Y-90290000D01*
X136197000Y-90290000D01*
X136173000Y-90288000D01*
X136148000Y-90286000D01*
X136123000Y-90282000D01*
X136099000Y-90277000D01*
X136075000Y-90271000D01*
X136051000Y-90264000D01*
X136027000Y-90255000D01*
X136004000Y-90246000D01*
X135982000Y-90235000D01*
X135960000Y-90223000D01*
X135939000Y-90210000D01*
X135918000Y-90196000D01*
X135898000Y-90181000D01*
X135879000Y-90165000D01*
X135861000Y-90148000D01*
X135843000Y-90130000D01*
X135827000Y-90111000D01*
X135811000Y-90092000D01*
X135797000Y-90071000D01*
X135783000Y-90051000D01*
X135771000Y-90029000D01*
X135759000Y-90007000D01*
X135749000Y-89984000D01*
X135740000Y-89961000D01*
X135732000Y-89937000D01*
X135725000Y-89913000D01*
X135720000Y-89889000D01*
X135716000Y-89864000D01*
X135712000Y-89840000D01*
X135711000Y-89815000D01*
X135710000Y-89790000D01*
X135710000Y-89090000D01*
X135711000Y-89065000D01*
X135712000Y-89040000D01*
X135716000Y-89015000D01*
X135720000Y-88991000D01*
X135725000Y-88966000D01*
X135732000Y-88942000D01*
X135740000Y-88919000D01*
X135749000Y-88896000D01*
X135759000Y-88873000D01*
X135771000Y-88851000D01*
X135783000Y-88829000D01*
X135797000Y-88808000D01*
X135811000Y-88788000D01*
X135827000Y-88768000D01*
X135843000Y-88750000D01*
X135861000Y-88732000D01*
X135879000Y-88715000D01*
X135898000Y-88699000D01*
X135918000Y-88684000D01*
X135939000Y-88670000D01*
X135960000Y-88657000D01*
X135982000Y-88645000D01*
X136004000Y-88634000D01*
X136027000Y-88624000D01*
X136051000Y-88616000D01*
X136075000Y-88609000D01*
X136099000Y-88602000D01*
X136123000Y-88597000D01*
X136148000Y-88594000D01*
X136173000Y-88591000D01*
X136197000Y-88590000D01*
X136222000Y-88590000D01*
X136247000Y-88591000D01*
G37*
G36*
X144497000Y-88591000D02*
G01*
X144522000Y-88594000D01*
X144547000Y-88597000D01*
X144571000Y-88602000D01*
X144595000Y-88609000D01*
X144619000Y-88616000D01*
X144643000Y-88624000D01*
X144665000Y-88634000D01*
X144688000Y-88645000D01*
X144710000Y-88657000D01*
X144731000Y-88670000D01*
X144752000Y-88684000D01*
X144772000Y-88699000D01*
X144791000Y-88715000D01*
X144809000Y-88732000D01*
X144826000Y-88750000D01*
X144843000Y-88768000D01*
X144858000Y-88788000D01*
X144873000Y-88808000D01*
X144886000Y-88829000D01*
X144899000Y-88851000D01*
X144910000Y-88873000D01*
X144921000Y-88896000D01*
X144930000Y-88919000D01*
X144938000Y-88942000D01*
X144944000Y-88966000D01*
X144950000Y-88991000D01*
X144954000Y-89015000D01*
X144957000Y-89040000D01*
X144959000Y-89065000D01*
X144960000Y-89090000D01*
X144960000Y-89790000D01*
X144959000Y-89815000D01*
X144957000Y-89840000D01*
X144954000Y-89864000D01*
X144950000Y-89889000D01*
X144944000Y-89913000D01*
X144938000Y-89937000D01*
X144930000Y-89961000D01*
X144921000Y-89984000D01*
X144910000Y-90007000D01*
X144899000Y-90029000D01*
X144886000Y-90051000D01*
X144873000Y-90071000D01*
X144858000Y-90092000D01*
X144843000Y-90111000D01*
X144826000Y-90130000D01*
X144809000Y-90148000D01*
X144791000Y-90165000D01*
X144772000Y-90181000D01*
X144752000Y-90196000D01*
X144731000Y-90210000D01*
X144710000Y-90223000D01*
X144688000Y-90235000D01*
X144665000Y-90246000D01*
X144643000Y-90255000D01*
X144619000Y-90264000D01*
X144595000Y-90271000D01*
X144571000Y-90277000D01*
X144547000Y-90282000D01*
X144522000Y-90286000D01*
X144497000Y-90288000D01*
X144472000Y-90290000D01*
X144447000Y-90290000D01*
X144422000Y-90288000D01*
X144398000Y-90286000D01*
X144373000Y-90282000D01*
X144349000Y-90277000D01*
X144324000Y-90271000D01*
X144301000Y-90264000D01*
X144277000Y-90255000D01*
X144254000Y-90246000D01*
X144232000Y-90235000D01*
X144210000Y-90223000D01*
X144189000Y-90210000D01*
X144168000Y-90196000D01*
X144148000Y-90181000D01*
X144129000Y-90165000D01*
X144111000Y-90148000D01*
X144093000Y-90130000D01*
X144077000Y-90111000D01*
X144061000Y-90092000D01*
X144047000Y-90071000D01*
X144033000Y-90051000D01*
X144021000Y-90029000D01*
X144009000Y-90007000D01*
X143999000Y-89984000D01*
X143990000Y-89961000D01*
X143982000Y-89937000D01*
X143975000Y-89913000D01*
X143970000Y-89889000D01*
X143965000Y-89864000D01*
X143962000Y-89840000D01*
X143960000Y-89815000D01*
X143960000Y-89790000D01*
X143960000Y-89090000D01*
X143960000Y-89065000D01*
X143962000Y-89040000D01*
X143965000Y-89015000D01*
X143970000Y-88991000D01*
X143975000Y-88966000D01*
X143982000Y-88942000D01*
X143990000Y-88919000D01*
X143999000Y-88896000D01*
X144009000Y-88873000D01*
X144021000Y-88851000D01*
X144033000Y-88829000D01*
X144047000Y-88808000D01*
X144061000Y-88788000D01*
X144077000Y-88768000D01*
X144093000Y-88750000D01*
X144111000Y-88732000D01*
X144129000Y-88715000D01*
X144148000Y-88699000D01*
X144168000Y-88684000D01*
X144189000Y-88670000D01*
X144210000Y-88657000D01*
X144232000Y-88645000D01*
X144254000Y-88634000D01*
X144277000Y-88624000D01*
X144301000Y-88616000D01*
X144324000Y-88609000D01*
X144349000Y-88602000D01*
X144373000Y-88597000D01*
X144398000Y-88594000D01*
X144422000Y-88591000D01*
X144447000Y-88590000D01*
X144472000Y-88590000D01*
X144497000Y-88591000D01*
G37*
G36*
X144857000Y-92931000D02*
G01*
X144882000Y-92934000D01*
X144907000Y-92938000D01*
X144931000Y-92942000D01*
X144955000Y-92949000D01*
X144979000Y-92956000D01*
X145003000Y-92965000D01*
X145026000Y-92974000D01*
X145048000Y-92985000D01*
X145070000Y-92997000D01*
X145091000Y-93010000D01*
X145112000Y-93024000D01*
X145132000Y-93039000D01*
X145151000Y-93055000D01*
X145169000Y-93072000D01*
X145187000Y-93090000D01*
X145203000Y-93109000D01*
X145219000Y-93128000D01*
X145233000Y-93148000D01*
X145247000Y-93169000D01*
X145259000Y-93191000D01*
X145270000Y-93213000D01*
X145281000Y-93236000D01*
X145290000Y-93259000D01*
X145298000Y-93283000D01*
X145305000Y-93307000D01*
X145310000Y-93331000D01*
X145314000Y-93355000D01*
X145318000Y-93380000D01*
X145319000Y-93405000D01*
X145320000Y-93430000D01*
X145320000Y-94230000D01*
X145319000Y-94255000D01*
X145318000Y-94280000D01*
X145314000Y-94304000D01*
X145310000Y-94329000D01*
X145305000Y-94353000D01*
X145298000Y-94377000D01*
X145290000Y-94401000D01*
X145281000Y-94424000D01*
X145270000Y-94447000D01*
X145259000Y-94469000D01*
X145247000Y-94491000D01*
X145233000Y-94512000D01*
X145219000Y-94532000D01*
X145203000Y-94551000D01*
X145187000Y-94570000D01*
X145169000Y-94588000D01*
X145151000Y-94605000D01*
X145132000Y-94621000D01*
X145112000Y-94636000D01*
X145091000Y-94650000D01*
X145070000Y-94663000D01*
X145048000Y-94675000D01*
X145026000Y-94686000D01*
X145003000Y-94695000D01*
X144979000Y-94704000D01*
X144955000Y-94711000D01*
X144931000Y-94717000D01*
X144907000Y-94722000D01*
X144882000Y-94726000D01*
X144857000Y-94729000D01*
X144832000Y-94730000D01*
X144808000Y-94730000D01*
X144783000Y-94729000D01*
X144758000Y-94726000D01*
X144733000Y-94722000D01*
X144709000Y-94717000D01*
X144685000Y-94711000D01*
X144661000Y-94704000D01*
X144637000Y-94695000D01*
X144614000Y-94686000D01*
X144592000Y-94675000D01*
X144570000Y-94663000D01*
X144549000Y-94650000D01*
X144528000Y-94636000D01*
X144508000Y-94621000D01*
X144489000Y-94605000D01*
X144471000Y-94588000D01*
X144453000Y-94570000D01*
X144437000Y-94551000D01*
X144421000Y-94532000D01*
X144407000Y-94512000D01*
X144393000Y-94491000D01*
X144381000Y-94469000D01*
X144370000Y-94447000D01*
X144359000Y-94424000D01*
X144350000Y-94401000D01*
X144342000Y-94377000D01*
X144335000Y-94353000D01*
X144330000Y-94329000D01*
X144326000Y-94304000D01*
X144322000Y-94280000D01*
X144321000Y-94255000D01*
X144320000Y-94230000D01*
X144320000Y-93430000D01*
X144321000Y-93405000D01*
X144322000Y-93380000D01*
X144326000Y-93355000D01*
X144330000Y-93331000D01*
X144335000Y-93307000D01*
X144342000Y-93283000D01*
X144350000Y-93259000D01*
X144359000Y-93236000D01*
X144370000Y-93213000D01*
X144381000Y-93191000D01*
X144393000Y-93169000D01*
X144407000Y-93148000D01*
X144421000Y-93128000D01*
X144437000Y-93109000D01*
X144453000Y-93090000D01*
X144471000Y-93072000D01*
X144489000Y-93055000D01*
X144508000Y-93039000D01*
X144528000Y-93024000D01*
X144549000Y-93010000D01*
X144570000Y-92997000D01*
X144592000Y-92985000D01*
X144614000Y-92974000D01*
X144637000Y-92965000D01*
X144661000Y-92956000D01*
X144685000Y-92949000D01*
X144709000Y-92942000D01*
X144733000Y-92938000D01*
X144758000Y-92934000D01*
X144783000Y-92931000D01*
X144808000Y-92930000D01*
X144832000Y-92930000D01*
X144857000Y-92931000D01*
G37*
%TD*%
D10*
%TO.C,J2*%
X136210000Y-89440000D03*
D11*
X135850000Y-93830000D03*
X144820000Y-93830000D03*
D10*
X144460000Y-89440000D03*
D12*
X137585000Y-87630000D03*
X138085000Y-87630000D03*
X138585000Y-87630000D03*
X139085000Y-87630000D03*
X139585000Y-87630000D03*
X140085000Y-87630000D03*
X140585000Y-87630000D03*
X141085000Y-87630000D03*
X141585000Y-87630000D03*
X142085000Y-87630000D03*
X142585000Y-87630000D03*
X143085000Y-87630000D03*
D13*
X143135000Y-88840000D03*
X142735000Y-89540000D03*
X141935000Y-89540000D03*
X141535000Y-88840000D03*
X141135000Y-89540000D03*
X140735000Y-88840000D03*
X139935000Y-88840000D03*
X139535000Y-89540000D03*
X139135000Y-88840000D03*
X138735000Y-89540000D03*
X137935000Y-89540000D03*
X137535000Y-88840000D03*
%TD*%
M02*
