%TF.GenerationSoftware,KiCad,Pcbnew,7.0.5*%
%TF.CreationDate,2024-02-15T12:52:28-05:00*%
%TF.ProjectId,SaberCord_Copy_Male,53616265-7243-46f7-9264-5f436f70795f,rev?*%
%TF.SameCoordinates,Original*%
%TF.FileFunction,Copper,L2,Bot*%
%TF.FilePolarity,Positive*%
%FSLAX46Y46*%
G04 Gerber Fmt 4.6, Leading zero omitted, Abs format (unit mm)*
G04 Created by KiCad (PCBNEW 7.0.5) date 2024-02-15 12:52:28*
%MOMM*%
%LPD*%
G01*
G04 APERTURE LIST*
%TA.AperFunction,ComponentPad*%
%ADD10C,0.600000*%
%TD*%
%TA.AperFunction,ComponentPad*%
%ADD11O,0.800000X1.400000*%
%TD*%
%TA.AperFunction,ComponentPad*%
%ADD12C,1.828800*%
%TD*%
%TA.AperFunction,ViaPad*%
%ADD13C,0.800000*%
%TD*%
%TA.AperFunction,Conductor*%
%ADD14C,0.400000*%
%TD*%
%TA.AperFunction,Conductor*%
%ADD15C,0.300000*%
%TD*%
G04 APERTURE END LIST*
D10*
%TO.P,J2,B1,b1*%
%TO.N,GND*%
X143135000Y-88990000D03*
%TO.P,J2,B2,b2*%
%TO.N,/CAN2_H*%
X142735000Y-89690000D03*
%TO.P,J2,B3,b3*%
%TO.N,/CAN2_L*%
X141935000Y-89690000D03*
%TO.P,J2,B4,b4*%
%TO.N,+12V*%
X141535000Y-88990000D03*
%TO.P,J2,B5,b5*%
%TO.N,unconnected-(J2-b5-PadB5)*%
X141135000Y-89690000D03*
%TO.P,J2,B6,b6*%
%TO.N,unconnected-(J2-b6-PadB6)*%
X140735000Y-88990000D03*
%TO.P,J2,B7,b7*%
%TO.N,unconnected-(J2-b7-PadB7)*%
X139935000Y-88990000D03*
%TO.P,J2,B8,b8*%
%TO.N,/SBU2*%
X139535000Y-89690000D03*
%TO.P,J2,B9,b9*%
%TO.N,+12V*%
X139135000Y-88990000D03*
%TO.P,J2,B10,b10*%
%TO.N,/CAN3_L*%
X138735000Y-89690000D03*
%TO.P,J2,B11,b11*%
%TO.N,/CAN3_H*%
X137935000Y-89690000D03*
%TO.P,J2,B12,b12*%
%TO.N,GND*%
X137535000Y-88990000D03*
D11*
%TO.P,J2,S1*%
%TO.N,N/C*%
X136205000Y-89580000D03*
%TO.P,J2,S2*%
X144465000Y-89580000D03*
%TO.P,J2,S3*%
X135845000Y-93980000D03*
%TO.P,J2,S4*%
X144825000Y-93980000D03*
%TD*%
D12*
%TO.P,J1,1,Pin_1a*%
%TO.N,GND*%
X128143000Y-77724000D03*
%TO.P,J1,2,Pin_2a*%
%TO.N,/CAN0_H*%
X132207000Y-77724000D03*
%TO.P,J1,3,Pin_3a*%
%TO.N,/CAN0_L*%
X136271000Y-77724000D03*
%TO.P,J1,4,Pin_4a*%
%TO.N,/SBU1*%
X140335000Y-77724000D03*
%TO.P,J1,5,Pin_5a*%
%TO.N,/CAN1_L*%
X144399000Y-77724000D03*
%TO.P,J1,6,Pin_6a*%
%TO.N,/CAN1_H*%
X148463000Y-77724000D03*
%TO.P,J1,7,Pin_7a*%
%TO.N,+12V*%
X152527000Y-77724000D03*
%TO.P,J1,8,Pin_1b*%
%TO.N,GND*%
X128143000Y-81788000D03*
%TO.P,J1,9,Pin_2b*%
%TO.N,/CAN2_H*%
X132207000Y-81788000D03*
%TO.P,J1,10,Pin_3b*%
%TO.N,/CAN2_L*%
X136271000Y-81788000D03*
%TO.P,J1,11,Pin_4b*%
%TO.N,/SBU2*%
X140335000Y-81788000D03*
%TO.P,J1,12,Pin_5b*%
%TO.N,/CAN3_H*%
X144399000Y-81788000D03*
%TO.P,J1,13,Pin_6b*%
%TO.N,/CAN3_L*%
X148463000Y-81788000D03*
%TO.P,J1,14,Pin_7b*%
%TO.N,+12V*%
X152527000Y-81788000D03*
%TD*%
D13*
%TO.N,/SBU2*%
X135914900Y-86208200D03*
%TD*%
D14*
%TO.N,+12V*%
X152527000Y-80518000D02*
X152527000Y-77724000D01*
X139135000Y-88840700D02*
X139706500Y-88269200D01*
X152527000Y-81788000D02*
X152527000Y-80518000D01*
X152527000Y-80518000D02*
X147920000Y-80518000D01*
X139135000Y-88990000D02*
X139135000Y-88840700D01*
X147920000Y-80518000D02*
X141535000Y-86903000D01*
X139706500Y-88269200D02*
X141535000Y-88269200D01*
X141535000Y-86903000D02*
X141535000Y-88269200D01*
X141535000Y-88269200D02*
X141535000Y-88990000D01*
%TO.N,GND*%
X128143000Y-77724000D02*
X128143000Y-81788000D01*
X136678600Y-86972500D02*
X137681100Y-87975000D01*
X133327500Y-86972500D02*
X136678600Y-86972500D01*
X137681100Y-87975000D02*
X137681100Y-88843900D01*
X128143000Y-81788000D02*
X133327500Y-86972500D01*
X137681100Y-88843900D02*
X137535000Y-88990000D01*
D15*
%TO.N,/SBU2*%
X140335000Y-81788000D02*
X135914900Y-86208100D01*
X135914900Y-86208100D02*
X135914900Y-86208200D01*
%TO.N,/CAN3_L*%
X144758800Y-90595700D02*
X139525100Y-90595700D01*
X148463000Y-81788000D02*
X148463000Y-86891500D01*
X139525100Y-90595700D02*
X138735000Y-89805600D01*
X148463000Y-86891500D02*
X144758800Y-90595700D01*
X138735000Y-89805600D02*
X138735000Y-89690000D01*
%TO.N,/CAN3_H*%
X137935000Y-89690000D02*
X137935000Y-89540100D01*
X138495800Y-87691200D02*
X144399000Y-81788000D01*
X137935000Y-89540100D02*
X138495800Y-88979300D01*
X138495800Y-88979300D02*
X138495800Y-87691200D01*
%TD*%
M02*
