%TF.GenerationSoftware,KiCad,Pcbnew,7.0.5*%
%TF.CreationDate,2024-02-16T09:22:18-05:00*%
%TF.ProjectId,female_connector,66656d61-6c65-45f6-936f-6e6e6563746f,rev?*%
%TF.SameCoordinates,Original*%
%TF.FileFunction,Copper,L1,Top*%
%TF.FilePolarity,Positive*%
%FSLAX46Y46*%
G04 Gerber Fmt 4.6, Leading zero omitted, Abs format (unit mm)*
G04 Created by KiCad (PCBNEW 7.0.5) date 2024-02-16 09:22:18*
%MOMM*%
%LPD*%
G01*
G04 APERTURE LIST*
%TA.AperFunction,SMDPad,CuDef*%
%ADD10C,1.524000*%
%TD*%
%TA.AperFunction,SMDPad,CuDef*%
%ADD11R,0.300000X0.900000*%
%TD*%
%TA.AperFunction,ComponentPad*%
%ADD12C,0.600000*%
%TD*%
%TA.AperFunction,ComponentPad*%
%ADD13O,0.800000X1.400000*%
%TD*%
%TA.AperFunction,ViaPad*%
%ADD14C,0.800000*%
%TD*%
%TA.AperFunction,Conductor*%
%ADD15C,0.300000*%
%TD*%
%TA.AperFunction,Conductor*%
%ADD16C,0.400000*%
%TD*%
%TA.AperFunction,Conductor*%
%ADD17C,0.299800*%
%TD*%
G04 APERTURE END LIST*
D10*
%TO.P,J1,1,Pin_1a*%
%TO.N,GND*%
X128143000Y-77724000D03*
%TO.P,J1,2,Pin_2a*%
%TO.N,/CAN2_H*%
X132207000Y-77724000D03*
%TO.P,J1,3,Pin_3a*%
%TO.N,/CAN2_L*%
X136271000Y-77724000D03*
%TO.P,J1,4,Pin_4a*%
%TO.N,/SBU2*%
X140335000Y-77724000D03*
%TO.P,J1,5,Pin_5a*%
%TO.N,/CAN3_H*%
X144399000Y-77724000D03*
%TO.P,J1,6,Pin_6a*%
%TO.N,/CAN3_L*%
X148463000Y-77724000D03*
%TO.P,J1,7,Pin_7a*%
%TO.N,+12V*%
X152527000Y-77724000D03*
%TO.P,J1,8,Pin_1b*%
%TO.N,GND*%
X128143000Y-81788000D03*
%TO.P,J1,9,Pin_2b*%
%TO.N,/CAN0_H*%
X132207000Y-81788000D03*
%TO.P,J1,10,Pin_3b*%
%TO.N,/CAN0_L*%
X136271000Y-81788000D03*
%TO.P,J1,11,Pin_4b*%
%TO.N,/SBU1*%
X140335000Y-81788000D03*
%TO.P,J1,12,Pin_5b*%
%TO.N,/CAN1_L*%
X144399000Y-81788000D03*
%TO.P,J1,13,Pin_6b*%
%TO.N,/CAN1_H*%
X148463000Y-81788000D03*
%TO.P,J1,14,Pin_7b*%
%TO.N,+12V*%
X152527000Y-81788000D03*
%TD*%
D11*
%TO.P,J2,A1,a1*%
%TO.N,GND*%
X137585000Y-87780000D03*
%TO.P,J2,A2,a2*%
%TO.N,/CAN0_H*%
X138085000Y-87780000D03*
%TO.P,J2,A3,a3*%
%TO.N,/CAN0_L*%
X138585000Y-87780000D03*
%TO.P,J2,A4,a4*%
%TO.N,+12V*%
X139085000Y-87780000D03*
%TO.P,J2,A5,a5*%
%TO.N,unconnected-(J2-a5-PadA5)*%
X139585000Y-87780000D03*
%TO.P,J2,A6,a6*%
%TO.N,unconnected-(J2-a6-PadA6)*%
X140085000Y-87780000D03*
%TO.P,J2,A7,a7*%
%TO.N,unconnected-(J2-a7-PadA7)*%
X140585000Y-87780000D03*
%TO.P,J2,A8,A8*%
%TO.N,/SBU1*%
X141085000Y-87780000D03*
%TO.P,J2,A9,a9*%
%TO.N,+12V*%
X141585000Y-87780000D03*
%TO.P,J2,A10,a10*%
%TO.N,/CAN1_L*%
X142085000Y-87780000D03*
%TO.P,J2,A11,a11*%
%TO.N,/CAN1_H*%
X142585000Y-87780000D03*
%TO.P,J2,A12,a12*%
%TO.N,GND*%
X143085000Y-87780000D03*
D12*
%TO.P,J2,B1,b1*%
X143135000Y-88990000D03*
%TO.P,J2,B2,b2*%
%TO.N,/CAN2_H*%
X142735000Y-89690000D03*
%TO.P,J2,B3,b3*%
%TO.N,/CAN2_L*%
X141935000Y-89690000D03*
%TO.P,J2,B4,b4*%
%TO.N,+12V*%
X141535000Y-88990000D03*
%TO.P,J2,B5,b5*%
%TO.N,unconnected-(J2-b5-PadB5)*%
X141135000Y-89690000D03*
%TO.P,J2,B6,b6*%
%TO.N,unconnected-(J2-b6-PadB6)*%
X140735000Y-88990000D03*
%TO.P,J2,B7,b7*%
%TO.N,unconnected-(J2-b7-PadB7)*%
X139935000Y-88990000D03*
%TO.P,J2,B8,b8*%
%TO.N,/SBU2*%
X139535000Y-89690000D03*
%TO.P,J2,B9,b9*%
%TO.N,+12V*%
X139135000Y-88990000D03*
%TO.P,J2,B10,b10*%
%TO.N,/CAN3_L*%
X138735000Y-89690000D03*
%TO.P,J2,B11,b11*%
%TO.N,/CAN3_H*%
X137935000Y-89690000D03*
%TO.P,J2,B12,b12*%
%TO.N,GND*%
X137535000Y-88990000D03*
D13*
%TO.P,J2,S1*%
%TO.N,N/C*%
X136205000Y-89580000D03*
%TO.P,J2,S2*%
X144465000Y-89580000D03*
%TO.P,J2,S3*%
X135845000Y-93980000D03*
%TO.P,J2,S4*%
X144825000Y-93980000D03*
%TD*%
D14*
%TO.N,/CAN3_H*%
X143426300Y-78696700D03*
%TO.N,/SBU2*%
X140335000Y-79056500D03*
%TO.N,/CAN2_L*%
X140052800Y-83171700D03*
%TO.N,GND*%
X136841800Y-87192900D03*
%TD*%
D15*
%TO.N,/CAN3_H*%
X143426300Y-78696700D02*
X144399000Y-77724000D01*
%TO.N,/CAN3_L*%
X150003100Y-79264100D02*
X148463000Y-77724000D01*
X150003100Y-86004400D02*
X150003100Y-79264100D01*
X144937800Y-91069700D02*
X150003100Y-86004400D01*
X139999100Y-91069700D02*
X144937800Y-91069700D01*
X138735000Y-89805600D02*
X139999100Y-91069700D01*
X138735000Y-89690000D02*
X138735000Y-89805600D01*
%TO.N,/SBU2*%
X140335000Y-79056500D02*
X140335000Y-77724000D01*
%TO.N,/CAN2_L*%
X136271000Y-79389900D02*
X140052800Y-83171700D01*
X136271000Y-77724000D02*
X136271000Y-79389900D01*
%TO.N,/CAN2_H*%
X143662800Y-90617800D02*
X142735000Y-89690000D01*
X144750700Y-90617800D02*
X143662800Y-90617800D01*
X149551200Y-85817300D02*
X144750700Y-90617800D01*
X149551200Y-81363400D02*
X149551200Y-85817300D01*
X144808200Y-76620400D02*
X149551200Y-81363400D01*
X133310600Y-76620400D02*
X144808200Y-76620400D01*
X132207000Y-77724000D02*
X133310600Y-76620400D01*
%TO.N,/CAN1_H*%
X143222900Y-87028100D02*
X148463000Y-81788000D01*
X142585000Y-87028100D02*
X143222900Y-87028100D01*
X142585000Y-87780000D02*
X142585000Y-87028100D01*
%TO.N,/CAN1_L*%
X142085000Y-84102000D02*
X144399000Y-81788000D01*
X142085000Y-87780000D02*
X142085000Y-84102000D01*
%TO.N,/SBU1*%
X141085000Y-82538000D02*
X141085000Y-87780000D01*
X140335000Y-81788000D02*
X141085000Y-82538000D01*
D16*
%TO.N,GND*%
X128143000Y-77724000D02*
X128143000Y-81788000D01*
D17*
X143047500Y-87817500D02*
X143085000Y-87780000D01*
X143047500Y-88902500D02*
X143047500Y-87817500D01*
X143135000Y-88990000D02*
X143047500Y-88902500D01*
X137437300Y-87632300D02*
X137585000Y-87780000D01*
D16*
X136997900Y-87192900D02*
X136841800Y-87192900D01*
X137437300Y-87632300D02*
X136997900Y-87192900D01*
X133547900Y-87192900D02*
X128143000Y-81788000D01*
X136841800Y-87192900D02*
X133547900Y-87192900D01*
D15*
%TO.N,/CAN0_L*%
X138583100Y-87778100D02*
X138585000Y-87780000D01*
X138583100Y-84100100D02*
X138583100Y-87778100D01*
X136271000Y-81788000D02*
X138583100Y-84100100D01*
%TO.N,/CAN0_H*%
X132844900Y-81788000D02*
X132207000Y-81788000D01*
X138085000Y-87028100D02*
X132844900Y-81788000D01*
X138085000Y-87780000D02*
X138085000Y-87028100D01*
D16*
%TO.N,+12V*%
X141585000Y-88940000D02*
X141585000Y-88582100D01*
X141535000Y-88990000D02*
X141585000Y-88940000D01*
D17*
X141585000Y-88582100D02*
X141585000Y-87780000D01*
D16*
X139085000Y-88940000D02*
X139085000Y-88582100D01*
X139135000Y-88990000D02*
X139085000Y-88940000D01*
D17*
X139085000Y-88582100D02*
X139085000Y-87780000D01*
X139085000Y-86977900D02*
X139085000Y-87780000D01*
D16*
X152527000Y-81788000D02*
X152527000Y-77724000D01*
X139085000Y-83009400D02*
X139085000Y-86977900D01*
X135045000Y-78969400D02*
X139085000Y-83009400D01*
X131845400Y-78969400D02*
X135045000Y-78969400D01*
X131084800Y-78208800D02*
X131845400Y-78969400D01*
X131084800Y-77199000D02*
X131084800Y-78208800D01*
X132171200Y-76112600D02*
X131084800Y-77199000D01*
X150915600Y-76112600D02*
X132171200Y-76112600D01*
X152527000Y-77724000D02*
X150915600Y-76112600D01*
%TD*%
M02*
