%TF.GenerationSoftware,KiCad,Pcbnew,7.0.5*%
%TF.CreationDate,2024-02-16T09:22:18-05:00*%
%TF.ProjectId,female_connector,66656d61-6c65-45f6-936f-6e6e6563746f,rev?*%
%TF.SameCoordinates,Original*%
%TF.FileFunction,Legend,Top*%
%TF.FilePolarity,Positive*%
%FSLAX46Y46*%
G04 Gerber Fmt 4.6, Leading zero omitted, Abs format (unit mm)*
G04 Created by KiCad (PCBNEW 7.0.5) date 2024-02-16 09:22:18*
%MOMM*%
%LPD*%
G01*
G04 APERTURE LIST*
%ADD10C,0.100000*%
%ADD11C,0.150000*%
%ADD12C,0.200000*%
G04 APERTURE END LIST*
D10*
%TO.C,J1*%
X131432333Y-85416895D02*
X131432333Y-85988323D01*
X131432333Y-85988323D02*
X131394238Y-86102609D01*
X131394238Y-86102609D02*
X131318047Y-86178800D01*
X131318047Y-86178800D02*
X131203762Y-86216895D01*
X131203762Y-86216895D02*
X131127571Y-86216895D01*
X132232333Y-86216895D02*
X131775190Y-86216895D01*
X132003762Y-86216895D02*
X132003762Y-85416895D01*
X132003762Y-85416895D02*
X131927571Y-85531180D01*
X131927571Y-85531180D02*
X131851381Y-85607371D01*
X131851381Y-85607371D02*
X131775190Y-85645466D01*
X151144979Y-79360895D02*
X151411646Y-80160895D01*
X151411646Y-80160895D02*
X151678312Y-79360895D01*
X152402122Y-80084704D02*
X152364026Y-80122800D01*
X152364026Y-80122800D02*
X152249741Y-80160895D01*
X152249741Y-80160895D02*
X152173550Y-80160895D01*
X152173550Y-80160895D02*
X152059264Y-80122800D01*
X152059264Y-80122800D02*
X151983074Y-80046609D01*
X151983074Y-80046609D02*
X151944979Y-79970419D01*
X151944979Y-79970419D02*
X151906883Y-79818038D01*
X151906883Y-79818038D02*
X151906883Y-79703752D01*
X151906883Y-79703752D02*
X151944979Y-79551371D01*
X151944979Y-79551371D02*
X151983074Y-79475180D01*
X151983074Y-79475180D02*
X152059264Y-79398990D01*
X152059264Y-79398990D02*
X152173550Y-79360895D01*
X152173550Y-79360895D02*
X152249741Y-79360895D01*
X152249741Y-79360895D02*
X152364026Y-79398990D01*
X152364026Y-79398990D02*
X152402122Y-79437085D01*
X153202122Y-80084704D02*
X153164026Y-80122800D01*
X153164026Y-80122800D02*
X153049741Y-80160895D01*
X153049741Y-80160895D02*
X152973550Y-80160895D01*
X152973550Y-80160895D02*
X152859264Y-80122800D01*
X152859264Y-80122800D02*
X152783074Y-80046609D01*
X152783074Y-80046609D02*
X152744979Y-79970419D01*
X152744979Y-79970419D02*
X152706883Y-79818038D01*
X152706883Y-79818038D02*
X152706883Y-79703752D01*
X152706883Y-79703752D02*
X152744979Y-79551371D01*
X152744979Y-79551371D02*
X152783074Y-79475180D01*
X152783074Y-79475180D02*
X152859264Y-79398990D01*
X152859264Y-79398990D02*
X152973550Y-79360895D01*
X152973550Y-79360895D02*
X153049741Y-79360895D01*
X153049741Y-79360895D02*
X153164026Y-79398990D01*
X153164026Y-79398990D02*
X153202122Y-79437085D01*
X143588406Y-76020704D02*
X143550310Y-76058800D01*
X143550310Y-76058800D02*
X143436025Y-76096895D01*
X143436025Y-76096895D02*
X143359834Y-76096895D01*
X143359834Y-76096895D02*
X143245548Y-76058800D01*
X143245548Y-76058800D02*
X143169358Y-75982609D01*
X143169358Y-75982609D02*
X143131263Y-75906419D01*
X143131263Y-75906419D02*
X143093167Y-75754038D01*
X143093167Y-75754038D02*
X143093167Y-75639752D01*
X143093167Y-75639752D02*
X143131263Y-75487371D01*
X143131263Y-75487371D02*
X143169358Y-75411180D01*
X143169358Y-75411180D02*
X143245548Y-75334990D01*
X143245548Y-75334990D02*
X143359834Y-75296895D01*
X143359834Y-75296895D02*
X143436025Y-75296895D01*
X143436025Y-75296895D02*
X143550310Y-75334990D01*
X143550310Y-75334990D02*
X143588406Y-75373085D01*
X143893167Y-75868323D02*
X144274120Y-75868323D01*
X143816977Y-76096895D02*
X144083644Y-75296895D01*
X144083644Y-75296895D02*
X144350310Y-76096895D01*
X144616977Y-76096895D02*
X144616977Y-75296895D01*
X144616977Y-75296895D02*
X145074120Y-76096895D01*
X145074120Y-76096895D02*
X145074120Y-75296895D01*
X145378881Y-75296895D02*
X145874119Y-75296895D01*
X145874119Y-75296895D02*
X145607453Y-75601657D01*
X145607453Y-75601657D02*
X145721738Y-75601657D01*
X145721738Y-75601657D02*
X145797929Y-75639752D01*
X145797929Y-75639752D02*
X145836024Y-75677847D01*
X145836024Y-75677847D02*
X145874119Y-75754038D01*
X145874119Y-75754038D02*
X145874119Y-75944514D01*
X145874119Y-75944514D02*
X145836024Y-76020704D01*
X145836024Y-76020704D02*
X145797929Y-76058800D01*
X145797929Y-76058800D02*
X145721738Y-76096895D01*
X145721738Y-76096895D02*
X145493167Y-76096895D01*
X145493167Y-76096895D02*
X145416976Y-76058800D01*
X145416976Y-76058800D02*
X145378881Y-76020704D01*
X146026501Y-76173085D02*
X146636024Y-76173085D01*
X146826501Y-76096895D02*
X146826501Y-75296895D01*
X146826501Y-75677847D02*
X147283644Y-75677847D01*
X147283644Y-76096895D02*
X147283644Y-75296895D01*
X134577787Y-83640704D02*
X134539691Y-83678800D01*
X134539691Y-83678800D02*
X134425406Y-83716895D01*
X134425406Y-83716895D02*
X134349215Y-83716895D01*
X134349215Y-83716895D02*
X134234929Y-83678800D01*
X134234929Y-83678800D02*
X134158739Y-83602609D01*
X134158739Y-83602609D02*
X134120644Y-83526419D01*
X134120644Y-83526419D02*
X134082548Y-83374038D01*
X134082548Y-83374038D02*
X134082548Y-83259752D01*
X134082548Y-83259752D02*
X134120644Y-83107371D01*
X134120644Y-83107371D02*
X134158739Y-83031180D01*
X134158739Y-83031180D02*
X134234929Y-82954990D01*
X134234929Y-82954990D02*
X134349215Y-82916895D01*
X134349215Y-82916895D02*
X134425406Y-82916895D01*
X134425406Y-82916895D02*
X134539691Y-82954990D01*
X134539691Y-82954990D02*
X134577787Y-82993085D01*
X134882548Y-83488323D02*
X135263501Y-83488323D01*
X134806358Y-83716895D02*
X135073025Y-82916895D01*
X135073025Y-82916895D02*
X135339691Y-83716895D01*
X135606358Y-83716895D02*
X135606358Y-82916895D01*
X135606358Y-82916895D02*
X136063501Y-83716895D01*
X136063501Y-83716895D02*
X136063501Y-82916895D01*
X136596834Y-82916895D02*
X136673024Y-82916895D01*
X136673024Y-82916895D02*
X136749215Y-82954990D01*
X136749215Y-82954990D02*
X136787310Y-82993085D01*
X136787310Y-82993085D02*
X136825405Y-83069276D01*
X136825405Y-83069276D02*
X136863500Y-83221657D01*
X136863500Y-83221657D02*
X136863500Y-83412133D01*
X136863500Y-83412133D02*
X136825405Y-83564514D01*
X136825405Y-83564514D02*
X136787310Y-83640704D01*
X136787310Y-83640704D02*
X136749215Y-83678800D01*
X136749215Y-83678800D02*
X136673024Y-83716895D01*
X136673024Y-83716895D02*
X136596834Y-83716895D01*
X136596834Y-83716895D02*
X136520643Y-83678800D01*
X136520643Y-83678800D02*
X136482548Y-83640704D01*
X136482548Y-83640704D02*
X136444453Y-83564514D01*
X136444453Y-83564514D02*
X136406357Y-83412133D01*
X136406357Y-83412133D02*
X136406357Y-83221657D01*
X136406357Y-83221657D02*
X136444453Y-83069276D01*
X136444453Y-83069276D02*
X136482548Y-82993085D01*
X136482548Y-82993085D02*
X136520643Y-82954990D01*
X136520643Y-82954990D02*
X136596834Y-82916895D01*
X137015882Y-83793085D02*
X137625405Y-83793085D01*
X138196834Y-83716895D02*
X137815882Y-83716895D01*
X137815882Y-83716895D02*
X137815882Y-82916895D01*
X139029167Y-83678800D02*
X139143453Y-83716895D01*
X139143453Y-83716895D02*
X139333929Y-83716895D01*
X139333929Y-83716895D02*
X139410120Y-83678800D01*
X139410120Y-83678800D02*
X139448215Y-83640704D01*
X139448215Y-83640704D02*
X139486310Y-83564514D01*
X139486310Y-83564514D02*
X139486310Y-83488323D01*
X139486310Y-83488323D02*
X139448215Y-83412133D01*
X139448215Y-83412133D02*
X139410120Y-83374038D01*
X139410120Y-83374038D02*
X139333929Y-83335942D01*
X139333929Y-83335942D02*
X139181548Y-83297847D01*
X139181548Y-83297847D02*
X139105358Y-83259752D01*
X139105358Y-83259752D02*
X139067263Y-83221657D01*
X139067263Y-83221657D02*
X139029167Y-83145466D01*
X139029167Y-83145466D02*
X139029167Y-83069276D01*
X139029167Y-83069276D02*
X139067263Y-82993085D01*
X139067263Y-82993085D02*
X139105358Y-82954990D01*
X139105358Y-82954990D02*
X139181548Y-82916895D01*
X139181548Y-82916895D02*
X139372025Y-82916895D01*
X139372025Y-82916895D02*
X139486310Y-82954990D01*
X140095834Y-83297847D02*
X140210120Y-83335942D01*
X140210120Y-83335942D02*
X140248215Y-83374038D01*
X140248215Y-83374038D02*
X140286311Y-83450228D01*
X140286311Y-83450228D02*
X140286311Y-83564514D01*
X140286311Y-83564514D02*
X140248215Y-83640704D01*
X140248215Y-83640704D02*
X140210120Y-83678800D01*
X140210120Y-83678800D02*
X140133930Y-83716895D01*
X140133930Y-83716895D02*
X139829168Y-83716895D01*
X139829168Y-83716895D02*
X139829168Y-82916895D01*
X139829168Y-82916895D02*
X140095834Y-82916895D01*
X140095834Y-82916895D02*
X140172025Y-82954990D01*
X140172025Y-82954990D02*
X140210120Y-82993085D01*
X140210120Y-82993085D02*
X140248215Y-83069276D01*
X140248215Y-83069276D02*
X140248215Y-83145466D01*
X140248215Y-83145466D02*
X140210120Y-83221657D01*
X140210120Y-83221657D02*
X140172025Y-83259752D01*
X140172025Y-83259752D02*
X140095834Y-83297847D01*
X140095834Y-83297847D02*
X139829168Y-83297847D01*
X140629168Y-82916895D02*
X140629168Y-83564514D01*
X140629168Y-83564514D02*
X140667263Y-83640704D01*
X140667263Y-83640704D02*
X140705358Y-83678800D01*
X140705358Y-83678800D02*
X140781549Y-83716895D01*
X140781549Y-83716895D02*
X140933930Y-83716895D01*
X140933930Y-83716895D02*
X141010120Y-83678800D01*
X141010120Y-83678800D02*
X141048215Y-83640704D01*
X141048215Y-83640704D02*
X141086311Y-83564514D01*
X141086311Y-83564514D02*
X141086311Y-82916895D01*
X141886310Y-83716895D02*
X141429167Y-83716895D01*
X141657739Y-83716895D02*
X141657739Y-82916895D01*
X141657739Y-82916895D02*
X141581548Y-83031180D01*
X141581548Y-83031180D02*
X141505358Y-83107371D01*
X141505358Y-83107371D02*
X141429167Y-83145466D01*
X127802312Y-79398990D02*
X127726122Y-79360895D01*
X127726122Y-79360895D02*
X127611836Y-79360895D01*
X127611836Y-79360895D02*
X127497550Y-79398990D01*
X127497550Y-79398990D02*
X127421360Y-79475180D01*
X127421360Y-79475180D02*
X127383265Y-79551371D01*
X127383265Y-79551371D02*
X127345169Y-79703752D01*
X127345169Y-79703752D02*
X127345169Y-79818038D01*
X127345169Y-79818038D02*
X127383265Y-79970419D01*
X127383265Y-79970419D02*
X127421360Y-80046609D01*
X127421360Y-80046609D02*
X127497550Y-80122800D01*
X127497550Y-80122800D02*
X127611836Y-80160895D01*
X127611836Y-80160895D02*
X127688027Y-80160895D01*
X127688027Y-80160895D02*
X127802312Y-80122800D01*
X127802312Y-80122800D02*
X127840408Y-80084704D01*
X127840408Y-80084704D02*
X127840408Y-79818038D01*
X127840408Y-79818038D02*
X127688027Y-79818038D01*
X128183265Y-80160895D02*
X128183265Y-79360895D01*
X128183265Y-79360895D02*
X128640408Y-80160895D01*
X128640408Y-80160895D02*
X128640408Y-79360895D01*
X129021360Y-80160895D02*
X129021360Y-79360895D01*
X129021360Y-79360895D02*
X129211836Y-79360895D01*
X129211836Y-79360895D02*
X129326122Y-79398990D01*
X129326122Y-79398990D02*
X129402312Y-79475180D01*
X129402312Y-79475180D02*
X129440407Y-79551371D01*
X129440407Y-79551371D02*
X129478503Y-79703752D01*
X129478503Y-79703752D02*
X129478503Y-79818038D01*
X129478503Y-79818038D02*
X129440407Y-79970419D01*
X129440407Y-79970419D02*
X129402312Y-80046609D01*
X129402312Y-80046609D02*
X129326122Y-80122800D01*
X129326122Y-80122800D02*
X129211836Y-80160895D01*
X129211836Y-80160895D02*
X129021360Y-80160895D01*
X138867119Y-76058800D02*
X138981405Y-76096895D01*
X138981405Y-76096895D02*
X139171881Y-76096895D01*
X139171881Y-76096895D02*
X139248072Y-76058800D01*
X139248072Y-76058800D02*
X139286167Y-76020704D01*
X139286167Y-76020704D02*
X139324262Y-75944514D01*
X139324262Y-75944514D02*
X139324262Y-75868323D01*
X139324262Y-75868323D02*
X139286167Y-75792133D01*
X139286167Y-75792133D02*
X139248072Y-75754038D01*
X139248072Y-75754038D02*
X139171881Y-75715942D01*
X139171881Y-75715942D02*
X139019500Y-75677847D01*
X139019500Y-75677847D02*
X138943310Y-75639752D01*
X138943310Y-75639752D02*
X138905215Y-75601657D01*
X138905215Y-75601657D02*
X138867119Y-75525466D01*
X138867119Y-75525466D02*
X138867119Y-75449276D01*
X138867119Y-75449276D02*
X138905215Y-75373085D01*
X138905215Y-75373085D02*
X138943310Y-75334990D01*
X138943310Y-75334990D02*
X139019500Y-75296895D01*
X139019500Y-75296895D02*
X139209977Y-75296895D01*
X139209977Y-75296895D02*
X139324262Y-75334990D01*
X139933786Y-75677847D02*
X140048072Y-75715942D01*
X140048072Y-75715942D02*
X140086167Y-75754038D01*
X140086167Y-75754038D02*
X140124263Y-75830228D01*
X140124263Y-75830228D02*
X140124263Y-75944514D01*
X140124263Y-75944514D02*
X140086167Y-76020704D01*
X140086167Y-76020704D02*
X140048072Y-76058800D01*
X140048072Y-76058800D02*
X139971882Y-76096895D01*
X139971882Y-76096895D02*
X139667120Y-76096895D01*
X139667120Y-76096895D02*
X139667120Y-75296895D01*
X139667120Y-75296895D02*
X139933786Y-75296895D01*
X139933786Y-75296895D02*
X140009977Y-75334990D01*
X140009977Y-75334990D02*
X140048072Y-75373085D01*
X140048072Y-75373085D02*
X140086167Y-75449276D01*
X140086167Y-75449276D02*
X140086167Y-75525466D01*
X140086167Y-75525466D02*
X140048072Y-75601657D01*
X140048072Y-75601657D02*
X140009977Y-75639752D01*
X140009977Y-75639752D02*
X139933786Y-75677847D01*
X139933786Y-75677847D02*
X139667120Y-75677847D01*
X140467120Y-75296895D02*
X140467120Y-75944514D01*
X140467120Y-75944514D02*
X140505215Y-76020704D01*
X140505215Y-76020704D02*
X140543310Y-76058800D01*
X140543310Y-76058800D02*
X140619501Y-76096895D01*
X140619501Y-76096895D02*
X140771882Y-76096895D01*
X140771882Y-76096895D02*
X140848072Y-76058800D01*
X140848072Y-76058800D02*
X140886167Y-76020704D01*
X140886167Y-76020704D02*
X140924263Y-75944514D01*
X140924263Y-75944514D02*
X140924263Y-75296895D01*
X141267119Y-75373085D02*
X141305215Y-75334990D01*
X141305215Y-75334990D02*
X141381405Y-75296895D01*
X141381405Y-75296895D02*
X141571881Y-75296895D01*
X141571881Y-75296895D02*
X141648072Y-75334990D01*
X141648072Y-75334990D02*
X141686167Y-75373085D01*
X141686167Y-75373085D02*
X141724262Y-75449276D01*
X141724262Y-75449276D02*
X141724262Y-75525466D01*
X141724262Y-75525466D02*
X141686167Y-75639752D01*
X141686167Y-75639752D02*
X141229024Y-76096895D01*
X141229024Y-76096895D02*
X141724262Y-76096895D01*
X128357882Y-76020704D02*
X128319786Y-76058800D01*
X128319786Y-76058800D02*
X128205501Y-76096895D01*
X128205501Y-76096895D02*
X128129310Y-76096895D01*
X128129310Y-76096895D02*
X128015024Y-76058800D01*
X128015024Y-76058800D02*
X127938834Y-75982609D01*
X127938834Y-75982609D02*
X127900739Y-75906419D01*
X127900739Y-75906419D02*
X127862643Y-75754038D01*
X127862643Y-75754038D02*
X127862643Y-75639752D01*
X127862643Y-75639752D02*
X127900739Y-75487371D01*
X127900739Y-75487371D02*
X127938834Y-75411180D01*
X127938834Y-75411180D02*
X128015024Y-75334990D01*
X128015024Y-75334990D02*
X128129310Y-75296895D01*
X128129310Y-75296895D02*
X128205501Y-75296895D01*
X128205501Y-75296895D02*
X128319786Y-75334990D01*
X128319786Y-75334990D02*
X128357882Y-75373085D01*
X128662643Y-75868323D02*
X129043596Y-75868323D01*
X128586453Y-76096895D02*
X128853120Y-75296895D01*
X128853120Y-75296895D02*
X129119786Y-76096895D01*
X129386453Y-76096895D02*
X129386453Y-75296895D01*
X129386453Y-75296895D02*
X129843596Y-76096895D01*
X129843596Y-76096895D02*
X129843596Y-75296895D01*
X130186452Y-75373085D02*
X130224548Y-75334990D01*
X130224548Y-75334990D02*
X130300738Y-75296895D01*
X130300738Y-75296895D02*
X130491214Y-75296895D01*
X130491214Y-75296895D02*
X130567405Y-75334990D01*
X130567405Y-75334990D02*
X130605500Y-75373085D01*
X130605500Y-75373085D02*
X130643595Y-75449276D01*
X130643595Y-75449276D02*
X130643595Y-75525466D01*
X130643595Y-75525466D02*
X130605500Y-75639752D01*
X130605500Y-75639752D02*
X130148357Y-76096895D01*
X130148357Y-76096895D02*
X130643595Y-76096895D01*
X130795977Y-76173085D02*
X131405500Y-76173085D01*
X131595977Y-76096895D02*
X131595977Y-75296895D01*
X131595977Y-75677847D02*
X132053120Y-75677847D01*
X132053120Y-76096895D02*
X132053120Y-75296895D01*
X129440692Y-83640704D02*
X129402596Y-83678800D01*
X129402596Y-83678800D02*
X129288311Y-83716895D01*
X129288311Y-83716895D02*
X129212120Y-83716895D01*
X129212120Y-83716895D02*
X129097834Y-83678800D01*
X129097834Y-83678800D02*
X129021644Y-83602609D01*
X129021644Y-83602609D02*
X128983549Y-83526419D01*
X128983549Y-83526419D02*
X128945453Y-83374038D01*
X128945453Y-83374038D02*
X128945453Y-83259752D01*
X128945453Y-83259752D02*
X128983549Y-83107371D01*
X128983549Y-83107371D02*
X129021644Y-83031180D01*
X129021644Y-83031180D02*
X129097834Y-82954990D01*
X129097834Y-82954990D02*
X129212120Y-82916895D01*
X129212120Y-82916895D02*
X129288311Y-82916895D01*
X129288311Y-82916895D02*
X129402596Y-82954990D01*
X129402596Y-82954990D02*
X129440692Y-82993085D01*
X129745453Y-83488323D02*
X130126406Y-83488323D01*
X129669263Y-83716895D02*
X129935930Y-82916895D01*
X129935930Y-82916895D02*
X130202596Y-83716895D01*
X130469263Y-83716895D02*
X130469263Y-82916895D01*
X130469263Y-82916895D02*
X130926406Y-83716895D01*
X130926406Y-83716895D02*
X130926406Y-82916895D01*
X131459739Y-82916895D02*
X131535929Y-82916895D01*
X131535929Y-82916895D02*
X131612120Y-82954990D01*
X131612120Y-82954990D02*
X131650215Y-82993085D01*
X131650215Y-82993085D02*
X131688310Y-83069276D01*
X131688310Y-83069276D02*
X131726405Y-83221657D01*
X131726405Y-83221657D02*
X131726405Y-83412133D01*
X131726405Y-83412133D02*
X131688310Y-83564514D01*
X131688310Y-83564514D02*
X131650215Y-83640704D01*
X131650215Y-83640704D02*
X131612120Y-83678800D01*
X131612120Y-83678800D02*
X131535929Y-83716895D01*
X131535929Y-83716895D02*
X131459739Y-83716895D01*
X131459739Y-83716895D02*
X131383548Y-83678800D01*
X131383548Y-83678800D02*
X131345453Y-83640704D01*
X131345453Y-83640704D02*
X131307358Y-83564514D01*
X131307358Y-83564514D02*
X131269262Y-83412133D01*
X131269262Y-83412133D02*
X131269262Y-83221657D01*
X131269262Y-83221657D02*
X131307358Y-83069276D01*
X131307358Y-83069276D02*
X131345453Y-82993085D01*
X131345453Y-82993085D02*
X131383548Y-82954990D01*
X131383548Y-82954990D02*
X131459739Y-82916895D01*
X131878787Y-83793085D02*
X132488310Y-83793085D01*
X132678787Y-83716895D02*
X132678787Y-82916895D01*
X132678787Y-83297847D02*
X133135930Y-83297847D01*
X133135930Y-83716895D02*
X133135930Y-82916895D01*
X149185882Y-76020704D02*
X149147786Y-76058800D01*
X149147786Y-76058800D02*
X149033501Y-76096895D01*
X149033501Y-76096895D02*
X148957310Y-76096895D01*
X148957310Y-76096895D02*
X148843024Y-76058800D01*
X148843024Y-76058800D02*
X148766834Y-75982609D01*
X148766834Y-75982609D02*
X148728739Y-75906419D01*
X148728739Y-75906419D02*
X148690643Y-75754038D01*
X148690643Y-75754038D02*
X148690643Y-75639752D01*
X148690643Y-75639752D02*
X148728739Y-75487371D01*
X148728739Y-75487371D02*
X148766834Y-75411180D01*
X148766834Y-75411180D02*
X148843024Y-75334990D01*
X148843024Y-75334990D02*
X148957310Y-75296895D01*
X148957310Y-75296895D02*
X149033501Y-75296895D01*
X149033501Y-75296895D02*
X149147786Y-75334990D01*
X149147786Y-75334990D02*
X149185882Y-75373085D01*
X149490643Y-75868323D02*
X149871596Y-75868323D01*
X149414453Y-76096895D02*
X149681120Y-75296895D01*
X149681120Y-75296895D02*
X149947786Y-76096895D01*
X150214453Y-76096895D02*
X150214453Y-75296895D01*
X150214453Y-75296895D02*
X150671596Y-76096895D01*
X150671596Y-76096895D02*
X150671596Y-75296895D01*
X150976357Y-75296895D02*
X151471595Y-75296895D01*
X151471595Y-75296895D02*
X151204929Y-75601657D01*
X151204929Y-75601657D02*
X151319214Y-75601657D01*
X151319214Y-75601657D02*
X151395405Y-75639752D01*
X151395405Y-75639752D02*
X151433500Y-75677847D01*
X151433500Y-75677847D02*
X151471595Y-75754038D01*
X151471595Y-75754038D02*
X151471595Y-75944514D01*
X151471595Y-75944514D02*
X151433500Y-76020704D01*
X151433500Y-76020704D02*
X151395405Y-76058800D01*
X151395405Y-76058800D02*
X151319214Y-76096895D01*
X151319214Y-76096895D02*
X151090643Y-76096895D01*
X151090643Y-76096895D02*
X151014452Y-76058800D01*
X151014452Y-76058800D02*
X150976357Y-76020704D01*
X151623977Y-76173085D02*
X152233500Y-76173085D01*
X152804929Y-76096895D02*
X152423977Y-76096895D01*
X152423977Y-76096895D02*
X152423977Y-75296895D01*
X143290073Y-83640704D02*
X143251977Y-83678800D01*
X143251977Y-83678800D02*
X143137692Y-83716895D01*
X143137692Y-83716895D02*
X143061501Y-83716895D01*
X143061501Y-83716895D02*
X142947215Y-83678800D01*
X142947215Y-83678800D02*
X142871025Y-83602609D01*
X142871025Y-83602609D02*
X142832930Y-83526419D01*
X142832930Y-83526419D02*
X142794834Y-83374038D01*
X142794834Y-83374038D02*
X142794834Y-83259752D01*
X142794834Y-83259752D02*
X142832930Y-83107371D01*
X142832930Y-83107371D02*
X142871025Y-83031180D01*
X142871025Y-83031180D02*
X142947215Y-82954990D01*
X142947215Y-82954990D02*
X143061501Y-82916895D01*
X143061501Y-82916895D02*
X143137692Y-82916895D01*
X143137692Y-82916895D02*
X143251977Y-82954990D01*
X143251977Y-82954990D02*
X143290073Y-82993085D01*
X143594834Y-83488323D02*
X143975787Y-83488323D01*
X143518644Y-83716895D02*
X143785311Y-82916895D01*
X143785311Y-82916895D02*
X144051977Y-83716895D01*
X144318644Y-83716895D02*
X144318644Y-82916895D01*
X144318644Y-82916895D02*
X144775787Y-83716895D01*
X144775787Y-83716895D02*
X144775787Y-82916895D01*
X145575786Y-83716895D02*
X145118643Y-83716895D01*
X145347215Y-83716895D02*
X145347215Y-82916895D01*
X145347215Y-82916895D02*
X145271024Y-83031180D01*
X145271024Y-83031180D02*
X145194834Y-83107371D01*
X145194834Y-83107371D02*
X145118643Y-83145466D01*
X145728168Y-83793085D02*
X146337691Y-83793085D01*
X146909120Y-83716895D02*
X146528168Y-83716895D01*
X146528168Y-83716895D02*
X146528168Y-82916895D01*
X133955358Y-76020704D02*
X133917262Y-76058800D01*
X133917262Y-76058800D02*
X133802977Y-76096895D01*
X133802977Y-76096895D02*
X133726786Y-76096895D01*
X133726786Y-76096895D02*
X133612500Y-76058800D01*
X133612500Y-76058800D02*
X133536310Y-75982609D01*
X133536310Y-75982609D02*
X133498215Y-75906419D01*
X133498215Y-75906419D02*
X133460119Y-75754038D01*
X133460119Y-75754038D02*
X133460119Y-75639752D01*
X133460119Y-75639752D02*
X133498215Y-75487371D01*
X133498215Y-75487371D02*
X133536310Y-75411180D01*
X133536310Y-75411180D02*
X133612500Y-75334990D01*
X133612500Y-75334990D02*
X133726786Y-75296895D01*
X133726786Y-75296895D02*
X133802977Y-75296895D01*
X133802977Y-75296895D02*
X133917262Y-75334990D01*
X133917262Y-75334990D02*
X133955358Y-75373085D01*
X134260119Y-75868323D02*
X134641072Y-75868323D01*
X134183929Y-76096895D02*
X134450596Y-75296895D01*
X134450596Y-75296895D02*
X134717262Y-76096895D01*
X134983929Y-76096895D02*
X134983929Y-75296895D01*
X134983929Y-75296895D02*
X135441072Y-76096895D01*
X135441072Y-76096895D02*
X135441072Y-75296895D01*
X135783928Y-75373085D02*
X135822024Y-75334990D01*
X135822024Y-75334990D02*
X135898214Y-75296895D01*
X135898214Y-75296895D02*
X136088690Y-75296895D01*
X136088690Y-75296895D02*
X136164881Y-75334990D01*
X136164881Y-75334990D02*
X136202976Y-75373085D01*
X136202976Y-75373085D02*
X136241071Y-75449276D01*
X136241071Y-75449276D02*
X136241071Y-75525466D01*
X136241071Y-75525466D02*
X136202976Y-75639752D01*
X136202976Y-75639752D02*
X135745833Y-76096895D01*
X135745833Y-76096895D02*
X136241071Y-76096895D01*
X136393453Y-76173085D02*
X137002976Y-76173085D01*
X137574405Y-76096895D02*
X137193453Y-76096895D01*
X137193453Y-76096895D02*
X137193453Y-75296895D01*
X148236692Y-83640704D02*
X148198596Y-83678800D01*
X148198596Y-83678800D02*
X148084311Y-83716895D01*
X148084311Y-83716895D02*
X148008120Y-83716895D01*
X148008120Y-83716895D02*
X147893834Y-83678800D01*
X147893834Y-83678800D02*
X147817644Y-83602609D01*
X147817644Y-83602609D02*
X147779549Y-83526419D01*
X147779549Y-83526419D02*
X147741453Y-83374038D01*
X147741453Y-83374038D02*
X147741453Y-83259752D01*
X147741453Y-83259752D02*
X147779549Y-83107371D01*
X147779549Y-83107371D02*
X147817644Y-83031180D01*
X147817644Y-83031180D02*
X147893834Y-82954990D01*
X147893834Y-82954990D02*
X148008120Y-82916895D01*
X148008120Y-82916895D02*
X148084311Y-82916895D01*
X148084311Y-82916895D02*
X148198596Y-82954990D01*
X148198596Y-82954990D02*
X148236692Y-82993085D01*
X148541453Y-83488323D02*
X148922406Y-83488323D01*
X148465263Y-83716895D02*
X148731930Y-82916895D01*
X148731930Y-82916895D02*
X148998596Y-83716895D01*
X149265263Y-83716895D02*
X149265263Y-82916895D01*
X149265263Y-82916895D02*
X149722406Y-83716895D01*
X149722406Y-83716895D02*
X149722406Y-82916895D01*
X150522405Y-83716895D02*
X150065262Y-83716895D01*
X150293834Y-83716895D02*
X150293834Y-82916895D01*
X150293834Y-82916895D02*
X150217643Y-83031180D01*
X150217643Y-83031180D02*
X150141453Y-83107371D01*
X150141453Y-83107371D02*
X150065262Y-83145466D01*
X150674787Y-83793085D02*
X151284310Y-83793085D01*
X151474787Y-83716895D02*
X151474787Y-82916895D01*
X151474787Y-83297847D02*
X151931930Y-83297847D01*
X151931930Y-83716895D02*
X151931930Y-82916895D01*
D11*
%TO.C,J2*%
X140319166Y-93434819D02*
X140319166Y-94149104D01*
X140319166Y-94149104D02*
X140271547Y-94291961D01*
X140271547Y-94291961D02*
X140176309Y-94387200D01*
X140176309Y-94387200D02*
X140033452Y-94434819D01*
X140033452Y-94434819D02*
X139938214Y-94434819D01*
X140747738Y-93530057D02*
X140795357Y-93482438D01*
X140795357Y-93482438D02*
X140890595Y-93434819D01*
X140890595Y-93434819D02*
X141128690Y-93434819D01*
X141128690Y-93434819D02*
X141223928Y-93482438D01*
X141223928Y-93482438D02*
X141271547Y-93530057D01*
X141271547Y-93530057D02*
X141319166Y-93625295D01*
X141319166Y-93625295D02*
X141319166Y-93720533D01*
X141319166Y-93720533D02*
X141271547Y-93863390D01*
X141271547Y-93863390D02*
X140700119Y-94434819D01*
X140700119Y-94434819D02*
X141319166Y-94434819D01*
D12*
X135410000Y-86640000D02*
X135410000Y-92830000D01*
X135410000Y-86640000D02*
X145260000Y-86640000D01*
X135410000Y-95530000D02*
X135410000Y-95130000D01*
X135410000Y-95530000D02*
X145260000Y-95530000D01*
X145260000Y-92830000D02*
X145260000Y-86640000D01*
X145260000Y-95530000D02*
X145260000Y-95130000D01*
X137635000Y-85980000D02*
G75*
G03*
X137635000Y-85980000I-100000J0D01*
G01*
%TD*%
M02*
