%TF.GenerationSoftware,KiCad,Pcbnew,7.0.5*%
%TF.CreationDate,2024-02-16T09:22:16-05:00*%
%TF.ProjectId,female_connector,66656d61-6c65-45f6-936f-6e6e6563746f,rev?*%
%TF.SameCoordinates,Original*%
%TF.FileFunction,Drillmap*%
%TF.FilePolarity,Positive*%
%FSLAX45Y45*%
G04 Gerber Fmt 4.5, Leading zero omitted, Abs format (unit mm)*
G04 Created by KiCad (PCBNEW 7.0.5) date 2024-02-16 09:22:16*
%MOMM*%
%LPD*%
G01*
G04 APERTURE LIST*
%ADD10C,0.100000*%
%ADD11C,0.200000*%
%ADD12C,0.065000*%
%ADD13C,0.300000*%
G04 APERTURE END LIST*
D10*
X15875000Y-7366000D02*
X16065500Y-7556500D01*
X16065500Y-7556500D02*
X16065500Y-7937500D01*
X14033500Y-7366000D02*
X15875000Y-7366000D01*
X12192000Y-7366000D02*
X14033500Y-7366000D01*
X12001500Y-7937500D02*
X12001500Y-7556500D01*
X16065500Y-7937500D02*
X15938500Y-8064500D01*
X12001500Y-7556500D02*
X12192000Y-7366000D01*
X12827000Y-8763000D02*
X12827000Y-9334500D01*
X15938500Y-8064500D02*
X15240000Y-8763000D01*
X15240000Y-8763000D02*
X15240000Y-9334500D01*
X14033500Y-9588500D02*
X13081000Y-9588500D01*
X12128500Y-8064500D02*
X12001500Y-7937500D01*
X14986000Y-9588500D02*
X14033500Y-9588500D01*
X13081000Y-9588500D02*
X12827000Y-9334500D01*
X12827000Y-8763000D02*
X12128500Y-8064500D01*
X15240000Y-9334500D02*
X14986000Y-9588500D01*
D11*
D12*
X13641000Y-8801500D02*
X13706000Y-8866500D01*
X13706000Y-8801500D02*
X13641000Y-8866500D01*
X14361000Y-8801500D02*
X14426000Y-8866500D01*
X14426000Y-8801500D02*
X14361000Y-8866500D01*
D13*
X12519800Y-7696200D02*
G75*
G03*
X12519800Y-7696200I-150000J0D01*
G01*
X13332600Y-9220200D02*
G75*
G03*
X13332600Y-9220200I-150000J0D01*
G01*
X15034400Y-9220200D02*
G75*
G03*
X15034400Y-9220200I-150000J0D01*
G01*
X15847200Y-7696200D02*
G75*
G03*
X15847200Y-7696200I-150000J0D01*
G01*
D11*
X12257277Y-9904984D02*
X12257277Y-9704984D01*
X12257277Y-9704984D02*
X12304896Y-9704984D01*
X12304896Y-9704984D02*
X12333467Y-9714508D01*
X12333467Y-9714508D02*
X12352515Y-9733555D01*
X12352515Y-9733555D02*
X12362039Y-9752603D01*
X12362039Y-9752603D02*
X12371562Y-9790698D01*
X12371562Y-9790698D02*
X12371562Y-9819270D01*
X12371562Y-9819270D02*
X12362039Y-9857365D01*
X12362039Y-9857365D02*
X12352515Y-9876412D01*
X12352515Y-9876412D02*
X12333467Y-9895460D01*
X12333467Y-9895460D02*
X12304896Y-9904984D01*
X12304896Y-9904984D02*
X12257277Y-9904984D01*
X12457277Y-9904984D02*
X12457277Y-9771650D01*
X12457277Y-9809746D02*
X12466801Y-9790698D01*
X12466801Y-9790698D02*
X12476324Y-9781174D01*
X12476324Y-9781174D02*
X12495372Y-9771650D01*
X12495372Y-9771650D02*
X12514420Y-9771650D01*
X12581086Y-9904984D02*
X12581086Y-9771650D01*
X12581086Y-9704984D02*
X12571562Y-9714508D01*
X12571562Y-9714508D02*
X12581086Y-9724031D01*
X12581086Y-9724031D02*
X12590610Y-9714508D01*
X12590610Y-9714508D02*
X12581086Y-9704984D01*
X12581086Y-9704984D02*
X12581086Y-9724031D01*
X12704896Y-9904984D02*
X12685848Y-9895460D01*
X12685848Y-9895460D02*
X12676324Y-9876412D01*
X12676324Y-9876412D02*
X12676324Y-9704984D01*
X12809658Y-9904984D02*
X12790610Y-9895460D01*
X12790610Y-9895460D02*
X12781086Y-9876412D01*
X12781086Y-9876412D02*
X12781086Y-9704984D01*
X13038229Y-9904984D02*
X13038229Y-9704984D01*
X13038229Y-9704984D02*
X13104896Y-9847841D01*
X13104896Y-9847841D02*
X13171562Y-9704984D01*
X13171562Y-9704984D02*
X13171562Y-9904984D01*
X13352515Y-9904984D02*
X13352515Y-9800222D01*
X13352515Y-9800222D02*
X13342991Y-9781174D01*
X13342991Y-9781174D02*
X13323943Y-9771650D01*
X13323943Y-9771650D02*
X13285848Y-9771650D01*
X13285848Y-9771650D02*
X13266801Y-9781174D01*
X13352515Y-9895460D02*
X13333467Y-9904984D01*
X13333467Y-9904984D02*
X13285848Y-9904984D01*
X13285848Y-9904984D02*
X13266801Y-9895460D01*
X13266801Y-9895460D02*
X13257277Y-9876412D01*
X13257277Y-9876412D02*
X13257277Y-9857365D01*
X13257277Y-9857365D02*
X13266801Y-9838317D01*
X13266801Y-9838317D02*
X13285848Y-9828793D01*
X13285848Y-9828793D02*
X13333467Y-9828793D01*
X13333467Y-9828793D02*
X13352515Y-9819270D01*
X13447753Y-9771650D02*
X13447753Y-9971650D01*
X13447753Y-9781174D02*
X13466801Y-9771650D01*
X13466801Y-9771650D02*
X13504896Y-9771650D01*
X13504896Y-9771650D02*
X13523943Y-9781174D01*
X13523943Y-9781174D02*
X13533467Y-9790698D01*
X13533467Y-9790698D02*
X13542991Y-9809746D01*
X13542991Y-9809746D02*
X13542991Y-9866889D01*
X13542991Y-9866889D02*
X13533467Y-9885936D01*
X13533467Y-9885936D02*
X13523943Y-9895460D01*
X13523943Y-9895460D02*
X13504896Y-9904984D01*
X13504896Y-9904984D02*
X13466801Y-9904984D01*
X13466801Y-9904984D02*
X13447753Y-9895460D01*
X13628705Y-9885936D02*
X13638229Y-9895460D01*
X13638229Y-9895460D02*
X13628705Y-9904984D01*
X13628705Y-9904984D02*
X13619182Y-9895460D01*
X13619182Y-9895460D02*
X13628705Y-9885936D01*
X13628705Y-9885936D02*
X13628705Y-9904984D01*
X13628705Y-9781174D02*
X13638229Y-9790698D01*
X13638229Y-9790698D02*
X13628705Y-9800222D01*
X13628705Y-9800222D02*
X13619182Y-9790698D01*
X13619182Y-9790698D02*
X13628705Y-9781174D01*
X13628705Y-9781174D02*
X13628705Y-9800222D01*
D12*
X11931500Y-10201000D02*
X11996500Y-10266000D01*
X11996500Y-10201000D02*
X11931500Y-10266000D01*
D11*
X12295372Y-10124984D02*
X12314420Y-10124984D01*
X12314420Y-10124984D02*
X12333467Y-10134508D01*
X12333467Y-10134508D02*
X12342991Y-10144031D01*
X12342991Y-10144031D02*
X12352515Y-10163079D01*
X12352515Y-10163079D02*
X12362039Y-10201174D01*
X12362039Y-10201174D02*
X12362039Y-10248793D01*
X12362039Y-10248793D02*
X12352515Y-10286889D01*
X12352515Y-10286889D02*
X12342991Y-10305936D01*
X12342991Y-10305936D02*
X12333467Y-10315460D01*
X12333467Y-10315460D02*
X12314420Y-10324984D01*
X12314420Y-10324984D02*
X12295372Y-10324984D01*
X12295372Y-10324984D02*
X12276324Y-10315460D01*
X12276324Y-10315460D02*
X12266801Y-10305936D01*
X12266801Y-10305936D02*
X12257277Y-10286889D01*
X12257277Y-10286889D02*
X12247753Y-10248793D01*
X12247753Y-10248793D02*
X12247753Y-10201174D01*
X12247753Y-10201174D02*
X12257277Y-10163079D01*
X12257277Y-10163079D02*
X12266801Y-10144031D01*
X12266801Y-10144031D02*
X12276324Y-10134508D01*
X12276324Y-10134508D02*
X12295372Y-10124984D01*
X12447753Y-10305936D02*
X12457277Y-10315460D01*
X12457277Y-10315460D02*
X12447753Y-10324984D01*
X12447753Y-10324984D02*
X12438229Y-10315460D01*
X12438229Y-10315460D02*
X12447753Y-10305936D01*
X12447753Y-10305936D02*
X12447753Y-10324984D01*
X12628705Y-10124984D02*
X12590610Y-10124984D01*
X12590610Y-10124984D02*
X12571562Y-10134508D01*
X12571562Y-10134508D02*
X12562039Y-10144031D01*
X12562039Y-10144031D02*
X12542991Y-10172603D01*
X12542991Y-10172603D02*
X12533467Y-10210698D01*
X12533467Y-10210698D02*
X12533467Y-10286889D01*
X12533467Y-10286889D02*
X12542991Y-10305936D01*
X12542991Y-10305936D02*
X12552515Y-10315460D01*
X12552515Y-10315460D02*
X12571562Y-10324984D01*
X12571562Y-10324984D02*
X12609658Y-10324984D01*
X12609658Y-10324984D02*
X12628705Y-10315460D01*
X12628705Y-10315460D02*
X12638229Y-10305936D01*
X12638229Y-10305936D02*
X12647753Y-10286889D01*
X12647753Y-10286889D02*
X12647753Y-10239270D01*
X12647753Y-10239270D02*
X12638229Y-10220222D01*
X12638229Y-10220222D02*
X12628705Y-10210698D01*
X12628705Y-10210698D02*
X12609658Y-10201174D01*
X12609658Y-10201174D02*
X12571562Y-10201174D01*
X12571562Y-10201174D02*
X12552515Y-10210698D01*
X12552515Y-10210698D02*
X12542991Y-10220222D01*
X12542991Y-10220222D02*
X12533467Y-10239270D01*
X12828705Y-10124984D02*
X12733467Y-10124984D01*
X12733467Y-10124984D02*
X12723943Y-10220222D01*
X12723943Y-10220222D02*
X12733467Y-10210698D01*
X12733467Y-10210698D02*
X12752515Y-10201174D01*
X12752515Y-10201174D02*
X12800134Y-10201174D01*
X12800134Y-10201174D02*
X12819182Y-10210698D01*
X12819182Y-10210698D02*
X12828705Y-10220222D01*
X12828705Y-10220222D02*
X12838229Y-10239270D01*
X12838229Y-10239270D02*
X12838229Y-10286889D01*
X12838229Y-10286889D02*
X12828705Y-10305936D01*
X12828705Y-10305936D02*
X12819182Y-10315460D01*
X12819182Y-10315460D02*
X12800134Y-10324984D01*
X12800134Y-10324984D02*
X12752515Y-10324984D01*
X12752515Y-10324984D02*
X12733467Y-10315460D01*
X12733467Y-10315460D02*
X12723943Y-10305936D01*
X12962039Y-10124984D02*
X12981086Y-10124984D01*
X12981086Y-10124984D02*
X13000134Y-10134508D01*
X13000134Y-10134508D02*
X13009658Y-10144031D01*
X13009658Y-10144031D02*
X13019182Y-10163079D01*
X13019182Y-10163079D02*
X13028705Y-10201174D01*
X13028705Y-10201174D02*
X13028705Y-10248793D01*
X13028705Y-10248793D02*
X13019182Y-10286889D01*
X13019182Y-10286889D02*
X13009658Y-10305936D01*
X13009658Y-10305936D02*
X13000134Y-10315460D01*
X13000134Y-10315460D02*
X12981086Y-10324984D01*
X12981086Y-10324984D02*
X12962039Y-10324984D01*
X12962039Y-10324984D02*
X12942991Y-10315460D01*
X12942991Y-10315460D02*
X12933467Y-10305936D01*
X12933467Y-10305936D02*
X12923943Y-10286889D01*
X12923943Y-10286889D02*
X12914420Y-10248793D01*
X12914420Y-10248793D02*
X12914420Y-10201174D01*
X12914420Y-10201174D02*
X12923943Y-10163079D01*
X12923943Y-10163079D02*
X12933467Y-10144031D01*
X12933467Y-10144031D02*
X12942991Y-10134508D01*
X12942991Y-10134508D02*
X12962039Y-10124984D01*
X13114420Y-10324984D02*
X13114420Y-10191650D01*
X13114420Y-10210698D02*
X13123943Y-10201174D01*
X13123943Y-10201174D02*
X13142991Y-10191650D01*
X13142991Y-10191650D02*
X13171563Y-10191650D01*
X13171563Y-10191650D02*
X13190610Y-10201174D01*
X13190610Y-10201174D02*
X13200134Y-10220222D01*
X13200134Y-10220222D02*
X13200134Y-10324984D01*
X13200134Y-10220222D02*
X13209658Y-10201174D01*
X13209658Y-10201174D02*
X13228705Y-10191650D01*
X13228705Y-10191650D02*
X13257277Y-10191650D01*
X13257277Y-10191650D02*
X13276324Y-10201174D01*
X13276324Y-10201174D02*
X13285848Y-10220222D01*
X13285848Y-10220222D02*
X13285848Y-10324984D01*
X13381086Y-10324984D02*
X13381086Y-10191650D01*
X13381086Y-10210698D02*
X13390610Y-10201174D01*
X13390610Y-10201174D02*
X13409658Y-10191650D01*
X13409658Y-10191650D02*
X13438229Y-10191650D01*
X13438229Y-10191650D02*
X13457277Y-10201174D01*
X13457277Y-10201174D02*
X13466801Y-10220222D01*
X13466801Y-10220222D02*
X13466801Y-10324984D01*
X13466801Y-10220222D02*
X13476324Y-10201174D01*
X13476324Y-10201174D02*
X13495372Y-10191650D01*
X13495372Y-10191650D02*
X13523943Y-10191650D01*
X13523943Y-10191650D02*
X13542991Y-10201174D01*
X13542991Y-10201174D02*
X13552515Y-10220222D01*
X13552515Y-10220222D02*
X13552515Y-10324984D01*
X13942991Y-10115460D02*
X13771563Y-10372603D01*
X14200134Y-10124984D02*
X14219182Y-10124984D01*
X14219182Y-10124984D02*
X14238229Y-10134508D01*
X14238229Y-10134508D02*
X14247753Y-10144031D01*
X14247753Y-10144031D02*
X14257277Y-10163079D01*
X14257277Y-10163079D02*
X14266801Y-10201174D01*
X14266801Y-10201174D02*
X14266801Y-10248793D01*
X14266801Y-10248793D02*
X14257277Y-10286889D01*
X14257277Y-10286889D02*
X14247753Y-10305936D01*
X14247753Y-10305936D02*
X14238229Y-10315460D01*
X14238229Y-10315460D02*
X14219182Y-10324984D01*
X14219182Y-10324984D02*
X14200134Y-10324984D01*
X14200134Y-10324984D02*
X14181086Y-10315460D01*
X14181086Y-10315460D02*
X14171563Y-10305936D01*
X14171563Y-10305936D02*
X14162039Y-10286889D01*
X14162039Y-10286889D02*
X14152515Y-10248793D01*
X14152515Y-10248793D02*
X14152515Y-10201174D01*
X14152515Y-10201174D02*
X14162039Y-10163079D01*
X14162039Y-10163079D02*
X14171563Y-10144031D01*
X14171563Y-10144031D02*
X14181086Y-10134508D01*
X14181086Y-10134508D02*
X14200134Y-10124984D01*
X14352515Y-10305936D02*
X14362039Y-10315460D01*
X14362039Y-10315460D02*
X14352515Y-10324984D01*
X14352515Y-10324984D02*
X14342991Y-10315460D01*
X14342991Y-10315460D02*
X14352515Y-10305936D01*
X14352515Y-10305936D02*
X14352515Y-10324984D01*
X14485848Y-10124984D02*
X14504896Y-10124984D01*
X14504896Y-10124984D02*
X14523944Y-10134508D01*
X14523944Y-10134508D02*
X14533467Y-10144031D01*
X14533467Y-10144031D02*
X14542991Y-10163079D01*
X14542991Y-10163079D02*
X14552515Y-10201174D01*
X14552515Y-10201174D02*
X14552515Y-10248793D01*
X14552515Y-10248793D02*
X14542991Y-10286889D01*
X14542991Y-10286889D02*
X14533467Y-10305936D01*
X14533467Y-10305936D02*
X14523944Y-10315460D01*
X14523944Y-10315460D02*
X14504896Y-10324984D01*
X14504896Y-10324984D02*
X14485848Y-10324984D01*
X14485848Y-10324984D02*
X14466801Y-10315460D01*
X14466801Y-10315460D02*
X14457277Y-10305936D01*
X14457277Y-10305936D02*
X14447753Y-10286889D01*
X14447753Y-10286889D02*
X14438229Y-10248793D01*
X14438229Y-10248793D02*
X14438229Y-10201174D01*
X14438229Y-10201174D02*
X14447753Y-10163079D01*
X14447753Y-10163079D02*
X14457277Y-10144031D01*
X14457277Y-10144031D02*
X14466801Y-10134508D01*
X14466801Y-10134508D02*
X14485848Y-10124984D01*
X14628706Y-10144031D02*
X14638229Y-10134508D01*
X14638229Y-10134508D02*
X14657277Y-10124984D01*
X14657277Y-10124984D02*
X14704896Y-10124984D01*
X14704896Y-10124984D02*
X14723944Y-10134508D01*
X14723944Y-10134508D02*
X14733467Y-10144031D01*
X14733467Y-10144031D02*
X14742991Y-10163079D01*
X14742991Y-10163079D02*
X14742991Y-10182127D01*
X14742991Y-10182127D02*
X14733467Y-10210698D01*
X14733467Y-10210698D02*
X14619182Y-10324984D01*
X14619182Y-10324984D02*
X14742991Y-10324984D01*
X14923944Y-10124984D02*
X14828706Y-10124984D01*
X14828706Y-10124984D02*
X14819182Y-10220222D01*
X14819182Y-10220222D02*
X14828706Y-10210698D01*
X14828706Y-10210698D02*
X14847753Y-10201174D01*
X14847753Y-10201174D02*
X14895372Y-10201174D01*
X14895372Y-10201174D02*
X14914420Y-10210698D01*
X14914420Y-10210698D02*
X14923944Y-10220222D01*
X14923944Y-10220222D02*
X14933467Y-10239270D01*
X14933467Y-10239270D02*
X14933467Y-10286889D01*
X14933467Y-10286889D02*
X14923944Y-10305936D01*
X14923944Y-10305936D02*
X14914420Y-10315460D01*
X14914420Y-10315460D02*
X14895372Y-10324984D01*
X14895372Y-10324984D02*
X14847753Y-10324984D01*
X14847753Y-10324984D02*
X14828706Y-10315460D01*
X14828706Y-10315460D02*
X14819182Y-10305936D01*
X15104896Y-10124984D02*
X15066801Y-10124984D01*
X15066801Y-10124984D02*
X15047753Y-10134508D01*
X15047753Y-10134508D02*
X15038229Y-10144031D01*
X15038229Y-10144031D02*
X15019182Y-10172603D01*
X15019182Y-10172603D02*
X15009658Y-10210698D01*
X15009658Y-10210698D02*
X15009658Y-10286889D01*
X15009658Y-10286889D02*
X15019182Y-10305936D01*
X15019182Y-10305936D02*
X15028706Y-10315460D01*
X15028706Y-10315460D02*
X15047753Y-10324984D01*
X15047753Y-10324984D02*
X15085848Y-10324984D01*
X15085848Y-10324984D02*
X15104896Y-10315460D01*
X15104896Y-10315460D02*
X15114420Y-10305936D01*
X15114420Y-10305936D02*
X15123944Y-10286889D01*
X15123944Y-10286889D02*
X15123944Y-10239270D01*
X15123944Y-10239270D02*
X15114420Y-10220222D01*
X15114420Y-10220222D02*
X15104896Y-10210698D01*
X15104896Y-10210698D02*
X15085848Y-10201174D01*
X15085848Y-10201174D02*
X15047753Y-10201174D01*
X15047753Y-10201174D02*
X15028706Y-10210698D01*
X15028706Y-10210698D02*
X15019182Y-10220222D01*
X15019182Y-10220222D02*
X15009658Y-10239270D01*
X15200134Y-10124984D02*
X15200134Y-10163079D01*
X15276325Y-10124984D02*
X15276325Y-10163079D01*
X15571563Y-10401174D02*
X15562039Y-10391650D01*
X15562039Y-10391650D02*
X15542991Y-10363079D01*
X15542991Y-10363079D02*
X15533468Y-10344031D01*
X15533468Y-10344031D02*
X15523944Y-10315460D01*
X15523944Y-10315460D02*
X15514420Y-10267841D01*
X15514420Y-10267841D02*
X15514420Y-10229746D01*
X15514420Y-10229746D02*
X15523944Y-10182127D01*
X15523944Y-10182127D02*
X15533468Y-10153555D01*
X15533468Y-10153555D02*
X15542991Y-10134508D01*
X15542991Y-10134508D02*
X15562039Y-10105936D01*
X15562039Y-10105936D02*
X15571563Y-10096412D01*
X15638229Y-10144031D02*
X15647753Y-10134508D01*
X15647753Y-10134508D02*
X15666801Y-10124984D01*
X15666801Y-10124984D02*
X15714420Y-10124984D01*
X15714420Y-10124984D02*
X15733468Y-10134508D01*
X15733468Y-10134508D02*
X15742991Y-10144031D01*
X15742991Y-10144031D02*
X15752515Y-10163079D01*
X15752515Y-10163079D02*
X15752515Y-10182127D01*
X15752515Y-10182127D02*
X15742991Y-10210698D01*
X15742991Y-10210698D02*
X15628706Y-10324984D01*
X15628706Y-10324984D02*
X15752515Y-10324984D01*
X15990610Y-10324984D02*
X15990610Y-10124984D01*
X16076325Y-10324984D02*
X16076325Y-10220222D01*
X16076325Y-10220222D02*
X16066801Y-10201174D01*
X16066801Y-10201174D02*
X16047753Y-10191650D01*
X16047753Y-10191650D02*
X16019182Y-10191650D01*
X16019182Y-10191650D02*
X16000134Y-10201174D01*
X16000134Y-10201174D02*
X15990610Y-10210698D01*
X16200134Y-10324984D02*
X16181087Y-10315460D01*
X16181087Y-10315460D02*
X16171563Y-10305936D01*
X16171563Y-10305936D02*
X16162039Y-10286889D01*
X16162039Y-10286889D02*
X16162039Y-10229746D01*
X16162039Y-10229746D02*
X16171563Y-10210698D01*
X16171563Y-10210698D02*
X16181087Y-10201174D01*
X16181087Y-10201174D02*
X16200134Y-10191650D01*
X16200134Y-10191650D02*
X16228706Y-10191650D01*
X16228706Y-10191650D02*
X16247753Y-10201174D01*
X16247753Y-10201174D02*
X16257277Y-10210698D01*
X16257277Y-10210698D02*
X16266801Y-10229746D01*
X16266801Y-10229746D02*
X16266801Y-10286889D01*
X16266801Y-10286889D02*
X16257277Y-10305936D01*
X16257277Y-10305936D02*
X16247753Y-10315460D01*
X16247753Y-10315460D02*
X16228706Y-10324984D01*
X16228706Y-10324984D02*
X16200134Y-10324984D01*
X16381087Y-10324984D02*
X16362039Y-10315460D01*
X16362039Y-10315460D02*
X16352515Y-10296412D01*
X16352515Y-10296412D02*
X16352515Y-10124984D01*
X16533468Y-10315460D02*
X16514420Y-10324984D01*
X16514420Y-10324984D02*
X16476325Y-10324984D01*
X16476325Y-10324984D02*
X16457277Y-10315460D01*
X16457277Y-10315460D02*
X16447753Y-10296412D01*
X16447753Y-10296412D02*
X16447753Y-10220222D01*
X16447753Y-10220222D02*
X16457277Y-10201174D01*
X16457277Y-10201174D02*
X16476325Y-10191650D01*
X16476325Y-10191650D02*
X16514420Y-10191650D01*
X16514420Y-10191650D02*
X16533468Y-10201174D01*
X16533468Y-10201174D02*
X16542991Y-10220222D01*
X16542991Y-10220222D02*
X16542991Y-10239270D01*
X16542991Y-10239270D02*
X16447753Y-10258317D01*
X16619182Y-10315460D02*
X16638230Y-10324984D01*
X16638230Y-10324984D02*
X16676325Y-10324984D01*
X16676325Y-10324984D02*
X16695372Y-10315460D01*
X16695372Y-10315460D02*
X16704896Y-10296412D01*
X16704896Y-10296412D02*
X16704896Y-10286889D01*
X16704896Y-10286889D02*
X16695372Y-10267841D01*
X16695372Y-10267841D02*
X16676325Y-10258317D01*
X16676325Y-10258317D02*
X16647753Y-10258317D01*
X16647753Y-10258317D02*
X16628706Y-10248793D01*
X16628706Y-10248793D02*
X16619182Y-10229746D01*
X16619182Y-10229746D02*
X16619182Y-10220222D01*
X16619182Y-10220222D02*
X16628706Y-10201174D01*
X16628706Y-10201174D02*
X16647753Y-10191650D01*
X16647753Y-10191650D02*
X16676325Y-10191650D01*
X16676325Y-10191650D02*
X16695372Y-10201174D01*
X16771563Y-10401174D02*
X16781087Y-10391650D01*
X16781087Y-10391650D02*
X16800134Y-10363079D01*
X16800134Y-10363079D02*
X16809658Y-10344031D01*
X16809658Y-10344031D02*
X16819182Y-10315460D01*
X16819182Y-10315460D02*
X16828706Y-10267841D01*
X16828706Y-10267841D02*
X16828706Y-10229746D01*
X16828706Y-10229746D02*
X16819182Y-10182127D01*
X16819182Y-10182127D02*
X16809658Y-10153555D01*
X16809658Y-10153555D02*
X16800134Y-10134508D01*
X16800134Y-10134508D02*
X16781087Y-10105936D01*
X16781087Y-10105936D02*
X16771563Y-10096412D01*
X17133468Y-10401174D02*
X17123944Y-10391650D01*
X17123944Y-10391650D02*
X17104896Y-10363079D01*
X17104896Y-10363079D02*
X17095373Y-10344031D01*
X17095373Y-10344031D02*
X17085849Y-10315460D01*
X17085849Y-10315460D02*
X17076325Y-10267841D01*
X17076325Y-10267841D02*
X17076325Y-10229746D01*
X17076325Y-10229746D02*
X17085849Y-10182127D01*
X17085849Y-10182127D02*
X17095373Y-10153555D01*
X17095373Y-10153555D02*
X17104896Y-10134508D01*
X17104896Y-10134508D02*
X17123944Y-10105936D01*
X17123944Y-10105936D02*
X17133468Y-10096412D01*
X17209658Y-10191650D02*
X17209658Y-10324984D01*
X17209658Y-10210698D02*
X17219182Y-10201174D01*
X17219182Y-10201174D02*
X17238230Y-10191650D01*
X17238230Y-10191650D02*
X17266801Y-10191650D01*
X17266801Y-10191650D02*
X17285849Y-10201174D01*
X17285849Y-10201174D02*
X17295373Y-10220222D01*
X17295373Y-10220222D02*
X17295373Y-10324984D01*
X17419182Y-10324984D02*
X17400134Y-10315460D01*
X17400134Y-10315460D02*
X17390611Y-10305936D01*
X17390611Y-10305936D02*
X17381087Y-10286889D01*
X17381087Y-10286889D02*
X17381087Y-10229746D01*
X17381087Y-10229746D02*
X17390611Y-10210698D01*
X17390611Y-10210698D02*
X17400134Y-10201174D01*
X17400134Y-10201174D02*
X17419182Y-10191650D01*
X17419182Y-10191650D02*
X17447754Y-10191650D01*
X17447754Y-10191650D02*
X17466801Y-10201174D01*
X17466801Y-10201174D02*
X17476325Y-10210698D01*
X17476325Y-10210698D02*
X17485849Y-10229746D01*
X17485849Y-10229746D02*
X17485849Y-10286889D01*
X17485849Y-10286889D02*
X17476325Y-10305936D01*
X17476325Y-10305936D02*
X17466801Y-10315460D01*
X17466801Y-10315460D02*
X17447754Y-10324984D01*
X17447754Y-10324984D02*
X17419182Y-10324984D01*
X17542992Y-10191650D02*
X17619182Y-10191650D01*
X17571563Y-10124984D02*
X17571563Y-10296412D01*
X17571563Y-10296412D02*
X17581087Y-10315460D01*
X17581087Y-10315460D02*
X17600134Y-10324984D01*
X17600134Y-10324984D02*
X17619182Y-10324984D01*
X17838230Y-10191650D02*
X17838230Y-10391650D01*
X17838230Y-10201174D02*
X17857277Y-10191650D01*
X17857277Y-10191650D02*
X17895373Y-10191650D01*
X17895373Y-10191650D02*
X17914420Y-10201174D01*
X17914420Y-10201174D02*
X17923944Y-10210698D01*
X17923944Y-10210698D02*
X17933468Y-10229746D01*
X17933468Y-10229746D02*
X17933468Y-10286889D01*
X17933468Y-10286889D02*
X17923944Y-10305936D01*
X17923944Y-10305936D02*
X17914420Y-10315460D01*
X17914420Y-10315460D02*
X17895373Y-10324984D01*
X17895373Y-10324984D02*
X17857277Y-10324984D01*
X17857277Y-10324984D02*
X17838230Y-10315460D01*
X18047754Y-10324984D02*
X18028706Y-10315460D01*
X18028706Y-10315460D02*
X18019182Y-10296412D01*
X18019182Y-10296412D02*
X18019182Y-10124984D01*
X18209658Y-10324984D02*
X18209658Y-10220222D01*
X18209658Y-10220222D02*
X18200135Y-10201174D01*
X18200135Y-10201174D02*
X18181087Y-10191650D01*
X18181087Y-10191650D02*
X18142992Y-10191650D01*
X18142992Y-10191650D02*
X18123944Y-10201174D01*
X18209658Y-10315460D02*
X18190611Y-10324984D01*
X18190611Y-10324984D02*
X18142992Y-10324984D01*
X18142992Y-10324984D02*
X18123944Y-10315460D01*
X18123944Y-10315460D02*
X18114420Y-10296412D01*
X18114420Y-10296412D02*
X18114420Y-10277365D01*
X18114420Y-10277365D02*
X18123944Y-10258317D01*
X18123944Y-10258317D02*
X18142992Y-10248793D01*
X18142992Y-10248793D02*
X18190611Y-10248793D01*
X18190611Y-10248793D02*
X18209658Y-10239270D01*
X18276325Y-10191650D02*
X18352515Y-10191650D01*
X18304896Y-10124984D02*
X18304896Y-10296412D01*
X18304896Y-10296412D02*
X18314420Y-10315460D01*
X18314420Y-10315460D02*
X18333468Y-10324984D01*
X18333468Y-10324984D02*
X18352515Y-10324984D01*
X18495373Y-10315460D02*
X18476325Y-10324984D01*
X18476325Y-10324984D02*
X18438230Y-10324984D01*
X18438230Y-10324984D02*
X18419182Y-10315460D01*
X18419182Y-10315460D02*
X18409658Y-10296412D01*
X18409658Y-10296412D02*
X18409658Y-10220222D01*
X18409658Y-10220222D02*
X18419182Y-10201174D01*
X18419182Y-10201174D02*
X18438230Y-10191650D01*
X18438230Y-10191650D02*
X18476325Y-10191650D01*
X18476325Y-10191650D02*
X18495373Y-10201174D01*
X18495373Y-10201174D02*
X18504896Y-10220222D01*
X18504896Y-10220222D02*
X18504896Y-10239270D01*
X18504896Y-10239270D02*
X18409658Y-10258317D01*
X18676325Y-10324984D02*
X18676325Y-10124984D01*
X18676325Y-10315460D02*
X18657277Y-10324984D01*
X18657277Y-10324984D02*
X18619182Y-10324984D01*
X18619182Y-10324984D02*
X18600135Y-10315460D01*
X18600135Y-10315460D02*
X18590611Y-10305936D01*
X18590611Y-10305936D02*
X18581087Y-10286889D01*
X18581087Y-10286889D02*
X18581087Y-10229746D01*
X18581087Y-10229746D02*
X18590611Y-10210698D01*
X18590611Y-10210698D02*
X18600135Y-10201174D01*
X18600135Y-10201174D02*
X18619182Y-10191650D01*
X18619182Y-10191650D02*
X18657277Y-10191650D01*
X18657277Y-10191650D02*
X18676325Y-10201174D01*
X18752516Y-10401174D02*
X18762039Y-10391650D01*
X18762039Y-10391650D02*
X18781087Y-10363079D01*
X18781087Y-10363079D02*
X18790611Y-10344031D01*
X18790611Y-10344031D02*
X18800135Y-10315460D01*
X18800135Y-10315460D02*
X18809658Y-10267841D01*
X18809658Y-10267841D02*
X18809658Y-10229746D01*
X18809658Y-10229746D02*
X18800135Y-10182127D01*
X18800135Y-10182127D02*
X18790611Y-10153555D01*
X18790611Y-10153555D02*
X18781087Y-10134508D01*
X18781087Y-10134508D02*
X18762039Y-10105936D01*
X18762039Y-10105936D02*
X18752516Y-10096412D01*
X11996500Y-10497500D02*
G75*
G03*
X11996500Y-10497500I-100000J0D01*
G01*
X12238229Y-10388984D02*
X12362039Y-10388984D01*
X12362039Y-10388984D02*
X12295372Y-10465174D01*
X12295372Y-10465174D02*
X12323943Y-10465174D01*
X12323943Y-10465174D02*
X12342991Y-10474698D01*
X12342991Y-10474698D02*
X12352515Y-10484222D01*
X12352515Y-10484222D02*
X12362039Y-10503270D01*
X12362039Y-10503270D02*
X12362039Y-10550889D01*
X12362039Y-10550889D02*
X12352515Y-10569936D01*
X12352515Y-10569936D02*
X12342991Y-10579460D01*
X12342991Y-10579460D02*
X12323943Y-10588984D01*
X12323943Y-10588984D02*
X12266801Y-10588984D01*
X12266801Y-10588984D02*
X12247753Y-10579460D01*
X12247753Y-10579460D02*
X12238229Y-10569936D01*
X12447753Y-10569936D02*
X12457277Y-10579460D01*
X12457277Y-10579460D02*
X12447753Y-10588984D01*
X12447753Y-10588984D02*
X12438229Y-10579460D01*
X12438229Y-10579460D02*
X12447753Y-10569936D01*
X12447753Y-10569936D02*
X12447753Y-10588984D01*
X12581086Y-10388984D02*
X12600134Y-10388984D01*
X12600134Y-10388984D02*
X12619182Y-10398508D01*
X12619182Y-10398508D02*
X12628705Y-10408031D01*
X12628705Y-10408031D02*
X12638229Y-10427079D01*
X12638229Y-10427079D02*
X12647753Y-10465174D01*
X12647753Y-10465174D02*
X12647753Y-10512793D01*
X12647753Y-10512793D02*
X12638229Y-10550889D01*
X12638229Y-10550889D02*
X12628705Y-10569936D01*
X12628705Y-10569936D02*
X12619182Y-10579460D01*
X12619182Y-10579460D02*
X12600134Y-10588984D01*
X12600134Y-10588984D02*
X12581086Y-10588984D01*
X12581086Y-10588984D02*
X12562039Y-10579460D01*
X12562039Y-10579460D02*
X12552515Y-10569936D01*
X12552515Y-10569936D02*
X12542991Y-10550889D01*
X12542991Y-10550889D02*
X12533467Y-10512793D01*
X12533467Y-10512793D02*
X12533467Y-10465174D01*
X12533467Y-10465174D02*
X12542991Y-10427079D01*
X12542991Y-10427079D02*
X12552515Y-10408031D01*
X12552515Y-10408031D02*
X12562039Y-10398508D01*
X12562039Y-10398508D02*
X12581086Y-10388984D01*
X12771562Y-10388984D02*
X12790610Y-10388984D01*
X12790610Y-10388984D02*
X12809658Y-10398508D01*
X12809658Y-10398508D02*
X12819182Y-10408031D01*
X12819182Y-10408031D02*
X12828705Y-10427079D01*
X12828705Y-10427079D02*
X12838229Y-10465174D01*
X12838229Y-10465174D02*
X12838229Y-10512793D01*
X12838229Y-10512793D02*
X12828705Y-10550889D01*
X12828705Y-10550889D02*
X12819182Y-10569936D01*
X12819182Y-10569936D02*
X12809658Y-10579460D01*
X12809658Y-10579460D02*
X12790610Y-10588984D01*
X12790610Y-10588984D02*
X12771562Y-10588984D01*
X12771562Y-10588984D02*
X12752515Y-10579460D01*
X12752515Y-10579460D02*
X12742991Y-10569936D01*
X12742991Y-10569936D02*
X12733467Y-10550889D01*
X12733467Y-10550889D02*
X12723943Y-10512793D01*
X12723943Y-10512793D02*
X12723943Y-10465174D01*
X12723943Y-10465174D02*
X12733467Y-10427079D01*
X12733467Y-10427079D02*
X12742991Y-10408031D01*
X12742991Y-10408031D02*
X12752515Y-10398508D01*
X12752515Y-10398508D02*
X12771562Y-10388984D01*
X12962039Y-10388984D02*
X12981086Y-10388984D01*
X12981086Y-10388984D02*
X13000134Y-10398508D01*
X13000134Y-10398508D02*
X13009658Y-10408031D01*
X13009658Y-10408031D02*
X13019182Y-10427079D01*
X13019182Y-10427079D02*
X13028705Y-10465174D01*
X13028705Y-10465174D02*
X13028705Y-10512793D01*
X13028705Y-10512793D02*
X13019182Y-10550889D01*
X13019182Y-10550889D02*
X13009658Y-10569936D01*
X13009658Y-10569936D02*
X13000134Y-10579460D01*
X13000134Y-10579460D02*
X12981086Y-10588984D01*
X12981086Y-10588984D02*
X12962039Y-10588984D01*
X12962039Y-10588984D02*
X12942991Y-10579460D01*
X12942991Y-10579460D02*
X12933467Y-10569936D01*
X12933467Y-10569936D02*
X12923943Y-10550889D01*
X12923943Y-10550889D02*
X12914420Y-10512793D01*
X12914420Y-10512793D02*
X12914420Y-10465174D01*
X12914420Y-10465174D02*
X12923943Y-10427079D01*
X12923943Y-10427079D02*
X12933467Y-10408031D01*
X12933467Y-10408031D02*
X12942991Y-10398508D01*
X12942991Y-10398508D02*
X12962039Y-10388984D01*
X13114420Y-10588984D02*
X13114420Y-10455650D01*
X13114420Y-10474698D02*
X13123943Y-10465174D01*
X13123943Y-10465174D02*
X13142991Y-10455650D01*
X13142991Y-10455650D02*
X13171563Y-10455650D01*
X13171563Y-10455650D02*
X13190610Y-10465174D01*
X13190610Y-10465174D02*
X13200134Y-10484222D01*
X13200134Y-10484222D02*
X13200134Y-10588984D01*
X13200134Y-10484222D02*
X13209658Y-10465174D01*
X13209658Y-10465174D02*
X13228705Y-10455650D01*
X13228705Y-10455650D02*
X13257277Y-10455650D01*
X13257277Y-10455650D02*
X13276324Y-10465174D01*
X13276324Y-10465174D02*
X13285848Y-10484222D01*
X13285848Y-10484222D02*
X13285848Y-10588984D01*
X13381086Y-10588984D02*
X13381086Y-10455650D01*
X13381086Y-10474698D02*
X13390610Y-10465174D01*
X13390610Y-10465174D02*
X13409658Y-10455650D01*
X13409658Y-10455650D02*
X13438229Y-10455650D01*
X13438229Y-10455650D02*
X13457277Y-10465174D01*
X13457277Y-10465174D02*
X13466801Y-10484222D01*
X13466801Y-10484222D02*
X13466801Y-10588984D01*
X13466801Y-10484222D02*
X13476324Y-10465174D01*
X13476324Y-10465174D02*
X13495372Y-10455650D01*
X13495372Y-10455650D02*
X13523943Y-10455650D01*
X13523943Y-10455650D02*
X13542991Y-10465174D01*
X13542991Y-10465174D02*
X13552515Y-10484222D01*
X13552515Y-10484222D02*
X13552515Y-10588984D01*
X13942991Y-10379460D02*
X13771563Y-10636603D01*
X14200134Y-10388984D02*
X14219182Y-10388984D01*
X14219182Y-10388984D02*
X14238229Y-10398508D01*
X14238229Y-10398508D02*
X14247753Y-10408031D01*
X14247753Y-10408031D02*
X14257277Y-10427079D01*
X14257277Y-10427079D02*
X14266801Y-10465174D01*
X14266801Y-10465174D02*
X14266801Y-10512793D01*
X14266801Y-10512793D02*
X14257277Y-10550889D01*
X14257277Y-10550889D02*
X14247753Y-10569936D01*
X14247753Y-10569936D02*
X14238229Y-10579460D01*
X14238229Y-10579460D02*
X14219182Y-10588984D01*
X14219182Y-10588984D02*
X14200134Y-10588984D01*
X14200134Y-10588984D02*
X14181086Y-10579460D01*
X14181086Y-10579460D02*
X14171563Y-10569936D01*
X14171563Y-10569936D02*
X14162039Y-10550889D01*
X14162039Y-10550889D02*
X14152515Y-10512793D01*
X14152515Y-10512793D02*
X14152515Y-10465174D01*
X14152515Y-10465174D02*
X14162039Y-10427079D01*
X14162039Y-10427079D02*
X14171563Y-10408031D01*
X14171563Y-10408031D02*
X14181086Y-10398508D01*
X14181086Y-10398508D02*
X14200134Y-10388984D01*
X14352515Y-10569936D02*
X14362039Y-10579460D01*
X14362039Y-10579460D02*
X14352515Y-10588984D01*
X14352515Y-10588984D02*
X14342991Y-10579460D01*
X14342991Y-10579460D02*
X14352515Y-10569936D01*
X14352515Y-10569936D02*
X14352515Y-10588984D01*
X14552515Y-10588984D02*
X14438229Y-10588984D01*
X14495372Y-10588984D02*
X14495372Y-10388984D01*
X14495372Y-10388984D02*
X14476325Y-10417555D01*
X14476325Y-10417555D02*
X14457277Y-10436603D01*
X14457277Y-10436603D02*
X14438229Y-10446127D01*
X14742991Y-10588984D02*
X14628706Y-10588984D01*
X14685848Y-10588984D02*
X14685848Y-10388984D01*
X14685848Y-10388984D02*
X14666801Y-10417555D01*
X14666801Y-10417555D02*
X14647753Y-10436603D01*
X14647753Y-10436603D02*
X14628706Y-10446127D01*
X14857277Y-10474698D02*
X14838229Y-10465174D01*
X14838229Y-10465174D02*
X14828706Y-10455650D01*
X14828706Y-10455650D02*
X14819182Y-10436603D01*
X14819182Y-10436603D02*
X14819182Y-10427079D01*
X14819182Y-10427079D02*
X14828706Y-10408031D01*
X14828706Y-10408031D02*
X14838229Y-10398508D01*
X14838229Y-10398508D02*
X14857277Y-10388984D01*
X14857277Y-10388984D02*
X14895372Y-10388984D01*
X14895372Y-10388984D02*
X14914420Y-10398508D01*
X14914420Y-10398508D02*
X14923944Y-10408031D01*
X14923944Y-10408031D02*
X14933467Y-10427079D01*
X14933467Y-10427079D02*
X14933467Y-10436603D01*
X14933467Y-10436603D02*
X14923944Y-10455650D01*
X14923944Y-10455650D02*
X14914420Y-10465174D01*
X14914420Y-10465174D02*
X14895372Y-10474698D01*
X14895372Y-10474698D02*
X14857277Y-10474698D01*
X14857277Y-10474698D02*
X14838229Y-10484222D01*
X14838229Y-10484222D02*
X14828706Y-10493746D01*
X14828706Y-10493746D02*
X14819182Y-10512793D01*
X14819182Y-10512793D02*
X14819182Y-10550889D01*
X14819182Y-10550889D02*
X14828706Y-10569936D01*
X14828706Y-10569936D02*
X14838229Y-10579460D01*
X14838229Y-10579460D02*
X14857277Y-10588984D01*
X14857277Y-10588984D02*
X14895372Y-10588984D01*
X14895372Y-10588984D02*
X14914420Y-10579460D01*
X14914420Y-10579460D02*
X14923944Y-10569936D01*
X14923944Y-10569936D02*
X14933467Y-10550889D01*
X14933467Y-10550889D02*
X14933467Y-10512793D01*
X14933467Y-10512793D02*
X14923944Y-10493746D01*
X14923944Y-10493746D02*
X14914420Y-10484222D01*
X14914420Y-10484222D02*
X14895372Y-10474698D01*
X15123944Y-10588984D02*
X15009658Y-10588984D01*
X15066801Y-10588984D02*
X15066801Y-10388984D01*
X15066801Y-10388984D02*
X15047753Y-10417555D01*
X15047753Y-10417555D02*
X15028706Y-10436603D01*
X15028706Y-10436603D02*
X15009658Y-10446127D01*
X15200134Y-10388984D02*
X15200134Y-10427079D01*
X15276325Y-10388984D02*
X15276325Y-10427079D01*
X15571563Y-10665174D02*
X15562039Y-10655650D01*
X15562039Y-10655650D02*
X15542991Y-10627079D01*
X15542991Y-10627079D02*
X15533468Y-10608031D01*
X15533468Y-10608031D02*
X15523944Y-10579460D01*
X15523944Y-10579460D02*
X15514420Y-10531841D01*
X15514420Y-10531841D02*
X15514420Y-10493746D01*
X15514420Y-10493746D02*
X15523944Y-10446127D01*
X15523944Y-10446127D02*
X15533468Y-10417555D01*
X15533468Y-10417555D02*
X15542991Y-10398508D01*
X15542991Y-10398508D02*
X15562039Y-10369936D01*
X15562039Y-10369936D02*
X15571563Y-10360412D01*
X15733468Y-10455650D02*
X15733468Y-10588984D01*
X15685848Y-10379460D02*
X15638229Y-10522317D01*
X15638229Y-10522317D02*
X15762039Y-10522317D01*
X15990610Y-10588984D02*
X15990610Y-10388984D01*
X16076325Y-10588984D02*
X16076325Y-10484222D01*
X16076325Y-10484222D02*
X16066801Y-10465174D01*
X16066801Y-10465174D02*
X16047753Y-10455650D01*
X16047753Y-10455650D02*
X16019182Y-10455650D01*
X16019182Y-10455650D02*
X16000134Y-10465174D01*
X16000134Y-10465174D02*
X15990610Y-10474698D01*
X16200134Y-10588984D02*
X16181087Y-10579460D01*
X16181087Y-10579460D02*
X16171563Y-10569936D01*
X16171563Y-10569936D02*
X16162039Y-10550889D01*
X16162039Y-10550889D02*
X16162039Y-10493746D01*
X16162039Y-10493746D02*
X16171563Y-10474698D01*
X16171563Y-10474698D02*
X16181087Y-10465174D01*
X16181087Y-10465174D02*
X16200134Y-10455650D01*
X16200134Y-10455650D02*
X16228706Y-10455650D01*
X16228706Y-10455650D02*
X16247753Y-10465174D01*
X16247753Y-10465174D02*
X16257277Y-10474698D01*
X16257277Y-10474698D02*
X16266801Y-10493746D01*
X16266801Y-10493746D02*
X16266801Y-10550889D01*
X16266801Y-10550889D02*
X16257277Y-10569936D01*
X16257277Y-10569936D02*
X16247753Y-10579460D01*
X16247753Y-10579460D02*
X16228706Y-10588984D01*
X16228706Y-10588984D02*
X16200134Y-10588984D01*
X16381087Y-10588984D02*
X16362039Y-10579460D01*
X16362039Y-10579460D02*
X16352515Y-10560412D01*
X16352515Y-10560412D02*
X16352515Y-10388984D01*
X16533468Y-10579460D02*
X16514420Y-10588984D01*
X16514420Y-10588984D02*
X16476325Y-10588984D01*
X16476325Y-10588984D02*
X16457277Y-10579460D01*
X16457277Y-10579460D02*
X16447753Y-10560412D01*
X16447753Y-10560412D02*
X16447753Y-10484222D01*
X16447753Y-10484222D02*
X16457277Y-10465174D01*
X16457277Y-10465174D02*
X16476325Y-10455650D01*
X16476325Y-10455650D02*
X16514420Y-10455650D01*
X16514420Y-10455650D02*
X16533468Y-10465174D01*
X16533468Y-10465174D02*
X16542991Y-10484222D01*
X16542991Y-10484222D02*
X16542991Y-10503270D01*
X16542991Y-10503270D02*
X16447753Y-10522317D01*
X16619182Y-10579460D02*
X16638230Y-10588984D01*
X16638230Y-10588984D02*
X16676325Y-10588984D01*
X16676325Y-10588984D02*
X16695372Y-10579460D01*
X16695372Y-10579460D02*
X16704896Y-10560412D01*
X16704896Y-10560412D02*
X16704896Y-10550889D01*
X16704896Y-10550889D02*
X16695372Y-10531841D01*
X16695372Y-10531841D02*
X16676325Y-10522317D01*
X16676325Y-10522317D02*
X16647753Y-10522317D01*
X16647753Y-10522317D02*
X16628706Y-10512793D01*
X16628706Y-10512793D02*
X16619182Y-10493746D01*
X16619182Y-10493746D02*
X16619182Y-10484222D01*
X16619182Y-10484222D02*
X16628706Y-10465174D01*
X16628706Y-10465174D02*
X16647753Y-10455650D01*
X16647753Y-10455650D02*
X16676325Y-10455650D01*
X16676325Y-10455650D02*
X16695372Y-10465174D01*
X16771563Y-10665174D02*
X16781087Y-10655650D01*
X16781087Y-10655650D02*
X16800134Y-10627079D01*
X16800134Y-10627079D02*
X16809658Y-10608031D01*
X16809658Y-10608031D02*
X16819182Y-10579460D01*
X16819182Y-10579460D02*
X16828706Y-10531841D01*
X16828706Y-10531841D02*
X16828706Y-10493746D01*
X16828706Y-10493746D02*
X16819182Y-10446127D01*
X16819182Y-10446127D02*
X16809658Y-10417555D01*
X16809658Y-10417555D02*
X16800134Y-10398508D01*
X16800134Y-10398508D02*
X16781087Y-10369936D01*
X16781087Y-10369936D02*
X16771563Y-10360412D01*
X17133468Y-10665174D02*
X17123944Y-10655650D01*
X17123944Y-10655650D02*
X17104896Y-10627079D01*
X17104896Y-10627079D02*
X17095373Y-10608031D01*
X17095373Y-10608031D02*
X17085849Y-10579460D01*
X17085849Y-10579460D02*
X17076325Y-10531841D01*
X17076325Y-10531841D02*
X17076325Y-10493746D01*
X17076325Y-10493746D02*
X17085849Y-10446127D01*
X17085849Y-10446127D02*
X17095373Y-10417555D01*
X17095373Y-10417555D02*
X17104896Y-10398508D01*
X17104896Y-10398508D02*
X17123944Y-10369936D01*
X17123944Y-10369936D02*
X17133468Y-10360412D01*
X17209658Y-10455650D02*
X17209658Y-10588984D01*
X17209658Y-10474698D02*
X17219182Y-10465174D01*
X17219182Y-10465174D02*
X17238230Y-10455650D01*
X17238230Y-10455650D02*
X17266801Y-10455650D01*
X17266801Y-10455650D02*
X17285849Y-10465174D01*
X17285849Y-10465174D02*
X17295373Y-10484222D01*
X17295373Y-10484222D02*
X17295373Y-10588984D01*
X17419182Y-10588984D02*
X17400134Y-10579460D01*
X17400134Y-10579460D02*
X17390611Y-10569936D01*
X17390611Y-10569936D02*
X17381087Y-10550889D01*
X17381087Y-10550889D02*
X17381087Y-10493746D01*
X17381087Y-10493746D02*
X17390611Y-10474698D01*
X17390611Y-10474698D02*
X17400134Y-10465174D01*
X17400134Y-10465174D02*
X17419182Y-10455650D01*
X17419182Y-10455650D02*
X17447754Y-10455650D01*
X17447754Y-10455650D02*
X17466801Y-10465174D01*
X17466801Y-10465174D02*
X17476325Y-10474698D01*
X17476325Y-10474698D02*
X17485849Y-10493746D01*
X17485849Y-10493746D02*
X17485849Y-10550889D01*
X17485849Y-10550889D02*
X17476325Y-10569936D01*
X17476325Y-10569936D02*
X17466801Y-10579460D01*
X17466801Y-10579460D02*
X17447754Y-10588984D01*
X17447754Y-10588984D02*
X17419182Y-10588984D01*
X17542992Y-10455650D02*
X17619182Y-10455650D01*
X17571563Y-10388984D02*
X17571563Y-10560412D01*
X17571563Y-10560412D02*
X17581087Y-10579460D01*
X17581087Y-10579460D02*
X17600134Y-10588984D01*
X17600134Y-10588984D02*
X17619182Y-10588984D01*
X17838230Y-10455650D02*
X17838230Y-10655650D01*
X17838230Y-10465174D02*
X17857277Y-10455650D01*
X17857277Y-10455650D02*
X17895373Y-10455650D01*
X17895373Y-10455650D02*
X17914420Y-10465174D01*
X17914420Y-10465174D02*
X17923944Y-10474698D01*
X17923944Y-10474698D02*
X17933468Y-10493746D01*
X17933468Y-10493746D02*
X17933468Y-10550889D01*
X17933468Y-10550889D02*
X17923944Y-10569936D01*
X17923944Y-10569936D02*
X17914420Y-10579460D01*
X17914420Y-10579460D02*
X17895373Y-10588984D01*
X17895373Y-10588984D02*
X17857277Y-10588984D01*
X17857277Y-10588984D02*
X17838230Y-10579460D01*
X18047754Y-10588984D02*
X18028706Y-10579460D01*
X18028706Y-10579460D02*
X18019182Y-10560412D01*
X18019182Y-10560412D02*
X18019182Y-10388984D01*
X18209658Y-10588984D02*
X18209658Y-10484222D01*
X18209658Y-10484222D02*
X18200135Y-10465174D01*
X18200135Y-10465174D02*
X18181087Y-10455650D01*
X18181087Y-10455650D02*
X18142992Y-10455650D01*
X18142992Y-10455650D02*
X18123944Y-10465174D01*
X18209658Y-10579460D02*
X18190611Y-10588984D01*
X18190611Y-10588984D02*
X18142992Y-10588984D01*
X18142992Y-10588984D02*
X18123944Y-10579460D01*
X18123944Y-10579460D02*
X18114420Y-10560412D01*
X18114420Y-10560412D02*
X18114420Y-10541365D01*
X18114420Y-10541365D02*
X18123944Y-10522317D01*
X18123944Y-10522317D02*
X18142992Y-10512793D01*
X18142992Y-10512793D02*
X18190611Y-10512793D01*
X18190611Y-10512793D02*
X18209658Y-10503270D01*
X18276325Y-10455650D02*
X18352515Y-10455650D01*
X18304896Y-10388984D02*
X18304896Y-10560412D01*
X18304896Y-10560412D02*
X18314420Y-10579460D01*
X18314420Y-10579460D02*
X18333468Y-10588984D01*
X18333468Y-10588984D02*
X18352515Y-10588984D01*
X18495373Y-10579460D02*
X18476325Y-10588984D01*
X18476325Y-10588984D02*
X18438230Y-10588984D01*
X18438230Y-10588984D02*
X18419182Y-10579460D01*
X18419182Y-10579460D02*
X18409658Y-10560412D01*
X18409658Y-10560412D02*
X18409658Y-10484222D01*
X18409658Y-10484222D02*
X18419182Y-10465174D01*
X18419182Y-10465174D02*
X18438230Y-10455650D01*
X18438230Y-10455650D02*
X18476325Y-10455650D01*
X18476325Y-10455650D02*
X18495373Y-10465174D01*
X18495373Y-10465174D02*
X18504896Y-10484222D01*
X18504896Y-10484222D02*
X18504896Y-10503270D01*
X18504896Y-10503270D02*
X18409658Y-10522317D01*
X18676325Y-10588984D02*
X18676325Y-10388984D01*
X18676325Y-10579460D02*
X18657277Y-10588984D01*
X18657277Y-10588984D02*
X18619182Y-10588984D01*
X18619182Y-10588984D02*
X18600135Y-10579460D01*
X18600135Y-10579460D02*
X18590611Y-10569936D01*
X18590611Y-10569936D02*
X18581087Y-10550889D01*
X18581087Y-10550889D02*
X18581087Y-10493746D01*
X18581087Y-10493746D02*
X18590611Y-10474698D01*
X18590611Y-10474698D02*
X18600135Y-10465174D01*
X18600135Y-10465174D02*
X18619182Y-10455650D01*
X18619182Y-10455650D02*
X18657277Y-10455650D01*
X18657277Y-10455650D02*
X18676325Y-10465174D01*
X18752516Y-10665174D02*
X18762039Y-10655650D01*
X18762039Y-10655650D02*
X18781087Y-10627079D01*
X18781087Y-10627079D02*
X18790611Y-10608031D01*
X18790611Y-10608031D02*
X18800135Y-10579460D01*
X18800135Y-10579460D02*
X18809658Y-10531841D01*
X18809658Y-10531841D02*
X18809658Y-10493746D01*
X18809658Y-10493746D02*
X18800135Y-10446127D01*
X18800135Y-10446127D02*
X18790611Y-10417555D01*
X18790611Y-10417555D02*
X18781087Y-10398508D01*
X18781087Y-10398508D02*
X18762039Y-10369936D01*
X18762039Y-10369936D02*
X18752516Y-10360412D01*
M02*
