M48
; DRILL file {KiCad 7.0.5} date Tue Mar  5 09:12:11 2024
; FORMAT={-:-/ absolute / inch / decimal}
; #@! TF.CreationDate,2024-03-05T09:12:11-05:00
; #@! TF.GenerationSoftware,Kicad,Pcbnew,7.0.5
; #@! TF.FileFunction,Plated,1,2,PTH
FMAT,2
INCH
; #@! TA.AperFunction,Plated,PTH,ViaDrill
T1C0.0157
; #@! TA.AperFunction,Plated,PTH,ComponentDrill
T2C0.0157
; #@! TA.AperFunction,Plated,PTH,ComponentDrill
T3C0.0197
%
G90
G05
T1
X5.2636Y-3.1187
X5.3191Y-3.1309
X5.4719Y-3.127
X5.6834Y-3.4188
X5.9155Y-3.2981
T2
X5.4148Y-3.5035
X5.4305Y-3.5311
X5.462Y-3.5311
X5.4778Y-3.5035
X5.4935Y-3.5311
X5.5093Y-3.5035
X5.5407Y-3.5035
X5.5565Y-3.5311
X5.5722Y-3.5035
X5.588Y-3.5311
X5.6195Y-3.5311
X5.6352Y-3.5035
T3
G00X5.3482Y-3.6882
M15
G01X5.3482Y-3.7118
M16
G05
G00X5.3624Y-3.515
M15
G01X5.3624Y-3.5386
M16
G05
G00X5.6876Y-3.515
M15
G01X5.6876Y-3.5386
M16
G05
G00X5.7018Y-3.6882
M15
G01X5.7018Y-3.7118
M16
G05
T0
M30
