%TF.GenerationSoftware,KiCad,Pcbnew,7.0.5*%
%TF.CreationDate,2024-02-16T09:22:18-05:00*%
%TF.ProjectId,female_connector,66656d61-6c65-45f6-936f-6e6e6563746f,rev?*%
%TF.SameCoordinates,Original*%
%TF.FileFunction,Profile,NP*%
%FSLAX46Y46*%
G04 Gerber Fmt 4.6, Leading zero omitted, Abs format (unit mm)*
G04 Created by KiCad (PCBNEW 7.0.5) date 2024-02-16 09:22:18*
%MOMM*%
%LPD*%
G01*
G04 APERTURE LIST*
%TA.AperFunction,Profile*%
%ADD10C,0.100000*%
%TD*%
%TA.AperFunction,Profile*%
%ADD11C,0.010000*%
%TD*%
G04 APERTURE END LIST*
D10*
X158750000Y-73660000D02*
X160655000Y-75565000D01*
X160655000Y-75565000D02*
X160655000Y-79375000D01*
X140335000Y-73660000D02*
X158750000Y-73660000D01*
X121920000Y-73660000D02*
X140335000Y-73660000D01*
X120015000Y-79375000D02*
X120015000Y-75565000D01*
X160655000Y-79375000D02*
X159385000Y-80645000D01*
X120015000Y-75565000D02*
X121920000Y-73660000D01*
X128270000Y-87630000D02*
X128270000Y-93345000D01*
X159385000Y-80645000D02*
X152400000Y-87630000D01*
X152400000Y-87630000D02*
X152400000Y-93345000D01*
X140335000Y-95885000D02*
X130810000Y-95885000D01*
X121285000Y-80645000D02*
X120015000Y-79375000D01*
X149860000Y-95885000D02*
X140335000Y-95885000D01*
X130810000Y-95885000D02*
X128270000Y-93345000D01*
X128270000Y-87630000D02*
X121285000Y-80645000D01*
X152400000Y-93345000D02*
X149860000Y-95885000D01*
D11*
%TO.C,J2*%
X143785000Y-88015000D02*
X144085000Y-88015000D01*
X144085000Y-88665000D02*
X143785000Y-88665000D01*
X143785000Y-88015000D02*
G75*
G03*
X143460000Y-88340000I0J-325000D01*
G01*
X143460000Y-88340000D02*
G75*
G03*
X143785000Y-88665000I325000J0D01*
G01*
X144410000Y-88340000D02*
G75*
G03*
X144085000Y-88015000I-325000J0D01*
G01*
X144085000Y-88665000D02*
G75*
G03*
X144410000Y-88340000I0J325000D01*
G01*
%TD*%
M02*
