M48
; DRILL file {KiCad 7.0.5} date Thu Feb 15 12:52:44 2024
; FORMAT={-:-/ absolute / inch / decimal}
; #@! TF.CreationDate,2024-02-15T12:52:44-05:00
; #@! TF.GenerationSoftware,Kicad,Pcbnew,7.0.5
; #@! TF.FileFunction,Plated,1,2,PTH
FMAT,2
INCH
; #@! TA.AperFunction,Plated,PTH,ViaDrill
T1C0.0157
; #@! TA.AperFunction,Plated,PTH,ComponentDrill
T2C0.0157
; #@! TA.AperFunction,Plated,PTH,ComponentDrill
T3C0.0177
; #@! TA.AperFunction,Plated,PTH,ComponentDrill
T4C0.0197
%
G90
G05
T1
X5.351Y-3.394
T2
X5.4148Y-3.5035
X5.4305Y-3.5311
X5.462Y-3.5311
X5.4778Y-3.5035
X5.4935Y-3.5311
X5.5093Y-3.5035
X5.5407Y-3.5035
X5.5565Y-3.5311
X5.5722Y-3.5035
X5.588Y-3.5311
X5.6195Y-3.5311
X5.6352Y-3.5035
T3
X5.045Y-3.06
X5.045Y-3.22
X5.205Y-3.06
X5.205Y-3.22
X5.365Y-3.06
X5.365Y-3.22
X5.525Y-3.06
X5.525Y-3.22
X5.685Y-3.06
X5.685Y-3.22
X5.845Y-3.06
X5.845Y-3.22
X6.005Y-3.06
X6.005Y-3.22
T4
G00X5.3482Y-3.6882
M15
G01X5.3482Y-3.7118
M16
G05
G00X5.3624Y-3.515
M15
G01X5.3624Y-3.5386
M16
G05
G00X5.6876Y-3.515
M15
G01X5.6876Y-3.5386
M16
G05
G00X5.7018Y-3.6882
M15
G01X5.7018Y-3.7118
M16
G05
T0
M30
