%TF.GenerationSoftware,KiCad,Pcbnew,7.0.5*%
%TF.CreationDate,2024-02-15T12:52:46-05:00*%
%TF.ProjectId,SaberCord_Copy_Male,53616265-7243-46f7-9264-5f436f70795f,rev?*%
%TF.SameCoordinates,Original*%
%TF.FileFunction,Drillmap*%
%TF.FilePolarity,Positive*%
%FSLAX45Y45*%
G04 Gerber Fmt 4.5, Leading zero omitted, Abs format (unit mm)*
G04 Created by KiCad (PCBNEW 7.0.5) date 2024-02-15 12:52:46*
%MOMM*%
%LPD*%
G01*
G04 APERTURE LIST*
%ADD10C,0.100000*%
%ADD11C,0.200000*%
%ADD12C,0.040000*%
%ADD13C,0.045000*%
%ADD14C,0.050000*%
G04 APERTURE END LIST*
D10*
X15875000Y-7366000D02*
X16065500Y-7556500D01*
X16065500Y-7556500D02*
X16065500Y-7937500D01*
X14033500Y-7366000D02*
X15875000Y-7366000D01*
X12192000Y-7366000D02*
X14033500Y-7366000D01*
X12001500Y-7937500D02*
X12001500Y-7556500D01*
X16065500Y-7937500D02*
X15938500Y-8064500D01*
X12001500Y-7556500D02*
X12192000Y-7366000D01*
X12827000Y-8763000D02*
X12827000Y-9334500D01*
X15938500Y-8064500D02*
X15240000Y-8763000D01*
X15240000Y-8763000D02*
X15240000Y-9334500D01*
X14033500Y-9588500D02*
X13081000Y-9588500D01*
X12128500Y-8064500D02*
X12001500Y-7937500D01*
X14986000Y-9588500D02*
X14033500Y-9588500D01*
X13081000Y-9588500D02*
X12827000Y-9334500D01*
X12827000Y-8763000D02*
X12128500Y-8064500D01*
X15240000Y-9334500D02*
X14986000Y-9588500D01*
D11*
D12*
X13571490Y-8600820D02*
X13611490Y-8640820D01*
X13611490Y-8600820D02*
X13571490Y-8640820D01*
X13773500Y-8899000D02*
G75*
G03*
X13773500Y-8899000I-20000J0D01*
G01*
X13813500Y-8969000D02*
G75*
G03*
X13813500Y-8969000I-20000J0D01*
G01*
X13893500Y-8969000D02*
G75*
G03*
X13893500Y-8969000I-20000J0D01*
G01*
X13933500Y-8899000D02*
G75*
G03*
X13933500Y-8899000I-20000J0D01*
G01*
X13973500Y-8969000D02*
G75*
G03*
X13973500Y-8969000I-20000J0D01*
G01*
X14013500Y-8899000D02*
G75*
G03*
X14013500Y-8899000I-20000J0D01*
G01*
X14093500Y-8899000D02*
G75*
G03*
X14093500Y-8899000I-20000J0D01*
G01*
X14133500Y-8969000D02*
G75*
G03*
X14133500Y-8969000I-20000J0D01*
G01*
X14173500Y-8899000D02*
G75*
G03*
X14173500Y-8899000I-20000J0D01*
G01*
X14213500Y-8969000D02*
G75*
G03*
X14213500Y-8969000I-20000J0D01*
G01*
X14293500Y-8969000D02*
G75*
G03*
X14293500Y-8969000I-20000J0D01*
G01*
X14333500Y-8899000D02*
G75*
G03*
X14333500Y-8899000I-20000J0D01*
G01*
D13*
X12814300Y-7749900D02*
X12814300Y-7794900D01*
X12791800Y-7772400D02*
X12836800Y-7772400D01*
X12814300Y-8156300D02*
X12814300Y-8201300D01*
X12791800Y-8178800D02*
X12836800Y-8178800D01*
X13220700Y-7749900D02*
X13220700Y-7794900D01*
X13198200Y-7772400D02*
X13243200Y-7772400D01*
X13220700Y-8156300D02*
X13220700Y-8201300D01*
X13198200Y-8178800D02*
X13243200Y-8178800D01*
X13627100Y-7749900D02*
X13627100Y-7794900D01*
X13604600Y-7772400D02*
X13649600Y-7772400D01*
X13627100Y-8156300D02*
X13627100Y-8201300D01*
X13604600Y-8178800D02*
X13649600Y-8178800D01*
X14033500Y-7749900D02*
X14033500Y-7794900D01*
X14011000Y-7772400D02*
X14056000Y-7772400D01*
X14033500Y-8156300D02*
X14033500Y-8201300D01*
X14011000Y-8178800D02*
X14056000Y-8178800D01*
X14439900Y-7749900D02*
X14439900Y-7794900D01*
X14417400Y-7772400D02*
X14462400Y-7772400D01*
X14439900Y-8156300D02*
X14439900Y-8201300D01*
X14417400Y-8178800D02*
X14462400Y-8178800D01*
X14846300Y-7749900D02*
X14846300Y-7794900D01*
X14823800Y-7772400D02*
X14868800Y-7772400D01*
X14846300Y-8156300D02*
X14846300Y-8201300D01*
X14823800Y-8178800D02*
X14868800Y-8178800D01*
X15252700Y-7749900D02*
X15252700Y-7794900D01*
X15230200Y-7772400D02*
X15275200Y-7772400D01*
X15252700Y-8156300D02*
X15252700Y-8201300D01*
X15230200Y-8178800D02*
X15275200Y-8178800D01*
D14*
X13602178Y-9415678D02*
X13602178Y-9380322D01*
X13566822Y-9380322D01*
X13566822Y-9415678D01*
X13602178Y-9415678D01*
D11*
X13559500Y-9368000D02*
X13559500Y-9428000D01*
X13559500Y-9428000D02*
G75*
G03*
X13609500Y-9428000I25000J0D01*
G01*
X13609500Y-9428000D02*
X13609500Y-9368000D01*
X13609500Y-9368000D02*
G75*
G03*
X13559500Y-9368000I-25000J0D01*
G01*
D14*
X13638178Y-8975678D02*
X13638178Y-8940322D01*
X13602822Y-8940322D01*
X13602822Y-8975678D01*
X13638178Y-8975678D01*
D11*
X13595500Y-8928000D02*
X13595500Y-8988000D01*
X13595500Y-8988000D02*
G75*
G03*
X13645500Y-8988000I25000J0D01*
G01*
X13645500Y-8988000D02*
X13645500Y-8928000D01*
X13645500Y-8928000D02*
G75*
G03*
X13595500Y-8928000I-25000J0D01*
G01*
D14*
X14464178Y-8975678D02*
X14464178Y-8940322D01*
X14428822Y-8940322D01*
X14428822Y-8975678D01*
X14464178Y-8975678D01*
D11*
X14421500Y-8928000D02*
X14421500Y-8988000D01*
X14421500Y-8988000D02*
G75*
G03*
X14471500Y-8988000I25000J0D01*
G01*
X14471500Y-8988000D02*
X14471500Y-8928000D01*
X14471500Y-8928000D02*
G75*
G03*
X14421500Y-8928000I-25000J0D01*
G01*
D14*
X14500178Y-9415678D02*
X14500178Y-9380322D01*
X14464822Y-9380322D01*
X14464822Y-9415678D01*
X14500178Y-9415678D01*
D11*
X14457500Y-9368000D02*
X14457500Y-9428000D01*
X14457500Y-9428000D02*
G75*
G03*
X14507500Y-9428000I25000J0D01*
G01*
X14507500Y-9428000D02*
X14507500Y-9368000D01*
X14507500Y-9368000D02*
G75*
G03*
X14457500Y-9368000I-25000J0D01*
G01*
X12257277Y-9904984D02*
X12257277Y-9704984D01*
X12257277Y-9704984D02*
X12304896Y-9704984D01*
X12304896Y-9704984D02*
X12333467Y-9714508D01*
X12333467Y-9714508D02*
X12352515Y-9733555D01*
X12352515Y-9733555D02*
X12362039Y-9752603D01*
X12362039Y-9752603D02*
X12371562Y-9790698D01*
X12371562Y-9790698D02*
X12371562Y-9819270D01*
X12371562Y-9819270D02*
X12362039Y-9857365D01*
X12362039Y-9857365D02*
X12352515Y-9876412D01*
X12352515Y-9876412D02*
X12333467Y-9895460D01*
X12333467Y-9895460D02*
X12304896Y-9904984D01*
X12304896Y-9904984D02*
X12257277Y-9904984D01*
X12457277Y-9904984D02*
X12457277Y-9771650D01*
X12457277Y-9809746D02*
X12466801Y-9790698D01*
X12466801Y-9790698D02*
X12476324Y-9781174D01*
X12476324Y-9781174D02*
X12495372Y-9771650D01*
X12495372Y-9771650D02*
X12514420Y-9771650D01*
X12581086Y-9904984D02*
X12581086Y-9771650D01*
X12581086Y-9704984D02*
X12571562Y-9714508D01*
X12571562Y-9714508D02*
X12581086Y-9724031D01*
X12581086Y-9724031D02*
X12590610Y-9714508D01*
X12590610Y-9714508D02*
X12581086Y-9704984D01*
X12581086Y-9704984D02*
X12581086Y-9724031D01*
X12704896Y-9904984D02*
X12685848Y-9895460D01*
X12685848Y-9895460D02*
X12676324Y-9876412D01*
X12676324Y-9876412D02*
X12676324Y-9704984D01*
X12809658Y-9904984D02*
X12790610Y-9895460D01*
X12790610Y-9895460D02*
X12781086Y-9876412D01*
X12781086Y-9876412D02*
X12781086Y-9704984D01*
X13038229Y-9904984D02*
X13038229Y-9704984D01*
X13038229Y-9704984D02*
X13104896Y-9847841D01*
X13104896Y-9847841D02*
X13171562Y-9704984D01*
X13171562Y-9704984D02*
X13171562Y-9904984D01*
X13352515Y-9904984D02*
X13352515Y-9800222D01*
X13352515Y-9800222D02*
X13342991Y-9781174D01*
X13342991Y-9781174D02*
X13323943Y-9771650D01*
X13323943Y-9771650D02*
X13285848Y-9771650D01*
X13285848Y-9771650D02*
X13266801Y-9781174D01*
X13352515Y-9895460D02*
X13333467Y-9904984D01*
X13333467Y-9904984D02*
X13285848Y-9904984D01*
X13285848Y-9904984D02*
X13266801Y-9895460D01*
X13266801Y-9895460D02*
X13257277Y-9876412D01*
X13257277Y-9876412D02*
X13257277Y-9857365D01*
X13257277Y-9857365D02*
X13266801Y-9838317D01*
X13266801Y-9838317D02*
X13285848Y-9828793D01*
X13285848Y-9828793D02*
X13333467Y-9828793D01*
X13333467Y-9828793D02*
X13352515Y-9819270D01*
X13447753Y-9771650D02*
X13447753Y-9971650D01*
X13447753Y-9781174D02*
X13466801Y-9771650D01*
X13466801Y-9771650D02*
X13504896Y-9771650D01*
X13504896Y-9771650D02*
X13523943Y-9781174D01*
X13523943Y-9781174D02*
X13533467Y-9790698D01*
X13533467Y-9790698D02*
X13542991Y-9809746D01*
X13542991Y-9809746D02*
X13542991Y-9866889D01*
X13542991Y-9866889D02*
X13533467Y-9885936D01*
X13533467Y-9885936D02*
X13523943Y-9895460D01*
X13523943Y-9895460D02*
X13504896Y-9904984D01*
X13504896Y-9904984D02*
X13466801Y-9904984D01*
X13466801Y-9904984D02*
X13447753Y-9895460D01*
X13628705Y-9885936D02*
X13638229Y-9895460D01*
X13638229Y-9895460D02*
X13628705Y-9904984D01*
X13628705Y-9904984D02*
X13619182Y-9895460D01*
X13619182Y-9895460D02*
X13628705Y-9885936D01*
X13628705Y-9885936D02*
X13628705Y-9904984D01*
X13628705Y-9781174D02*
X13638229Y-9790698D01*
X13638229Y-9790698D02*
X13628705Y-9800222D01*
X13628705Y-9800222D02*
X13619182Y-9790698D01*
X13619182Y-9790698D02*
X13628705Y-9781174D01*
X13628705Y-9781174D02*
X13628705Y-9800222D01*
D12*
X11956500Y-10213500D02*
X11996500Y-10253500D01*
X11996500Y-10213500D02*
X11956500Y-10253500D01*
D11*
X12295372Y-10124984D02*
X12314420Y-10124984D01*
X12314420Y-10124984D02*
X12333467Y-10134508D01*
X12333467Y-10134508D02*
X12342991Y-10144031D01*
X12342991Y-10144031D02*
X12352515Y-10163079D01*
X12352515Y-10163079D02*
X12362039Y-10201174D01*
X12362039Y-10201174D02*
X12362039Y-10248793D01*
X12362039Y-10248793D02*
X12352515Y-10286889D01*
X12352515Y-10286889D02*
X12342991Y-10305936D01*
X12342991Y-10305936D02*
X12333467Y-10315460D01*
X12333467Y-10315460D02*
X12314420Y-10324984D01*
X12314420Y-10324984D02*
X12295372Y-10324984D01*
X12295372Y-10324984D02*
X12276324Y-10315460D01*
X12276324Y-10315460D02*
X12266801Y-10305936D01*
X12266801Y-10305936D02*
X12257277Y-10286889D01*
X12257277Y-10286889D02*
X12247753Y-10248793D01*
X12247753Y-10248793D02*
X12247753Y-10201174D01*
X12247753Y-10201174D02*
X12257277Y-10163079D01*
X12257277Y-10163079D02*
X12266801Y-10144031D01*
X12266801Y-10144031D02*
X12276324Y-10134508D01*
X12276324Y-10134508D02*
X12295372Y-10124984D01*
X12447753Y-10305936D02*
X12457277Y-10315460D01*
X12457277Y-10315460D02*
X12447753Y-10324984D01*
X12447753Y-10324984D02*
X12438229Y-10315460D01*
X12438229Y-10315460D02*
X12447753Y-10305936D01*
X12447753Y-10305936D02*
X12447753Y-10324984D01*
X12628705Y-10191650D02*
X12628705Y-10324984D01*
X12581086Y-10115460D02*
X12533467Y-10258317D01*
X12533467Y-10258317D02*
X12657277Y-10258317D01*
X12771562Y-10124984D02*
X12790610Y-10124984D01*
X12790610Y-10124984D02*
X12809658Y-10134508D01*
X12809658Y-10134508D02*
X12819182Y-10144031D01*
X12819182Y-10144031D02*
X12828705Y-10163079D01*
X12828705Y-10163079D02*
X12838229Y-10201174D01*
X12838229Y-10201174D02*
X12838229Y-10248793D01*
X12838229Y-10248793D02*
X12828705Y-10286889D01*
X12828705Y-10286889D02*
X12819182Y-10305936D01*
X12819182Y-10305936D02*
X12809658Y-10315460D01*
X12809658Y-10315460D02*
X12790610Y-10324984D01*
X12790610Y-10324984D02*
X12771562Y-10324984D01*
X12771562Y-10324984D02*
X12752515Y-10315460D01*
X12752515Y-10315460D02*
X12742991Y-10305936D01*
X12742991Y-10305936D02*
X12733467Y-10286889D01*
X12733467Y-10286889D02*
X12723943Y-10248793D01*
X12723943Y-10248793D02*
X12723943Y-10201174D01*
X12723943Y-10201174D02*
X12733467Y-10163079D01*
X12733467Y-10163079D02*
X12742991Y-10144031D01*
X12742991Y-10144031D02*
X12752515Y-10134508D01*
X12752515Y-10134508D02*
X12771562Y-10124984D01*
X12962039Y-10124984D02*
X12981086Y-10124984D01*
X12981086Y-10124984D02*
X13000134Y-10134508D01*
X13000134Y-10134508D02*
X13009658Y-10144031D01*
X13009658Y-10144031D02*
X13019182Y-10163079D01*
X13019182Y-10163079D02*
X13028705Y-10201174D01*
X13028705Y-10201174D02*
X13028705Y-10248793D01*
X13028705Y-10248793D02*
X13019182Y-10286889D01*
X13019182Y-10286889D02*
X13009658Y-10305936D01*
X13009658Y-10305936D02*
X13000134Y-10315460D01*
X13000134Y-10315460D02*
X12981086Y-10324984D01*
X12981086Y-10324984D02*
X12962039Y-10324984D01*
X12962039Y-10324984D02*
X12942991Y-10315460D01*
X12942991Y-10315460D02*
X12933467Y-10305936D01*
X12933467Y-10305936D02*
X12923943Y-10286889D01*
X12923943Y-10286889D02*
X12914420Y-10248793D01*
X12914420Y-10248793D02*
X12914420Y-10201174D01*
X12914420Y-10201174D02*
X12923943Y-10163079D01*
X12923943Y-10163079D02*
X12933467Y-10144031D01*
X12933467Y-10144031D02*
X12942991Y-10134508D01*
X12942991Y-10134508D02*
X12962039Y-10124984D01*
X13114420Y-10324984D02*
X13114420Y-10191650D01*
X13114420Y-10210698D02*
X13123943Y-10201174D01*
X13123943Y-10201174D02*
X13142991Y-10191650D01*
X13142991Y-10191650D02*
X13171563Y-10191650D01*
X13171563Y-10191650D02*
X13190610Y-10201174D01*
X13190610Y-10201174D02*
X13200134Y-10220222D01*
X13200134Y-10220222D02*
X13200134Y-10324984D01*
X13200134Y-10220222D02*
X13209658Y-10201174D01*
X13209658Y-10201174D02*
X13228705Y-10191650D01*
X13228705Y-10191650D02*
X13257277Y-10191650D01*
X13257277Y-10191650D02*
X13276324Y-10201174D01*
X13276324Y-10201174D02*
X13285848Y-10220222D01*
X13285848Y-10220222D02*
X13285848Y-10324984D01*
X13381086Y-10324984D02*
X13381086Y-10191650D01*
X13381086Y-10210698D02*
X13390610Y-10201174D01*
X13390610Y-10201174D02*
X13409658Y-10191650D01*
X13409658Y-10191650D02*
X13438229Y-10191650D01*
X13438229Y-10191650D02*
X13457277Y-10201174D01*
X13457277Y-10201174D02*
X13466801Y-10220222D01*
X13466801Y-10220222D02*
X13466801Y-10324984D01*
X13466801Y-10220222D02*
X13476324Y-10201174D01*
X13476324Y-10201174D02*
X13495372Y-10191650D01*
X13495372Y-10191650D02*
X13523943Y-10191650D01*
X13523943Y-10191650D02*
X13542991Y-10201174D01*
X13542991Y-10201174D02*
X13552515Y-10220222D01*
X13552515Y-10220222D02*
X13552515Y-10324984D01*
X13942991Y-10115460D02*
X13771563Y-10372603D01*
X14200134Y-10124984D02*
X14219182Y-10124984D01*
X14219182Y-10124984D02*
X14238229Y-10134508D01*
X14238229Y-10134508D02*
X14247753Y-10144031D01*
X14247753Y-10144031D02*
X14257277Y-10163079D01*
X14257277Y-10163079D02*
X14266801Y-10201174D01*
X14266801Y-10201174D02*
X14266801Y-10248793D01*
X14266801Y-10248793D02*
X14257277Y-10286889D01*
X14257277Y-10286889D02*
X14247753Y-10305936D01*
X14247753Y-10305936D02*
X14238229Y-10315460D01*
X14238229Y-10315460D02*
X14219182Y-10324984D01*
X14219182Y-10324984D02*
X14200134Y-10324984D01*
X14200134Y-10324984D02*
X14181086Y-10315460D01*
X14181086Y-10315460D02*
X14171563Y-10305936D01*
X14171563Y-10305936D02*
X14162039Y-10286889D01*
X14162039Y-10286889D02*
X14152515Y-10248793D01*
X14152515Y-10248793D02*
X14152515Y-10201174D01*
X14152515Y-10201174D02*
X14162039Y-10163079D01*
X14162039Y-10163079D02*
X14171563Y-10144031D01*
X14171563Y-10144031D02*
X14181086Y-10134508D01*
X14181086Y-10134508D02*
X14200134Y-10124984D01*
X14352515Y-10305936D02*
X14362039Y-10315460D01*
X14362039Y-10315460D02*
X14352515Y-10324984D01*
X14352515Y-10324984D02*
X14342991Y-10315460D01*
X14342991Y-10315460D02*
X14352515Y-10305936D01*
X14352515Y-10305936D02*
X14352515Y-10324984D01*
X14485848Y-10124984D02*
X14504896Y-10124984D01*
X14504896Y-10124984D02*
X14523944Y-10134508D01*
X14523944Y-10134508D02*
X14533467Y-10144031D01*
X14533467Y-10144031D02*
X14542991Y-10163079D01*
X14542991Y-10163079D02*
X14552515Y-10201174D01*
X14552515Y-10201174D02*
X14552515Y-10248793D01*
X14552515Y-10248793D02*
X14542991Y-10286889D01*
X14542991Y-10286889D02*
X14533467Y-10305936D01*
X14533467Y-10305936D02*
X14523944Y-10315460D01*
X14523944Y-10315460D02*
X14504896Y-10324984D01*
X14504896Y-10324984D02*
X14485848Y-10324984D01*
X14485848Y-10324984D02*
X14466801Y-10315460D01*
X14466801Y-10315460D02*
X14457277Y-10305936D01*
X14457277Y-10305936D02*
X14447753Y-10286889D01*
X14447753Y-10286889D02*
X14438229Y-10248793D01*
X14438229Y-10248793D02*
X14438229Y-10201174D01*
X14438229Y-10201174D02*
X14447753Y-10163079D01*
X14447753Y-10163079D02*
X14457277Y-10144031D01*
X14457277Y-10144031D02*
X14466801Y-10134508D01*
X14466801Y-10134508D02*
X14485848Y-10124984D01*
X14742991Y-10324984D02*
X14628706Y-10324984D01*
X14685848Y-10324984D02*
X14685848Y-10124984D01*
X14685848Y-10124984D02*
X14666801Y-10153555D01*
X14666801Y-10153555D02*
X14647753Y-10172603D01*
X14647753Y-10172603D02*
X14628706Y-10182127D01*
X14923944Y-10124984D02*
X14828706Y-10124984D01*
X14828706Y-10124984D02*
X14819182Y-10220222D01*
X14819182Y-10220222D02*
X14828706Y-10210698D01*
X14828706Y-10210698D02*
X14847753Y-10201174D01*
X14847753Y-10201174D02*
X14895372Y-10201174D01*
X14895372Y-10201174D02*
X14914420Y-10210698D01*
X14914420Y-10210698D02*
X14923944Y-10220222D01*
X14923944Y-10220222D02*
X14933467Y-10239270D01*
X14933467Y-10239270D02*
X14933467Y-10286889D01*
X14933467Y-10286889D02*
X14923944Y-10305936D01*
X14923944Y-10305936D02*
X14914420Y-10315460D01*
X14914420Y-10315460D02*
X14895372Y-10324984D01*
X14895372Y-10324984D02*
X14847753Y-10324984D01*
X14847753Y-10324984D02*
X14828706Y-10315460D01*
X14828706Y-10315460D02*
X14819182Y-10305936D01*
X15000134Y-10124984D02*
X15133467Y-10124984D01*
X15133467Y-10124984D02*
X15047753Y-10324984D01*
X15200134Y-10124984D02*
X15200134Y-10163079D01*
X15276325Y-10124984D02*
X15276325Y-10163079D01*
X15571563Y-10401174D02*
X15562039Y-10391650D01*
X15562039Y-10391650D02*
X15542991Y-10363079D01*
X15542991Y-10363079D02*
X15533468Y-10344031D01*
X15533468Y-10344031D02*
X15523944Y-10315460D01*
X15523944Y-10315460D02*
X15514420Y-10267841D01*
X15514420Y-10267841D02*
X15514420Y-10229746D01*
X15514420Y-10229746D02*
X15523944Y-10182127D01*
X15523944Y-10182127D02*
X15533468Y-10153555D01*
X15533468Y-10153555D02*
X15542991Y-10134508D01*
X15542991Y-10134508D02*
X15562039Y-10105936D01*
X15562039Y-10105936D02*
X15571563Y-10096412D01*
X15752515Y-10324984D02*
X15638229Y-10324984D01*
X15695372Y-10324984D02*
X15695372Y-10124984D01*
X15695372Y-10124984D02*
X15676325Y-10153555D01*
X15676325Y-10153555D02*
X15657277Y-10172603D01*
X15657277Y-10172603D02*
X15638229Y-10182127D01*
X15990610Y-10324984D02*
X15990610Y-10124984D01*
X16076325Y-10324984D02*
X16076325Y-10220222D01*
X16076325Y-10220222D02*
X16066801Y-10201174D01*
X16066801Y-10201174D02*
X16047753Y-10191650D01*
X16047753Y-10191650D02*
X16019182Y-10191650D01*
X16019182Y-10191650D02*
X16000134Y-10201174D01*
X16000134Y-10201174D02*
X15990610Y-10210698D01*
X16200134Y-10324984D02*
X16181087Y-10315460D01*
X16181087Y-10315460D02*
X16171563Y-10305936D01*
X16171563Y-10305936D02*
X16162039Y-10286889D01*
X16162039Y-10286889D02*
X16162039Y-10229746D01*
X16162039Y-10229746D02*
X16171563Y-10210698D01*
X16171563Y-10210698D02*
X16181087Y-10201174D01*
X16181087Y-10201174D02*
X16200134Y-10191650D01*
X16200134Y-10191650D02*
X16228706Y-10191650D01*
X16228706Y-10191650D02*
X16247753Y-10201174D01*
X16247753Y-10201174D02*
X16257277Y-10210698D01*
X16257277Y-10210698D02*
X16266801Y-10229746D01*
X16266801Y-10229746D02*
X16266801Y-10286889D01*
X16266801Y-10286889D02*
X16257277Y-10305936D01*
X16257277Y-10305936D02*
X16247753Y-10315460D01*
X16247753Y-10315460D02*
X16228706Y-10324984D01*
X16228706Y-10324984D02*
X16200134Y-10324984D01*
X16381087Y-10324984D02*
X16362039Y-10315460D01*
X16362039Y-10315460D02*
X16352515Y-10296412D01*
X16352515Y-10296412D02*
X16352515Y-10124984D01*
X16533468Y-10315460D02*
X16514420Y-10324984D01*
X16514420Y-10324984D02*
X16476325Y-10324984D01*
X16476325Y-10324984D02*
X16457277Y-10315460D01*
X16457277Y-10315460D02*
X16447753Y-10296412D01*
X16447753Y-10296412D02*
X16447753Y-10220222D01*
X16447753Y-10220222D02*
X16457277Y-10201174D01*
X16457277Y-10201174D02*
X16476325Y-10191650D01*
X16476325Y-10191650D02*
X16514420Y-10191650D01*
X16514420Y-10191650D02*
X16533468Y-10201174D01*
X16533468Y-10201174D02*
X16542991Y-10220222D01*
X16542991Y-10220222D02*
X16542991Y-10239270D01*
X16542991Y-10239270D02*
X16447753Y-10258317D01*
X16609658Y-10401174D02*
X16619182Y-10391650D01*
X16619182Y-10391650D02*
X16638230Y-10363079D01*
X16638230Y-10363079D02*
X16647753Y-10344031D01*
X16647753Y-10344031D02*
X16657277Y-10315460D01*
X16657277Y-10315460D02*
X16666801Y-10267841D01*
X16666801Y-10267841D02*
X16666801Y-10229746D01*
X16666801Y-10229746D02*
X16657277Y-10182127D01*
X16657277Y-10182127D02*
X16647753Y-10153555D01*
X16647753Y-10153555D02*
X16638230Y-10134508D01*
X16638230Y-10134508D02*
X16619182Y-10105936D01*
X16619182Y-10105936D02*
X16609658Y-10096412D01*
D12*
X11996500Y-10497500D02*
G75*
G03*
X11996500Y-10497500I-20000J0D01*
G01*
D11*
X12295372Y-10388984D02*
X12314420Y-10388984D01*
X12314420Y-10388984D02*
X12333467Y-10398508D01*
X12333467Y-10398508D02*
X12342991Y-10408031D01*
X12342991Y-10408031D02*
X12352515Y-10427079D01*
X12352515Y-10427079D02*
X12362039Y-10465174D01*
X12362039Y-10465174D02*
X12362039Y-10512793D01*
X12362039Y-10512793D02*
X12352515Y-10550889D01*
X12352515Y-10550889D02*
X12342991Y-10569936D01*
X12342991Y-10569936D02*
X12333467Y-10579460D01*
X12333467Y-10579460D02*
X12314420Y-10588984D01*
X12314420Y-10588984D02*
X12295372Y-10588984D01*
X12295372Y-10588984D02*
X12276324Y-10579460D01*
X12276324Y-10579460D02*
X12266801Y-10569936D01*
X12266801Y-10569936D02*
X12257277Y-10550889D01*
X12257277Y-10550889D02*
X12247753Y-10512793D01*
X12247753Y-10512793D02*
X12247753Y-10465174D01*
X12247753Y-10465174D02*
X12257277Y-10427079D01*
X12257277Y-10427079D02*
X12266801Y-10408031D01*
X12266801Y-10408031D02*
X12276324Y-10398508D01*
X12276324Y-10398508D02*
X12295372Y-10388984D01*
X12447753Y-10569936D02*
X12457277Y-10579460D01*
X12457277Y-10579460D02*
X12447753Y-10588984D01*
X12447753Y-10588984D02*
X12438229Y-10579460D01*
X12438229Y-10579460D02*
X12447753Y-10569936D01*
X12447753Y-10569936D02*
X12447753Y-10588984D01*
X12628705Y-10455650D02*
X12628705Y-10588984D01*
X12581086Y-10379460D02*
X12533467Y-10522317D01*
X12533467Y-10522317D02*
X12657277Y-10522317D01*
X12771562Y-10388984D02*
X12790610Y-10388984D01*
X12790610Y-10388984D02*
X12809658Y-10398508D01*
X12809658Y-10398508D02*
X12819182Y-10408031D01*
X12819182Y-10408031D02*
X12828705Y-10427079D01*
X12828705Y-10427079D02*
X12838229Y-10465174D01*
X12838229Y-10465174D02*
X12838229Y-10512793D01*
X12838229Y-10512793D02*
X12828705Y-10550889D01*
X12828705Y-10550889D02*
X12819182Y-10569936D01*
X12819182Y-10569936D02*
X12809658Y-10579460D01*
X12809658Y-10579460D02*
X12790610Y-10588984D01*
X12790610Y-10588984D02*
X12771562Y-10588984D01*
X12771562Y-10588984D02*
X12752515Y-10579460D01*
X12752515Y-10579460D02*
X12742991Y-10569936D01*
X12742991Y-10569936D02*
X12733467Y-10550889D01*
X12733467Y-10550889D02*
X12723943Y-10512793D01*
X12723943Y-10512793D02*
X12723943Y-10465174D01*
X12723943Y-10465174D02*
X12733467Y-10427079D01*
X12733467Y-10427079D02*
X12742991Y-10408031D01*
X12742991Y-10408031D02*
X12752515Y-10398508D01*
X12752515Y-10398508D02*
X12771562Y-10388984D01*
X12962039Y-10388984D02*
X12981086Y-10388984D01*
X12981086Y-10388984D02*
X13000134Y-10398508D01*
X13000134Y-10398508D02*
X13009658Y-10408031D01*
X13009658Y-10408031D02*
X13019182Y-10427079D01*
X13019182Y-10427079D02*
X13028705Y-10465174D01*
X13028705Y-10465174D02*
X13028705Y-10512793D01*
X13028705Y-10512793D02*
X13019182Y-10550889D01*
X13019182Y-10550889D02*
X13009658Y-10569936D01*
X13009658Y-10569936D02*
X13000134Y-10579460D01*
X13000134Y-10579460D02*
X12981086Y-10588984D01*
X12981086Y-10588984D02*
X12962039Y-10588984D01*
X12962039Y-10588984D02*
X12942991Y-10579460D01*
X12942991Y-10579460D02*
X12933467Y-10569936D01*
X12933467Y-10569936D02*
X12923943Y-10550889D01*
X12923943Y-10550889D02*
X12914420Y-10512793D01*
X12914420Y-10512793D02*
X12914420Y-10465174D01*
X12914420Y-10465174D02*
X12923943Y-10427079D01*
X12923943Y-10427079D02*
X12933467Y-10408031D01*
X12933467Y-10408031D02*
X12942991Y-10398508D01*
X12942991Y-10398508D02*
X12962039Y-10388984D01*
X13114420Y-10588984D02*
X13114420Y-10455650D01*
X13114420Y-10474698D02*
X13123943Y-10465174D01*
X13123943Y-10465174D02*
X13142991Y-10455650D01*
X13142991Y-10455650D02*
X13171563Y-10455650D01*
X13171563Y-10455650D02*
X13190610Y-10465174D01*
X13190610Y-10465174D02*
X13200134Y-10484222D01*
X13200134Y-10484222D02*
X13200134Y-10588984D01*
X13200134Y-10484222D02*
X13209658Y-10465174D01*
X13209658Y-10465174D02*
X13228705Y-10455650D01*
X13228705Y-10455650D02*
X13257277Y-10455650D01*
X13257277Y-10455650D02*
X13276324Y-10465174D01*
X13276324Y-10465174D02*
X13285848Y-10484222D01*
X13285848Y-10484222D02*
X13285848Y-10588984D01*
X13381086Y-10588984D02*
X13381086Y-10455650D01*
X13381086Y-10474698D02*
X13390610Y-10465174D01*
X13390610Y-10465174D02*
X13409658Y-10455650D01*
X13409658Y-10455650D02*
X13438229Y-10455650D01*
X13438229Y-10455650D02*
X13457277Y-10465174D01*
X13457277Y-10465174D02*
X13466801Y-10484222D01*
X13466801Y-10484222D02*
X13466801Y-10588984D01*
X13466801Y-10484222D02*
X13476324Y-10465174D01*
X13476324Y-10465174D02*
X13495372Y-10455650D01*
X13495372Y-10455650D02*
X13523943Y-10455650D01*
X13523943Y-10455650D02*
X13542991Y-10465174D01*
X13542991Y-10465174D02*
X13552515Y-10484222D01*
X13552515Y-10484222D02*
X13552515Y-10588984D01*
X13942991Y-10379460D02*
X13771563Y-10636603D01*
X14200134Y-10388984D02*
X14219182Y-10388984D01*
X14219182Y-10388984D02*
X14238229Y-10398508D01*
X14238229Y-10398508D02*
X14247753Y-10408031D01*
X14247753Y-10408031D02*
X14257277Y-10427079D01*
X14257277Y-10427079D02*
X14266801Y-10465174D01*
X14266801Y-10465174D02*
X14266801Y-10512793D01*
X14266801Y-10512793D02*
X14257277Y-10550889D01*
X14257277Y-10550889D02*
X14247753Y-10569936D01*
X14247753Y-10569936D02*
X14238229Y-10579460D01*
X14238229Y-10579460D02*
X14219182Y-10588984D01*
X14219182Y-10588984D02*
X14200134Y-10588984D01*
X14200134Y-10588984D02*
X14181086Y-10579460D01*
X14181086Y-10579460D02*
X14171563Y-10569936D01*
X14171563Y-10569936D02*
X14162039Y-10550889D01*
X14162039Y-10550889D02*
X14152515Y-10512793D01*
X14152515Y-10512793D02*
X14152515Y-10465174D01*
X14152515Y-10465174D02*
X14162039Y-10427079D01*
X14162039Y-10427079D02*
X14171563Y-10408031D01*
X14171563Y-10408031D02*
X14181086Y-10398508D01*
X14181086Y-10398508D02*
X14200134Y-10388984D01*
X14352515Y-10569936D02*
X14362039Y-10579460D01*
X14362039Y-10579460D02*
X14352515Y-10588984D01*
X14352515Y-10588984D02*
X14342991Y-10579460D01*
X14342991Y-10579460D02*
X14352515Y-10569936D01*
X14352515Y-10569936D02*
X14352515Y-10588984D01*
X14485848Y-10388984D02*
X14504896Y-10388984D01*
X14504896Y-10388984D02*
X14523944Y-10398508D01*
X14523944Y-10398508D02*
X14533467Y-10408031D01*
X14533467Y-10408031D02*
X14542991Y-10427079D01*
X14542991Y-10427079D02*
X14552515Y-10465174D01*
X14552515Y-10465174D02*
X14552515Y-10512793D01*
X14552515Y-10512793D02*
X14542991Y-10550889D01*
X14542991Y-10550889D02*
X14533467Y-10569936D01*
X14533467Y-10569936D02*
X14523944Y-10579460D01*
X14523944Y-10579460D02*
X14504896Y-10588984D01*
X14504896Y-10588984D02*
X14485848Y-10588984D01*
X14485848Y-10588984D02*
X14466801Y-10579460D01*
X14466801Y-10579460D02*
X14457277Y-10569936D01*
X14457277Y-10569936D02*
X14447753Y-10550889D01*
X14447753Y-10550889D02*
X14438229Y-10512793D01*
X14438229Y-10512793D02*
X14438229Y-10465174D01*
X14438229Y-10465174D02*
X14447753Y-10427079D01*
X14447753Y-10427079D02*
X14457277Y-10408031D01*
X14457277Y-10408031D02*
X14466801Y-10398508D01*
X14466801Y-10398508D02*
X14485848Y-10388984D01*
X14742991Y-10588984D02*
X14628706Y-10588984D01*
X14685848Y-10588984D02*
X14685848Y-10388984D01*
X14685848Y-10388984D02*
X14666801Y-10417555D01*
X14666801Y-10417555D02*
X14647753Y-10436603D01*
X14647753Y-10436603D02*
X14628706Y-10446127D01*
X14923944Y-10388984D02*
X14828706Y-10388984D01*
X14828706Y-10388984D02*
X14819182Y-10484222D01*
X14819182Y-10484222D02*
X14828706Y-10474698D01*
X14828706Y-10474698D02*
X14847753Y-10465174D01*
X14847753Y-10465174D02*
X14895372Y-10465174D01*
X14895372Y-10465174D02*
X14914420Y-10474698D01*
X14914420Y-10474698D02*
X14923944Y-10484222D01*
X14923944Y-10484222D02*
X14933467Y-10503270D01*
X14933467Y-10503270D02*
X14933467Y-10550889D01*
X14933467Y-10550889D02*
X14923944Y-10569936D01*
X14923944Y-10569936D02*
X14914420Y-10579460D01*
X14914420Y-10579460D02*
X14895372Y-10588984D01*
X14895372Y-10588984D02*
X14847753Y-10588984D01*
X14847753Y-10588984D02*
X14828706Y-10579460D01*
X14828706Y-10579460D02*
X14819182Y-10569936D01*
X15000134Y-10388984D02*
X15133467Y-10388984D01*
X15133467Y-10388984D02*
X15047753Y-10588984D01*
X15200134Y-10388984D02*
X15200134Y-10427079D01*
X15276325Y-10388984D02*
X15276325Y-10427079D01*
X15571563Y-10665174D02*
X15562039Y-10655650D01*
X15562039Y-10655650D02*
X15542991Y-10627079D01*
X15542991Y-10627079D02*
X15533468Y-10608031D01*
X15533468Y-10608031D02*
X15523944Y-10579460D01*
X15523944Y-10579460D02*
X15514420Y-10531841D01*
X15514420Y-10531841D02*
X15514420Y-10493746D01*
X15514420Y-10493746D02*
X15523944Y-10446127D01*
X15523944Y-10446127D02*
X15533468Y-10417555D01*
X15533468Y-10417555D02*
X15542991Y-10398508D01*
X15542991Y-10398508D02*
X15562039Y-10369936D01*
X15562039Y-10369936D02*
X15571563Y-10360412D01*
X15752515Y-10588984D02*
X15638229Y-10588984D01*
X15695372Y-10588984D02*
X15695372Y-10388984D01*
X15695372Y-10388984D02*
X15676325Y-10417555D01*
X15676325Y-10417555D02*
X15657277Y-10436603D01*
X15657277Y-10436603D02*
X15638229Y-10446127D01*
X15828706Y-10408031D02*
X15838229Y-10398508D01*
X15838229Y-10398508D02*
X15857277Y-10388984D01*
X15857277Y-10388984D02*
X15904896Y-10388984D01*
X15904896Y-10388984D02*
X15923944Y-10398508D01*
X15923944Y-10398508D02*
X15933468Y-10408031D01*
X15933468Y-10408031D02*
X15942991Y-10427079D01*
X15942991Y-10427079D02*
X15942991Y-10446127D01*
X15942991Y-10446127D02*
X15933468Y-10474698D01*
X15933468Y-10474698D02*
X15819182Y-10588984D01*
X15819182Y-10588984D02*
X15942991Y-10588984D01*
X16181087Y-10588984D02*
X16181087Y-10388984D01*
X16266801Y-10588984D02*
X16266801Y-10484222D01*
X16266801Y-10484222D02*
X16257277Y-10465174D01*
X16257277Y-10465174D02*
X16238230Y-10455650D01*
X16238230Y-10455650D02*
X16209658Y-10455650D01*
X16209658Y-10455650D02*
X16190610Y-10465174D01*
X16190610Y-10465174D02*
X16181087Y-10474698D01*
X16390610Y-10588984D02*
X16371563Y-10579460D01*
X16371563Y-10579460D02*
X16362039Y-10569936D01*
X16362039Y-10569936D02*
X16352515Y-10550889D01*
X16352515Y-10550889D02*
X16352515Y-10493746D01*
X16352515Y-10493746D02*
X16362039Y-10474698D01*
X16362039Y-10474698D02*
X16371563Y-10465174D01*
X16371563Y-10465174D02*
X16390610Y-10455650D01*
X16390610Y-10455650D02*
X16419182Y-10455650D01*
X16419182Y-10455650D02*
X16438230Y-10465174D01*
X16438230Y-10465174D02*
X16447753Y-10474698D01*
X16447753Y-10474698D02*
X16457277Y-10493746D01*
X16457277Y-10493746D02*
X16457277Y-10550889D01*
X16457277Y-10550889D02*
X16447753Y-10569936D01*
X16447753Y-10569936D02*
X16438230Y-10579460D01*
X16438230Y-10579460D02*
X16419182Y-10588984D01*
X16419182Y-10588984D02*
X16390610Y-10588984D01*
X16571563Y-10588984D02*
X16552515Y-10579460D01*
X16552515Y-10579460D02*
X16542991Y-10560412D01*
X16542991Y-10560412D02*
X16542991Y-10388984D01*
X16723944Y-10579460D02*
X16704896Y-10588984D01*
X16704896Y-10588984D02*
X16666801Y-10588984D01*
X16666801Y-10588984D02*
X16647753Y-10579460D01*
X16647753Y-10579460D02*
X16638230Y-10560412D01*
X16638230Y-10560412D02*
X16638230Y-10484222D01*
X16638230Y-10484222D02*
X16647753Y-10465174D01*
X16647753Y-10465174D02*
X16666801Y-10455650D01*
X16666801Y-10455650D02*
X16704896Y-10455650D01*
X16704896Y-10455650D02*
X16723944Y-10465174D01*
X16723944Y-10465174D02*
X16733468Y-10484222D01*
X16733468Y-10484222D02*
X16733468Y-10503270D01*
X16733468Y-10503270D02*
X16638230Y-10522317D01*
X16809658Y-10579460D02*
X16828706Y-10588984D01*
X16828706Y-10588984D02*
X16866801Y-10588984D01*
X16866801Y-10588984D02*
X16885849Y-10579460D01*
X16885849Y-10579460D02*
X16895373Y-10560412D01*
X16895373Y-10560412D02*
X16895373Y-10550889D01*
X16895373Y-10550889D02*
X16885849Y-10531841D01*
X16885849Y-10531841D02*
X16866801Y-10522317D01*
X16866801Y-10522317D02*
X16838230Y-10522317D01*
X16838230Y-10522317D02*
X16819182Y-10512793D01*
X16819182Y-10512793D02*
X16809658Y-10493746D01*
X16809658Y-10493746D02*
X16809658Y-10484222D01*
X16809658Y-10484222D02*
X16819182Y-10465174D01*
X16819182Y-10465174D02*
X16838230Y-10455650D01*
X16838230Y-10455650D02*
X16866801Y-10455650D01*
X16866801Y-10455650D02*
X16885849Y-10465174D01*
X16962039Y-10665174D02*
X16971563Y-10655650D01*
X16971563Y-10655650D02*
X16990611Y-10627079D01*
X16990611Y-10627079D02*
X17000134Y-10608031D01*
X17000134Y-10608031D02*
X17009658Y-10579460D01*
X17009658Y-10579460D02*
X17019182Y-10531841D01*
X17019182Y-10531841D02*
X17019182Y-10493746D01*
X17019182Y-10493746D02*
X17009658Y-10446127D01*
X17009658Y-10446127D02*
X17000134Y-10417555D01*
X17000134Y-10417555D02*
X16990611Y-10398508D01*
X16990611Y-10398508D02*
X16971563Y-10369936D01*
X16971563Y-10369936D02*
X16962039Y-10360412D01*
D13*
X11974000Y-10739000D02*
X11974000Y-10784000D01*
X11951500Y-10761500D02*
X11996500Y-10761500D01*
D11*
X12295372Y-10652984D02*
X12314420Y-10652984D01*
X12314420Y-10652984D02*
X12333467Y-10662508D01*
X12333467Y-10662508D02*
X12342991Y-10672031D01*
X12342991Y-10672031D02*
X12352515Y-10691079D01*
X12352515Y-10691079D02*
X12362039Y-10729174D01*
X12362039Y-10729174D02*
X12362039Y-10776793D01*
X12362039Y-10776793D02*
X12352515Y-10814889D01*
X12352515Y-10814889D02*
X12342991Y-10833936D01*
X12342991Y-10833936D02*
X12333467Y-10843460D01*
X12333467Y-10843460D02*
X12314420Y-10852984D01*
X12314420Y-10852984D02*
X12295372Y-10852984D01*
X12295372Y-10852984D02*
X12276324Y-10843460D01*
X12276324Y-10843460D02*
X12266801Y-10833936D01*
X12266801Y-10833936D02*
X12257277Y-10814889D01*
X12257277Y-10814889D02*
X12247753Y-10776793D01*
X12247753Y-10776793D02*
X12247753Y-10729174D01*
X12247753Y-10729174D02*
X12257277Y-10691079D01*
X12257277Y-10691079D02*
X12266801Y-10672031D01*
X12266801Y-10672031D02*
X12276324Y-10662508D01*
X12276324Y-10662508D02*
X12295372Y-10652984D01*
X12447753Y-10833936D02*
X12457277Y-10843460D01*
X12457277Y-10843460D02*
X12447753Y-10852984D01*
X12447753Y-10852984D02*
X12438229Y-10843460D01*
X12438229Y-10843460D02*
X12447753Y-10833936D01*
X12447753Y-10833936D02*
X12447753Y-10852984D01*
X12628705Y-10719650D02*
X12628705Y-10852984D01*
X12581086Y-10643460D02*
X12533467Y-10786317D01*
X12533467Y-10786317D02*
X12657277Y-10786317D01*
X12828705Y-10652984D02*
X12733467Y-10652984D01*
X12733467Y-10652984D02*
X12723943Y-10748222D01*
X12723943Y-10748222D02*
X12733467Y-10738698D01*
X12733467Y-10738698D02*
X12752515Y-10729174D01*
X12752515Y-10729174D02*
X12800134Y-10729174D01*
X12800134Y-10729174D02*
X12819182Y-10738698D01*
X12819182Y-10738698D02*
X12828705Y-10748222D01*
X12828705Y-10748222D02*
X12838229Y-10767270D01*
X12838229Y-10767270D02*
X12838229Y-10814889D01*
X12838229Y-10814889D02*
X12828705Y-10833936D01*
X12828705Y-10833936D02*
X12819182Y-10843460D01*
X12819182Y-10843460D02*
X12800134Y-10852984D01*
X12800134Y-10852984D02*
X12752515Y-10852984D01*
X12752515Y-10852984D02*
X12733467Y-10843460D01*
X12733467Y-10843460D02*
X12723943Y-10833936D01*
X12962039Y-10652984D02*
X12981086Y-10652984D01*
X12981086Y-10652984D02*
X13000134Y-10662508D01*
X13000134Y-10662508D02*
X13009658Y-10672031D01*
X13009658Y-10672031D02*
X13019182Y-10691079D01*
X13019182Y-10691079D02*
X13028705Y-10729174D01*
X13028705Y-10729174D02*
X13028705Y-10776793D01*
X13028705Y-10776793D02*
X13019182Y-10814889D01*
X13019182Y-10814889D02*
X13009658Y-10833936D01*
X13009658Y-10833936D02*
X13000134Y-10843460D01*
X13000134Y-10843460D02*
X12981086Y-10852984D01*
X12981086Y-10852984D02*
X12962039Y-10852984D01*
X12962039Y-10852984D02*
X12942991Y-10843460D01*
X12942991Y-10843460D02*
X12933467Y-10833936D01*
X12933467Y-10833936D02*
X12923943Y-10814889D01*
X12923943Y-10814889D02*
X12914420Y-10776793D01*
X12914420Y-10776793D02*
X12914420Y-10729174D01*
X12914420Y-10729174D02*
X12923943Y-10691079D01*
X12923943Y-10691079D02*
X12933467Y-10672031D01*
X12933467Y-10672031D02*
X12942991Y-10662508D01*
X12942991Y-10662508D02*
X12962039Y-10652984D01*
X13114420Y-10852984D02*
X13114420Y-10719650D01*
X13114420Y-10738698D02*
X13123943Y-10729174D01*
X13123943Y-10729174D02*
X13142991Y-10719650D01*
X13142991Y-10719650D02*
X13171563Y-10719650D01*
X13171563Y-10719650D02*
X13190610Y-10729174D01*
X13190610Y-10729174D02*
X13200134Y-10748222D01*
X13200134Y-10748222D02*
X13200134Y-10852984D01*
X13200134Y-10748222D02*
X13209658Y-10729174D01*
X13209658Y-10729174D02*
X13228705Y-10719650D01*
X13228705Y-10719650D02*
X13257277Y-10719650D01*
X13257277Y-10719650D02*
X13276324Y-10729174D01*
X13276324Y-10729174D02*
X13285848Y-10748222D01*
X13285848Y-10748222D02*
X13285848Y-10852984D01*
X13381086Y-10852984D02*
X13381086Y-10719650D01*
X13381086Y-10738698D02*
X13390610Y-10729174D01*
X13390610Y-10729174D02*
X13409658Y-10719650D01*
X13409658Y-10719650D02*
X13438229Y-10719650D01*
X13438229Y-10719650D02*
X13457277Y-10729174D01*
X13457277Y-10729174D02*
X13466801Y-10748222D01*
X13466801Y-10748222D02*
X13466801Y-10852984D01*
X13466801Y-10748222D02*
X13476324Y-10729174D01*
X13476324Y-10729174D02*
X13495372Y-10719650D01*
X13495372Y-10719650D02*
X13523943Y-10719650D01*
X13523943Y-10719650D02*
X13542991Y-10729174D01*
X13542991Y-10729174D02*
X13552515Y-10748222D01*
X13552515Y-10748222D02*
X13552515Y-10852984D01*
X13942991Y-10643460D02*
X13771563Y-10900603D01*
X14200134Y-10652984D02*
X14219182Y-10652984D01*
X14219182Y-10652984D02*
X14238229Y-10662508D01*
X14238229Y-10662508D02*
X14247753Y-10672031D01*
X14247753Y-10672031D02*
X14257277Y-10691079D01*
X14257277Y-10691079D02*
X14266801Y-10729174D01*
X14266801Y-10729174D02*
X14266801Y-10776793D01*
X14266801Y-10776793D02*
X14257277Y-10814889D01*
X14257277Y-10814889D02*
X14247753Y-10833936D01*
X14247753Y-10833936D02*
X14238229Y-10843460D01*
X14238229Y-10843460D02*
X14219182Y-10852984D01*
X14219182Y-10852984D02*
X14200134Y-10852984D01*
X14200134Y-10852984D02*
X14181086Y-10843460D01*
X14181086Y-10843460D02*
X14171563Y-10833936D01*
X14171563Y-10833936D02*
X14162039Y-10814889D01*
X14162039Y-10814889D02*
X14152515Y-10776793D01*
X14152515Y-10776793D02*
X14152515Y-10729174D01*
X14152515Y-10729174D02*
X14162039Y-10691079D01*
X14162039Y-10691079D02*
X14171563Y-10672031D01*
X14171563Y-10672031D02*
X14181086Y-10662508D01*
X14181086Y-10662508D02*
X14200134Y-10652984D01*
X14352515Y-10833936D02*
X14362039Y-10843460D01*
X14362039Y-10843460D02*
X14352515Y-10852984D01*
X14352515Y-10852984D02*
X14342991Y-10843460D01*
X14342991Y-10843460D02*
X14352515Y-10833936D01*
X14352515Y-10833936D02*
X14352515Y-10852984D01*
X14485848Y-10652984D02*
X14504896Y-10652984D01*
X14504896Y-10652984D02*
X14523944Y-10662508D01*
X14523944Y-10662508D02*
X14533467Y-10672031D01*
X14533467Y-10672031D02*
X14542991Y-10691079D01*
X14542991Y-10691079D02*
X14552515Y-10729174D01*
X14552515Y-10729174D02*
X14552515Y-10776793D01*
X14552515Y-10776793D02*
X14542991Y-10814889D01*
X14542991Y-10814889D02*
X14533467Y-10833936D01*
X14533467Y-10833936D02*
X14523944Y-10843460D01*
X14523944Y-10843460D02*
X14504896Y-10852984D01*
X14504896Y-10852984D02*
X14485848Y-10852984D01*
X14485848Y-10852984D02*
X14466801Y-10843460D01*
X14466801Y-10843460D02*
X14457277Y-10833936D01*
X14457277Y-10833936D02*
X14447753Y-10814889D01*
X14447753Y-10814889D02*
X14438229Y-10776793D01*
X14438229Y-10776793D02*
X14438229Y-10729174D01*
X14438229Y-10729174D02*
X14447753Y-10691079D01*
X14447753Y-10691079D02*
X14457277Y-10672031D01*
X14457277Y-10672031D02*
X14466801Y-10662508D01*
X14466801Y-10662508D02*
X14485848Y-10652984D01*
X14742991Y-10852984D02*
X14628706Y-10852984D01*
X14685848Y-10852984D02*
X14685848Y-10652984D01*
X14685848Y-10652984D02*
X14666801Y-10681555D01*
X14666801Y-10681555D02*
X14647753Y-10700603D01*
X14647753Y-10700603D02*
X14628706Y-10710127D01*
X14809658Y-10652984D02*
X14942991Y-10652984D01*
X14942991Y-10652984D02*
X14857277Y-10852984D01*
X15000134Y-10652984D02*
X15133467Y-10652984D01*
X15133467Y-10652984D02*
X15047753Y-10852984D01*
X15200134Y-10652984D02*
X15200134Y-10691079D01*
X15276325Y-10652984D02*
X15276325Y-10691079D01*
X15571563Y-10929174D02*
X15562039Y-10919650D01*
X15562039Y-10919650D02*
X15542991Y-10891079D01*
X15542991Y-10891079D02*
X15533468Y-10872031D01*
X15533468Y-10872031D02*
X15523944Y-10843460D01*
X15523944Y-10843460D02*
X15514420Y-10795841D01*
X15514420Y-10795841D02*
X15514420Y-10757746D01*
X15514420Y-10757746D02*
X15523944Y-10710127D01*
X15523944Y-10710127D02*
X15533468Y-10681555D01*
X15533468Y-10681555D02*
X15542991Y-10662508D01*
X15542991Y-10662508D02*
X15562039Y-10633936D01*
X15562039Y-10633936D02*
X15571563Y-10624412D01*
X15752515Y-10852984D02*
X15638229Y-10852984D01*
X15695372Y-10852984D02*
X15695372Y-10652984D01*
X15695372Y-10652984D02*
X15676325Y-10681555D01*
X15676325Y-10681555D02*
X15657277Y-10700603D01*
X15657277Y-10700603D02*
X15638229Y-10710127D01*
X15923944Y-10719650D02*
X15923944Y-10852984D01*
X15876325Y-10643460D02*
X15828706Y-10786317D01*
X15828706Y-10786317D02*
X15952515Y-10786317D01*
X16181087Y-10852984D02*
X16181087Y-10652984D01*
X16266801Y-10852984D02*
X16266801Y-10748222D01*
X16266801Y-10748222D02*
X16257277Y-10729174D01*
X16257277Y-10729174D02*
X16238230Y-10719650D01*
X16238230Y-10719650D02*
X16209658Y-10719650D01*
X16209658Y-10719650D02*
X16190610Y-10729174D01*
X16190610Y-10729174D02*
X16181087Y-10738698D01*
X16390610Y-10852984D02*
X16371563Y-10843460D01*
X16371563Y-10843460D02*
X16362039Y-10833936D01*
X16362039Y-10833936D02*
X16352515Y-10814889D01*
X16352515Y-10814889D02*
X16352515Y-10757746D01*
X16352515Y-10757746D02*
X16362039Y-10738698D01*
X16362039Y-10738698D02*
X16371563Y-10729174D01*
X16371563Y-10729174D02*
X16390610Y-10719650D01*
X16390610Y-10719650D02*
X16419182Y-10719650D01*
X16419182Y-10719650D02*
X16438230Y-10729174D01*
X16438230Y-10729174D02*
X16447753Y-10738698D01*
X16447753Y-10738698D02*
X16457277Y-10757746D01*
X16457277Y-10757746D02*
X16457277Y-10814889D01*
X16457277Y-10814889D02*
X16447753Y-10833936D01*
X16447753Y-10833936D02*
X16438230Y-10843460D01*
X16438230Y-10843460D02*
X16419182Y-10852984D01*
X16419182Y-10852984D02*
X16390610Y-10852984D01*
X16571563Y-10852984D02*
X16552515Y-10843460D01*
X16552515Y-10843460D02*
X16542991Y-10824412D01*
X16542991Y-10824412D02*
X16542991Y-10652984D01*
X16723944Y-10843460D02*
X16704896Y-10852984D01*
X16704896Y-10852984D02*
X16666801Y-10852984D01*
X16666801Y-10852984D02*
X16647753Y-10843460D01*
X16647753Y-10843460D02*
X16638230Y-10824412D01*
X16638230Y-10824412D02*
X16638230Y-10748222D01*
X16638230Y-10748222D02*
X16647753Y-10729174D01*
X16647753Y-10729174D02*
X16666801Y-10719650D01*
X16666801Y-10719650D02*
X16704896Y-10719650D01*
X16704896Y-10719650D02*
X16723944Y-10729174D01*
X16723944Y-10729174D02*
X16733468Y-10748222D01*
X16733468Y-10748222D02*
X16733468Y-10767270D01*
X16733468Y-10767270D02*
X16638230Y-10786317D01*
X16809658Y-10843460D02*
X16828706Y-10852984D01*
X16828706Y-10852984D02*
X16866801Y-10852984D01*
X16866801Y-10852984D02*
X16885849Y-10843460D01*
X16885849Y-10843460D02*
X16895373Y-10824412D01*
X16895373Y-10824412D02*
X16895373Y-10814889D01*
X16895373Y-10814889D02*
X16885849Y-10795841D01*
X16885849Y-10795841D02*
X16866801Y-10786317D01*
X16866801Y-10786317D02*
X16838230Y-10786317D01*
X16838230Y-10786317D02*
X16819182Y-10776793D01*
X16819182Y-10776793D02*
X16809658Y-10757746D01*
X16809658Y-10757746D02*
X16809658Y-10748222D01*
X16809658Y-10748222D02*
X16819182Y-10729174D01*
X16819182Y-10729174D02*
X16838230Y-10719650D01*
X16838230Y-10719650D02*
X16866801Y-10719650D01*
X16866801Y-10719650D02*
X16885849Y-10729174D01*
X16962039Y-10929174D02*
X16971563Y-10919650D01*
X16971563Y-10919650D02*
X16990611Y-10891079D01*
X16990611Y-10891079D02*
X17000134Y-10872031D01*
X17000134Y-10872031D02*
X17009658Y-10843460D01*
X17009658Y-10843460D02*
X17019182Y-10795841D01*
X17019182Y-10795841D02*
X17019182Y-10757746D01*
X17019182Y-10757746D02*
X17009658Y-10710127D01*
X17009658Y-10710127D02*
X17000134Y-10681555D01*
X17000134Y-10681555D02*
X16990611Y-10662508D01*
X16990611Y-10662508D02*
X16971563Y-10633936D01*
X16971563Y-10633936D02*
X16962039Y-10624412D01*
D14*
X11989178Y-11043178D02*
X11989178Y-11007822D01*
X11953822Y-11007822D01*
X11953822Y-11043178D01*
X11989178Y-11043178D01*
D11*
X12295372Y-10916984D02*
X12314420Y-10916984D01*
X12314420Y-10916984D02*
X12333467Y-10926508D01*
X12333467Y-10926508D02*
X12342991Y-10936031D01*
X12342991Y-10936031D02*
X12352515Y-10955079D01*
X12352515Y-10955079D02*
X12362039Y-10993174D01*
X12362039Y-10993174D02*
X12362039Y-11040793D01*
X12362039Y-11040793D02*
X12352515Y-11078889D01*
X12352515Y-11078889D02*
X12342991Y-11097936D01*
X12342991Y-11097936D02*
X12333467Y-11107460D01*
X12333467Y-11107460D02*
X12314420Y-11116984D01*
X12314420Y-11116984D02*
X12295372Y-11116984D01*
X12295372Y-11116984D02*
X12276324Y-11107460D01*
X12276324Y-11107460D02*
X12266801Y-11097936D01*
X12266801Y-11097936D02*
X12257277Y-11078889D01*
X12257277Y-11078889D02*
X12247753Y-11040793D01*
X12247753Y-11040793D02*
X12247753Y-10993174D01*
X12247753Y-10993174D02*
X12257277Y-10955079D01*
X12257277Y-10955079D02*
X12266801Y-10936031D01*
X12266801Y-10936031D02*
X12276324Y-10926508D01*
X12276324Y-10926508D02*
X12295372Y-10916984D01*
X12447753Y-11097936D02*
X12457277Y-11107460D01*
X12457277Y-11107460D02*
X12447753Y-11116984D01*
X12447753Y-11116984D02*
X12438229Y-11107460D01*
X12438229Y-11107460D02*
X12447753Y-11097936D01*
X12447753Y-11097936D02*
X12447753Y-11116984D01*
X12638229Y-10916984D02*
X12542991Y-10916984D01*
X12542991Y-10916984D02*
X12533467Y-11012222D01*
X12533467Y-11012222D02*
X12542991Y-11002698D01*
X12542991Y-11002698D02*
X12562039Y-10993174D01*
X12562039Y-10993174D02*
X12609658Y-10993174D01*
X12609658Y-10993174D02*
X12628705Y-11002698D01*
X12628705Y-11002698D02*
X12638229Y-11012222D01*
X12638229Y-11012222D02*
X12647753Y-11031270D01*
X12647753Y-11031270D02*
X12647753Y-11078889D01*
X12647753Y-11078889D02*
X12638229Y-11097936D01*
X12638229Y-11097936D02*
X12628705Y-11107460D01*
X12628705Y-11107460D02*
X12609658Y-11116984D01*
X12609658Y-11116984D02*
X12562039Y-11116984D01*
X12562039Y-11116984D02*
X12542991Y-11107460D01*
X12542991Y-11107460D02*
X12533467Y-11097936D01*
X12771562Y-10916984D02*
X12790610Y-10916984D01*
X12790610Y-10916984D02*
X12809658Y-10926508D01*
X12809658Y-10926508D02*
X12819182Y-10936031D01*
X12819182Y-10936031D02*
X12828705Y-10955079D01*
X12828705Y-10955079D02*
X12838229Y-10993174D01*
X12838229Y-10993174D02*
X12838229Y-11040793D01*
X12838229Y-11040793D02*
X12828705Y-11078889D01*
X12828705Y-11078889D02*
X12819182Y-11097936D01*
X12819182Y-11097936D02*
X12809658Y-11107460D01*
X12809658Y-11107460D02*
X12790610Y-11116984D01*
X12790610Y-11116984D02*
X12771562Y-11116984D01*
X12771562Y-11116984D02*
X12752515Y-11107460D01*
X12752515Y-11107460D02*
X12742991Y-11097936D01*
X12742991Y-11097936D02*
X12733467Y-11078889D01*
X12733467Y-11078889D02*
X12723943Y-11040793D01*
X12723943Y-11040793D02*
X12723943Y-10993174D01*
X12723943Y-10993174D02*
X12733467Y-10955079D01*
X12733467Y-10955079D02*
X12742991Y-10936031D01*
X12742991Y-10936031D02*
X12752515Y-10926508D01*
X12752515Y-10926508D02*
X12771562Y-10916984D01*
X12962039Y-10916984D02*
X12981086Y-10916984D01*
X12981086Y-10916984D02*
X13000134Y-10926508D01*
X13000134Y-10926508D02*
X13009658Y-10936031D01*
X13009658Y-10936031D02*
X13019182Y-10955079D01*
X13019182Y-10955079D02*
X13028705Y-10993174D01*
X13028705Y-10993174D02*
X13028705Y-11040793D01*
X13028705Y-11040793D02*
X13019182Y-11078889D01*
X13019182Y-11078889D02*
X13009658Y-11097936D01*
X13009658Y-11097936D02*
X13000134Y-11107460D01*
X13000134Y-11107460D02*
X12981086Y-11116984D01*
X12981086Y-11116984D02*
X12962039Y-11116984D01*
X12962039Y-11116984D02*
X12942991Y-11107460D01*
X12942991Y-11107460D02*
X12933467Y-11097936D01*
X12933467Y-11097936D02*
X12923943Y-11078889D01*
X12923943Y-11078889D02*
X12914420Y-11040793D01*
X12914420Y-11040793D02*
X12914420Y-10993174D01*
X12914420Y-10993174D02*
X12923943Y-10955079D01*
X12923943Y-10955079D02*
X12933467Y-10936031D01*
X12933467Y-10936031D02*
X12942991Y-10926508D01*
X12942991Y-10926508D02*
X12962039Y-10916984D01*
X13114420Y-11116984D02*
X13114420Y-10983650D01*
X13114420Y-11002698D02*
X13123943Y-10993174D01*
X13123943Y-10993174D02*
X13142991Y-10983650D01*
X13142991Y-10983650D02*
X13171563Y-10983650D01*
X13171563Y-10983650D02*
X13190610Y-10993174D01*
X13190610Y-10993174D02*
X13200134Y-11012222D01*
X13200134Y-11012222D02*
X13200134Y-11116984D01*
X13200134Y-11012222D02*
X13209658Y-10993174D01*
X13209658Y-10993174D02*
X13228705Y-10983650D01*
X13228705Y-10983650D02*
X13257277Y-10983650D01*
X13257277Y-10983650D02*
X13276324Y-10993174D01*
X13276324Y-10993174D02*
X13285848Y-11012222D01*
X13285848Y-11012222D02*
X13285848Y-11116984D01*
X13381086Y-11116984D02*
X13381086Y-10983650D01*
X13381086Y-11002698D02*
X13390610Y-10993174D01*
X13390610Y-10993174D02*
X13409658Y-10983650D01*
X13409658Y-10983650D02*
X13438229Y-10983650D01*
X13438229Y-10983650D02*
X13457277Y-10993174D01*
X13457277Y-10993174D02*
X13466801Y-11012222D01*
X13466801Y-11012222D02*
X13466801Y-11116984D01*
X13466801Y-11012222D02*
X13476324Y-10993174D01*
X13476324Y-10993174D02*
X13495372Y-10983650D01*
X13495372Y-10983650D02*
X13523943Y-10983650D01*
X13523943Y-10983650D02*
X13542991Y-10993174D01*
X13542991Y-10993174D02*
X13552515Y-11012222D01*
X13552515Y-11012222D02*
X13552515Y-11116984D01*
X13942991Y-10907460D02*
X13771563Y-11164603D01*
X14200134Y-10916984D02*
X14219182Y-10916984D01*
X14219182Y-10916984D02*
X14238229Y-10926508D01*
X14238229Y-10926508D02*
X14247753Y-10936031D01*
X14247753Y-10936031D02*
X14257277Y-10955079D01*
X14257277Y-10955079D02*
X14266801Y-10993174D01*
X14266801Y-10993174D02*
X14266801Y-11040793D01*
X14266801Y-11040793D02*
X14257277Y-11078889D01*
X14257277Y-11078889D02*
X14247753Y-11097936D01*
X14247753Y-11097936D02*
X14238229Y-11107460D01*
X14238229Y-11107460D02*
X14219182Y-11116984D01*
X14219182Y-11116984D02*
X14200134Y-11116984D01*
X14200134Y-11116984D02*
X14181086Y-11107460D01*
X14181086Y-11107460D02*
X14171563Y-11097936D01*
X14171563Y-11097936D02*
X14162039Y-11078889D01*
X14162039Y-11078889D02*
X14152515Y-11040793D01*
X14152515Y-11040793D02*
X14152515Y-10993174D01*
X14152515Y-10993174D02*
X14162039Y-10955079D01*
X14162039Y-10955079D02*
X14171563Y-10936031D01*
X14171563Y-10936031D02*
X14181086Y-10926508D01*
X14181086Y-10926508D02*
X14200134Y-10916984D01*
X14352515Y-11097936D02*
X14362039Y-11107460D01*
X14362039Y-11107460D02*
X14352515Y-11116984D01*
X14352515Y-11116984D02*
X14342991Y-11107460D01*
X14342991Y-11107460D02*
X14352515Y-11097936D01*
X14352515Y-11097936D02*
X14352515Y-11116984D01*
X14485848Y-10916984D02*
X14504896Y-10916984D01*
X14504896Y-10916984D02*
X14523944Y-10926508D01*
X14523944Y-10926508D02*
X14533467Y-10936031D01*
X14533467Y-10936031D02*
X14542991Y-10955079D01*
X14542991Y-10955079D02*
X14552515Y-10993174D01*
X14552515Y-10993174D02*
X14552515Y-11040793D01*
X14552515Y-11040793D02*
X14542991Y-11078889D01*
X14542991Y-11078889D02*
X14533467Y-11097936D01*
X14533467Y-11097936D02*
X14523944Y-11107460D01*
X14523944Y-11107460D02*
X14504896Y-11116984D01*
X14504896Y-11116984D02*
X14485848Y-11116984D01*
X14485848Y-11116984D02*
X14466801Y-11107460D01*
X14466801Y-11107460D02*
X14457277Y-11097936D01*
X14457277Y-11097936D02*
X14447753Y-11078889D01*
X14447753Y-11078889D02*
X14438229Y-11040793D01*
X14438229Y-11040793D02*
X14438229Y-10993174D01*
X14438229Y-10993174D02*
X14447753Y-10955079D01*
X14447753Y-10955079D02*
X14457277Y-10936031D01*
X14457277Y-10936031D02*
X14466801Y-10926508D01*
X14466801Y-10926508D02*
X14485848Y-10916984D01*
X14742991Y-11116984D02*
X14628706Y-11116984D01*
X14685848Y-11116984D02*
X14685848Y-10916984D01*
X14685848Y-10916984D02*
X14666801Y-10945555D01*
X14666801Y-10945555D02*
X14647753Y-10964603D01*
X14647753Y-10964603D02*
X14628706Y-10974127D01*
X14838229Y-11116984D02*
X14876325Y-11116984D01*
X14876325Y-11116984D02*
X14895372Y-11107460D01*
X14895372Y-11107460D02*
X14904896Y-11097936D01*
X14904896Y-11097936D02*
X14923944Y-11069365D01*
X14923944Y-11069365D02*
X14933467Y-11031270D01*
X14933467Y-11031270D02*
X14933467Y-10955079D01*
X14933467Y-10955079D02*
X14923944Y-10936031D01*
X14923944Y-10936031D02*
X14914420Y-10926508D01*
X14914420Y-10926508D02*
X14895372Y-10916984D01*
X14895372Y-10916984D02*
X14857277Y-10916984D01*
X14857277Y-10916984D02*
X14838229Y-10926508D01*
X14838229Y-10926508D02*
X14828706Y-10936031D01*
X14828706Y-10936031D02*
X14819182Y-10955079D01*
X14819182Y-10955079D02*
X14819182Y-11002698D01*
X14819182Y-11002698D02*
X14828706Y-11021746D01*
X14828706Y-11021746D02*
X14838229Y-11031270D01*
X14838229Y-11031270D02*
X14857277Y-11040793D01*
X14857277Y-11040793D02*
X14895372Y-11040793D01*
X14895372Y-11040793D02*
X14914420Y-11031270D01*
X14914420Y-11031270D02*
X14923944Y-11021746D01*
X14923944Y-11021746D02*
X14933467Y-11002698D01*
X15000134Y-10916984D02*
X15133467Y-10916984D01*
X15133467Y-10916984D02*
X15047753Y-11116984D01*
X15200134Y-10916984D02*
X15200134Y-10955079D01*
X15276325Y-10916984D02*
X15276325Y-10955079D01*
X15571563Y-11193174D02*
X15562039Y-11183650D01*
X15562039Y-11183650D02*
X15542991Y-11155079D01*
X15542991Y-11155079D02*
X15533468Y-11136031D01*
X15533468Y-11136031D02*
X15523944Y-11107460D01*
X15523944Y-11107460D02*
X15514420Y-11059841D01*
X15514420Y-11059841D02*
X15514420Y-11021746D01*
X15514420Y-11021746D02*
X15523944Y-10974127D01*
X15523944Y-10974127D02*
X15533468Y-10945555D01*
X15533468Y-10945555D02*
X15542991Y-10926508D01*
X15542991Y-10926508D02*
X15562039Y-10897936D01*
X15562039Y-10897936D02*
X15571563Y-10888412D01*
X15685848Y-10916984D02*
X15704896Y-10916984D01*
X15704896Y-10916984D02*
X15723944Y-10926508D01*
X15723944Y-10926508D02*
X15733468Y-10936031D01*
X15733468Y-10936031D02*
X15742991Y-10955079D01*
X15742991Y-10955079D02*
X15752515Y-10993174D01*
X15752515Y-10993174D02*
X15752515Y-11040793D01*
X15752515Y-11040793D02*
X15742991Y-11078889D01*
X15742991Y-11078889D02*
X15733468Y-11097936D01*
X15733468Y-11097936D02*
X15723944Y-11107460D01*
X15723944Y-11107460D02*
X15704896Y-11116984D01*
X15704896Y-11116984D02*
X15685848Y-11116984D01*
X15685848Y-11116984D02*
X15666801Y-11107460D01*
X15666801Y-11107460D02*
X15657277Y-11097936D01*
X15657277Y-11097936D02*
X15647753Y-11078889D01*
X15647753Y-11078889D02*
X15638229Y-11040793D01*
X15638229Y-11040793D02*
X15638229Y-10993174D01*
X15638229Y-10993174D02*
X15647753Y-10955079D01*
X15647753Y-10955079D02*
X15657277Y-10936031D01*
X15657277Y-10936031D02*
X15666801Y-10926508D01*
X15666801Y-10926508D02*
X15685848Y-10916984D01*
X15990610Y-11116984D02*
X15990610Y-10916984D01*
X16076325Y-11116984D02*
X16076325Y-11012222D01*
X16076325Y-11012222D02*
X16066801Y-10993174D01*
X16066801Y-10993174D02*
X16047753Y-10983650D01*
X16047753Y-10983650D02*
X16019182Y-10983650D01*
X16019182Y-10983650D02*
X16000134Y-10993174D01*
X16000134Y-10993174D02*
X15990610Y-11002698D01*
X16200134Y-11116984D02*
X16181087Y-11107460D01*
X16181087Y-11107460D02*
X16171563Y-11097936D01*
X16171563Y-11097936D02*
X16162039Y-11078889D01*
X16162039Y-11078889D02*
X16162039Y-11021746D01*
X16162039Y-11021746D02*
X16171563Y-11002698D01*
X16171563Y-11002698D02*
X16181087Y-10993174D01*
X16181087Y-10993174D02*
X16200134Y-10983650D01*
X16200134Y-10983650D02*
X16228706Y-10983650D01*
X16228706Y-10983650D02*
X16247753Y-10993174D01*
X16247753Y-10993174D02*
X16257277Y-11002698D01*
X16257277Y-11002698D02*
X16266801Y-11021746D01*
X16266801Y-11021746D02*
X16266801Y-11078889D01*
X16266801Y-11078889D02*
X16257277Y-11097936D01*
X16257277Y-11097936D02*
X16247753Y-11107460D01*
X16247753Y-11107460D02*
X16228706Y-11116984D01*
X16228706Y-11116984D02*
X16200134Y-11116984D01*
X16381087Y-11116984D02*
X16362039Y-11107460D01*
X16362039Y-11107460D02*
X16352515Y-11088412D01*
X16352515Y-11088412D02*
X16352515Y-10916984D01*
X16533468Y-11107460D02*
X16514420Y-11116984D01*
X16514420Y-11116984D02*
X16476325Y-11116984D01*
X16476325Y-11116984D02*
X16457277Y-11107460D01*
X16457277Y-11107460D02*
X16447753Y-11088412D01*
X16447753Y-11088412D02*
X16447753Y-11012222D01*
X16447753Y-11012222D02*
X16457277Y-10993174D01*
X16457277Y-10993174D02*
X16476325Y-10983650D01*
X16476325Y-10983650D02*
X16514420Y-10983650D01*
X16514420Y-10983650D02*
X16533468Y-10993174D01*
X16533468Y-10993174D02*
X16542991Y-11012222D01*
X16542991Y-11012222D02*
X16542991Y-11031270D01*
X16542991Y-11031270D02*
X16447753Y-11050317D01*
X16619182Y-11107460D02*
X16638230Y-11116984D01*
X16638230Y-11116984D02*
X16676325Y-11116984D01*
X16676325Y-11116984D02*
X16695372Y-11107460D01*
X16695372Y-11107460D02*
X16704896Y-11088412D01*
X16704896Y-11088412D02*
X16704896Y-11078889D01*
X16704896Y-11078889D02*
X16695372Y-11059841D01*
X16695372Y-11059841D02*
X16676325Y-11050317D01*
X16676325Y-11050317D02*
X16647753Y-11050317D01*
X16647753Y-11050317D02*
X16628706Y-11040793D01*
X16628706Y-11040793D02*
X16619182Y-11021746D01*
X16619182Y-11021746D02*
X16619182Y-11012222D01*
X16619182Y-11012222D02*
X16628706Y-10993174D01*
X16628706Y-10993174D02*
X16647753Y-10983650D01*
X16647753Y-10983650D02*
X16676325Y-10983650D01*
X16676325Y-10983650D02*
X16695372Y-10993174D01*
X16942992Y-11040793D02*
X17095373Y-11040793D01*
X17019182Y-11116984D02*
X17019182Y-10964603D01*
X17428706Y-10983650D02*
X17428706Y-11116984D01*
X17381087Y-10907460D02*
X17333468Y-11050317D01*
X17333468Y-11050317D02*
X17457277Y-11050317D01*
X17676325Y-11107460D02*
X17695373Y-11116984D01*
X17695373Y-11116984D02*
X17733468Y-11116984D01*
X17733468Y-11116984D02*
X17752516Y-11107460D01*
X17752516Y-11107460D02*
X17762039Y-11088412D01*
X17762039Y-11088412D02*
X17762039Y-11078889D01*
X17762039Y-11078889D02*
X17752516Y-11059841D01*
X17752516Y-11059841D02*
X17733468Y-11050317D01*
X17733468Y-11050317D02*
X17704896Y-11050317D01*
X17704896Y-11050317D02*
X17685849Y-11040793D01*
X17685849Y-11040793D02*
X17676325Y-11021746D01*
X17676325Y-11021746D02*
X17676325Y-11012222D01*
X17676325Y-11012222D02*
X17685849Y-10993174D01*
X17685849Y-10993174D02*
X17704896Y-10983650D01*
X17704896Y-10983650D02*
X17733468Y-10983650D01*
X17733468Y-10983650D02*
X17752516Y-10993174D01*
X17876325Y-11116984D02*
X17857277Y-11107460D01*
X17857277Y-11107460D02*
X17847754Y-11088412D01*
X17847754Y-11088412D02*
X17847754Y-10916984D01*
X17981087Y-11116984D02*
X17962039Y-11107460D01*
X17962039Y-11107460D02*
X17952516Y-11097936D01*
X17952516Y-11097936D02*
X17942992Y-11078889D01*
X17942992Y-11078889D02*
X17942992Y-11021746D01*
X17942992Y-11021746D02*
X17952516Y-11002698D01*
X17952516Y-11002698D02*
X17962039Y-10993174D01*
X17962039Y-10993174D02*
X17981087Y-10983650D01*
X17981087Y-10983650D02*
X18009658Y-10983650D01*
X18009658Y-10983650D02*
X18028706Y-10993174D01*
X18028706Y-10993174D02*
X18038230Y-11002698D01*
X18038230Y-11002698D02*
X18047754Y-11021746D01*
X18047754Y-11021746D02*
X18047754Y-11078889D01*
X18047754Y-11078889D02*
X18038230Y-11097936D01*
X18038230Y-11097936D02*
X18028706Y-11107460D01*
X18028706Y-11107460D02*
X18009658Y-11116984D01*
X18009658Y-11116984D02*
X17981087Y-11116984D01*
X18104897Y-10983650D02*
X18181087Y-10983650D01*
X18133468Y-10916984D02*
X18133468Y-11088412D01*
X18133468Y-11088412D02*
X18142992Y-11107460D01*
X18142992Y-11107460D02*
X18162039Y-11116984D01*
X18162039Y-11116984D02*
X18181087Y-11116984D01*
X18238230Y-11107460D02*
X18257277Y-11116984D01*
X18257277Y-11116984D02*
X18295373Y-11116984D01*
X18295373Y-11116984D02*
X18314420Y-11107460D01*
X18314420Y-11107460D02*
X18323944Y-11088412D01*
X18323944Y-11088412D02*
X18323944Y-11078889D01*
X18323944Y-11078889D02*
X18314420Y-11059841D01*
X18314420Y-11059841D02*
X18295373Y-11050317D01*
X18295373Y-11050317D02*
X18266801Y-11050317D01*
X18266801Y-11050317D02*
X18247754Y-11040793D01*
X18247754Y-11040793D02*
X18238230Y-11021746D01*
X18238230Y-11021746D02*
X18238230Y-11012222D01*
X18238230Y-11012222D02*
X18247754Y-10993174D01*
X18247754Y-10993174D02*
X18266801Y-10983650D01*
X18266801Y-10983650D02*
X18295373Y-10983650D01*
X18295373Y-10983650D02*
X18314420Y-10993174D01*
X18390611Y-11193174D02*
X18400135Y-11183650D01*
X18400135Y-11183650D02*
X18419182Y-11155079D01*
X18419182Y-11155079D02*
X18428706Y-11136031D01*
X18428706Y-11136031D02*
X18438230Y-11107460D01*
X18438230Y-11107460D02*
X18447754Y-11059841D01*
X18447754Y-11059841D02*
X18447754Y-11021746D01*
X18447754Y-11021746D02*
X18438230Y-10974127D01*
X18438230Y-10974127D02*
X18428706Y-10945555D01*
X18428706Y-10945555D02*
X18419182Y-10926508D01*
X18419182Y-10926508D02*
X18400135Y-10897936D01*
X18400135Y-10897936D02*
X18390611Y-10888412D01*
M02*
