%TF.GenerationSoftware,KiCad,Pcbnew,7.0.5*%
%TF.CreationDate,2024-03-06T09:17:32-05:00*%
%TF.ProjectId,SaberCord_Copy_Male,53616265-7243-46f7-9264-5f436f70795f,rev?*%
%TF.SameCoordinates,Original*%
%TF.FileFunction,Copper,L1,Top*%
%TF.FilePolarity,Positive*%
%FSLAX46Y46*%
G04 Gerber Fmt 4.6, Leading zero omitted, Abs format (unit mm)*
G04 Created by KiCad (PCBNEW 7.0.5) date 2024-03-06 09:17:32*
%MOMM*%
%LPD*%
G01*
G04 APERTURE LIST*
%TA.AperFunction,ComponentPad*%
%ADD10O,1.000000X1.700000*%
%TD*%
%TA.AperFunction,ComponentPad*%
%ADD11O,1.000000X1.800000*%
%TD*%
%TA.AperFunction,SMDPad,CuDef*%
%ADD12R,0.300000X1.000000*%
%TD*%
%TA.AperFunction,ComponentPad*%
%ADD13C,0.600000*%
%TD*%
%TA.AperFunction,ComponentPad*%
%ADD14C,1.828800*%
%TD*%
%TA.AperFunction,Conductor*%
%ADD15C,0.300000*%
%TD*%
%TA.AperFunction,Conductor*%
%ADD16C,0.299800*%
%TD*%
%TA.AperFunction,Conductor*%
%ADD17C,0.400000*%
%TD*%
G04 APERTURE END LIST*
D10*
%TO.P,J2,1*%
%TO.N,N/C*%
X136210000Y-89440000D03*
D11*
%TO.P,J2,2*%
X135850000Y-93830000D03*
%TO.P,J2,3*%
X144820000Y-93830000D03*
D10*
%TO.P,J2,4*%
X144460000Y-89440000D03*
D12*
%TO.P,J2,A1,a1*%
%TO.N,GND*%
X137585000Y-87630000D03*
%TO.P,J2,A2,a2*%
%TO.N,/CAN0_H*%
X138085000Y-87630000D03*
%TO.P,J2,A3,a3*%
%TO.N,/CAN0_L*%
X138585000Y-87630000D03*
%TO.P,J2,A4,a4*%
%TO.N,+12V*%
X139085000Y-87630000D03*
%TO.P,J2,A5,a5*%
%TO.N,unconnected-(J2-a5-PadA5)*%
X139585000Y-87630000D03*
%TO.P,J2,A6,a6*%
%TO.N,unconnected-(J2-a6-PadA6)*%
X140085000Y-87630000D03*
%TO.P,J2,A7,a7*%
%TO.N,unconnected-(J2-a7-PadA7)*%
X140585000Y-87630000D03*
%TO.P,J2,A8,A8*%
%TO.N,/SBU1*%
X141085000Y-87630000D03*
%TO.P,J2,A9,a9*%
%TO.N,+12V*%
X141585000Y-87630000D03*
%TO.P,J2,A10,a10*%
%TO.N,/CAN1_L*%
X142085000Y-87630000D03*
%TO.P,J2,A11,a11*%
%TO.N,/CAN1_H*%
X142585000Y-87630000D03*
%TO.P,J2,A12,a12*%
%TO.N,GND*%
X143085000Y-87630000D03*
D13*
%TO.P,J2,B1,b1*%
X143135000Y-88840000D03*
%TO.P,J2,B2,b2*%
%TO.N,/CAN2_H*%
X142735000Y-89540000D03*
%TO.P,J2,B3,b3*%
%TO.N,/CAN2_L*%
X141935000Y-89540000D03*
%TO.P,J2,B4,b4*%
%TO.N,+12V*%
X141535000Y-88840000D03*
%TO.P,J2,B5,b5*%
%TO.N,unconnected-(J2-b5-PadB5)*%
X141135000Y-89540000D03*
%TO.P,J2,B6,b6*%
%TO.N,unconnected-(J2-b6-PadB6)*%
X140735000Y-88840000D03*
%TO.P,J2,B7,b7*%
%TO.N,unconnected-(J2-b7-PadB7)*%
X139935000Y-88840000D03*
%TO.P,J2,B8,b8*%
%TO.N,/SBU2*%
X139535000Y-89540000D03*
%TO.P,J2,B9,b9*%
%TO.N,+12V*%
X139135000Y-88840000D03*
%TO.P,J2,B10,b10*%
%TO.N,/CAN3_L*%
X138735000Y-89540000D03*
%TO.P,J2,B11,b11*%
%TO.N,/CAN3_H*%
X137935000Y-89540000D03*
%TO.P,J2,B12,b12*%
%TO.N,GND*%
X137535000Y-88840000D03*
%TD*%
D14*
%TO.P,J1,1,Pin_1a*%
%TO.N,GND*%
X128143000Y-77724000D03*
%TO.P,J1,2,Pin_2a*%
%TO.N,/CAN0_H*%
X132207000Y-77724000D03*
%TO.P,J1,3,Pin_3a*%
%TO.N,/CAN0_L*%
X136271000Y-77724000D03*
%TO.P,J1,4,Pin_4a*%
%TO.N,/SBU1*%
X140335000Y-77724000D03*
%TO.P,J1,5,Pin_5a*%
%TO.N,/CAN1_L*%
X144399000Y-77724000D03*
%TO.P,J1,6,Pin_6a*%
%TO.N,/CAN1_H*%
X148463000Y-77724000D03*
%TO.P,J1,7,Pin_7a*%
%TO.N,+12V*%
X152527000Y-77724000D03*
%TO.P,J1,8,Pin_1b*%
%TO.N,GND*%
X128143000Y-81788000D03*
%TO.P,J1,9,Pin_2b*%
%TO.N,/CAN2_H*%
X132207000Y-81788000D03*
%TO.P,J1,10,Pin_3b*%
%TO.N,/CAN2_L*%
X136271000Y-81788000D03*
%TO.P,J1,11,Pin_4b*%
%TO.N,/SBU2*%
X140335000Y-81788000D03*
%TO.P,J1,12,Pin_5b*%
%TO.N,/CAN3_H*%
X144399000Y-81788000D03*
%TO.P,J1,13,Pin_6b*%
%TO.N,/CAN3_L*%
X148463000Y-81788000D03*
%TO.P,J1,14,Pin_7b*%
%TO.N,+12V*%
X152527000Y-81788000D03*
%TD*%
D15*
%TO.N,/CAN1_H*%
X142585000Y-85331800D02*
X142585000Y-87630000D01*
X148463000Y-79453800D02*
X142585000Y-85331800D01*
X148463000Y-77724000D02*
X148463000Y-79453800D01*
%TO.N,/CAN1_L*%
X142085000Y-80038000D02*
X142085000Y-87630000D01*
X144399000Y-77724000D02*
X142085000Y-80038000D01*
%TO.N,/SBU1*%
X141085000Y-86756000D02*
X141085000Y-87630000D01*
X139084800Y-84755800D02*
X141085000Y-86756000D01*
X139084800Y-78974200D02*
X139084800Y-84755800D01*
X140335000Y-77724000D02*
X139084800Y-78974200D01*
D16*
%TO.N,GND*%
X143135000Y-87680000D02*
X143085000Y-87630000D01*
D17*
X143135000Y-88840000D02*
X143135000Y-87680000D01*
D16*
X137437300Y-87482300D02*
X137585000Y-87630000D01*
D17*
X129844200Y-81788000D02*
X135316800Y-87260600D01*
X128143000Y-81788000D02*
X129844200Y-81788000D01*
X137215600Y-87260600D02*
X137437300Y-87482300D01*
X135316800Y-87260600D02*
X137215600Y-87260600D01*
X135316800Y-90144600D02*
X135316800Y-87260600D01*
X135862700Y-90690500D02*
X135316800Y-90144600D01*
X136584700Y-90690500D02*
X135862700Y-90690500D01*
X137337800Y-89937400D02*
X136584700Y-90690500D01*
X137598900Y-90198500D02*
X137337800Y-89937400D01*
X143030100Y-90198500D02*
X137598900Y-90198500D01*
X143406900Y-89821700D02*
X143030100Y-90198500D01*
X143406900Y-89111900D02*
X143406900Y-89821700D01*
X143135000Y-88840000D02*
X143406900Y-89111900D01*
X137250800Y-89124200D02*
X137535000Y-88840000D01*
X137250800Y-89850400D02*
X137250800Y-89124200D01*
X137337800Y-89937400D02*
X137250800Y-89850400D01*
D15*
%TO.N,/CAN0_L*%
X138585000Y-80038000D02*
X138585000Y-87630000D01*
X136271000Y-77724000D02*
X138585000Y-80038000D01*
%TO.N,/CAN0_H*%
X138085000Y-85348700D02*
X138085000Y-87630000D01*
X132207000Y-79470700D02*
X138085000Y-85348700D01*
X132207000Y-77724000D02*
X132207000Y-79470700D01*
D17*
%TO.N,+12V*%
X139085000Y-88790000D02*
X139085000Y-88482100D01*
X139135000Y-88840000D02*
X139085000Y-88790000D01*
D16*
X139085000Y-88482100D02*
X139085000Y-87630000D01*
D17*
X141585000Y-88790000D02*
X141585000Y-88482100D01*
X141535000Y-88840000D02*
X141585000Y-88790000D01*
D16*
X141585000Y-88482100D02*
X141585000Y-87630000D01*
%TD*%
M02*
