%TF.GenerationSoftware,KiCad,Pcbnew,8.0.1*%
%TF.CreationDate,2024-03-22T11:25:03-04:00*%
%TF.ProjectId,commapogo_male,636f6d6d-6170-46f6-976f-5f6d616c652e,rev?*%
%TF.SameCoordinates,Original*%
%TF.FileFunction,Legend,Top*%
%TF.FilePolarity,Positive*%
%FSLAX46Y46*%
G04 Gerber Fmt 4.6, Leading zero omitted, Abs format (unit mm)*
G04 Created by KiCad (PCBNEW 8.0.1) date 2024-03-22 11:25:03*
%MOMM*%
%LPD*%
G01*
G04 APERTURE LIST*
%ADD10C,0.100000*%
%ADD11C,0.152000*%
%ADD12C,0.254000*%
%ADD13C,3.000000*%
%ADD14C,0.650000*%
%ADD15O,1.000000X1.600000*%
%ADD16O,1.000000X1.800000*%
%ADD17O,1.000000X1.700000*%
%ADD18R,0.300000X1.000000*%
%ADD19C,0.600000*%
%ADD20C,1.828800*%
G04 APERTURE END LIST*
D10*
X-14217576Y776105D02*
X-13950909Y-23895D01*
X-13950909Y-23895D02*
X-13684243Y776105D01*
X-12960433Y52296D02*
X-12998529Y14200D01*
X-12998529Y14200D02*
X-13112814Y-23895D01*
X-13112814Y-23895D02*
X-13189005Y-23895D01*
X-13189005Y-23895D02*
X-13303291Y14200D01*
X-13303291Y14200D02*
X-13379481Y90391D01*
X-13379481Y90391D02*
X-13417576Y166581D01*
X-13417576Y166581D02*
X-13455672Y318962D01*
X-13455672Y318962D02*
X-13455672Y433248D01*
X-13455672Y433248D02*
X-13417576Y585629D01*
X-13417576Y585629D02*
X-13379481Y661820D01*
X-13379481Y661820D02*
X-13303291Y738010D01*
X-13303291Y738010D02*
X-13189005Y776105D01*
X-13189005Y776105D02*
X-13112814Y776105D01*
X-13112814Y776105D02*
X-12998529Y738010D01*
X-12998529Y738010D02*
X-12960433Y699915D01*
X-12160433Y52296D02*
X-12198529Y14200D01*
X-12198529Y14200D02*
X-12312814Y-23895D01*
X-12312814Y-23895D02*
X-12389005Y-23895D01*
X-12389005Y-23895D02*
X-12503291Y14200D01*
X-12503291Y14200D02*
X-12579481Y90391D01*
X-12579481Y90391D02*
X-12617576Y166581D01*
X-12617576Y166581D02*
X-12655672Y318962D01*
X-12655672Y318962D02*
X-12655672Y433248D01*
X-12655672Y433248D02*
X-12617576Y585629D01*
X-12617576Y585629D02*
X-12579481Y661820D01*
X-12579481Y661820D02*
X-12503291Y738010D01*
X-12503291Y738010D02*
X-12389005Y776105D01*
X-12389005Y776105D02*
X-12312814Y776105D01*
X-12312814Y776105D02*
X-12198529Y738010D01*
X-12198529Y738010D02*
X-12160433Y699915D01*
X11768717Y8739010D02*
X11692527Y8777105D01*
X11692527Y8777105D02*
X11578241Y8777105D01*
X11578241Y8777105D02*
X11463955Y8739010D01*
X11463955Y8739010D02*
X11387765Y8662820D01*
X11387765Y8662820D02*
X11349670Y8586629D01*
X11349670Y8586629D02*
X11311574Y8434248D01*
X11311574Y8434248D02*
X11311574Y8319962D01*
X11311574Y8319962D02*
X11349670Y8167581D01*
X11349670Y8167581D02*
X11387765Y8091391D01*
X11387765Y8091391D02*
X11463955Y8015200D01*
X11463955Y8015200D02*
X11578241Y7977105D01*
X11578241Y7977105D02*
X11654432Y7977105D01*
X11654432Y7977105D02*
X11768717Y8015200D01*
X11768717Y8015200D02*
X11806813Y8053296D01*
X11806813Y8053296D02*
X11806813Y8319962D01*
X11806813Y8319962D02*
X11654432Y8319962D01*
X12149670Y7977105D02*
X12149670Y8777105D01*
X12149670Y8777105D02*
X12606813Y7977105D01*
X12606813Y7977105D02*
X12606813Y8777105D01*
X12987765Y7977105D02*
X12987765Y8777105D01*
X12987765Y8777105D02*
X13178241Y8777105D01*
X13178241Y8777105D02*
X13292527Y8739010D01*
X13292527Y8739010D02*
X13368717Y8662820D01*
X13368717Y8662820D02*
X13406812Y8586629D01*
X13406812Y8586629D02*
X13444908Y8434248D01*
X13444908Y8434248D02*
X13444908Y8319962D01*
X13444908Y8319962D02*
X13406812Y8167581D01*
X13406812Y8167581D02*
X13368717Y8091391D01*
X13368717Y8091391D02*
X13292527Y8015200D01*
X13292527Y8015200D02*
X13178241Y7977105D01*
X13178241Y7977105D02*
X12987765Y7977105D01*
D11*
X63714Y-9537869D02*
X63714Y-10354298D01*
X63714Y-10354298D02*
X9285Y-10517583D01*
X9285Y-10517583D02*
X-99572Y-10626441D01*
X-99572Y-10626441D02*
X-262858Y-10680869D01*
X-262858Y-10680869D02*
X-371715Y-10680869D01*
X553571Y-9646726D02*
X607999Y-9592298D01*
X607999Y-9592298D02*
X716857Y-9537869D01*
X716857Y-9537869D02*
X988999Y-9537869D01*
X988999Y-9537869D02*
X1097857Y-9592298D01*
X1097857Y-9592298D02*
X1152285Y-9646726D01*
X1152285Y-9646726D02*
X1206714Y-9755583D01*
X1206714Y-9755583D02*
X1206714Y-9864441D01*
X1206714Y-9864441D02*
X1152285Y-10027726D01*
X1152285Y-10027726D02*
X499142Y-10680869D01*
X499142Y-10680869D02*
X1206714Y-10680869D01*
D10*
X-8902667Y-1596895D02*
X-8902667Y-2168323D01*
X-8902667Y-2168323D02*
X-8940762Y-2282609D01*
X-8940762Y-2282609D02*
X-9016953Y-2358800D01*
X-9016953Y-2358800D02*
X-9131238Y-2396895D01*
X-9131238Y-2396895D02*
X-9207429Y-2396895D01*
X-8102667Y-2396895D02*
X-8559810Y-2396895D01*
X-8331238Y-2396895D02*
X-8331238Y-1596895D01*
X-8331238Y-1596895D02*
X-8407429Y-1711180D01*
X-8407429Y-1711180D02*
X-8483619Y-1787371D01*
X-8483619Y-1787371D02*
X-8559810Y-1825466D01*
X11944424Y776105D02*
X12211091Y-23895D01*
X12211091Y-23895D02*
X12477757Y776105D01*
X13201567Y52296D02*
X13163471Y14200D01*
X13163471Y14200D02*
X13049186Y-23895D01*
X13049186Y-23895D02*
X12972995Y-23895D01*
X12972995Y-23895D02*
X12858709Y14200D01*
X12858709Y14200D02*
X12782519Y90391D01*
X12782519Y90391D02*
X12744424Y166581D01*
X12744424Y166581D02*
X12706328Y318962D01*
X12706328Y318962D02*
X12706328Y433248D01*
X12706328Y433248D02*
X12744424Y585629D01*
X12744424Y585629D02*
X12782519Y661820D01*
X12782519Y661820D02*
X12858709Y738010D01*
X12858709Y738010D02*
X12972995Y776105D01*
X12972995Y776105D02*
X13049186Y776105D01*
X13049186Y776105D02*
X13163471Y738010D01*
X13163471Y738010D02*
X13201567Y699915D01*
X14001567Y52296D02*
X13963471Y14200D01*
X13963471Y14200D02*
X13849186Y-23895D01*
X13849186Y-23895D02*
X13772995Y-23895D01*
X13772995Y-23895D02*
X13658709Y14200D01*
X13658709Y14200D02*
X13582519Y90391D01*
X13582519Y90391D02*
X13544424Y166581D01*
X13544424Y166581D02*
X13506328Y318962D01*
X13506328Y318962D02*
X13506328Y433248D01*
X13506328Y433248D02*
X13544424Y585629D01*
X13544424Y585629D02*
X13582519Y661820D01*
X13582519Y661820D02*
X13658709Y738010D01*
X13658709Y738010D02*
X13772995Y776105D01*
X13772995Y776105D02*
X13849186Y776105D01*
X13849186Y776105D02*
X13963471Y738010D01*
X13963471Y738010D02*
X14001567Y699915D01*
X-10460417Y52296D02*
X-10498513Y14200D01*
X-10498513Y14200D02*
X-10612798Y-23895D01*
X-10612798Y-23895D02*
X-10688989Y-23895D01*
X-10688989Y-23895D02*
X-10803275Y14200D01*
X-10803275Y14200D02*
X-10879465Y90391D01*
X-10879465Y90391D02*
X-10917560Y166581D01*
X-10917560Y166581D02*
X-10955656Y318962D01*
X-10955656Y318962D02*
X-10955656Y433248D01*
X-10955656Y433248D02*
X-10917560Y585629D01*
X-10917560Y585629D02*
X-10879465Y661820D01*
X-10879465Y661820D02*
X-10803275Y738010D01*
X-10803275Y738010D02*
X-10688989Y776105D01*
X-10688989Y776105D02*
X-10612798Y776105D01*
X-10612798Y776105D02*
X-10498513Y738010D01*
X-10498513Y738010D02*
X-10460417Y699915D01*
X-10155656Y204677D02*
X-9774703Y204677D01*
X-10231846Y-23895D02*
X-9965179Y776105D01*
X-9965179Y776105D02*
X-9698513Y-23895D01*
X-9431846Y-23895D02*
X-9431846Y776105D01*
X-9431846Y776105D02*
X-8974703Y-23895D01*
X-8974703Y-23895D02*
X-8974703Y776105D01*
X-8669942Y776105D02*
X-8174704Y776105D01*
X-8174704Y776105D02*
X-8441370Y471343D01*
X-8441370Y471343D02*
X-8327085Y471343D01*
X-8327085Y471343D02*
X-8250894Y433248D01*
X-8250894Y433248D02*
X-8212799Y395153D01*
X-8212799Y395153D02*
X-8174704Y318962D01*
X-8174704Y318962D02*
X-8174704Y128486D01*
X-8174704Y128486D02*
X-8212799Y52296D01*
X-8212799Y52296D02*
X-8250894Y14200D01*
X-8250894Y14200D02*
X-8327085Y-23895D01*
X-8327085Y-23895D02*
X-8555656Y-23895D01*
X-8555656Y-23895D02*
X-8631847Y14200D01*
X-8631847Y14200D02*
X-8669942Y52296D01*
X-7831846Y-23895D02*
X-7831846Y776105D01*
X-7831846Y395153D02*
X-7374703Y395153D01*
X-7374703Y-23895D02*
X-7374703Y776105D01*
X-5312711Y8053296D02*
X-5350807Y8015200D01*
X-5350807Y8015200D02*
X-5465092Y7977105D01*
X-5465092Y7977105D02*
X-5541283Y7977105D01*
X-5541283Y7977105D02*
X-5655569Y8015200D01*
X-5655569Y8015200D02*
X-5731759Y8091391D01*
X-5731759Y8091391D02*
X-5769854Y8167581D01*
X-5769854Y8167581D02*
X-5807950Y8319962D01*
X-5807950Y8319962D02*
X-5807950Y8434248D01*
X-5807950Y8434248D02*
X-5769854Y8586629D01*
X-5769854Y8586629D02*
X-5731759Y8662820D01*
X-5731759Y8662820D02*
X-5655569Y8739010D01*
X-5655569Y8739010D02*
X-5541283Y8777105D01*
X-5541283Y8777105D02*
X-5465092Y8777105D01*
X-5465092Y8777105D02*
X-5350807Y8739010D01*
X-5350807Y8739010D02*
X-5312711Y8700915D01*
X-5007950Y8205677D02*
X-4626997Y8205677D01*
X-5084140Y7977105D02*
X-4817473Y8777105D01*
X-4817473Y8777105D02*
X-4550807Y7977105D01*
X-4284140Y7977105D02*
X-4284140Y8777105D01*
X-4284140Y8777105D02*
X-3826997Y7977105D01*
X-3826997Y7977105D02*
X-3826997Y8777105D01*
X-3293664Y8777105D02*
X-3217474Y8777105D01*
X-3217474Y8777105D02*
X-3141283Y8739010D01*
X-3141283Y8739010D02*
X-3103188Y8700915D01*
X-3103188Y8700915D02*
X-3065093Y8624724D01*
X-3065093Y8624724D02*
X-3026998Y8472343D01*
X-3026998Y8472343D02*
X-3026998Y8281867D01*
X-3026998Y8281867D02*
X-3065093Y8129486D01*
X-3065093Y8129486D02*
X-3103188Y8053296D01*
X-3103188Y8053296D02*
X-3141283Y8015200D01*
X-3141283Y8015200D02*
X-3217474Y7977105D01*
X-3217474Y7977105D02*
X-3293664Y7977105D01*
X-3293664Y7977105D02*
X-3369855Y8015200D01*
X-3369855Y8015200D02*
X-3407950Y8053296D01*
X-3407950Y8053296D02*
X-3446045Y8129486D01*
X-3446045Y8129486D02*
X-3484141Y8281867D01*
X-3484141Y8281867D02*
X-3484141Y8472343D01*
X-3484141Y8472343D02*
X-3446045Y8624724D01*
X-3446045Y8624724D02*
X-3407950Y8700915D01*
X-3407950Y8700915D02*
X-3369855Y8739010D01*
X-3369855Y8739010D02*
X-3293664Y8777105D01*
X-2303188Y7977105D02*
X-2684140Y7977105D01*
X-2684140Y7977105D02*
X-2684140Y8777105D01*
X-1432831Y8015200D02*
X-1318545Y7977105D01*
X-1318545Y7977105D02*
X-1128069Y7977105D01*
X-1128069Y7977105D02*
X-1051878Y8015200D01*
X-1051878Y8015200D02*
X-1013783Y8053296D01*
X-1013783Y8053296D02*
X-975688Y8129486D01*
X-975688Y8129486D02*
X-975688Y8205677D01*
X-975688Y8205677D02*
X-1013783Y8281867D01*
X-1013783Y8281867D02*
X-1051878Y8319962D01*
X-1051878Y8319962D02*
X-1128069Y8358058D01*
X-1128069Y8358058D02*
X-1280450Y8396153D01*
X-1280450Y8396153D02*
X-1356640Y8434248D01*
X-1356640Y8434248D02*
X-1394735Y8472343D01*
X-1394735Y8472343D02*
X-1432831Y8548534D01*
X-1432831Y8548534D02*
X-1432831Y8624724D01*
X-1432831Y8624724D02*
X-1394735Y8700915D01*
X-1394735Y8700915D02*
X-1356640Y8739010D01*
X-1356640Y8739010D02*
X-1280450Y8777105D01*
X-1280450Y8777105D02*
X-1089973Y8777105D01*
X-1089973Y8777105D02*
X-975688Y8739010D01*
X-366164Y8396153D02*
X-251878Y8358058D01*
X-251878Y8358058D02*
X-213783Y8319962D01*
X-213783Y8319962D02*
X-175687Y8243772D01*
X-175687Y8243772D02*
X-175687Y8129486D01*
X-175687Y8129486D02*
X-213783Y8053296D01*
X-213783Y8053296D02*
X-251878Y8015200D01*
X-251878Y8015200D02*
X-328068Y7977105D01*
X-328068Y7977105D02*
X-632830Y7977105D01*
X-632830Y7977105D02*
X-632830Y8777105D01*
X-632830Y8777105D02*
X-366164Y8777105D01*
X-366164Y8777105D02*
X-289973Y8739010D01*
X-289973Y8739010D02*
X-251878Y8700915D01*
X-251878Y8700915D02*
X-213783Y8624724D01*
X-213783Y8624724D02*
X-213783Y8548534D01*
X-213783Y8548534D02*
X-251878Y8472343D01*
X-251878Y8472343D02*
X-289973Y8434248D01*
X-289973Y8434248D02*
X-366164Y8396153D01*
X-366164Y8396153D02*
X-632830Y8396153D01*
X167170Y8777105D02*
X167170Y8129486D01*
X167170Y8129486D02*
X205265Y8053296D01*
X205265Y8053296D02*
X243360Y8015200D01*
X243360Y8015200D02*
X319551Y7977105D01*
X319551Y7977105D02*
X471932Y7977105D01*
X471932Y7977105D02*
X548122Y8015200D01*
X548122Y8015200D02*
X586217Y8053296D01*
X586217Y8053296D02*
X624313Y8129486D01*
X624313Y8129486D02*
X624313Y8777105D01*
X1424312Y7977105D02*
X967169Y7977105D01*
X1195741Y7977105D02*
X1195741Y8777105D01*
X1195741Y8777105D02*
X1119550Y8662820D01*
X1119550Y8662820D02*
X1043360Y8586629D01*
X1043360Y8586629D02*
X967169Y8548534D01*
X-12996283Y8739010D02*
X-13072473Y8777105D01*
X-13072473Y8777105D02*
X-13186759Y8777105D01*
X-13186759Y8777105D02*
X-13301045Y8739010D01*
X-13301045Y8739010D02*
X-13377235Y8662820D01*
X-13377235Y8662820D02*
X-13415330Y8586629D01*
X-13415330Y8586629D02*
X-13453426Y8434248D01*
X-13453426Y8434248D02*
X-13453426Y8319962D01*
X-13453426Y8319962D02*
X-13415330Y8167581D01*
X-13415330Y8167581D02*
X-13377235Y8091391D01*
X-13377235Y8091391D02*
X-13301045Y8015200D01*
X-13301045Y8015200D02*
X-13186759Y7977105D01*
X-13186759Y7977105D02*
X-13110568Y7977105D01*
X-13110568Y7977105D02*
X-12996283Y8015200D01*
X-12996283Y8015200D02*
X-12958187Y8053296D01*
X-12958187Y8053296D02*
X-12958187Y8319962D01*
X-12958187Y8319962D02*
X-13110568Y8319962D01*
X-12615330Y7977105D02*
X-12615330Y8777105D01*
X-12615330Y8777105D02*
X-12158187Y7977105D01*
X-12158187Y7977105D02*
X-12158187Y8777105D01*
X-11777235Y7977105D02*
X-11777235Y8777105D01*
X-11777235Y8777105D02*
X-11586759Y8777105D01*
X-11586759Y8777105D02*
X-11472473Y8739010D01*
X-11472473Y8739010D02*
X-11396283Y8662820D01*
X-11396283Y8662820D02*
X-11358188Y8586629D01*
X-11358188Y8586629D02*
X-11320092Y8434248D01*
X-11320092Y8434248D02*
X-11320092Y8319962D01*
X-11320092Y8319962D02*
X-11358188Y8167581D01*
X-11358188Y8167581D02*
X-11396283Y8091391D01*
X-11396283Y8091391D02*
X-11472473Y8015200D01*
X-11472473Y8015200D02*
X-11586759Y7977105D01*
X-11586759Y7977105D02*
X-11777235Y7977105D01*
X-1498482Y14200D02*
X-1384196Y-23895D01*
X-1384196Y-23895D02*
X-1193720Y-23895D01*
X-1193720Y-23895D02*
X-1117529Y14200D01*
X-1117529Y14200D02*
X-1079434Y52296D01*
X-1079434Y52296D02*
X-1041339Y128486D01*
X-1041339Y128486D02*
X-1041339Y204677D01*
X-1041339Y204677D02*
X-1079434Y280867D01*
X-1079434Y280867D02*
X-1117529Y318962D01*
X-1117529Y318962D02*
X-1193720Y357058D01*
X-1193720Y357058D02*
X-1346101Y395153D01*
X-1346101Y395153D02*
X-1422291Y433248D01*
X-1422291Y433248D02*
X-1460386Y471343D01*
X-1460386Y471343D02*
X-1498482Y547534D01*
X-1498482Y547534D02*
X-1498482Y623724D01*
X-1498482Y623724D02*
X-1460386Y699915D01*
X-1460386Y699915D02*
X-1422291Y738010D01*
X-1422291Y738010D02*
X-1346101Y776105D01*
X-1346101Y776105D02*
X-1155624Y776105D01*
X-1155624Y776105D02*
X-1041339Y738010D01*
X-431815Y395153D02*
X-317529Y357058D01*
X-317529Y357058D02*
X-279434Y318962D01*
X-279434Y318962D02*
X-241338Y242772D01*
X-241338Y242772D02*
X-241338Y128486D01*
X-241338Y128486D02*
X-279434Y52296D01*
X-279434Y52296D02*
X-317529Y14200D01*
X-317529Y14200D02*
X-393719Y-23895D01*
X-393719Y-23895D02*
X-698481Y-23895D01*
X-698481Y-23895D02*
X-698481Y776105D01*
X-698481Y776105D02*
X-431815Y776105D01*
X-431815Y776105D02*
X-355624Y738010D01*
X-355624Y738010D02*
X-317529Y699915D01*
X-317529Y699915D02*
X-279434Y623724D01*
X-279434Y623724D02*
X-279434Y547534D01*
X-279434Y547534D02*
X-317529Y471343D01*
X-317529Y471343D02*
X-355624Y433248D01*
X-355624Y433248D02*
X-431815Y395153D01*
X-431815Y395153D02*
X-698481Y395153D01*
X101519Y776105D02*
X101519Y128486D01*
X101519Y128486D02*
X139614Y52296D01*
X139614Y52296D02*
X177709Y14200D01*
X177709Y14200D02*
X253900Y-23895D01*
X253900Y-23895D02*
X406281Y-23895D01*
X406281Y-23895D02*
X482471Y14200D01*
X482471Y14200D02*
X520566Y52296D01*
X520566Y52296D02*
X558662Y128486D01*
X558662Y128486D02*
X558662Y776105D01*
X901518Y699915D02*
X939614Y738010D01*
X939614Y738010D02*
X1015804Y776105D01*
X1015804Y776105D02*
X1206280Y776105D01*
X1206280Y776105D02*
X1282471Y738010D01*
X1282471Y738010D02*
X1320566Y699915D01*
X1320566Y699915D02*
X1358661Y623724D01*
X1358661Y623724D02*
X1358661Y547534D01*
X1358661Y547534D02*
X1320566Y433248D01*
X1320566Y433248D02*
X863423Y-23895D01*
X863423Y-23895D02*
X1358661Y-23895D01*
X7692027Y52296D02*
X7653931Y14200D01*
X7653931Y14200D02*
X7539646Y-23895D01*
X7539646Y-23895D02*
X7463455Y-23895D01*
X7463455Y-23895D02*
X7349169Y14200D01*
X7349169Y14200D02*
X7272979Y90391D01*
X7272979Y90391D02*
X7234884Y166581D01*
X7234884Y166581D02*
X7196788Y318962D01*
X7196788Y318962D02*
X7196788Y433248D01*
X7196788Y433248D02*
X7234884Y585629D01*
X7234884Y585629D02*
X7272979Y661820D01*
X7272979Y661820D02*
X7349169Y738010D01*
X7349169Y738010D02*
X7463455Y776105D01*
X7463455Y776105D02*
X7539646Y776105D01*
X7539646Y776105D02*
X7653931Y738010D01*
X7653931Y738010D02*
X7692027Y699915D01*
X7996788Y204677D02*
X8377741Y204677D01*
X7920598Y-23895D02*
X8187265Y776105D01*
X8187265Y776105D02*
X8453931Y-23895D01*
X8720598Y-23895D02*
X8720598Y776105D01*
X8720598Y776105D02*
X9177741Y-23895D01*
X9177741Y-23895D02*
X9177741Y776105D01*
X9520597Y699915D02*
X9558693Y738010D01*
X9558693Y738010D02*
X9634883Y776105D01*
X9634883Y776105D02*
X9825359Y776105D01*
X9825359Y776105D02*
X9901550Y738010D01*
X9901550Y738010D02*
X9939645Y699915D01*
X9939645Y699915D02*
X9977740Y623724D01*
X9977740Y623724D02*
X9977740Y547534D01*
X9977740Y547534D02*
X9939645Y433248D01*
X9939645Y433248D02*
X9482502Y-23895D01*
X9482502Y-23895D02*
X9977740Y-23895D01*
X10320598Y-23895D02*
X10320598Y776105D01*
X10320598Y395153D02*
X10777741Y395153D01*
X10777741Y-23895D02*
X10777741Y776105D01*
X-9878306Y8053296D02*
X-9916402Y8015200D01*
X-9916402Y8015200D02*
X-10030687Y7977105D01*
X-10030687Y7977105D02*
X-10106878Y7977105D01*
X-10106878Y7977105D02*
X-10221164Y8015200D01*
X-10221164Y8015200D02*
X-10297354Y8091391D01*
X-10297354Y8091391D02*
X-10335449Y8167581D01*
X-10335449Y8167581D02*
X-10373545Y8319962D01*
X-10373545Y8319962D02*
X-10373545Y8434248D01*
X-10373545Y8434248D02*
X-10335449Y8586629D01*
X-10335449Y8586629D02*
X-10297354Y8662820D01*
X-10297354Y8662820D02*
X-10221164Y8739010D01*
X-10221164Y8739010D02*
X-10106878Y8777105D01*
X-10106878Y8777105D02*
X-10030687Y8777105D01*
X-10030687Y8777105D02*
X-9916402Y8739010D01*
X-9916402Y8739010D02*
X-9878306Y8700915D01*
X-9573545Y8205677D02*
X-9192592Y8205677D01*
X-9649735Y7977105D02*
X-9383068Y8777105D01*
X-9383068Y8777105D02*
X-9116402Y7977105D01*
X-8849735Y7977105D02*
X-8849735Y8777105D01*
X-8849735Y8777105D02*
X-8392592Y7977105D01*
X-8392592Y7977105D02*
X-8392592Y8777105D01*
X-7859259Y8777105D02*
X-7783069Y8777105D01*
X-7783069Y8777105D02*
X-7706878Y8739010D01*
X-7706878Y8739010D02*
X-7668783Y8700915D01*
X-7668783Y8700915D02*
X-7630688Y8624724D01*
X-7630688Y8624724D02*
X-7592593Y8472343D01*
X-7592593Y8472343D02*
X-7592593Y8281867D01*
X-7592593Y8281867D02*
X-7630688Y8129486D01*
X-7630688Y8129486D02*
X-7668783Y8053296D01*
X-7668783Y8053296D02*
X-7706878Y8015200D01*
X-7706878Y8015200D02*
X-7783069Y7977105D01*
X-7783069Y7977105D02*
X-7859259Y7977105D01*
X-7859259Y7977105D02*
X-7935450Y8015200D01*
X-7935450Y8015200D02*
X-7973545Y8053296D01*
X-7973545Y8053296D02*
X-8011640Y8129486D01*
X-8011640Y8129486D02*
X-8049736Y8281867D01*
X-8049736Y8281867D02*
X-8049736Y8472343D01*
X-8049736Y8472343D02*
X-8011640Y8624724D01*
X-8011640Y8624724D02*
X-7973545Y8700915D01*
X-7973545Y8700915D02*
X-7935450Y8739010D01*
X-7935450Y8739010D02*
X-7859259Y8777105D01*
X-7249735Y7977105D02*
X-7249735Y8777105D01*
X-7249735Y8396153D02*
X-6792592Y8396153D01*
X-6792592Y7977105D02*
X-6792592Y8777105D01*
X-5636592Y52296D02*
X-5674688Y14200D01*
X-5674688Y14200D02*
X-5788973Y-23895D01*
X-5788973Y-23895D02*
X-5865164Y-23895D01*
X-5865164Y-23895D02*
X-5979450Y14200D01*
X-5979450Y14200D02*
X-6055640Y90391D01*
X-6055640Y90391D02*
X-6093735Y166581D01*
X-6093735Y166581D02*
X-6131831Y318962D01*
X-6131831Y318962D02*
X-6131831Y433248D01*
X-6131831Y433248D02*
X-6093735Y585629D01*
X-6093735Y585629D02*
X-6055640Y661820D01*
X-6055640Y661820D02*
X-5979450Y738010D01*
X-5979450Y738010D02*
X-5865164Y776105D01*
X-5865164Y776105D02*
X-5788973Y776105D01*
X-5788973Y776105D02*
X-5674688Y738010D01*
X-5674688Y738010D02*
X-5636592Y699915D01*
X-5331831Y204677D02*
X-4950878Y204677D01*
X-5408021Y-23895D02*
X-5141354Y776105D01*
X-5141354Y776105D02*
X-4874688Y-23895D01*
X-4608021Y-23895D02*
X-4608021Y776105D01*
X-4608021Y776105D02*
X-4150878Y-23895D01*
X-4150878Y-23895D02*
X-4150878Y776105D01*
X-3846117Y776105D02*
X-3350879Y776105D01*
X-3350879Y776105D02*
X-3617545Y471343D01*
X-3617545Y471343D02*
X-3503260Y471343D01*
X-3503260Y471343D02*
X-3427069Y433248D01*
X-3427069Y433248D02*
X-3388974Y395153D01*
X-3388974Y395153D02*
X-3350879Y318962D01*
X-3350879Y318962D02*
X-3350879Y128486D01*
X-3350879Y128486D02*
X-3388974Y52296D01*
X-3388974Y52296D02*
X-3427069Y14200D01*
X-3427069Y14200D02*
X-3503260Y-23895D01*
X-3503260Y-23895D02*
X-3731831Y-23895D01*
X-3731831Y-23895D02*
X-3808022Y14200D01*
X-3808022Y14200D02*
X-3846117Y52296D01*
X-2627069Y-23895D02*
X-3008021Y-23895D01*
X-3008021Y-23895D02*
X-3008021Y776105D01*
X2866099Y8053296D02*
X2828003Y8015200D01*
X2828003Y8015200D02*
X2713718Y7977105D01*
X2713718Y7977105D02*
X2637527Y7977105D01*
X2637527Y7977105D02*
X2523241Y8015200D01*
X2523241Y8015200D02*
X2447051Y8091391D01*
X2447051Y8091391D02*
X2408956Y8167581D01*
X2408956Y8167581D02*
X2370860Y8319962D01*
X2370860Y8319962D02*
X2370860Y8434248D01*
X2370860Y8434248D02*
X2408956Y8586629D01*
X2408956Y8586629D02*
X2447051Y8662820D01*
X2447051Y8662820D02*
X2523241Y8739010D01*
X2523241Y8739010D02*
X2637527Y8777105D01*
X2637527Y8777105D02*
X2713718Y8777105D01*
X2713718Y8777105D02*
X2828003Y8739010D01*
X2828003Y8739010D02*
X2866099Y8700915D01*
X3170860Y8205677D02*
X3551813Y8205677D01*
X3094670Y7977105D02*
X3361337Y8777105D01*
X3361337Y8777105D02*
X3628003Y7977105D01*
X3894670Y7977105D02*
X3894670Y8777105D01*
X3894670Y8777105D02*
X4351813Y7977105D01*
X4351813Y7977105D02*
X4351813Y8777105D01*
X5151812Y7977105D02*
X4694669Y7977105D01*
X4923241Y7977105D02*
X4923241Y8777105D01*
X4923241Y8777105D02*
X4847050Y8662820D01*
X4847050Y8662820D02*
X4770860Y8586629D01*
X4770860Y8586629D02*
X4694669Y8548534D01*
X5875622Y7977105D02*
X5494670Y7977105D01*
X5494670Y7977105D02*
X5494670Y8777105D01*
X3058678Y52296D02*
X3020582Y14200D01*
X3020582Y14200D02*
X2906297Y-23895D01*
X2906297Y-23895D02*
X2830106Y-23895D01*
X2830106Y-23895D02*
X2715820Y14200D01*
X2715820Y14200D02*
X2639630Y90391D01*
X2639630Y90391D02*
X2601535Y166581D01*
X2601535Y166581D02*
X2563439Y318962D01*
X2563439Y318962D02*
X2563439Y433248D01*
X2563439Y433248D02*
X2601535Y585629D01*
X2601535Y585629D02*
X2639630Y661820D01*
X2639630Y661820D02*
X2715820Y738010D01*
X2715820Y738010D02*
X2830106Y776105D01*
X2830106Y776105D02*
X2906297Y776105D01*
X2906297Y776105D02*
X3020582Y738010D01*
X3020582Y738010D02*
X3058678Y699915D01*
X3363439Y204677D02*
X3744392Y204677D01*
X3287249Y-23895D02*
X3553916Y776105D01*
X3553916Y776105D02*
X3820582Y-23895D01*
X4087249Y-23895D02*
X4087249Y776105D01*
X4087249Y776105D02*
X4544392Y-23895D01*
X4544392Y-23895D02*
X4544392Y776105D01*
X4887248Y699915D02*
X4925344Y738010D01*
X4925344Y738010D02*
X5001534Y776105D01*
X5001534Y776105D02*
X5192010Y776105D01*
X5192010Y776105D02*
X5268201Y738010D01*
X5268201Y738010D02*
X5306296Y699915D01*
X5306296Y699915D02*
X5344391Y623724D01*
X5344391Y623724D02*
X5344391Y547534D01*
X5344391Y547534D02*
X5306296Y433248D01*
X5306296Y433248D02*
X4849153Y-23895D01*
X4849153Y-23895D02*
X5344391Y-23895D01*
X6068201Y-23895D02*
X5687249Y-23895D01*
X5687249Y-23895D02*
X5687249Y776105D01*
X7241218Y8053296D02*
X7203122Y8015200D01*
X7203122Y8015200D02*
X7088837Y7977105D01*
X7088837Y7977105D02*
X7012646Y7977105D01*
X7012646Y7977105D02*
X6898360Y8015200D01*
X6898360Y8015200D02*
X6822170Y8091391D01*
X6822170Y8091391D02*
X6784075Y8167581D01*
X6784075Y8167581D02*
X6745979Y8319962D01*
X6745979Y8319962D02*
X6745979Y8434248D01*
X6745979Y8434248D02*
X6784075Y8586629D01*
X6784075Y8586629D02*
X6822170Y8662820D01*
X6822170Y8662820D02*
X6898360Y8739010D01*
X6898360Y8739010D02*
X7012646Y8777105D01*
X7012646Y8777105D02*
X7088837Y8777105D01*
X7088837Y8777105D02*
X7203122Y8739010D01*
X7203122Y8739010D02*
X7241218Y8700915D01*
X7545979Y8205677D02*
X7926932Y8205677D01*
X7469789Y7977105D02*
X7736456Y8777105D01*
X7736456Y8777105D02*
X8003122Y7977105D01*
X8269789Y7977105D02*
X8269789Y8777105D01*
X8269789Y8777105D02*
X8726932Y7977105D01*
X8726932Y7977105D02*
X8726932Y8777105D01*
X9526931Y7977105D02*
X9069788Y7977105D01*
X9298360Y7977105D02*
X9298360Y8777105D01*
X9298360Y8777105D02*
X9222169Y8662820D01*
X9222169Y8662820D02*
X9145979Y8586629D01*
X9145979Y8586629D02*
X9069788Y8548534D01*
X9869789Y7977105D02*
X9869789Y8777105D01*
X9869789Y8396153D02*
X10326932Y8396153D01*
X10326932Y7977105D02*
X10326932Y8777105D01*
D12*
%TO.C,J2*%
X-5334000Y-2592000D02*
X5334000Y-2592000D01*
X-5334000Y-12592000D02*
X-5334000Y-2592000D01*
X5334000Y-2592000D02*
X5334000Y-12592000D01*
X5334000Y-12592000D02*
X-5334000Y-12592000D01*
%TD*%
%LPC*%
D13*
%TO.C,H1*%
X-16637000Y6858000D03*
%TD*%
D14*
%TO.C,J2*%
X-3600000Y-4370000D03*
X3590000Y-4330000D03*
D15*
X-4125000Y-5620000D03*
D16*
X-4485000Y-10010000D03*
X4485000Y-10010000D03*
D17*
X4125000Y-5620000D03*
D18*
X-2750000Y-3810000D03*
X-2250000Y-3810000D03*
X-1750000Y-3810000D03*
X-1250000Y-3810000D03*
X-750000Y-3810000D03*
X-250000Y-3810000D03*
X250000Y-3810000D03*
X750000Y-3810000D03*
X1250000Y-3810000D03*
X1750000Y-3810000D03*
X2250000Y-3810000D03*
X2750000Y-3810000D03*
D19*
X2800000Y-5020000D03*
X2400000Y-5720000D03*
X1600000Y-5720000D03*
X1200000Y-5020000D03*
X800000Y-5720000D03*
X400000Y-5020000D03*
X-400000Y-5020000D03*
X-800000Y-5720000D03*
X-1200000Y-5020000D03*
X-1600000Y-5720000D03*
X-2400000Y-5720000D03*
X-2800000Y-5020000D03*
%TD*%
D13*
%TO.C,H4*%
X8509000Y-8382000D03*
%TD*%
%TO.C,H3*%
X-8509000Y-8382000D03*
%TD*%
%TO.C,H2*%
X16637000Y6858000D03*
%TD*%
D20*
%TO.C,J1*%
X-12192000Y6096000D03*
X-8128000Y6096000D03*
X-4064000Y6096000D03*
X0Y6096000D03*
X4064000Y6096000D03*
X8128000Y6096000D03*
X12192000Y6096000D03*
X-12192000Y2032000D03*
X-8128000Y2032000D03*
X-4064000Y2032000D03*
X0Y2032000D03*
X4064000Y2032000D03*
X8128000Y2032000D03*
X12192000Y2032000D03*
%TD*%
%LPD*%
M02*
