%TF.GenerationSoftware,KiCad,Pcbnew,7.0.5*%
%TF.CreationDate,2024-03-20T22:41:40-04:00*%
%TF.ProjectId,commapogo_male,636f6d6d-6170-46f6-976f-5f6d616c652e,rev?*%
%TF.SameCoordinates,Original*%
%TF.FileFunction,Copper,L3,Inr*%
%TF.FilePolarity,Positive*%
%FSLAX46Y46*%
G04 Gerber Fmt 4.6, Leading zero omitted, Abs format (unit mm)*
G04 Created by KiCad (PCBNEW 7.0.5) date 2024-03-20 22:41:40*
%MOMM*%
%LPD*%
G01*
G04 APERTURE LIST*
%TA.AperFunction,ComponentPad*%
%ADD10O,1.000000X1.600000*%
%TD*%
%TA.AperFunction,ComponentPad*%
%ADD11O,1.000000X1.800000*%
%TD*%
%TA.AperFunction,ComponentPad*%
%ADD12O,1.000000X1.700000*%
%TD*%
%TA.AperFunction,ComponentPad*%
%ADD13C,0.600000*%
%TD*%
%TA.AperFunction,ComponentPad*%
%ADD14C,1.828800*%
%TD*%
%TA.AperFunction,ViaPad*%
%ADD15C,0.800000*%
%TD*%
%TA.AperFunction,Conductor*%
%ADD16C,0.300000*%
%TD*%
%TA.AperFunction,Conductor*%
%ADD17C,0.200000*%
%TD*%
G04 APERTURE END LIST*
D10*
%TO.N,GND*%
%TO.C,J2*%
X-4125000Y-5620000D03*
D11*
X-4485000Y-10010000D03*
X4485000Y-10010000D03*
D12*
X4125000Y-5620000D03*
D13*
X2800000Y-5020000D03*
%TO.N,/CAN2_H*%
X2400000Y-5720000D03*
%TO.N,/CAN2_L*%
X1600000Y-5720000D03*
%TO.N,+12V*%
X1200000Y-5020000D03*
%TO.N,unconnected-(J2-Pin_5b-PadB5)*%
X800000Y-5720000D03*
%TO.N,unconnected-(J2-Pin_6b-PadB6)*%
X400000Y-5020000D03*
%TO.N,/SBU2*%
X-400000Y-5020000D03*
X-800000Y-5720000D03*
%TO.N,+12V*%
X-1200000Y-5020000D03*
%TO.N,/CAN3_L*%
X-1600000Y-5720000D03*
%TO.N,/CAN3_H*%
X-2400000Y-5720000D03*
%TO.N,GND*%
X-2800000Y-5020000D03*
%TD*%
D14*
%TO.N,GND*%
%TO.C,J1*%
X-12192000Y6096000D03*
%TO.N,/CAN0_H*%
X-8128000Y6096000D03*
%TO.N,/CAN0_L*%
X-4064000Y6096000D03*
%TO.N,/SBU1*%
X0Y6096000D03*
%TO.N,/CAN1_L*%
X4064000Y6096000D03*
%TO.N,/CAN1_H*%
X8128000Y6096000D03*
%TO.N,GND*%
X12192000Y6096000D03*
%TO.N,+12V*%
X-12192000Y2032000D03*
%TO.N,/CAN3_H*%
X-8128000Y2032000D03*
%TO.N,/CAN3_L*%
X-4064000Y2032000D03*
%TO.N,/SBU2*%
X0Y2032000D03*
%TO.N,/CAN2_L*%
X4064000Y2032000D03*
%TO.N,/CAN2_H*%
X8128000Y2032000D03*
%TO.N,+12V*%
X12192000Y2032000D03*
%TD*%
D15*
%TO.N,/CAN0_H*%
X-3683010Y-1651000D03*
%TO.N,/CAN0_L*%
X-2413000Y-1651000D03*
%TO.N,/SBU1*%
X150052Y-1524000D03*
%TO.N,/CAN1_L*%
X2397879Y-1762881D03*
%TO.N,/CAN1_H*%
X3414000Y-1777992D03*
%TD*%
D16*
%TO.N,/CAN2_H*%
X4435660Y-6720000D02*
X3400000Y-6720000D01*
X3400000Y-6720000D02*
X2400000Y-5720000D01*
X8128000Y2032000D02*
X8128000Y-3027660D01*
X8128000Y-3027660D02*
X4435660Y-6720000D01*
D17*
%TO.N,/CAN2_L*%
X1850000Y-5470000D02*
X1600000Y-5720000D01*
D16*
X4064000Y2032000D02*
X4064000Y-2846400D01*
X1850000Y-5060400D02*
X1850000Y-5470000D01*
X4064000Y-2846400D02*
X1850000Y-5060400D01*
%TO.N,/SBU2*%
X-400000Y-5320000D02*
X-800000Y-5720000D01*
X-550000Y1482000D02*
X-550000Y-4870000D01*
X-400000Y-5020000D02*
X-400000Y-5320000D01*
X-550000Y-4870000D02*
X-400000Y-5020000D01*
X0Y2032000D02*
X-550000Y1482000D01*
D17*
%TO.N,/CAN3_L*%
X-1750000Y-5570000D02*
X-1600000Y-5720000D01*
D16*
X-1750000Y-282000D02*
X-1750000Y-5570000D01*
X-4064000Y2032000D02*
X-1750000Y-282000D01*
%TO.N,/CAN3_H*%
X-8128000Y1112594D02*
X-2250000Y-4765406D01*
D17*
X-2250000Y-5570000D02*
X-2400000Y-5720000D01*
D16*
X-2250000Y-4765406D02*
X-2250000Y-5570000D01*
X-8128000Y1112594D02*
X-8128000Y2032000D01*
%TD*%
M02*
