%TF.GenerationSoftware,KiCad,Pcbnew,7.0.5*%
%TF.CreationDate,2024-03-09T10:35:29-05:00*%
%TF.ProjectId,commapogo_male,636f6d6d-6170-46f6-976f-5f6d616c652e,rev?*%
%TF.SameCoordinates,Original*%
%TF.FileFunction,Other,Comment*%
%FSLAX46Y46*%
G04 Gerber Fmt 4.6, Leading zero omitted, Abs format (unit mm)*
G04 Created by KiCad (PCBNEW 7.0.5) date 2024-03-09 10:35:29*
%MOMM*%
%LPD*%
G01*
G04 APERTURE LIST*
%ADD10C,0.150000*%
%ADD11C,0.250000*%
G04 APERTURE END LIST*
D10*
%TO.C,J2*%
X-2095239Y-6698152D02*
X-2095239Y-7507676D01*
X-2095239Y-7507676D02*
X-2142858Y-7602914D01*
X-2142858Y-7602914D02*
X-2190477Y-7650533D01*
X-2190477Y-7650533D02*
X-2285715Y-7698152D01*
X-2285715Y-7698152D02*
X-2428572Y-7698152D01*
X-2428572Y-7698152D02*
X-2523810Y-7650533D01*
X-2095239Y-7317200D02*
X-2190477Y-7364819D01*
X-2190477Y-7364819D02*
X-2380953Y-7364819D01*
X-2380953Y-7364819D02*
X-2476191Y-7317200D01*
X-2476191Y-7317200D02*
X-2523810Y-7269580D01*
X-2523810Y-7269580D02*
X-2571429Y-7174342D01*
X-2571429Y-7174342D02*
X-2571429Y-6888628D01*
X-2571429Y-6888628D02*
X-2523810Y-6793390D01*
X-2523810Y-6793390D02*
X-2476191Y-6745771D01*
X-2476191Y-6745771D02*
X-2380953Y-6698152D01*
X-2380953Y-6698152D02*
X-2190477Y-6698152D01*
X-2190477Y-6698152D02*
X-2095239Y-6745771D01*
X-1190477Y-6698152D02*
X-1190477Y-7507676D01*
X-1190477Y-7507676D02*
X-1238096Y-7602914D01*
X-1238096Y-7602914D02*
X-1285715Y-7650533D01*
X-1285715Y-7650533D02*
X-1380953Y-7698152D01*
X-1380953Y-7698152D02*
X-1523810Y-7698152D01*
X-1523810Y-7698152D02*
X-1619048Y-7650533D01*
X-1190477Y-7317200D02*
X-1285715Y-7364819D01*
X-1285715Y-7364819D02*
X-1476191Y-7364819D01*
X-1476191Y-7364819D02*
X-1571429Y-7317200D01*
X-1571429Y-7317200D02*
X-1619048Y-7269580D01*
X-1619048Y-7269580D02*
X-1666667Y-7174342D01*
X-1666667Y-7174342D02*
X-1666667Y-6888628D01*
X-1666667Y-6888628D02*
X-1619048Y-6793390D01*
X-1619048Y-6793390D02*
X-1571429Y-6745771D01*
X-1571429Y-6745771D02*
X-1476191Y-6698152D01*
X-1476191Y-6698152D02*
X-1285715Y-6698152D01*
X-1285715Y-6698152D02*
X-1190477Y-6745771D01*
X-333334Y-7317200D02*
X-428572Y-7364819D01*
X-428572Y-7364819D02*
X-619048Y-7364819D01*
X-619048Y-7364819D02*
X-714286Y-7317200D01*
X-714286Y-7317200D02*
X-761905Y-7221961D01*
X-761905Y-7221961D02*
X-761905Y-6841009D01*
X-761905Y-6841009D02*
X-714286Y-6745771D01*
X-714286Y-6745771D02*
X-619048Y-6698152D01*
X-619048Y-6698152D02*
X-428572Y-6698152D01*
X-428572Y-6698152D02*
X-333334Y-6745771D01*
X-333334Y-6745771D02*
X-285715Y-6841009D01*
X-285715Y-6841009D02*
X-285715Y-6936247D01*
X-285715Y-6936247D02*
X-761905Y-7031485D01*
X47619Y-6364819D02*
X714285Y-6364819D01*
X714285Y-6364819D02*
X285714Y-7364819D01*
X1285714Y-6364819D02*
X1380952Y-6364819D01*
X1380952Y-6364819D02*
X1476190Y-6412438D01*
X1476190Y-6412438D02*
X1523809Y-6460057D01*
X1523809Y-6460057D02*
X1571428Y-6555295D01*
X1571428Y-6555295D02*
X1619047Y-6745771D01*
X1619047Y-6745771D02*
X1619047Y-6983866D01*
X1619047Y-6983866D02*
X1571428Y-7174342D01*
X1571428Y-7174342D02*
X1523809Y-7269580D01*
X1523809Y-7269580D02*
X1476190Y-7317200D01*
X1476190Y-7317200D02*
X1380952Y-7364819D01*
X1380952Y-7364819D02*
X1285714Y-7364819D01*
X1285714Y-7364819D02*
X1190476Y-7317200D01*
X1190476Y-7317200D02*
X1142857Y-7269580D01*
X1142857Y-7269580D02*
X1095238Y-7174342D01*
X1095238Y-7174342D02*
X1047619Y-6983866D01*
X1047619Y-6983866D02*
X1047619Y-6745771D01*
X1047619Y-6745771D02*
X1095238Y-6555295D01*
X1095238Y-6555295D02*
X1142857Y-6460057D01*
X1142857Y-6460057D02*
X1190476Y-6412438D01*
X1190476Y-6412438D02*
X1285714Y-6364819D01*
X2238095Y-6364819D02*
X2333333Y-6364819D01*
X2333333Y-6364819D02*
X2428571Y-6412438D01*
X2428571Y-6412438D02*
X2476190Y-6460057D01*
X2476190Y-6460057D02*
X2523809Y-6555295D01*
X2523809Y-6555295D02*
X2571428Y-6745771D01*
X2571428Y-6745771D02*
X2571428Y-6983866D01*
X2571428Y-6983866D02*
X2523809Y-7174342D01*
X2523809Y-7174342D02*
X2476190Y-7269580D01*
X2476190Y-7269580D02*
X2428571Y-7317200D01*
X2428571Y-7317200D02*
X2333333Y-7364819D01*
X2333333Y-7364819D02*
X2238095Y-7364819D01*
X2238095Y-7364819D02*
X2142857Y-7317200D01*
X2142857Y-7317200D02*
X2095238Y-7269580D01*
X2095238Y-7269580D02*
X2047619Y-7174342D01*
X2047619Y-7174342D02*
X2000000Y-6983866D01*
X2000000Y-6983866D02*
X2000000Y-6745771D01*
X2000000Y-6745771D02*
X2047619Y-6555295D01*
X2047619Y-6555295D02*
X2095238Y-6460057D01*
X2095238Y-6460057D02*
X2142857Y-6412438D01*
X2142857Y-6412438D02*
X2238095Y-6364819D01*
%TO.C,H1*%
X-13637000Y6858000D02*
G75*
G03*
X-13637000Y6858000I-3000000J0D01*
G01*
D11*
%TO.C,J2*%
X-3475000Y-4370000D02*
G75*
G03*
X-3475000Y-4370000I-125000J0D01*
G01*
X3720000Y-4335000D02*
G75*
G03*
X3720000Y-4335000I-125000J0D01*
G01*
D10*
%TO.C,H4*%
X11509000Y-8382000D02*
G75*
G03*
X11509000Y-8382000I-3000000J0D01*
G01*
%TO.C,H3*%
X-5509000Y-8382000D02*
G75*
G03*
X-5509000Y-8382000I-3000000J0D01*
G01*
%TO.C,H2*%
X19637000Y6858000D02*
G75*
G03*
X19637000Y6858000I-3000000J0D01*
G01*
%TD*%
M02*
