M48
; DRILL file {KiCad 8.0.1} date 2024-03-22T11:25:03-0400
; FORMAT={-:-/ absolute / inch / decimal}
; #@! TF.CreationDate,2024-03-22T11:25:03-04:00
; #@! TF.GenerationSoftware,Kicad,Pcbnew,8.0.1
; #@! TF.FileFunction,Plated,1,4,PTH
FMAT,2
INCH
; #@! TA.AperFunction,Plated,PTH,ViaDrill
T1C0.0157
; #@! TA.AperFunction,Plated,PTH,ComponentDrill
T2C0.0157
; #@! TA.AperFunction,Plated,PTH,ComponentDrill
T3C0.0177
; #@! TA.AperFunction,Plated,PTH,ComponentDrill
T4C0.0197
%
G90
G05
T1
X-0.0994Y-0.07
X-0.0581Y-0.07
X0.0Y-0.01
X0.0581Y-0.075
X0.0994Y-0.075
T2
X-0.1102Y-0.1976
X-0.0945Y-0.2252
X-0.063Y-0.2252
X-0.0472Y-0.1976
X-0.0315Y-0.2252
X-0.0157Y-0.1976
X0.0157Y-0.1976
X0.0315Y-0.2252
X0.0472Y-0.1976
X0.063Y-0.2252
X0.0945Y-0.2252
X0.1102Y-0.1976
T3
X-0.48Y0.24
X-0.48Y0.08
X-0.32Y0.24
X-0.32Y0.08
X-0.16Y0.24
X-0.16Y0.08
X0.0Y0.24
X0.0Y0.08
X0.16Y0.24
X0.16Y0.08
X0.32Y0.24
X0.32Y0.08
X0.48Y0.24
X0.48Y0.08
T4
G00X-0.1766Y-0.3823
M15
G01X-0.1766Y-0.4059
M16
G05
G00X-0.1624Y-0.2094
M15
G01X-0.1624Y-0.2331
M16
G05
G00X0.1624Y-0.2094
M15
G01X0.1624Y-0.2331
M16
G05
G00X0.1766Y-0.3823
M15
G01X0.1766Y-0.4059
M16
G05
M30
