%TF.GenerationSoftware,KiCad,Pcbnew,7.0.5*%
%TF.CreationDate,2024-03-09T10:35:28-05:00*%
%TF.ProjectId,commapogo_male,636f6d6d-6170-46f6-976f-5f6d616c652e,rev?*%
%TF.SameCoordinates,Original*%
%TF.FileFunction,Copper,L1,Top*%
%TF.FilePolarity,Positive*%
%FSLAX46Y46*%
G04 Gerber Fmt 4.6, Leading zero omitted, Abs format (unit mm)*
G04 Created by KiCad (PCBNEW 7.0.5) date 2024-03-09 10:35:28*
%MOMM*%
%LPD*%
G01*
G04 APERTURE LIST*
%TA.AperFunction,ComponentPad*%
%ADD10O,1.000000X1.600000*%
%TD*%
%TA.AperFunction,ComponentPad*%
%ADD11O,1.000000X1.800000*%
%TD*%
%TA.AperFunction,ComponentPad*%
%ADD12O,1.000000X1.700000*%
%TD*%
%TA.AperFunction,SMDPad,CuDef*%
%ADD13R,0.300000X1.000000*%
%TD*%
%TA.AperFunction,ComponentPad*%
%ADD14C,0.600000*%
%TD*%
%TA.AperFunction,ComponentPad*%
%ADD15C,1.828800*%
%TD*%
%TA.AperFunction,Conductor*%
%ADD16C,0.400000*%
%TD*%
%TA.AperFunction,Conductor*%
%ADD17C,0.299800*%
%TD*%
%TA.AperFunction,Conductor*%
%ADD18C,0.300000*%
%TD*%
G04 APERTURE END LIST*
D10*
%TO.P,J2,1*%
%TO.N,N/C*%
X-4125000Y-5620000D03*
D11*
%TO.P,J2,2*%
X-4485000Y-10010000D03*
%TO.P,J2,3*%
X4485000Y-10010000D03*
D12*
%TO.P,J2,4*%
X4125000Y-5620000D03*
D13*
%TO.P,J2,A1,Pin_1a*%
%TO.N,GND*%
X-2750000Y-3810000D03*
%TO.P,J2,A2,Pin_2a*%
%TO.N,/CAN0_H*%
X-2250000Y-3810000D03*
%TO.P,J2,A3,Pin_3a*%
%TO.N,/CAN0_L*%
X-1750000Y-3810000D03*
%TO.P,J2,A4,Pin_4a*%
%TO.N,+12V*%
X-1250000Y-3810000D03*
%TO.P,J2,A5,Pin_5a*%
%TO.N,unconnected-(J2-Pin_5a-PadA5)*%
X-750000Y-3810000D03*
%TO.P,J2,A6,Pin_6a*%
%TO.N,unconnected-(J2-Pin_6a-PadA6)*%
X-250000Y-3810000D03*
%TO.P,J2,A7,Pin_7a*%
%TO.N,unconnected-(J2-Pin_7a-PadA7)*%
X250000Y-3810000D03*
%TO.P,J2,A8,Pin_8a*%
%TO.N,/SBU1*%
X750000Y-3810000D03*
%TO.P,J2,A9,A9*%
%TO.N,+12V*%
X1250000Y-3810000D03*
%TO.P,J2,A10,Pin_10a*%
%TO.N,/CAN1_L*%
X1750000Y-3810000D03*
%TO.P,J2,A11,Pin_11a*%
%TO.N,/CAN1_H*%
X2250000Y-3810000D03*
%TO.P,J2,A12,Pin_12a*%
%TO.N,GND*%
X2750000Y-3810000D03*
D14*
%TO.P,J2,B1,B1*%
X2800000Y-5020000D03*
%TO.P,J2,B2,Pin_2b*%
%TO.N,/CAN2_H*%
X2400000Y-5720000D03*
%TO.P,J2,B3,Pin_3b*%
%TO.N,/CAN2_L*%
X1600000Y-5720000D03*
%TO.P,J2,B4,Pin_4b*%
%TO.N,+12V*%
X1200000Y-5020000D03*
%TO.P,J2,B5,Pin_5b*%
%TO.N,unconnected-(J2-Pin_5b-PadB5)*%
X800000Y-5720000D03*
%TO.P,J2,B6,Pin_6b*%
%TO.N,unconnected-(J2-Pin_6b-PadB6)*%
X400000Y-5020000D03*
%TO.P,J2,B7,Pin_7b*%
%TO.N,unconnected-(J2-Pin_7b-PadB7)*%
X-400000Y-5020000D03*
%TO.P,J2,B8,Pin_8b*%
%TO.N,/SBU2*%
X-800000Y-5720000D03*
%TO.P,J2,B9,Pin_9b*%
%TO.N,+12V*%
X-1200000Y-5020000D03*
%TO.P,J2,B10,Pin_10b*%
%TO.N,/CAN3_L*%
X-1600000Y-5720000D03*
%TO.P,J2,B11,Pin_11b*%
%TO.N,/CAN3_H*%
X-2400000Y-5720000D03*
%TO.P,J2,B12,Pin_12b*%
%TO.N,GND*%
X-2800000Y-5020000D03*
%TD*%
D15*
%TO.P,J1,1,Pin_1a*%
%TO.N,GND*%
X-12192000Y6096000D03*
%TO.P,J1,2,Pin_2a*%
%TO.N,/CAN0_H*%
X-8128000Y6096000D03*
%TO.P,J1,3,Pin_3a*%
%TO.N,/CAN0_L*%
X-4064000Y6096000D03*
%TO.P,J1,4,Pin_4a*%
%TO.N,/SBU1*%
X0Y6096000D03*
%TO.P,J1,5,Pin_5a*%
%TO.N,/CAN1_L*%
X4064000Y6096000D03*
%TO.P,J1,6,Pin_6a*%
%TO.N,/CAN1_H*%
X8128000Y6096000D03*
%TO.P,J1,7,Pin_7a*%
%TO.N,+12V*%
X12192000Y6096000D03*
%TO.P,J1,8,Pin_1b*%
%TO.N,GND*%
X-12192000Y2032000D03*
%TO.P,J1,9,Pin_2b*%
%TO.N,/CAN2_H*%
X-8128000Y2032000D03*
%TO.P,J1,10,Pin_3b*%
%TO.N,/CAN2_L*%
X-4064000Y2032000D03*
%TO.P,J1,11,Pin_4b*%
%TO.N,/SBU2*%
X0Y2032000D03*
%TO.P,J1,12,Pin_5b*%
%TO.N,/CAN3_H*%
X4064000Y2032000D03*
%TO.P,J1,13,Pin_6b*%
%TO.N,/CAN3_L*%
X8128000Y2032000D03*
%TO.P,J1,14,Pin_7b*%
%TO.N,+12V*%
X12192000Y2032000D03*
%TD*%
D16*
%TO.N,+12V*%
X1200000Y-5020000D02*
X1250000Y-4970000D01*
D17*
X1250000Y-4662100D02*
X1250000Y-3810000D01*
X1250000Y-2957900D02*
X1250000Y-3810000D01*
X-1250000Y-4662100D02*
X-1250000Y-3810000D01*
D16*
X1250000Y1481100D02*
X1250000Y-2957900D01*
X-1250000Y-4970000D02*
X-1250000Y-4662100D01*
X-1200000Y-5020000D02*
X-1250000Y-4970000D01*
X1250000Y-4970000D02*
X1250000Y-4662100D01*
X12192000Y6096000D02*
X10916900Y7371100D01*
X1391000Y1622100D02*
X1250000Y1481100D01*
X1391000Y5220800D02*
X1391000Y1622100D01*
X3541300Y7371100D02*
X1391000Y5220800D01*
X10916900Y7371100D02*
X3541300Y7371100D01*
D18*
%TO.N,/CAN0_H*%
X-2250000Y-1528700D02*
X-2250000Y-3810000D01*
X-8128000Y4349300D02*
X-2250000Y-1528700D01*
X-8128000Y6096000D02*
X-8128000Y4349300D01*
%TO.N,/CAN0_L*%
X-4064000Y6096000D02*
X-1750000Y3782000D01*
X-1750000Y3782000D02*
X-1750000Y-3810000D01*
D16*
%TO.N,GND*%
X-4977000Y-4384500D02*
X-4977000Y-6389000D01*
D17*
X-2897700Y-3662300D02*
X-2750000Y-3810000D01*
D16*
X-3096800Y-5316800D02*
X-2800000Y-5020000D01*
X-2897700Y-3662300D02*
X-3152200Y-3407800D01*
X-4000300Y-3407800D02*
X-4977000Y-4384500D01*
D17*
X2897700Y-3446800D02*
X2750000Y-3594500D01*
D16*
X-4977000Y-6389000D02*
X-4544100Y-6821900D01*
X4977100Y-6339600D02*
X4471200Y-6845500D01*
X4977100Y-4200000D02*
X4977100Y-6339600D01*
X-5775500Y-4384500D02*
X-4977000Y-4384500D01*
D17*
X4181700Y-3404600D02*
X2939900Y-3404600D01*
D16*
X4471200Y-6845500D02*
X-2218200Y-6845500D01*
X-3096800Y-5966900D02*
X-3096800Y-5316800D01*
X-3735000Y-6821900D02*
X-2988400Y-6075300D01*
X-3152200Y-3407800D02*
X-4000300Y-3407800D01*
X4181700Y-3404600D02*
X4977100Y-4200000D01*
D17*
X2750000Y-3594500D02*
X2750000Y-3810000D01*
D16*
X-2988400Y-6075300D02*
X-3096800Y-5966900D01*
X-2218200Y-6845500D02*
X-2988400Y-6075300D01*
X-4544100Y-6821900D02*
X-3735000Y-6821900D01*
X2939900Y-3404600D02*
X2897700Y-3446800D01*
X-12192000Y2032000D02*
X-5775500Y-4384500D01*
D18*
%TO.N,/SBU1*%
X0Y6096000D02*
X-1250200Y4845800D01*
X-1250200Y4845800D02*
X-1250200Y-1118800D01*
X748100Y-3117100D02*
X748100Y-3808100D01*
X748100Y-3808100D02*
X750000Y-3810000D01*
X-1250200Y-1118800D02*
X748100Y-3117100D01*
%TO.N,/CAN1_L*%
X1773200Y-3786800D02*
X1773200Y1294600D01*
X1892900Y1414300D02*
X1892900Y3924900D01*
X1892900Y3924900D02*
X4064000Y6096000D01*
X1773200Y1294600D02*
X1892900Y1414300D01*
X1750000Y-3810000D02*
X1773200Y-3786800D01*
%TO.N,/CAN1_H*%
X6096100Y4064100D02*
X6096100Y838000D01*
X8128000Y6096000D02*
X6096100Y4064100D01*
X6096100Y838000D02*
X2250000Y-3008100D01*
X2250000Y-3810000D02*
X2250000Y-3008100D01*
%TD*%
M02*
