%TF.GenerationSoftware,KiCad,Pcbnew,7.0.5*%
%TF.CreationDate,2024-03-20T22:41:40-04:00*%
%TF.ProjectId,commapogo_male,636f6d6d-6170-46f6-976f-5f6d616c652e,rev?*%
%TF.SameCoordinates,Original*%
%TF.FileFunction,Legend,Top*%
%TF.FilePolarity,Positive*%
%FSLAX46Y46*%
G04 Gerber Fmt 4.6, Leading zero omitted, Abs format (unit mm)*
G04 Created by KiCad (PCBNEW 7.0.5) date 2024-03-20 22:41:40*
%MOMM*%
%LPD*%
G01*
G04 APERTURE LIST*
%ADD10C,0.100000*%
%ADD11C,0.152000*%
%ADD12C,0.254000*%
%ADD13C,3.000000*%
%ADD14C,0.650000*%
%ADD15O,1.000000X1.600000*%
%ADD16O,1.000000X1.800000*%
%ADD17O,1.000000X1.700000*%
%ADD18R,0.300000X1.000000*%
%ADD19C,0.600000*%
%ADD20C,1.828800*%
G04 APERTURE END LIST*
D10*
X-15733021Y2173105D02*
X-15466354Y1373105D01*
X-15466354Y1373105D02*
X-15199688Y2173105D01*
X-14475878Y1449296D02*
X-14513974Y1411200D01*
X-14513974Y1411200D02*
X-14628259Y1373105D01*
X-14628259Y1373105D02*
X-14704450Y1373105D01*
X-14704450Y1373105D02*
X-14818736Y1411200D01*
X-14818736Y1411200D02*
X-14894926Y1487391D01*
X-14894926Y1487391D02*
X-14933021Y1563581D01*
X-14933021Y1563581D02*
X-14971117Y1715962D01*
X-14971117Y1715962D02*
X-14971117Y1830248D01*
X-14971117Y1830248D02*
X-14933021Y1982629D01*
X-14933021Y1982629D02*
X-14894926Y2058820D01*
X-14894926Y2058820D02*
X-14818736Y2135010D01*
X-14818736Y2135010D02*
X-14704450Y2173105D01*
X-14704450Y2173105D02*
X-14628259Y2173105D01*
X-14628259Y2173105D02*
X-14513974Y2135010D01*
X-14513974Y2135010D02*
X-14475878Y2096915D01*
X-13675878Y1449296D02*
X-13713974Y1411200D01*
X-13713974Y1411200D02*
X-13828259Y1373105D01*
X-13828259Y1373105D02*
X-13904450Y1373105D01*
X-13904450Y1373105D02*
X-14018736Y1411200D01*
X-14018736Y1411200D02*
X-14094926Y1487391D01*
X-14094926Y1487391D02*
X-14133021Y1563581D01*
X-14133021Y1563581D02*
X-14171117Y1715962D01*
X-14171117Y1715962D02*
X-14171117Y1830248D01*
X-14171117Y1830248D02*
X-14133021Y1982629D01*
X-14133021Y1982629D02*
X-14094926Y2058820D01*
X-14094926Y2058820D02*
X-14018736Y2135010D01*
X-14018736Y2135010D02*
X-13904450Y2173105D01*
X-13904450Y2173105D02*
X-13828259Y2173105D01*
X-13828259Y2173105D02*
X-13713974Y2135010D01*
X-13713974Y2135010D02*
X-13675878Y2096915D01*
X11470312Y9755010D02*
X11394122Y9793105D01*
X11394122Y9793105D02*
X11279836Y9793105D01*
X11279836Y9793105D02*
X11165550Y9755010D01*
X11165550Y9755010D02*
X11089360Y9678820D01*
X11089360Y9678820D02*
X11051265Y9602629D01*
X11051265Y9602629D02*
X11013169Y9450248D01*
X11013169Y9450248D02*
X11013169Y9335962D01*
X11013169Y9335962D02*
X11051265Y9183581D01*
X11051265Y9183581D02*
X11089360Y9107391D01*
X11089360Y9107391D02*
X11165550Y9031200D01*
X11165550Y9031200D02*
X11279836Y8993105D01*
X11279836Y8993105D02*
X11356027Y8993105D01*
X11356027Y8993105D02*
X11470312Y9031200D01*
X11470312Y9031200D02*
X11508408Y9069296D01*
X11508408Y9069296D02*
X11508408Y9335962D01*
X11508408Y9335962D02*
X11356027Y9335962D01*
X11851265Y8993105D02*
X11851265Y9793105D01*
X11851265Y9793105D02*
X12308408Y8993105D01*
X12308408Y8993105D02*
X12308408Y9793105D01*
X12689360Y8993105D02*
X12689360Y9793105D01*
X12689360Y9793105D02*
X12879836Y9793105D01*
X12879836Y9793105D02*
X12994122Y9755010D01*
X12994122Y9755010D02*
X13070312Y9678820D01*
X13070312Y9678820D02*
X13108407Y9602629D01*
X13108407Y9602629D02*
X13146503Y9450248D01*
X13146503Y9450248D02*
X13146503Y9335962D01*
X13146503Y9335962D02*
X13108407Y9183581D01*
X13108407Y9183581D02*
X13070312Y9107391D01*
X13070312Y9107391D02*
X12994122Y9031200D01*
X12994122Y9031200D02*
X12879836Y8993105D01*
X12879836Y8993105D02*
X12689360Y8993105D01*
D11*
%TO.C,J2*%
X63714Y-9537869D02*
X63714Y-10354298D01*
X63714Y-10354298D02*
X9285Y-10517583D01*
X9285Y-10517583D02*
X-99572Y-10626441D01*
X-99572Y-10626441D02*
X-262858Y-10680869D01*
X-262858Y-10680869D02*
X-371715Y-10680869D01*
X553571Y-9646726D02*
X607999Y-9592298D01*
X607999Y-9592298D02*
X716857Y-9537869D01*
X716857Y-9537869D02*
X988999Y-9537869D01*
X988999Y-9537869D02*
X1097857Y-9592298D01*
X1097857Y-9592298D02*
X1152285Y-9646726D01*
X1152285Y-9646726D02*
X1206714Y-9755583D01*
X1206714Y-9755583D02*
X1206714Y-9864441D01*
X1206714Y-9864441D02*
X1152285Y-10027726D01*
X1152285Y-10027726D02*
X499142Y-10680869D01*
X499142Y-10680869D02*
X1206714Y-10680869D01*
D10*
%TO.C,J1*%
X-8902667Y-1596895D02*
X-8902667Y-2168323D01*
X-8902667Y-2168323D02*
X-8940762Y-2282609D01*
X-8940762Y-2282609D02*
X-9016953Y-2358800D01*
X-9016953Y-2358800D02*
X-9131238Y-2396895D01*
X-9131238Y-2396895D02*
X-9207429Y-2396895D01*
X-8102667Y-2396895D02*
X-8559810Y-2396895D01*
X-8331238Y-2396895D02*
X-8331238Y-1596895D01*
X-8331238Y-1596895D02*
X-8407429Y-1711180D01*
X-8407429Y-1711180D02*
X-8483619Y-1787371D01*
X-8483619Y-1787371D02*
X-8559810Y-1825466D01*
X13476979Y2173105D02*
X13743646Y1373105D01*
X13743646Y1373105D02*
X14010312Y2173105D01*
X14734122Y1449296D02*
X14696026Y1411200D01*
X14696026Y1411200D02*
X14581741Y1373105D01*
X14581741Y1373105D02*
X14505550Y1373105D01*
X14505550Y1373105D02*
X14391264Y1411200D01*
X14391264Y1411200D02*
X14315074Y1487391D01*
X14315074Y1487391D02*
X14276979Y1563581D01*
X14276979Y1563581D02*
X14238883Y1715962D01*
X14238883Y1715962D02*
X14238883Y1830248D01*
X14238883Y1830248D02*
X14276979Y1982629D01*
X14276979Y1982629D02*
X14315074Y2058820D01*
X14315074Y2058820D02*
X14391264Y2135010D01*
X14391264Y2135010D02*
X14505550Y2173105D01*
X14505550Y2173105D02*
X14581741Y2173105D01*
X14581741Y2173105D02*
X14696026Y2135010D01*
X14696026Y2135010D02*
X14734122Y2096915D01*
X15534122Y1449296D02*
X15496026Y1411200D01*
X15496026Y1411200D02*
X15381741Y1373105D01*
X15381741Y1373105D02*
X15305550Y1373105D01*
X15305550Y1373105D02*
X15191264Y1411200D01*
X15191264Y1411200D02*
X15115074Y1487391D01*
X15115074Y1487391D02*
X15076979Y1563581D01*
X15076979Y1563581D02*
X15038883Y1715962D01*
X15038883Y1715962D02*
X15038883Y1830248D01*
X15038883Y1830248D02*
X15076979Y1982629D01*
X15076979Y1982629D02*
X15115074Y2058820D01*
X15115074Y2058820D02*
X15191264Y2135010D01*
X15191264Y2135010D02*
X15305550Y2173105D01*
X15305550Y2173105D02*
X15381741Y2173105D01*
X15381741Y2173105D02*
X15496026Y2135010D01*
X15496026Y2135010D02*
X15534122Y2096915D01*
X-11605592Y52296D02*
X-11643688Y14200D01*
X-11643688Y14200D02*
X-11757973Y-23895D01*
X-11757973Y-23895D02*
X-11834164Y-23895D01*
X-11834164Y-23895D02*
X-11948450Y14200D01*
X-11948450Y14200D02*
X-12024640Y90391D01*
X-12024640Y90391D02*
X-12062735Y166581D01*
X-12062735Y166581D02*
X-12100831Y318962D01*
X-12100831Y318962D02*
X-12100831Y433248D01*
X-12100831Y433248D02*
X-12062735Y585629D01*
X-12062735Y585629D02*
X-12024640Y661820D01*
X-12024640Y661820D02*
X-11948450Y738010D01*
X-11948450Y738010D02*
X-11834164Y776105D01*
X-11834164Y776105D02*
X-11757973Y776105D01*
X-11757973Y776105D02*
X-11643688Y738010D01*
X-11643688Y738010D02*
X-11605592Y699915D01*
X-11300831Y204677D02*
X-10919878Y204677D01*
X-11377021Y-23895D02*
X-11110354Y776105D01*
X-11110354Y776105D02*
X-10843688Y-23895D01*
X-10577021Y-23895D02*
X-10577021Y776105D01*
X-10577021Y776105D02*
X-10119878Y-23895D01*
X-10119878Y-23895D02*
X-10119878Y776105D01*
X-9815117Y776105D02*
X-9319879Y776105D01*
X-9319879Y776105D02*
X-9586545Y471343D01*
X-9586545Y471343D02*
X-9472260Y471343D01*
X-9472260Y471343D02*
X-9396069Y433248D01*
X-9396069Y433248D02*
X-9357974Y395153D01*
X-9357974Y395153D02*
X-9319879Y318962D01*
X-9319879Y318962D02*
X-9319879Y128486D01*
X-9319879Y128486D02*
X-9357974Y52296D01*
X-9357974Y52296D02*
X-9396069Y14200D01*
X-9396069Y14200D02*
X-9472260Y-23895D01*
X-9472260Y-23895D02*
X-9700831Y-23895D01*
X-9700831Y-23895D02*
X-9777022Y14200D01*
X-9777022Y14200D02*
X-9815117Y52296D01*
X-9167497Y-100085D02*
X-8557974Y-100085D01*
X-8367497Y-23895D02*
X-8367497Y776105D01*
X-8367497Y395153D02*
X-7910354Y395153D01*
X-7910354Y-23895D02*
X-7910354Y776105D01*
X-5757211Y7799296D02*
X-5795307Y7761200D01*
X-5795307Y7761200D02*
X-5909592Y7723105D01*
X-5909592Y7723105D02*
X-5985783Y7723105D01*
X-5985783Y7723105D02*
X-6100069Y7761200D01*
X-6100069Y7761200D02*
X-6176259Y7837391D01*
X-6176259Y7837391D02*
X-6214354Y7913581D01*
X-6214354Y7913581D02*
X-6252450Y8065962D01*
X-6252450Y8065962D02*
X-6252450Y8180248D01*
X-6252450Y8180248D02*
X-6214354Y8332629D01*
X-6214354Y8332629D02*
X-6176259Y8408820D01*
X-6176259Y8408820D02*
X-6100069Y8485010D01*
X-6100069Y8485010D02*
X-5985783Y8523105D01*
X-5985783Y8523105D02*
X-5909592Y8523105D01*
X-5909592Y8523105D02*
X-5795307Y8485010D01*
X-5795307Y8485010D02*
X-5757211Y8446915D01*
X-5452450Y7951677D02*
X-5071497Y7951677D01*
X-5528640Y7723105D02*
X-5261973Y8523105D01*
X-5261973Y8523105D02*
X-4995307Y7723105D01*
X-4728640Y7723105D02*
X-4728640Y8523105D01*
X-4728640Y8523105D02*
X-4271497Y7723105D01*
X-4271497Y7723105D02*
X-4271497Y8523105D01*
X-3738164Y8523105D02*
X-3661974Y8523105D01*
X-3661974Y8523105D02*
X-3585783Y8485010D01*
X-3585783Y8485010D02*
X-3547688Y8446915D01*
X-3547688Y8446915D02*
X-3509593Y8370724D01*
X-3509593Y8370724D02*
X-3471498Y8218343D01*
X-3471498Y8218343D02*
X-3471498Y8027867D01*
X-3471498Y8027867D02*
X-3509593Y7875486D01*
X-3509593Y7875486D02*
X-3547688Y7799296D01*
X-3547688Y7799296D02*
X-3585783Y7761200D01*
X-3585783Y7761200D02*
X-3661974Y7723105D01*
X-3661974Y7723105D02*
X-3738164Y7723105D01*
X-3738164Y7723105D02*
X-3814355Y7761200D01*
X-3814355Y7761200D02*
X-3852450Y7799296D01*
X-3852450Y7799296D02*
X-3890545Y7875486D01*
X-3890545Y7875486D02*
X-3928641Y8027867D01*
X-3928641Y8027867D02*
X-3928641Y8218343D01*
X-3928641Y8218343D02*
X-3890545Y8370724D01*
X-3890545Y8370724D02*
X-3852450Y8446915D01*
X-3852450Y8446915D02*
X-3814355Y8485010D01*
X-3814355Y8485010D02*
X-3738164Y8523105D01*
X-3319116Y7646915D02*
X-2709593Y7646915D01*
X-2138164Y7723105D02*
X-2519116Y7723105D01*
X-2519116Y7723105D02*
X-2519116Y8523105D01*
X-1305831Y7761200D02*
X-1191545Y7723105D01*
X-1191545Y7723105D02*
X-1001069Y7723105D01*
X-1001069Y7723105D02*
X-924878Y7761200D01*
X-924878Y7761200D02*
X-886783Y7799296D01*
X-886783Y7799296D02*
X-848688Y7875486D01*
X-848688Y7875486D02*
X-848688Y7951677D01*
X-848688Y7951677D02*
X-886783Y8027867D01*
X-886783Y8027867D02*
X-924878Y8065962D01*
X-924878Y8065962D02*
X-1001069Y8104058D01*
X-1001069Y8104058D02*
X-1153450Y8142153D01*
X-1153450Y8142153D02*
X-1229640Y8180248D01*
X-1229640Y8180248D02*
X-1267735Y8218343D01*
X-1267735Y8218343D02*
X-1305831Y8294534D01*
X-1305831Y8294534D02*
X-1305831Y8370724D01*
X-1305831Y8370724D02*
X-1267735Y8446915D01*
X-1267735Y8446915D02*
X-1229640Y8485010D01*
X-1229640Y8485010D02*
X-1153450Y8523105D01*
X-1153450Y8523105D02*
X-962973Y8523105D01*
X-962973Y8523105D02*
X-848688Y8485010D01*
X-239164Y8142153D02*
X-124878Y8104058D01*
X-124878Y8104058D02*
X-86783Y8065962D01*
X-86783Y8065962D02*
X-48687Y7989772D01*
X-48687Y7989772D02*
X-48687Y7875486D01*
X-48687Y7875486D02*
X-86783Y7799296D01*
X-86783Y7799296D02*
X-124878Y7761200D01*
X-124878Y7761200D02*
X-201068Y7723105D01*
X-201068Y7723105D02*
X-505830Y7723105D01*
X-505830Y7723105D02*
X-505830Y8523105D01*
X-505830Y8523105D02*
X-239164Y8523105D01*
X-239164Y8523105D02*
X-162973Y8485010D01*
X-162973Y8485010D02*
X-124878Y8446915D01*
X-124878Y8446915D02*
X-86783Y8370724D01*
X-86783Y8370724D02*
X-86783Y8294534D01*
X-86783Y8294534D02*
X-124878Y8218343D01*
X-124878Y8218343D02*
X-162973Y8180248D01*
X-162973Y8180248D02*
X-239164Y8142153D01*
X-239164Y8142153D02*
X-505830Y8142153D01*
X294170Y8523105D02*
X294170Y7875486D01*
X294170Y7875486D02*
X332265Y7799296D01*
X332265Y7799296D02*
X370360Y7761200D01*
X370360Y7761200D02*
X446551Y7723105D01*
X446551Y7723105D02*
X598932Y7723105D01*
X598932Y7723105D02*
X675122Y7761200D01*
X675122Y7761200D02*
X713217Y7799296D01*
X713217Y7799296D02*
X751313Y7875486D01*
X751313Y7875486D02*
X751313Y8523105D01*
X1551312Y7723105D02*
X1094169Y7723105D01*
X1322741Y7723105D02*
X1322741Y8523105D01*
X1322741Y8523105D02*
X1246550Y8408820D01*
X1246550Y8408820D02*
X1170360Y8332629D01*
X1170360Y8332629D02*
X1094169Y8294534D01*
X-13294688Y9755010D02*
X-13370878Y9793105D01*
X-13370878Y9793105D02*
X-13485164Y9793105D01*
X-13485164Y9793105D02*
X-13599450Y9755010D01*
X-13599450Y9755010D02*
X-13675640Y9678820D01*
X-13675640Y9678820D02*
X-13713735Y9602629D01*
X-13713735Y9602629D02*
X-13751831Y9450248D01*
X-13751831Y9450248D02*
X-13751831Y9335962D01*
X-13751831Y9335962D02*
X-13713735Y9183581D01*
X-13713735Y9183581D02*
X-13675640Y9107391D01*
X-13675640Y9107391D02*
X-13599450Y9031200D01*
X-13599450Y9031200D02*
X-13485164Y8993105D01*
X-13485164Y8993105D02*
X-13408973Y8993105D01*
X-13408973Y8993105D02*
X-13294688Y9031200D01*
X-13294688Y9031200D02*
X-13256592Y9069296D01*
X-13256592Y9069296D02*
X-13256592Y9335962D01*
X-13256592Y9335962D02*
X-13408973Y9335962D01*
X-12913735Y8993105D02*
X-12913735Y9793105D01*
X-12913735Y9793105D02*
X-12456592Y8993105D01*
X-12456592Y8993105D02*
X-12456592Y9793105D01*
X-12075640Y8993105D02*
X-12075640Y9793105D01*
X-12075640Y9793105D02*
X-11885164Y9793105D01*
X-11885164Y9793105D02*
X-11770878Y9755010D01*
X-11770878Y9755010D02*
X-11694688Y9678820D01*
X-11694688Y9678820D02*
X-11656593Y9602629D01*
X-11656593Y9602629D02*
X-11618497Y9450248D01*
X-11618497Y9450248D02*
X-11618497Y9335962D01*
X-11618497Y9335962D02*
X-11656593Y9183581D01*
X-11656593Y9183581D02*
X-11694688Y9107391D01*
X-11694688Y9107391D02*
X-11770878Y9031200D01*
X-11770878Y9031200D02*
X-11885164Y8993105D01*
X-11885164Y8993105D02*
X-12075640Y8993105D01*
X-1467879Y141200D02*
X-1353593Y103105D01*
X-1353593Y103105D02*
X-1163117Y103105D01*
X-1163117Y103105D02*
X-1086926Y141200D01*
X-1086926Y141200D02*
X-1048831Y179296D01*
X-1048831Y179296D02*
X-1010736Y255486D01*
X-1010736Y255486D02*
X-1010736Y331677D01*
X-1010736Y331677D02*
X-1048831Y407867D01*
X-1048831Y407867D02*
X-1086926Y445962D01*
X-1086926Y445962D02*
X-1163117Y484058D01*
X-1163117Y484058D02*
X-1315498Y522153D01*
X-1315498Y522153D02*
X-1391688Y560248D01*
X-1391688Y560248D02*
X-1429783Y598343D01*
X-1429783Y598343D02*
X-1467879Y674534D01*
X-1467879Y674534D02*
X-1467879Y750724D01*
X-1467879Y750724D02*
X-1429783Y826915D01*
X-1429783Y826915D02*
X-1391688Y865010D01*
X-1391688Y865010D02*
X-1315498Y903105D01*
X-1315498Y903105D02*
X-1125021Y903105D01*
X-1125021Y903105D02*
X-1010736Y865010D01*
X-401212Y522153D02*
X-286926Y484058D01*
X-286926Y484058D02*
X-248831Y445962D01*
X-248831Y445962D02*
X-210735Y369772D01*
X-210735Y369772D02*
X-210735Y255486D01*
X-210735Y255486D02*
X-248831Y179296D01*
X-248831Y179296D02*
X-286926Y141200D01*
X-286926Y141200D02*
X-363116Y103105D01*
X-363116Y103105D02*
X-667878Y103105D01*
X-667878Y103105D02*
X-667878Y903105D01*
X-667878Y903105D02*
X-401212Y903105D01*
X-401212Y903105D02*
X-325021Y865010D01*
X-325021Y865010D02*
X-286926Y826915D01*
X-286926Y826915D02*
X-248831Y750724D01*
X-248831Y750724D02*
X-248831Y674534D01*
X-248831Y674534D02*
X-286926Y598343D01*
X-286926Y598343D02*
X-325021Y560248D01*
X-325021Y560248D02*
X-401212Y522153D01*
X-401212Y522153D02*
X-667878Y522153D01*
X132122Y903105D02*
X132122Y255486D01*
X132122Y255486D02*
X170217Y179296D01*
X170217Y179296D02*
X208312Y141200D01*
X208312Y141200D02*
X284503Y103105D01*
X284503Y103105D02*
X436884Y103105D01*
X436884Y103105D02*
X513074Y141200D01*
X513074Y141200D02*
X551169Y179296D01*
X551169Y179296D02*
X589265Y255486D01*
X589265Y255486D02*
X589265Y903105D01*
X932121Y826915D02*
X970217Y865010D01*
X970217Y865010D02*
X1046407Y903105D01*
X1046407Y903105D02*
X1236883Y903105D01*
X1236883Y903105D02*
X1313074Y865010D01*
X1313074Y865010D02*
X1351169Y826915D01*
X1351169Y826915D02*
X1389264Y750724D01*
X1389264Y750724D02*
X1389264Y674534D01*
X1389264Y674534D02*
X1351169Y560248D01*
X1351169Y560248D02*
X894026Y103105D01*
X894026Y103105D02*
X1389264Y103105D01*
X8714408Y179296D02*
X8676312Y141200D01*
X8676312Y141200D02*
X8562027Y103105D01*
X8562027Y103105D02*
X8485836Y103105D01*
X8485836Y103105D02*
X8371550Y141200D01*
X8371550Y141200D02*
X8295360Y217391D01*
X8295360Y217391D02*
X8257265Y293581D01*
X8257265Y293581D02*
X8219169Y445962D01*
X8219169Y445962D02*
X8219169Y560248D01*
X8219169Y560248D02*
X8257265Y712629D01*
X8257265Y712629D02*
X8295360Y788820D01*
X8295360Y788820D02*
X8371550Y865010D01*
X8371550Y865010D02*
X8485836Y903105D01*
X8485836Y903105D02*
X8562027Y903105D01*
X8562027Y903105D02*
X8676312Y865010D01*
X8676312Y865010D02*
X8714408Y826915D01*
X9019169Y331677D02*
X9400122Y331677D01*
X8942979Y103105D02*
X9209646Y903105D01*
X9209646Y903105D02*
X9476312Y103105D01*
X9742979Y103105D02*
X9742979Y903105D01*
X9742979Y903105D02*
X10200122Y103105D01*
X10200122Y103105D02*
X10200122Y903105D01*
X10542978Y826915D02*
X10581074Y865010D01*
X10581074Y865010D02*
X10657264Y903105D01*
X10657264Y903105D02*
X10847740Y903105D01*
X10847740Y903105D02*
X10923931Y865010D01*
X10923931Y865010D02*
X10962026Y826915D01*
X10962026Y826915D02*
X11000121Y750724D01*
X11000121Y750724D02*
X11000121Y674534D01*
X11000121Y674534D02*
X10962026Y560248D01*
X10962026Y560248D02*
X10504883Y103105D01*
X10504883Y103105D02*
X11000121Y103105D01*
X11152503Y26915D02*
X11762026Y26915D01*
X11952503Y103105D02*
X11952503Y903105D01*
X11952503Y522153D02*
X12409646Y522153D01*
X12409646Y103105D02*
X12409646Y903105D01*
X-10894306Y7799296D02*
X-10932402Y7761200D01*
X-10932402Y7761200D02*
X-11046687Y7723105D01*
X-11046687Y7723105D02*
X-11122878Y7723105D01*
X-11122878Y7723105D02*
X-11237164Y7761200D01*
X-11237164Y7761200D02*
X-11313354Y7837391D01*
X-11313354Y7837391D02*
X-11351449Y7913581D01*
X-11351449Y7913581D02*
X-11389545Y8065962D01*
X-11389545Y8065962D02*
X-11389545Y8180248D01*
X-11389545Y8180248D02*
X-11351449Y8332629D01*
X-11351449Y8332629D02*
X-11313354Y8408820D01*
X-11313354Y8408820D02*
X-11237164Y8485010D01*
X-11237164Y8485010D02*
X-11122878Y8523105D01*
X-11122878Y8523105D02*
X-11046687Y8523105D01*
X-11046687Y8523105D02*
X-10932402Y8485010D01*
X-10932402Y8485010D02*
X-10894306Y8446915D01*
X-10589545Y7951677D02*
X-10208592Y7951677D01*
X-10665735Y7723105D02*
X-10399068Y8523105D01*
X-10399068Y8523105D02*
X-10132402Y7723105D01*
X-9865735Y7723105D02*
X-9865735Y8523105D01*
X-9865735Y8523105D02*
X-9408592Y7723105D01*
X-9408592Y7723105D02*
X-9408592Y8523105D01*
X-8875259Y8523105D02*
X-8799069Y8523105D01*
X-8799069Y8523105D02*
X-8722878Y8485010D01*
X-8722878Y8485010D02*
X-8684783Y8446915D01*
X-8684783Y8446915D02*
X-8646688Y8370724D01*
X-8646688Y8370724D02*
X-8608593Y8218343D01*
X-8608593Y8218343D02*
X-8608593Y8027867D01*
X-8608593Y8027867D02*
X-8646688Y7875486D01*
X-8646688Y7875486D02*
X-8684783Y7799296D01*
X-8684783Y7799296D02*
X-8722878Y7761200D01*
X-8722878Y7761200D02*
X-8799069Y7723105D01*
X-8799069Y7723105D02*
X-8875259Y7723105D01*
X-8875259Y7723105D02*
X-8951450Y7761200D01*
X-8951450Y7761200D02*
X-8989545Y7799296D01*
X-8989545Y7799296D02*
X-9027640Y7875486D01*
X-9027640Y7875486D02*
X-9065736Y8027867D01*
X-9065736Y8027867D02*
X-9065736Y8218343D01*
X-9065736Y8218343D02*
X-9027640Y8370724D01*
X-9027640Y8370724D02*
X-8989545Y8446915D01*
X-8989545Y8446915D02*
X-8951450Y8485010D01*
X-8951450Y8485010D02*
X-8875259Y8523105D01*
X-8456211Y7646915D02*
X-7846688Y7646915D01*
X-7656211Y7723105D02*
X-7656211Y8523105D01*
X-7656211Y8142153D02*
X-7199068Y8142153D01*
X-7199068Y7723105D02*
X-7199068Y8523105D01*
X-6144592Y52296D02*
X-6182688Y14200D01*
X-6182688Y14200D02*
X-6296973Y-23895D01*
X-6296973Y-23895D02*
X-6373164Y-23895D01*
X-6373164Y-23895D02*
X-6487450Y14200D01*
X-6487450Y14200D02*
X-6563640Y90391D01*
X-6563640Y90391D02*
X-6601735Y166581D01*
X-6601735Y166581D02*
X-6639831Y318962D01*
X-6639831Y318962D02*
X-6639831Y433248D01*
X-6639831Y433248D02*
X-6601735Y585629D01*
X-6601735Y585629D02*
X-6563640Y661820D01*
X-6563640Y661820D02*
X-6487450Y738010D01*
X-6487450Y738010D02*
X-6373164Y776105D01*
X-6373164Y776105D02*
X-6296973Y776105D01*
X-6296973Y776105D02*
X-6182688Y738010D01*
X-6182688Y738010D02*
X-6144592Y699915D01*
X-5839831Y204677D02*
X-5458878Y204677D01*
X-5916021Y-23895D02*
X-5649354Y776105D01*
X-5649354Y776105D02*
X-5382688Y-23895D01*
X-5116021Y-23895D02*
X-5116021Y776105D01*
X-5116021Y776105D02*
X-4658878Y-23895D01*
X-4658878Y-23895D02*
X-4658878Y776105D01*
X-4354117Y776105D02*
X-3858879Y776105D01*
X-3858879Y776105D02*
X-4125545Y471343D01*
X-4125545Y471343D02*
X-4011260Y471343D01*
X-4011260Y471343D02*
X-3935069Y433248D01*
X-3935069Y433248D02*
X-3896974Y395153D01*
X-3896974Y395153D02*
X-3858879Y318962D01*
X-3858879Y318962D02*
X-3858879Y128486D01*
X-3858879Y128486D02*
X-3896974Y52296D01*
X-3896974Y52296D02*
X-3935069Y14200D01*
X-3935069Y14200D02*
X-4011260Y-23895D01*
X-4011260Y-23895D02*
X-4239831Y-23895D01*
X-4239831Y-23895D02*
X-4316022Y14200D01*
X-4316022Y14200D02*
X-4354117Y52296D01*
X-3706497Y-100085D02*
X-3096974Y-100085D01*
X-2525545Y-23895D02*
X-2906497Y-23895D01*
X-2906497Y-23895D02*
X-2906497Y776105D01*
X2955075Y7799296D02*
X2916979Y7761200D01*
X2916979Y7761200D02*
X2802694Y7723105D01*
X2802694Y7723105D02*
X2726503Y7723105D01*
X2726503Y7723105D02*
X2612217Y7761200D01*
X2612217Y7761200D02*
X2536027Y7837391D01*
X2536027Y7837391D02*
X2497932Y7913581D01*
X2497932Y7913581D02*
X2459836Y8065962D01*
X2459836Y8065962D02*
X2459836Y8180248D01*
X2459836Y8180248D02*
X2497932Y8332629D01*
X2497932Y8332629D02*
X2536027Y8408820D01*
X2536027Y8408820D02*
X2612217Y8485010D01*
X2612217Y8485010D02*
X2726503Y8523105D01*
X2726503Y8523105D02*
X2802694Y8523105D01*
X2802694Y8523105D02*
X2916979Y8485010D01*
X2916979Y8485010D02*
X2955075Y8446915D01*
X3259836Y7951677D02*
X3640789Y7951677D01*
X3183646Y7723105D02*
X3450313Y8523105D01*
X3450313Y8523105D02*
X3716979Y7723105D01*
X3983646Y7723105D02*
X3983646Y8523105D01*
X3983646Y8523105D02*
X4440789Y7723105D01*
X4440789Y7723105D02*
X4440789Y8523105D01*
X5240788Y7723105D02*
X4783645Y7723105D01*
X5012217Y7723105D02*
X5012217Y8523105D01*
X5012217Y8523105D02*
X4936026Y8408820D01*
X4936026Y8408820D02*
X4859836Y8332629D01*
X4859836Y8332629D02*
X4783645Y8294534D01*
X5393170Y7646915D02*
X6002693Y7646915D01*
X6574122Y7723105D02*
X6193170Y7723105D01*
X6193170Y7723105D02*
X6193170Y8523105D01*
X3634408Y179296D02*
X3596312Y141200D01*
X3596312Y141200D02*
X3482027Y103105D01*
X3482027Y103105D02*
X3405836Y103105D01*
X3405836Y103105D02*
X3291550Y141200D01*
X3291550Y141200D02*
X3215360Y217391D01*
X3215360Y217391D02*
X3177265Y293581D01*
X3177265Y293581D02*
X3139169Y445962D01*
X3139169Y445962D02*
X3139169Y560248D01*
X3139169Y560248D02*
X3177265Y712629D01*
X3177265Y712629D02*
X3215360Y788820D01*
X3215360Y788820D02*
X3291550Y865010D01*
X3291550Y865010D02*
X3405836Y903105D01*
X3405836Y903105D02*
X3482027Y903105D01*
X3482027Y903105D02*
X3596312Y865010D01*
X3596312Y865010D02*
X3634408Y826915D01*
X3939169Y331677D02*
X4320122Y331677D01*
X3862979Y103105D02*
X4129646Y903105D01*
X4129646Y903105D02*
X4396312Y103105D01*
X4662979Y103105D02*
X4662979Y903105D01*
X4662979Y903105D02*
X5120122Y103105D01*
X5120122Y103105D02*
X5120122Y903105D01*
X5462978Y826915D02*
X5501074Y865010D01*
X5501074Y865010D02*
X5577264Y903105D01*
X5577264Y903105D02*
X5767740Y903105D01*
X5767740Y903105D02*
X5843931Y865010D01*
X5843931Y865010D02*
X5882026Y826915D01*
X5882026Y826915D02*
X5920121Y750724D01*
X5920121Y750724D02*
X5920121Y674534D01*
X5920121Y674534D02*
X5882026Y560248D01*
X5882026Y560248D02*
X5424883Y103105D01*
X5424883Y103105D02*
X5920121Y103105D01*
X6072503Y26915D02*
X6682026Y26915D01*
X7253455Y103105D02*
X6872503Y103105D01*
X6872503Y103105D02*
X6872503Y903105D01*
X7901694Y7799296D02*
X7863598Y7761200D01*
X7863598Y7761200D02*
X7749313Y7723105D01*
X7749313Y7723105D02*
X7673122Y7723105D01*
X7673122Y7723105D02*
X7558836Y7761200D01*
X7558836Y7761200D02*
X7482646Y7837391D01*
X7482646Y7837391D02*
X7444551Y7913581D01*
X7444551Y7913581D02*
X7406455Y8065962D01*
X7406455Y8065962D02*
X7406455Y8180248D01*
X7406455Y8180248D02*
X7444551Y8332629D01*
X7444551Y8332629D02*
X7482646Y8408820D01*
X7482646Y8408820D02*
X7558836Y8485010D01*
X7558836Y8485010D02*
X7673122Y8523105D01*
X7673122Y8523105D02*
X7749313Y8523105D01*
X7749313Y8523105D02*
X7863598Y8485010D01*
X7863598Y8485010D02*
X7901694Y8446915D01*
X8206455Y7951677D02*
X8587408Y7951677D01*
X8130265Y7723105D02*
X8396932Y8523105D01*
X8396932Y8523105D02*
X8663598Y7723105D01*
X8930265Y7723105D02*
X8930265Y8523105D01*
X8930265Y8523105D02*
X9387408Y7723105D01*
X9387408Y7723105D02*
X9387408Y8523105D01*
X10187407Y7723105D02*
X9730264Y7723105D01*
X9958836Y7723105D02*
X9958836Y8523105D01*
X9958836Y8523105D02*
X9882645Y8408820D01*
X9882645Y8408820D02*
X9806455Y8332629D01*
X9806455Y8332629D02*
X9730264Y8294534D01*
X10339789Y7646915D02*
X10949312Y7646915D01*
X11139789Y7723105D02*
X11139789Y8523105D01*
X11139789Y8142153D02*
X11596932Y8142153D01*
X11596932Y7723105D02*
X11596932Y8523105D01*
D12*
%TO.C,J2*%
X-5334000Y-2592000D02*
X5334000Y-2592000D01*
X-5334000Y-12592000D02*
X-5334000Y-2592000D01*
X5334000Y-2592000D02*
X5334000Y-12592000D01*
X5334000Y-12592000D02*
X-5334000Y-12592000D01*
%TD*%
%LPC*%
D13*
%TO.C,H1*%
X-16637000Y6858000D03*
%TD*%
D14*
%TO.C,J2*%
X-3600000Y-4370000D03*
X3590000Y-4330000D03*
D15*
X-4125000Y-5620000D03*
D16*
X-4485000Y-10010000D03*
X4485000Y-10010000D03*
D17*
X4125000Y-5620000D03*
D18*
X-2750000Y-3810000D03*
X-2250000Y-3810000D03*
X-1750000Y-3810000D03*
X-1250000Y-3810000D03*
X-750000Y-3810000D03*
X-250000Y-3810000D03*
X250000Y-3810000D03*
X750000Y-3810000D03*
X1250000Y-3810000D03*
X1750000Y-3810000D03*
X2250000Y-3810000D03*
X2750000Y-3810000D03*
D19*
X2800000Y-5020000D03*
X2400000Y-5720000D03*
X1600000Y-5720000D03*
X1200000Y-5020000D03*
X800000Y-5720000D03*
X400000Y-5020000D03*
X-400000Y-5020000D03*
X-800000Y-5720000D03*
X-1200000Y-5020000D03*
X-1600000Y-5720000D03*
X-2400000Y-5720000D03*
X-2800000Y-5020000D03*
%TD*%
D13*
%TO.C,H4*%
X8509000Y-8382000D03*
%TD*%
%TO.C,H3*%
X-8509000Y-8382000D03*
%TD*%
%TO.C,H2*%
X16637000Y6858000D03*
%TD*%
D20*
%TO.C,J1*%
X-12192000Y6096000D03*
X-8128000Y6096000D03*
X-4064000Y6096000D03*
X0Y6096000D03*
X4064000Y6096000D03*
X8128000Y6096000D03*
X12192000Y6096000D03*
X-12192000Y2032000D03*
X-8128000Y2032000D03*
X-4064000Y2032000D03*
X0Y2032000D03*
X4064000Y2032000D03*
X8128000Y2032000D03*
X12192000Y2032000D03*
%TD*%
%LPD*%
M02*
