%TF.GenerationSoftware,KiCad,Pcbnew,8.0.1*%
%TF.CreationDate,2024-03-26T16:48:45-04:00*%
%TF.ProjectId,commapogo_male,636f6d6d-6170-46f6-976f-5f6d616c652e,rev?*%
%TF.SameCoordinates,Original*%
%TF.FileFunction,Copper,L3,Inr*%
%TF.FilePolarity,Positive*%
%FSLAX46Y46*%
G04 Gerber Fmt 4.6, Leading zero omitted, Abs format (unit mm)*
G04 Created by KiCad (PCBNEW 8.0.1) date 2024-03-26 16:48:45*
%MOMM*%
%LPD*%
G01*
G04 APERTURE LIST*
%TA.AperFunction,ComponentPad*%
%ADD10O,1.000000X1.600000*%
%TD*%
%TA.AperFunction,ComponentPad*%
%ADD11O,1.000000X1.800000*%
%TD*%
%TA.AperFunction,ComponentPad*%
%ADD12O,1.000000X1.700000*%
%TD*%
%TA.AperFunction,ComponentPad*%
%ADD13C,0.600000*%
%TD*%
%TA.AperFunction,ComponentPad*%
%ADD14C,1.828800*%
%TD*%
%TA.AperFunction,ViaPad*%
%ADD15C,0.800000*%
%TD*%
%TA.AperFunction,Conductor*%
%ADD16C,0.200000*%
%TD*%
G04 APERTURE END LIST*
D10*
%TO.N,GND*%
%TO.C,J2*%
X-4125000Y-5620000D03*
D11*
X-4485000Y-10010000D03*
X4485000Y-10010000D03*
D12*
X4125000Y-5620000D03*
D13*
X2800000Y-5020000D03*
%TO.N,/CAN2_P*%
X2400000Y-5720000D03*
%TO.N,/CAN2_N*%
X1600000Y-5720000D03*
%TO.N,+12V*%
X1200000Y-5020000D03*
%TO.N,unconnected-(J2-Pin_5b-PadB5)*%
X800000Y-5720000D03*
%TO.N,unconnected-(J2-Pin_6b-PadB6)*%
X400000Y-5020000D03*
%TO.N,unconnected-(J2-Pin_7b-PadB7)*%
X-400000Y-5020000D03*
%TO.N,/SBU2*%
X-800000Y-5720000D03*
%TO.N,+12V*%
X-1200000Y-5020000D03*
%TO.N,/CAN3_N*%
X-1600000Y-5720000D03*
%TO.N,/CAN3_P*%
X-2400000Y-5720000D03*
%TO.N,GND*%
X-2800000Y-5020000D03*
%TD*%
D14*
%TO.N,GND*%
%TO.C,J1*%
X-12192000Y6096000D03*
%TO.N,/CAN0_P*%
X-8128000Y6096000D03*
%TO.N,/CAN0_N*%
X-4064000Y6096000D03*
%TO.N,/SBU1*%
X0Y6096000D03*
%TO.N,/CAN1_N*%
X4064000Y6096000D03*
%TO.N,/CAN1_P*%
X8128000Y6096000D03*
%TO.N,GND*%
X12192000Y6096000D03*
%TO.N,+12V*%
X-12192000Y2032000D03*
%TO.N,/CAN3_P*%
X-8128000Y2032000D03*
%TO.N,/CAN3_N*%
X-4064000Y2032000D03*
%TO.N,/SBU2*%
X0Y2032000D03*
%TO.N,/CAN2_N*%
X4064000Y2032000D03*
%TO.N,/CAN2_P*%
X8128000Y2032000D03*
%TO.N,+12V*%
X12192000Y2032000D03*
%TD*%
D15*
%TO.N,/CAN1_P*%
X2525000Y-1905000D03*
%TO.N,/SBU1*%
X0Y-254000D03*
%TO.N,/CAN1_N*%
X1475000Y-1905000D03*
%TO.N,/CAN0_P*%
X-2525000Y-1778000D03*
%TO.N,/CAN0_N*%
X-1475000Y-1778000D03*
%TD*%
D16*
%TO.N,/CAN2_N*%
X4064000Y-1395603D02*
X4064000Y2032000D01*
X1600000Y-5720000D02*
X1774999Y-5545001D01*
X1774999Y-3684604D02*
X4064000Y-1395603D01*
X1774999Y-5545001D02*
X1774999Y-3684604D01*
%TO.N,/CAN1_P*%
X2525000Y-1905000D02*
X2225001Y-1605001D01*
X6033200Y6096000D02*
X8128000Y6096000D01*
X2225001Y2287801D02*
X6033200Y6096000D01*
X2225001Y-1605001D02*
X2225001Y2287801D01*
%TO.N,/CAN2_P*%
X2225001Y-3870999D02*
X8128000Y2032000D01*
X2400000Y-5720000D02*
X2225001Y-5545001D01*
X2225001Y-5545001D02*
X2225001Y-3870999D01*
%TO.N,/CAN1_N*%
X1475000Y-1905000D02*
X1774999Y-1605001D01*
X4064000Y4763200D02*
X4064000Y6096000D01*
X1774999Y2474199D02*
X4064000Y4763200D01*
X1774999Y-1605001D02*
X1774999Y2474199D01*
%TO.N,/CAN0_P*%
X-2225001Y-1478001D02*
X-2225001Y2287801D01*
X-6033200Y6096000D02*
X-8128000Y6096000D01*
X-2225001Y2287801D02*
X-6033200Y6096000D01*
X-2525000Y-1778000D02*
X-2225001Y-1478001D01*
%TO.N,/CAN3_N*%
X-4064000Y-1395603D02*
X-4064000Y2032000D01*
X-1774999Y-5545001D02*
X-1774999Y-3684604D01*
X-1774999Y-3684604D02*
X-4064000Y-1395603D01*
X-1600000Y-5720000D02*
X-1774999Y-5545001D01*
%TO.N,/CAN3_P*%
X-2225001Y-5545001D02*
X-2225001Y-3870999D01*
X-2225001Y-3870999D02*
X-8128000Y2032000D01*
X-2400000Y-5720000D02*
X-2225001Y-5545001D01*
%TO.N,/CAN0_N*%
X-1774999Y2474199D02*
X-4064000Y4763200D01*
X-1475000Y-1778000D02*
X-1774999Y-1478001D01*
X-4064000Y4763200D02*
X-4064000Y6096000D01*
X-1774999Y-1478001D02*
X-1774999Y2474199D01*
%TD*%
M02*
