%TF.GenerationSoftware,KiCad,Pcbnew,7.0.5*%
%TF.CreationDate,2024-03-06T11:24:05-05:00*%
%TF.ProjectId,commapogo_fem,636f6d6d-6170-46f6-976f-5f66656d2e6b,rev?*%
%TF.SameCoordinates,Original*%
%TF.FileFunction,Legend,Top*%
%TF.FilePolarity,Positive*%
%FSLAX46Y46*%
G04 Gerber Fmt 4.6, Leading zero omitted, Abs format (unit mm)*
G04 Created by KiCad (PCBNEW 7.0.5) date 2024-03-06 11:24:05*
%MOMM*%
%LPD*%
G01*
G04 APERTURE LIST*
%ADD10C,0.152000*%
%ADD11C,0.100000*%
%ADD12C,0.254000*%
%ADD13C,3.000000*%
%ADD14C,0.650000*%
%ADD15O,1.700000X1.000000*%
%ADD16R,0.300000X1.000000*%
%ADD17C,0.600000*%
%ADD18C,1.828800*%
G04 APERTURE END LIST*
D10*
%TO.C,J2*%
X63714Y-9537869D02*
X63714Y-10354298D01*
X63714Y-10354298D02*
X9285Y-10517583D01*
X9285Y-10517583D02*
X-99572Y-10626441D01*
X-99572Y-10626441D02*
X-262858Y-10680869D01*
X-262858Y-10680869D02*
X-371715Y-10680869D01*
X553571Y-9646726D02*
X607999Y-9592298D01*
X607999Y-9592298D02*
X716857Y-9537869D01*
X716857Y-9537869D02*
X988999Y-9537869D01*
X988999Y-9537869D02*
X1097857Y-9592298D01*
X1097857Y-9592298D02*
X1152285Y-9646726D01*
X1152285Y-9646726D02*
X1206714Y-9755583D01*
X1206714Y-9755583D02*
X1206714Y-9864441D01*
X1206714Y-9864441D02*
X1152285Y-10027726D01*
X1152285Y-10027726D02*
X499142Y-10680869D01*
X499142Y-10680869D02*
X1206714Y-10680869D01*
D11*
%TO.C,J1*%
X-8902667Y-1596895D02*
X-8902667Y-2168323D01*
X-8902667Y-2168323D02*
X-8940762Y-2282609D01*
X-8940762Y-2282609D02*
X-9016953Y-2358800D01*
X-9016953Y-2358800D02*
X-9131238Y-2396895D01*
X-9131238Y-2396895D02*
X-9207429Y-2396895D01*
X-8102667Y-2396895D02*
X-8559810Y-2396895D01*
X-8331238Y-2396895D02*
X-8331238Y-1596895D01*
X-8331238Y-1596895D02*
X-8407429Y-1711180D01*
X-8407429Y-1711180D02*
X-8483619Y-1787371D01*
X-8483619Y-1787371D02*
X-8559810Y-1825466D01*
X10809979Y4459105D02*
X11076646Y3659105D01*
X11076646Y3659105D02*
X11343312Y4459105D01*
X12067122Y3735296D02*
X12029026Y3697200D01*
X12029026Y3697200D02*
X11914741Y3659105D01*
X11914741Y3659105D02*
X11838550Y3659105D01*
X11838550Y3659105D02*
X11724264Y3697200D01*
X11724264Y3697200D02*
X11648074Y3773391D01*
X11648074Y3773391D02*
X11609979Y3849581D01*
X11609979Y3849581D02*
X11571883Y4001962D01*
X11571883Y4001962D02*
X11571883Y4116248D01*
X11571883Y4116248D02*
X11609979Y4268629D01*
X11609979Y4268629D02*
X11648074Y4344820D01*
X11648074Y4344820D02*
X11724264Y4421010D01*
X11724264Y4421010D02*
X11838550Y4459105D01*
X11838550Y4459105D02*
X11914741Y4459105D01*
X11914741Y4459105D02*
X12029026Y4421010D01*
X12029026Y4421010D02*
X12067122Y4382915D01*
X12867122Y3735296D02*
X12829026Y3697200D01*
X12829026Y3697200D02*
X12714741Y3659105D01*
X12714741Y3659105D02*
X12638550Y3659105D01*
X12638550Y3659105D02*
X12524264Y3697200D01*
X12524264Y3697200D02*
X12448074Y3773391D01*
X12448074Y3773391D02*
X12409979Y3849581D01*
X12409979Y3849581D02*
X12371883Y4001962D01*
X12371883Y4001962D02*
X12371883Y4116248D01*
X12371883Y4116248D02*
X12409979Y4268629D01*
X12409979Y4268629D02*
X12448074Y4344820D01*
X12448074Y4344820D02*
X12524264Y4421010D01*
X12524264Y4421010D02*
X12638550Y4459105D01*
X12638550Y4459105D02*
X12714741Y4459105D01*
X12714741Y4459105D02*
X12829026Y4421010D01*
X12829026Y4421010D02*
X12867122Y4382915D01*
X3253408Y179296D02*
X3215312Y141200D01*
X3215312Y141200D02*
X3101027Y103105D01*
X3101027Y103105D02*
X3024836Y103105D01*
X3024836Y103105D02*
X2910550Y141200D01*
X2910550Y141200D02*
X2834360Y217391D01*
X2834360Y217391D02*
X2796265Y293581D01*
X2796265Y293581D02*
X2758169Y445962D01*
X2758169Y445962D02*
X2758169Y560248D01*
X2758169Y560248D02*
X2796265Y712629D01*
X2796265Y712629D02*
X2834360Y788820D01*
X2834360Y788820D02*
X2910550Y865010D01*
X2910550Y865010D02*
X3024836Y903105D01*
X3024836Y903105D02*
X3101027Y903105D01*
X3101027Y903105D02*
X3215312Y865010D01*
X3215312Y865010D02*
X3253408Y826915D01*
X3558169Y331677D02*
X3939122Y331677D01*
X3481979Y103105D02*
X3748646Y903105D01*
X3748646Y903105D02*
X4015312Y103105D01*
X4281979Y103105D02*
X4281979Y903105D01*
X4281979Y903105D02*
X4739122Y103105D01*
X4739122Y103105D02*
X4739122Y903105D01*
X5043883Y903105D02*
X5539121Y903105D01*
X5539121Y903105D02*
X5272455Y598343D01*
X5272455Y598343D02*
X5386740Y598343D01*
X5386740Y598343D02*
X5462931Y560248D01*
X5462931Y560248D02*
X5501026Y522153D01*
X5501026Y522153D02*
X5539121Y445962D01*
X5539121Y445962D02*
X5539121Y255486D01*
X5539121Y255486D02*
X5501026Y179296D01*
X5501026Y179296D02*
X5462931Y141200D01*
X5462931Y141200D02*
X5386740Y103105D01*
X5386740Y103105D02*
X5158169Y103105D01*
X5158169Y103105D02*
X5081978Y141200D01*
X5081978Y141200D02*
X5043883Y179296D01*
X5691503Y26915D02*
X6301026Y26915D01*
X6491503Y103105D02*
X6491503Y903105D01*
X6491503Y522153D02*
X6948646Y522153D01*
X6948646Y103105D02*
X6948646Y903105D01*
X-5757211Y7799296D02*
X-5795307Y7761200D01*
X-5795307Y7761200D02*
X-5909592Y7723105D01*
X-5909592Y7723105D02*
X-5985783Y7723105D01*
X-5985783Y7723105D02*
X-6100069Y7761200D01*
X-6100069Y7761200D02*
X-6176259Y7837391D01*
X-6176259Y7837391D02*
X-6214354Y7913581D01*
X-6214354Y7913581D02*
X-6252450Y8065962D01*
X-6252450Y8065962D02*
X-6252450Y8180248D01*
X-6252450Y8180248D02*
X-6214354Y8332629D01*
X-6214354Y8332629D02*
X-6176259Y8408820D01*
X-6176259Y8408820D02*
X-6100069Y8485010D01*
X-6100069Y8485010D02*
X-5985783Y8523105D01*
X-5985783Y8523105D02*
X-5909592Y8523105D01*
X-5909592Y8523105D02*
X-5795307Y8485010D01*
X-5795307Y8485010D02*
X-5757211Y8446915D01*
X-5452450Y7951677D02*
X-5071497Y7951677D01*
X-5528640Y7723105D02*
X-5261973Y8523105D01*
X-5261973Y8523105D02*
X-4995307Y7723105D01*
X-4728640Y7723105D02*
X-4728640Y8523105D01*
X-4728640Y8523105D02*
X-4271497Y7723105D01*
X-4271497Y7723105D02*
X-4271497Y8523105D01*
X-3738164Y8523105D02*
X-3661974Y8523105D01*
X-3661974Y8523105D02*
X-3585783Y8485010D01*
X-3585783Y8485010D02*
X-3547688Y8446915D01*
X-3547688Y8446915D02*
X-3509593Y8370724D01*
X-3509593Y8370724D02*
X-3471498Y8218343D01*
X-3471498Y8218343D02*
X-3471498Y8027867D01*
X-3471498Y8027867D02*
X-3509593Y7875486D01*
X-3509593Y7875486D02*
X-3547688Y7799296D01*
X-3547688Y7799296D02*
X-3585783Y7761200D01*
X-3585783Y7761200D02*
X-3661974Y7723105D01*
X-3661974Y7723105D02*
X-3738164Y7723105D01*
X-3738164Y7723105D02*
X-3814355Y7761200D01*
X-3814355Y7761200D02*
X-3852450Y7799296D01*
X-3852450Y7799296D02*
X-3890545Y7875486D01*
X-3890545Y7875486D02*
X-3928641Y8027867D01*
X-3928641Y8027867D02*
X-3928641Y8218343D01*
X-3928641Y8218343D02*
X-3890545Y8370724D01*
X-3890545Y8370724D02*
X-3852450Y8446915D01*
X-3852450Y8446915D02*
X-3814355Y8485010D01*
X-3814355Y8485010D02*
X-3738164Y8523105D01*
X-3319116Y7646915D02*
X-2709593Y7646915D01*
X-2138164Y7723105D02*
X-2519116Y7723105D01*
X-2519116Y7723105D02*
X-2519116Y8523105D01*
X-1305831Y7761200D02*
X-1191545Y7723105D01*
X-1191545Y7723105D02*
X-1001069Y7723105D01*
X-1001069Y7723105D02*
X-924878Y7761200D01*
X-924878Y7761200D02*
X-886783Y7799296D01*
X-886783Y7799296D02*
X-848688Y7875486D01*
X-848688Y7875486D02*
X-848688Y7951677D01*
X-848688Y7951677D02*
X-886783Y8027867D01*
X-886783Y8027867D02*
X-924878Y8065962D01*
X-924878Y8065962D02*
X-1001069Y8104058D01*
X-1001069Y8104058D02*
X-1153450Y8142153D01*
X-1153450Y8142153D02*
X-1229640Y8180248D01*
X-1229640Y8180248D02*
X-1267735Y8218343D01*
X-1267735Y8218343D02*
X-1305831Y8294534D01*
X-1305831Y8294534D02*
X-1305831Y8370724D01*
X-1305831Y8370724D02*
X-1267735Y8446915D01*
X-1267735Y8446915D02*
X-1229640Y8485010D01*
X-1229640Y8485010D02*
X-1153450Y8523105D01*
X-1153450Y8523105D02*
X-962973Y8523105D01*
X-962973Y8523105D02*
X-848688Y8485010D01*
X-239164Y8142153D02*
X-124878Y8104058D01*
X-124878Y8104058D02*
X-86783Y8065962D01*
X-86783Y8065962D02*
X-48687Y7989772D01*
X-48687Y7989772D02*
X-48687Y7875486D01*
X-48687Y7875486D02*
X-86783Y7799296D01*
X-86783Y7799296D02*
X-124878Y7761200D01*
X-124878Y7761200D02*
X-201068Y7723105D01*
X-201068Y7723105D02*
X-505830Y7723105D01*
X-505830Y7723105D02*
X-505830Y8523105D01*
X-505830Y8523105D02*
X-239164Y8523105D01*
X-239164Y8523105D02*
X-162973Y8485010D01*
X-162973Y8485010D02*
X-124878Y8446915D01*
X-124878Y8446915D02*
X-86783Y8370724D01*
X-86783Y8370724D02*
X-86783Y8294534D01*
X-86783Y8294534D02*
X-124878Y8218343D01*
X-124878Y8218343D02*
X-162973Y8180248D01*
X-162973Y8180248D02*
X-239164Y8142153D01*
X-239164Y8142153D02*
X-505830Y8142153D01*
X294170Y8523105D02*
X294170Y7875486D01*
X294170Y7875486D02*
X332265Y7799296D01*
X332265Y7799296D02*
X370360Y7761200D01*
X370360Y7761200D02*
X446551Y7723105D01*
X446551Y7723105D02*
X598932Y7723105D01*
X598932Y7723105D02*
X675122Y7761200D01*
X675122Y7761200D02*
X713217Y7799296D01*
X713217Y7799296D02*
X751313Y7875486D01*
X751313Y7875486D02*
X751313Y8523105D01*
X1551312Y7723105D02*
X1094169Y7723105D01*
X1322741Y7723105D02*
X1322741Y8523105D01*
X1322741Y8523105D02*
X1246550Y8408820D01*
X1246550Y8408820D02*
X1170360Y8332629D01*
X1170360Y8332629D02*
X1094169Y8294534D01*
X-12532688Y4421010D02*
X-12608878Y4459105D01*
X-12608878Y4459105D02*
X-12723164Y4459105D01*
X-12723164Y4459105D02*
X-12837450Y4421010D01*
X-12837450Y4421010D02*
X-12913640Y4344820D01*
X-12913640Y4344820D02*
X-12951735Y4268629D01*
X-12951735Y4268629D02*
X-12989831Y4116248D01*
X-12989831Y4116248D02*
X-12989831Y4001962D01*
X-12989831Y4001962D02*
X-12951735Y3849581D01*
X-12951735Y3849581D02*
X-12913640Y3773391D01*
X-12913640Y3773391D02*
X-12837450Y3697200D01*
X-12837450Y3697200D02*
X-12723164Y3659105D01*
X-12723164Y3659105D02*
X-12646973Y3659105D01*
X-12646973Y3659105D02*
X-12532688Y3697200D01*
X-12532688Y3697200D02*
X-12494592Y3735296D01*
X-12494592Y3735296D02*
X-12494592Y4001962D01*
X-12494592Y4001962D02*
X-12646973Y4001962D01*
X-12151735Y3659105D02*
X-12151735Y4459105D01*
X-12151735Y4459105D02*
X-11694592Y3659105D01*
X-11694592Y3659105D02*
X-11694592Y4459105D01*
X-11313640Y3659105D02*
X-11313640Y4459105D01*
X-11313640Y4459105D02*
X-11123164Y4459105D01*
X-11123164Y4459105D02*
X-11008878Y4421010D01*
X-11008878Y4421010D02*
X-10932688Y4344820D01*
X-10932688Y4344820D02*
X-10894593Y4268629D01*
X-10894593Y4268629D02*
X-10856497Y4116248D01*
X-10856497Y4116248D02*
X-10856497Y4001962D01*
X-10856497Y4001962D02*
X-10894593Y3849581D01*
X-10894593Y3849581D02*
X-10932688Y3773391D01*
X-10932688Y3773391D02*
X-11008878Y3697200D01*
X-11008878Y3697200D02*
X-11123164Y3659105D01*
X-11123164Y3659105D02*
X-11313640Y3659105D01*
X-1467879Y141200D02*
X-1353593Y103105D01*
X-1353593Y103105D02*
X-1163117Y103105D01*
X-1163117Y103105D02*
X-1086926Y141200D01*
X-1086926Y141200D02*
X-1048831Y179296D01*
X-1048831Y179296D02*
X-1010736Y255486D01*
X-1010736Y255486D02*
X-1010736Y331677D01*
X-1010736Y331677D02*
X-1048831Y407867D01*
X-1048831Y407867D02*
X-1086926Y445962D01*
X-1086926Y445962D02*
X-1163117Y484058D01*
X-1163117Y484058D02*
X-1315498Y522153D01*
X-1315498Y522153D02*
X-1391688Y560248D01*
X-1391688Y560248D02*
X-1429783Y598343D01*
X-1429783Y598343D02*
X-1467879Y674534D01*
X-1467879Y674534D02*
X-1467879Y750724D01*
X-1467879Y750724D02*
X-1429783Y826915D01*
X-1429783Y826915D02*
X-1391688Y865010D01*
X-1391688Y865010D02*
X-1315498Y903105D01*
X-1315498Y903105D02*
X-1125021Y903105D01*
X-1125021Y903105D02*
X-1010736Y865010D01*
X-401212Y522153D02*
X-286926Y484058D01*
X-286926Y484058D02*
X-248831Y445962D01*
X-248831Y445962D02*
X-210735Y369772D01*
X-210735Y369772D02*
X-210735Y255486D01*
X-210735Y255486D02*
X-248831Y179296D01*
X-248831Y179296D02*
X-286926Y141200D01*
X-286926Y141200D02*
X-363116Y103105D01*
X-363116Y103105D02*
X-667878Y103105D01*
X-667878Y103105D02*
X-667878Y903105D01*
X-667878Y903105D02*
X-401212Y903105D01*
X-401212Y903105D02*
X-325021Y865010D01*
X-325021Y865010D02*
X-286926Y826915D01*
X-286926Y826915D02*
X-248831Y750724D01*
X-248831Y750724D02*
X-248831Y674534D01*
X-248831Y674534D02*
X-286926Y598343D01*
X-286926Y598343D02*
X-325021Y560248D01*
X-325021Y560248D02*
X-401212Y522153D01*
X-401212Y522153D02*
X-667878Y522153D01*
X132122Y903105D02*
X132122Y255486D01*
X132122Y255486D02*
X170217Y179296D01*
X170217Y179296D02*
X208312Y141200D01*
X208312Y141200D02*
X284503Y103105D01*
X284503Y103105D02*
X436884Y103105D01*
X436884Y103105D02*
X513074Y141200D01*
X513074Y141200D02*
X551169Y179296D01*
X551169Y179296D02*
X589265Y255486D01*
X589265Y255486D02*
X589265Y903105D01*
X932121Y826915D02*
X970217Y865010D01*
X970217Y865010D02*
X1046407Y903105D01*
X1046407Y903105D02*
X1236883Y903105D01*
X1236883Y903105D02*
X1313074Y865010D01*
X1313074Y865010D02*
X1351169Y826915D01*
X1351169Y826915D02*
X1389264Y750724D01*
X1389264Y750724D02*
X1389264Y674534D01*
X1389264Y674534D02*
X1351169Y560248D01*
X1351169Y560248D02*
X894026Y103105D01*
X894026Y103105D02*
X1389264Y103105D01*
X-11977116Y179296D02*
X-12015212Y141200D01*
X-12015212Y141200D02*
X-12129497Y103105D01*
X-12129497Y103105D02*
X-12205688Y103105D01*
X-12205688Y103105D02*
X-12319974Y141200D01*
X-12319974Y141200D02*
X-12396164Y217391D01*
X-12396164Y217391D02*
X-12434259Y293581D01*
X-12434259Y293581D02*
X-12472355Y445962D01*
X-12472355Y445962D02*
X-12472355Y560248D01*
X-12472355Y560248D02*
X-12434259Y712629D01*
X-12434259Y712629D02*
X-12396164Y788820D01*
X-12396164Y788820D02*
X-12319974Y865010D01*
X-12319974Y865010D02*
X-12205688Y903105D01*
X-12205688Y903105D02*
X-12129497Y903105D01*
X-12129497Y903105D02*
X-12015212Y865010D01*
X-12015212Y865010D02*
X-11977116Y826915D01*
X-11672355Y331677D02*
X-11291402Y331677D01*
X-11748545Y103105D02*
X-11481878Y903105D01*
X-11481878Y903105D02*
X-11215212Y103105D01*
X-10948545Y103105D02*
X-10948545Y903105D01*
X-10948545Y903105D02*
X-10491402Y103105D01*
X-10491402Y103105D02*
X-10491402Y903105D01*
X-10148546Y826915D02*
X-10110450Y865010D01*
X-10110450Y865010D02*
X-10034260Y903105D01*
X-10034260Y903105D02*
X-9843784Y903105D01*
X-9843784Y903105D02*
X-9767593Y865010D01*
X-9767593Y865010D02*
X-9729498Y826915D01*
X-9729498Y826915D02*
X-9691403Y750724D01*
X-9691403Y750724D02*
X-9691403Y674534D01*
X-9691403Y674534D02*
X-9729498Y560248D01*
X-9729498Y560248D02*
X-10186641Y103105D01*
X-10186641Y103105D02*
X-9691403Y103105D01*
X-9539021Y26915D02*
X-8929498Y26915D01*
X-8739021Y103105D02*
X-8739021Y903105D01*
X-8739021Y522153D02*
X-8281878Y522153D01*
X-8281878Y103105D02*
X-8281878Y903105D01*
X-10894306Y7799296D02*
X-10932402Y7761200D01*
X-10932402Y7761200D02*
X-11046687Y7723105D01*
X-11046687Y7723105D02*
X-11122878Y7723105D01*
X-11122878Y7723105D02*
X-11237164Y7761200D01*
X-11237164Y7761200D02*
X-11313354Y7837391D01*
X-11313354Y7837391D02*
X-11351449Y7913581D01*
X-11351449Y7913581D02*
X-11389545Y8065962D01*
X-11389545Y8065962D02*
X-11389545Y8180248D01*
X-11389545Y8180248D02*
X-11351449Y8332629D01*
X-11351449Y8332629D02*
X-11313354Y8408820D01*
X-11313354Y8408820D02*
X-11237164Y8485010D01*
X-11237164Y8485010D02*
X-11122878Y8523105D01*
X-11122878Y8523105D02*
X-11046687Y8523105D01*
X-11046687Y8523105D02*
X-10932402Y8485010D01*
X-10932402Y8485010D02*
X-10894306Y8446915D01*
X-10589545Y7951677D02*
X-10208592Y7951677D01*
X-10665735Y7723105D02*
X-10399068Y8523105D01*
X-10399068Y8523105D02*
X-10132402Y7723105D01*
X-9865735Y7723105D02*
X-9865735Y8523105D01*
X-9865735Y8523105D02*
X-9408592Y7723105D01*
X-9408592Y7723105D02*
X-9408592Y8523105D01*
X-8875259Y8523105D02*
X-8799069Y8523105D01*
X-8799069Y8523105D02*
X-8722878Y8485010D01*
X-8722878Y8485010D02*
X-8684783Y8446915D01*
X-8684783Y8446915D02*
X-8646688Y8370724D01*
X-8646688Y8370724D02*
X-8608593Y8218343D01*
X-8608593Y8218343D02*
X-8608593Y8027867D01*
X-8608593Y8027867D02*
X-8646688Y7875486D01*
X-8646688Y7875486D02*
X-8684783Y7799296D01*
X-8684783Y7799296D02*
X-8722878Y7761200D01*
X-8722878Y7761200D02*
X-8799069Y7723105D01*
X-8799069Y7723105D02*
X-8875259Y7723105D01*
X-8875259Y7723105D02*
X-8951450Y7761200D01*
X-8951450Y7761200D02*
X-8989545Y7799296D01*
X-8989545Y7799296D02*
X-9027640Y7875486D01*
X-9027640Y7875486D02*
X-9065736Y8027867D01*
X-9065736Y8027867D02*
X-9065736Y8218343D01*
X-9065736Y8218343D02*
X-9027640Y8370724D01*
X-9027640Y8370724D02*
X-8989545Y8446915D01*
X-8989545Y8446915D02*
X-8951450Y8485010D01*
X-8951450Y8485010D02*
X-8875259Y8523105D01*
X-8456211Y7646915D02*
X-7846688Y7646915D01*
X-7656211Y7723105D02*
X-7656211Y8523105D01*
X-7656211Y8142153D02*
X-7199068Y8142153D01*
X-7199068Y7723105D02*
X-7199068Y8523105D01*
X8850884Y179296D02*
X8812788Y141200D01*
X8812788Y141200D02*
X8698503Y103105D01*
X8698503Y103105D02*
X8622312Y103105D01*
X8622312Y103105D02*
X8508026Y141200D01*
X8508026Y141200D02*
X8431836Y217391D01*
X8431836Y217391D02*
X8393741Y293581D01*
X8393741Y293581D02*
X8355645Y445962D01*
X8355645Y445962D02*
X8355645Y560248D01*
X8355645Y560248D02*
X8393741Y712629D01*
X8393741Y712629D02*
X8431836Y788820D01*
X8431836Y788820D02*
X8508026Y865010D01*
X8508026Y865010D02*
X8622312Y903105D01*
X8622312Y903105D02*
X8698503Y903105D01*
X8698503Y903105D02*
X8812788Y865010D01*
X8812788Y865010D02*
X8850884Y826915D01*
X9155645Y331677D02*
X9536598Y331677D01*
X9079455Y103105D02*
X9346122Y903105D01*
X9346122Y903105D02*
X9612788Y103105D01*
X9879455Y103105D02*
X9879455Y903105D01*
X9879455Y903105D02*
X10336598Y103105D01*
X10336598Y103105D02*
X10336598Y903105D01*
X10641359Y903105D02*
X11136597Y903105D01*
X11136597Y903105D02*
X10869931Y598343D01*
X10869931Y598343D02*
X10984216Y598343D01*
X10984216Y598343D02*
X11060407Y560248D01*
X11060407Y560248D02*
X11098502Y522153D01*
X11098502Y522153D02*
X11136597Y445962D01*
X11136597Y445962D02*
X11136597Y255486D01*
X11136597Y255486D02*
X11098502Y179296D01*
X11098502Y179296D02*
X11060407Y141200D01*
X11060407Y141200D02*
X10984216Y103105D01*
X10984216Y103105D02*
X10755645Y103105D01*
X10755645Y103105D02*
X10679454Y141200D01*
X10679454Y141200D02*
X10641359Y179296D01*
X11288979Y26915D02*
X11898502Y26915D01*
X12469931Y103105D02*
X12088979Y103105D01*
X12088979Y103105D02*
X12088979Y903105D01*
X2955075Y7799296D02*
X2916979Y7761200D01*
X2916979Y7761200D02*
X2802694Y7723105D01*
X2802694Y7723105D02*
X2726503Y7723105D01*
X2726503Y7723105D02*
X2612217Y7761200D01*
X2612217Y7761200D02*
X2536027Y7837391D01*
X2536027Y7837391D02*
X2497932Y7913581D01*
X2497932Y7913581D02*
X2459836Y8065962D01*
X2459836Y8065962D02*
X2459836Y8180248D01*
X2459836Y8180248D02*
X2497932Y8332629D01*
X2497932Y8332629D02*
X2536027Y8408820D01*
X2536027Y8408820D02*
X2612217Y8485010D01*
X2612217Y8485010D02*
X2726503Y8523105D01*
X2726503Y8523105D02*
X2802694Y8523105D01*
X2802694Y8523105D02*
X2916979Y8485010D01*
X2916979Y8485010D02*
X2955075Y8446915D01*
X3259836Y7951677D02*
X3640789Y7951677D01*
X3183646Y7723105D02*
X3450313Y8523105D01*
X3450313Y8523105D02*
X3716979Y7723105D01*
X3983646Y7723105D02*
X3983646Y8523105D01*
X3983646Y8523105D02*
X4440789Y7723105D01*
X4440789Y7723105D02*
X4440789Y8523105D01*
X5240788Y7723105D02*
X4783645Y7723105D01*
X5012217Y7723105D02*
X5012217Y8523105D01*
X5012217Y8523105D02*
X4936026Y8408820D01*
X4936026Y8408820D02*
X4859836Y8332629D01*
X4859836Y8332629D02*
X4783645Y8294534D01*
X5393170Y7646915D02*
X6002693Y7646915D01*
X6574122Y7723105D02*
X6193170Y7723105D01*
X6193170Y7723105D02*
X6193170Y8523105D01*
X-6379640Y179296D02*
X-6417736Y141200D01*
X-6417736Y141200D02*
X-6532021Y103105D01*
X-6532021Y103105D02*
X-6608212Y103105D01*
X-6608212Y103105D02*
X-6722498Y141200D01*
X-6722498Y141200D02*
X-6798688Y217391D01*
X-6798688Y217391D02*
X-6836783Y293581D01*
X-6836783Y293581D02*
X-6874879Y445962D01*
X-6874879Y445962D02*
X-6874879Y560248D01*
X-6874879Y560248D02*
X-6836783Y712629D01*
X-6836783Y712629D02*
X-6798688Y788820D01*
X-6798688Y788820D02*
X-6722498Y865010D01*
X-6722498Y865010D02*
X-6608212Y903105D01*
X-6608212Y903105D02*
X-6532021Y903105D01*
X-6532021Y903105D02*
X-6417736Y865010D01*
X-6417736Y865010D02*
X-6379640Y826915D01*
X-6074879Y331677D02*
X-5693926Y331677D01*
X-6151069Y103105D02*
X-5884402Y903105D01*
X-5884402Y903105D02*
X-5617736Y103105D01*
X-5351069Y103105D02*
X-5351069Y903105D01*
X-5351069Y903105D02*
X-4893926Y103105D01*
X-4893926Y103105D02*
X-4893926Y903105D01*
X-4551070Y826915D02*
X-4512974Y865010D01*
X-4512974Y865010D02*
X-4436784Y903105D01*
X-4436784Y903105D02*
X-4246308Y903105D01*
X-4246308Y903105D02*
X-4170117Y865010D01*
X-4170117Y865010D02*
X-4132022Y826915D01*
X-4132022Y826915D02*
X-4093927Y750724D01*
X-4093927Y750724D02*
X-4093927Y674534D01*
X-4093927Y674534D02*
X-4132022Y560248D01*
X-4132022Y560248D02*
X-4589165Y103105D01*
X-4589165Y103105D02*
X-4093927Y103105D01*
X-3941545Y26915D02*
X-3332022Y26915D01*
X-2760593Y103105D02*
X-3141545Y103105D01*
X-3141545Y103105D02*
X-3141545Y903105D01*
X7901694Y7799296D02*
X7863598Y7761200D01*
X7863598Y7761200D02*
X7749313Y7723105D01*
X7749313Y7723105D02*
X7673122Y7723105D01*
X7673122Y7723105D02*
X7558836Y7761200D01*
X7558836Y7761200D02*
X7482646Y7837391D01*
X7482646Y7837391D02*
X7444551Y7913581D01*
X7444551Y7913581D02*
X7406455Y8065962D01*
X7406455Y8065962D02*
X7406455Y8180248D01*
X7406455Y8180248D02*
X7444551Y8332629D01*
X7444551Y8332629D02*
X7482646Y8408820D01*
X7482646Y8408820D02*
X7558836Y8485010D01*
X7558836Y8485010D02*
X7673122Y8523105D01*
X7673122Y8523105D02*
X7749313Y8523105D01*
X7749313Y8523105D02*
X7863598Y8485010D01*
X7863598Y8485010D02*
X7901694Y8446915D01*
X8206455Y7951677D02*
X8587408Y7951677D01*
X8130265Y7723105D02*
X8396932Y8523105D01*
X8396932Y8523105D02*
X8663598Y7723105D01*
X8930265Y7723105D02*
X8930265Y8523105D01*
X8930265Y8523105D02*
X9387408Y7723105D01*
X9387408Y7723105D02*
X9387408Y8523105D01*
X10187407Y7723105D02*
X9730264Y7723105D01*
X9958836Y7723105D02*
X9958836Y8523105D01*
X9958836Y8523105D02*
X9882645Y8408820D01*
X9882645Y8408820D02*
X9806455Y8332629D01*
X9806455Y8332629D02*
X9730264Y8294534D01*
X10339789Y7646915D02*
X10949312Y7646915D01*
X11139789Y7723105D02*
X11139789Y8523105D01*
X11139789Y8142153D02*
X11596932Y8142153D01*
X11596932Y7723105D02*
X11596932Y8523105D01*
D12*
%TO.C,J2*%
X-5334000Y-2592000D02*
X5334000Y-2592000D01*
X-5334000Y-12592000D02*
X-5334000Y-2592000D01*
X5334000Y-2592000D02*
X5334000Y-12592000D01*
X5334000Y-12592000D02*
X-5334000Y-12592000D01*
%TD*%
%LPC*%
D13*
%TO.C,H1*%
X-16637000Y6858000D03*
%TD*%
D14*
%TO.C,J2*%
X-3600000Y-4370000D03*
X3595000Y-4335000D03*
D15*
X-4125000Y-5620000D03*
X-4485000Y-10010000D03*
X4485000Y-10010000D03*
X4125000Y-5620000D03*
D16*
X-2750000Y-3810000D03*
X-2250000Y-3810000D03*
X-1750000Y-3810000D03*
X-1250000Y-3810000D03*
X-750000Y-3810000D03*
X-250000Y-3810000D03*
X250000Y-3810000D03*
X750000Y-3810000D03*
X1250000Y-3810000D03*
X1750000Y-3810000D03*
X2250000Y-3810000D03*
X2750000Y-3810000D03*
D17*
X2800000Y-5020000D03*
X2400000Y-5720000D03*
X1600000Y-5720000D03*
X1200000Y-5020000D03*
X800000Y-5720000D03*
X400000Y-5020000D03*
X-400000Y-5020000D03*
X-800000Y-5720000D03*
X-1200000Y-5020000D03*
X-1600000Y-5720000D03*
X-2400000Y-5720000D03*
X-2800000Y-5020000D03*
%TD*%
D13*
%TO.C,H4*%
X8509000Y-8382000D03*
%TD*%
%TO.C,H3*%
X-8509000Y-8382000D03*
%TD*%
%TO.C,H2*%
X16637000Y6858000D03*
%TD*%
D18*
%TO.C,J1*%
X-12192000Y6096000D03*
X-8128000Y6096000D03*
X-4064000Y6096000D03*
X0Y6096000D03*
X4064000Y6096000D03*
X8128000Y6096000D03*
X12192000Y6096000D03*
X-12192000Y2032000D03*
X-8128000Y2032000D03*
X-4064000Y2032000D03*
X0Y2032000D03*
X4064000Y2032000D03*
X8128000Y2032000D03*
X12192000Y2032000D03*
%TD*%
%LPD*%
M02*
