%TF.GenerationSoftware,KiCad,Pcbnew,7.0.5*%
%TF.CreationDate,2024-03-20T22:46:36-04:00*%
%TF.ProjectId,commapogo_female,636f6d6d-6170-46f6-976f-5f66656d616c,rev?*%
%TF.SameCoordinates,Original*%
%TF.FileFunction,Legend,Top*%
%TF.FilePolarity,Positive*%
%FSLAX46Y46*%
G04 Gerber Fmt 4.6, Leading zero omitted, Abs format (unit mm)*
G04 Created by KiCad (PCBNEW 7.0.5) date 2024-03-20 22:46:36*
%MOMM*%
%LPD*%
G01*
G04 APERTURE LIST*
%ADD10C,0.100000*%
%ADD11C,0.152000*%
%ADD12C,0.254000*%
%ADD13C,2.500000*%
%ADD14C,3.000000*%
%ADD15C,0.650000*%
%ADD16O,1.000000X1.600000*%
%ADD17O,1.000000X1.800000*%
%ADD18O,1.000000X1.700000*%
%ADD19R,0.300000X1.000000*%
%ADD20C,0.600000*%
G04 APERTURE END LIST*
D10*
X-13447021Y9539105D02*
X-13180354Y8739105D01*
X-13180354Y8739105D02*
X-12913688Y9539105D01*
X-12189878Y8815296D02*
X-12227974Y8777200D01*
X-12227974Y8777200D02*
X-12342259Y8739105D01*
X-12342259Y8739105D02*
X-12418450Y8739105D01*
X-12418450Y8739105D02*
X-12532736Y8777200D01*
X-12532736Y8777200D02*
X-12608926Y8853391D01*
X-12608926Y8853391D02*
X-12647021Y8929581D01*
X-12647021Y8929581D02*
X-12685117Y9081962D01*
X-12685117Y9081962D02*
X-12685117Y9196248D01*
X-12685117Y9196248D02*
X-12647021Y9348629D01*
X-12647021Y9348629D02*
X-12608926Y9424820D01*
X-12608926Y9424820D02*
X-12532736Y9501010D01*
X-12532736Y9501010D02*
X-12418450Y9539105D01*
X-12418450Y9539105D02*
X-12342259Y9539105D01*
X-12342259Y9539105D02*
X-12227974Y9501010D01*
X-12227974Y9501010D02*
X-12189878Y9462915D01*
X-11389878Y8815296D02*
X-11427974Y8777200D01*
X-11427974Y8777200D02*
X-11542259Y8739105D01*
X-11542259Y8739105D02*
X-11618450Y8739105D01*
X-11618450Y8739105D02*
X-11732736Y8777200D01*
X-11732736Y8777200D02*
X-11808926Y8853391D01*
X-11808926Y8853391D02*
X-11847021Y8929581D01*
X-11847021Y8929581D02*
X-11885117Y9081962D01*
X-11885117Y9081962D02*
X-11885117Y9196248D01*
X-11885117Y9196248D02*
X-11847021Y9348629D01*
X-11847021Y9348629D02*
X-11808926Y9424820D01*
X-11808926Y9424820D02*
X-11732736Y9501010D01*
X-11732736Y9501010D02*
X-11618450Y9539105D01*
X-11618450Y9539105D02*
X-11542259Y9539105D01*
X-11542259Y9539105D02*
X-11427974Y9501010D01*
X-11427974Y9501010D02*
X-11389878Y9462915D01*
X14010312Y992010D02*
X13934122Y1030105D01*
X13934122Y1030105D02*
X13819836Y1030105D01*
X13819836Y1030105D02*
X13705550Y992010D01*
X13705550Y992010D02*
X13629360Y915820D01*
X13629360Y915820D02*
X13591265Y839629D01*
X13591265Y839629D02*
X13553169Y687248D01*
X13553169Y687248D02*
X13553169Y572962D01*
X13553169Y572962D02*
X13591265Y420581D01*
X13591265Y420581D02*
X13629360Y344391D01*
X13629360Y344391D02*
X13705550Y268200D01*
X13705550Y268200D02*
X13819836Y230105D01*
X13819836Y230105D02*
X13896027Y230105D01*
X13896027Y230105D02*
X14010312Y268200D01*
X14010312Y268200D02*
X14048408Y306296D01*
X14048408Y306296D02*
X14048408Y572962D01*
X14048408Y572962D02*
X13896027Y572962D01*
X14391265Y230105D02*
X14391265Y1030105D01*
X14391265Y1030105D02*
X14848408Y230105D01*
X14848408Y230105D02*
X14848408Y1030105D01*
X15229360Y230105D02*
X15229360Y1030105D01*
X15229360Y1030105D02*
X15419836Y1030105D01*
X15419836Y1030105D02*
X15534122Y992010D01*
X15534122Y992010D02*
X15610312Y915820D01*
X15610312Y915820D02*
X15648407Y839629D01*
X15648407Y839629D02*
X15686503Y687248D01*
X15686503Y687248D02*
X15686503Y572962D01*
X15686503Y572962D02*
X15648407Y420581D01*
X15648407Y420581D02*
X15610312Y344391D01*
X15610312Y344391D02*
X15534122Y268200D01*
X15534122Y268200D02*
X15419836Y230105D01*
X15419836Y230105D02*
X15229360Y230105D01*
%TO.C,J1*%
X-266667Y4372105D02*
X-266667Y3800677D01*
X-266667Y3800677D02*
X-304762Y3686391D01*
X-304762Y3686391D02*
X-380953Y3610200D01*
X-380953Y3610200D02*
X-495238Y3572105D01*
X-495238Y3572105D02*
X-571429Y3572105D01*
X533333Y3572105D02*
X76190Y3572105D01*
X304762Y3572105D02*
X304762Y4372105D01*
X304762Y4372105D02*
X228571Y4257820D01*
X228571Y4257820D02*
X152381Y4181629D01*
X152381Y4181629D02*
X76190Y4143534D01*
X13857979Y8015105D02*
X14124646Y7215105D01*
X14124646Y7215105D02*
X14391312Y8015105D01*
X15115122Y7291296D02*
X15077026Y7253200D01*
X15077026Y7253200D02*
X14962741Y7215105D01*
X14962741Y7215105D02*
X14886550Y7215105D01*
X14886550Y7215105D02*
X14772264Y7253200D01*
X14772264Y7253200D02*
X14696074Y7329391D01*
X14696074Y7329391D02*
X14657979Y7405581D01*
X14657979Y7405581D02*
X14619883Y7557962D01*
X14619883Y7557962D02*
X14619883Y7672248D01*
X14619883Y7672248D02*
X14657979Y7824629D01*
X14657979Y7824629D02*
X14696074Y7900820D01*
X14696074Y7900820D02*
X14772264Y7977010D01*
X14772264Y7977010D02*
X14886550Y8015105D01*
X14886550Y8015105D02*
X14962741Y8015105D01*
X14962741Y8015105D02*
X15077026Y7977010D01*
X15077026Y7977010D02*
X15115122Y7938915D01*
X15915122Y7291296D02*
X15877026Y7253200D01*
X15877026Y7253200D02*
X15762741Y7215105D01*
X15762741Y7215105D02*
X15686550Y7215105D01*
X15686550Y7215105D02*
X15572264Y7253200D01*
X15572264Y7253200D02*
X15496074Y7329391D01*
X15496074Y7329391D02*
X15457979Y7405581D01*
X15457979Y7405581D02*
X15419883Y7557962D01*
X15419883Y7557962D02*
X15419883Y7672248D01*
X15419883Y7672248D02*
X15457979Y7824629D01*
X15457979Y7824629D02*
X15496074Y7900820D01*
X15496074Y7900820D02*
X15572264Y7977010D01*
X15572264Y7977010D02*
X15686550Y8015105D01*
X15686550Y8015105D02*
X15762741Y8015105D01*
X15762741Y8015105D02*
X15877026Y7977010D01*
X15877026Y7977010D02*
X15915122Y7938915D01*
X-10335592Y7926296D02*
X-10373688Y7888200D01*
X-10373688Y7888200D02*
X-10487973Y7850105D01*
X-10487973Y7850105D02*
X-10564164Y7850105D01*
X-10564164Y7850105D02*
X-10678450Y7888200D01*
X-10678450Y7888200D02*
X-10754640Y7964391D01*
X-10754640Y7964391D02*
X-10792735Y8040581D01*
X-10792735Y8040581D02*
X-10830831Y8192962D01*
X-10830831Y8192962D02*
X-10830831Y8307248D01*
X-10830831Y8307248D02*
X-10792735Y8459629D01*
X-10792735Y8459629D02*
X-10754640Y8535820D01*
X-10754640Y8535820D02*
X-10678450Y8612010D01*
X-10678450Y8612010D02*
X-10564164Y8650105D01*
X-10564164Y8650105D02*
X-10487973Y8650105D01*
X-10487973Y8650105D02*
X-10373688Y8612010D01*
X-10373688Y8612010D02*
X-10335592Y8573915D01*
X-10030831Y8078677D02*
X-9649878Y8078677D01*
X-10107021Y7850105D02*
X-9840354Y8650105D01*
X-9840354Y8650105D02*
X-9573688Y7850105D01*
X-9307021Y7850105D02*
X-9307021Y8650105D01*
X-9307021Y8650105D02*
X-8849878Y7850105D01*
X-8849878Y7850105D02*
X-8849878Y8650105D01*
X-8545117Y8650105D02*
X-8049879Y8650105D01*
X-8049879Y8650105D02*
X-8316545Y8345343D01*
X-8316545Y8345343D02*
X-8202260Y8345343D01*
X-8202260Y8345343D02*
X-8126069Y8307248D01*
X-8126069Y8307248D02*
X-8087974Y8269153D01*
X-8087974Y8269153D02*
X-8049879Y8192962D01*
X-8049879Y8192962D02*
X-8049879Y8002486D01*
X-8049879Y8002486D02*
X-8087974Y7926296D01*
X-8087974Y7926296D02*
X-8126069Y7888200D01*
X-8126069Y7888200D02*
X-8202260Y7850105D01*
X-8202260Y7850105D02*
X-8430831Y7850105D01*
X-8430831Y7850105D02*
X-8507022Y7888200D01*
X-8507022Y7888200D02*
X-8545117Y7926296D01*
X-7897497Y7773915D02*
X-7287974Y7773915D01*
X-7097497Y7850105D02*
X-7097497Y8650105D01*
X-7097497Y8269153D02*
X-6640354Y8269153D01*
X-6640354Y7850105D02*
X-6640354Y8650105D01*
X-5255592Y-455704D02*
X-5293688Y-493800D01*
X-5293688Y-493800D02*
X-5407973Y-531895D01*
X-5407973Y-531895D02*
X-5484164Y-531895D01*
X-5484164Y-531895D02*
X-5598450Y-493800D01*
X-5598450Y-493800D02*
X-5674640Y-417609D01*
X-5674640Y-417609D02*
X-5712735Y-341419D01*
X-5712735Y-341419D02*
X-5750831Y-189038D01*
X-5750831Y-189038D02*
X-5750831Y-74752D01*
X-5750831Y-74752D02*
X-5712735Y77629D01*
X-5712735Y77629D02*
X-5674640Y153820D01*
X-5674640Y153820D02*
X-5598450Y230010D01*
X-5598450Y230010D02*
X-5484164Y268105D01*
X-5484164Y268105D02*
X-5407973Y268105D01*
X-5407973Y268105D02*
X-5293688Y230010D01*
X-5293688Y230010D02*
X-5255592Y191915D01*
X-4950831Y-303323D02*
X-4569878Y-303323D01*
X-5027021Y-531895D02*
X-4760354Y268105D01*
X-4760354Y268105D02*
X-4493688Y-531895D01*
X-4227021Y-531895D02*
X-4227021Y268105D01*
X-4227021Y268105D02*
X-3769878Y-531895D01*
X-3769878Y-531895D02*
X-3769878Y268105D01*
X-3236545Y268105D02*
X-3160355Y268105D01*
X-3160355Y268105D02*
X-3084164Y230010D01*
X-3084164Y230010D02*
X-3046069Y191915D01*
X-3046069Y191915D02*
X-3007974Y115724D01*
X-3007974Y115724D02*
X-2969879Y-36657D01*
X-2969879Y-36657D02*
X-2969879Y-227133D01*
X-2969879Y-227133D02*
X-3007974Y-379514D01*
X-3007974Y-379514D02*
X-3046069Y-455704D01*
X-3046069Y-455704D02*
X-3084164Y-493800D01*
X-3084164Y-493800D02*
X-3160355Y-531895D01*
X-3160355Y-531895D02*
X-3236545Y-531895D01*
X-3236545Y-531895D02*
X-3312736Y-493800D01*
X-3312736Y-493800D02*
X-3350831Y-455704D01*
X-3350831Y-455704D02*
X-3388926Y-379514D01*
X-3388926Y-379514D02*
X-3427022Y-227133D01*
X-3427022Y-227133D02*
X-3427022Y-36657D01*
X-3427022Y-36657D02*
X-3388926Y115724D01*
X-3388926Y115724D02*
X-3350831Y191915D01*
X-3350831Y191915D02*
X-3312736Y230010D01*
X-3312736Y230010D02*
X-3236545Y268105D01*
X-2817497Y-608085D02*
X-2207974Y-608085D01*
X-1636545Y-531895D02*
X-2017497Y-531895D01*
X-2017497Y-531895D02*
X-2017497Y268105D01*
X-1305831Y-366800D02*
X-1191545Y-404895D01*
X-1191545Y-404895D02*
X-1001069Y-404895D01*
X-1001069Y-404895D02*
X-924878Y-366800D01*
X-924878Y-366800D02*
X-886783Y-328704D01*
X-886783Y-328704D02*
X-848688Y-252514D01*
X-848688Y-252514D02*
X-848688Y-176323D01*
X-848688Y-176323D02*
X-886783Y-100133D01*
X-886783Y-100133D02*
X-924878Y-62038D01*
X-924878Y-62038D02*
X-1001069Y-23942D01*
X-1001069Y-23942D02*
X-1153450Y14153D01*
X-1153450Y14153D02*
X-1229640Y52248D01*
X-1229640Y52248D02*
X-1267735Y90343D01*
X-1267735Y90343D02*
X-1305831Y166534D01*
X-1305831Y166534D02*
X-1305831Y242724D01*
X-1305831Y242724D02*
X-1267735Y318915D01*
X-1267735Y318915D02*
X-1229640Y357010D01*
X-1229640Y357010D02*
X-1153450Y395105D01*
X-1153450Y395105D02*
X-962973Y395105D01*
X-962973Y395105D02*
X-848688Y357010D01*
X-239164Y14153D02*
X-124878Y-23942D01*
X-124878Y-23942D02*
X-86783Y-62038D01*
X-86783Y-62038D02*
X-48687Y-138228D01*
X-48687Y-138228D02*
X-48687Y-252514D01*
X-48687Y-252514D02*
X-86783Y-328704D01*
X-86783Y-328704D02*
X-124878Y-366800D01*
X-124878Y-366800D02*
X-201068Y-404895D01*
X-201068Y-404895D02*
X-505830Y-404895D01*
X-505830Y-404895D02*
X-505830Y395105D01*
X-505830Y395105D02*
X-239164Y395105D01*
X-239164Y395105D02*
X-162973Y357010D01*
X-162973Y357010D02*
X-124878Y318915D01*
X-124878Y318915D02*
X-86783Y242724D01*
X-86783Y242724D02*
X-86783Y166534D01*
X-86783Y166534D02*
X-124878Y90343D01*
X-124878Y90343D02*
X-162973Y52248D01*
X-162973Y52248D02*
X-239164Y14153D01*
X-239164Y14153D02*
X-505830Y14153D01*
X294170Y395105D02*
X294170Y-252514D01*
X294170Y-252514D02*
X332265Y-328704D01*
X332265Y-328704D02*
X370360Y-366800D01*
X370360Y-366800D02*
X446551Y-404895D01*
X446551Y-404895D02*
X598932Y-404895D01*
X598932Y-404895D02*
X675122Y-366800D01*
X675122Y-366800D02*
X713217Y-328704D01*
X713217Y-328704D02*
X751313Y-252514D01*
X751313Y-252514D02*
X751313Y395105D01*
X1551312Y-404895D02*
X1094169Y-404895D01*
X1322741Y-404895D02*
X1322741Y395105D01*
X1322741Y395105D02*
X1246550Y280820D01*
X1246550Y280820D02*
X1170360Y204629D01*
X1170360Y204629D02*
X1094169Y166534D01*
X-15580688Y1627010D02*
X-15656878Y1665105D01*
X-15656878Y1665105D02*
X-15771164Y1665105D01*
X-15771164Y1665105D02*
X-15885450Y1627010D01*
X-15885450Y1627010D02*
X-15961640Y1550820D01*
X-15961640Y1550820D02*
X-15999735Y1474629D01*
X-15999735Y1474629D02*
X-16037831Y1322248D01*
X-16037831Y1322248D02*
X-16037831Y1207962D01*
X-16037831Y1207962D02*
X-15999735Y1055581D01*
X-15999735Y1055581D02*
X-15961640Y979391D01*
X-15961640Y979391D02*
X-15885450Y903200D01*
X-15885450Y903200D02*
X-15771164Y865105D01*
X-15771164Y865105D02*
X-15694973Y865105D01*
X-15694973Y865105D02*
X-15580688Y903200D01*
X-15580688Y903200D02*
X-15542592Y941296D01*
X-15542592Y941296D02*
X-15542592Y1207962D01*
X-15542592Y1207962D02*
X-15694973Y1207962D01*
X-15199735Y865105D02*
X-15199735Y1665105D01*
X-15199735Y1665105D02*
X-14742592Y865105D01*
X-14742592Y865105D02*
X-14742592Y1665105D01*
X-14361640Y865105D02*
X-14361640Y1665105D01*
X-14361640Y1665105D02*
X-14171164Y1665105D01*
X-14171164Y1665105D02*
X-14056878Y1627010D01*
X-14056878Y1627010D02*
X-13980688Y1550820D01*
X-13980688Y1550820D02*
X-13942593Y1474629D01*
X-13942593Y1474629D02*
X-13904497Y1322248D01*
X-13904497Y1322248D02*
X-13904497Y1207962D01*
X-13904497Y1207962D02*
X-13942593Y1055581D01*
X-13942593Y1055581D02*
X-13980688Y979391D01*
X-13980688Y979391D02*
X-14056878Y903200D01*
X-14056878Y903200D02*
X-14171164Y865105D01*
X-14171164Y865105D02*
X-14361640Y865105D01*
X-797831Y7761200D02*
X-683545Y7723105D01*
X-683545Y7723105D02*
X-493069Y7723105D01*
X-493069Y7723105D02*
X-416878Y7761200D01*
X-416878Y7761200D02*
X-378783Y7799296D01*
X-378783Y7799296D02*
X-340688Y7875486D01*
X-340688Y7875486D02*
X-340688Y7951677D01*
X-340688Y7951677D02*
X-378783Y8027867D01*
X-378783Y8027867D02*
X-416878Y8065962D01*
X-416878Y8065962D02*
X-493069Y8104058D01*
X-493069Y8104058D02*
X-645450Y8142153D01*
X-645450Y8142153D02*
X-721640Y8180248D01*
X-721640Y8180248D02*
X-759735Y8218343D01*
X-759735Y8218343D02*
X-797831Y8294534D01*
X-797831Y8294534D02*
X-797831Y8370724D01*
X-797831Y8370724D02*
X-759735Y8446915D01*
X-759735Y8446915D02*
X-721640Y8485010D01*
X-721640Y8485010D02*
X-645450Y8523105D01*
X-645450Y8523105D02*
X-454973Y8523105D01*
X-454973Y8523105D02*
X-340688Y8485010D01*
X268836Y8142153D02*
X383122Y8104058D01*
X383122Y8104058D02*
X421217Y8065962D01*
X421217Y8065962D02*
X459313Y7989772D01*
X459313Y7989772D02*
X459313Y7875486D01*
X459313Y7875486D02*
X421217Y7799296D01*
X421217Y7799296D02*
X383122Y7761200D01*
X383122Y7761200D02*
X306932Y7723105D01*
X306932Y7723105D02*
X2170Y7723105D01*
X2170Y7723105D02*
X2170Y8523105D01*
X2170Y8523105D02*
X268836Y8523105D01*
X268836Y8523105D02*
X345027Y8485010D01*
X345027Y8485010D02*
X383122Y8446915D01*
X383122Y8446915D02*
X421217Y8370724D01*
X421217Y8370724D02*
X421217Y8294534D01*
X421217Y8294534D02*
X383122Y8218343D01*
X383122Y8218343D02*
X345027Y8180248D01*
X345027Y8180248D02*
X268836Y8142153D01*
X268836Y8142153D02*
X2170Y8142153D01*
X802170Y8523105D02*
X802170Y7875486D01*
X802170Y7875486D02*
X840265Y7799296D01*
X840265Y7799296D02*
X878360Y7761200D01*
X878360Y7761200D02*
X954551Y7723105D01*
X954551Y7723105D02*
X1106932Y7723105D01*
X1106932Y7723105D02*
X1183122Y7761200D01*
X1183122Y7761200D02*
X1221217Y7799296D01*
X1221217Y7799296D02*
X1259313Y7875486D01*
X1259313Y7875486D02*
X1259313Y8523105D01*
X1602169Y8446915D02*
X1640265Y8485010D01*
X1640265Y8485010D02*
X1716455Y8523105D01*
X1716455Y8523105D02*
X1906931Y8523105D01*
X1906931Y8523105D02*
X1983122Y8485010D01*
X1983122Y8485010D02*
X2021217Y8446915D01*
X2021217Y8446915D02*
X2059312Y8370724D01*
X2059312Y8370724D02*
X2059312Y8294534D01*
X2059312Y8294534D02*
X2021217Y8180248D01*
X2021217Y8180248D02*
X1564074Y7723105D01*
X1564074Y7723105D02*
X2059312Y7723105D01*
X7825408Y7799296D02*
X7787312Y7761200D01*
X7787312Y7761200D02*
X7673027Y7723105D01*
X7673027Y7723105D02*
X7596836Y7723105D01*
X7596836Y7723105D02*
X7482550Y7761200D01*
X7482550Y7761200D02*
X7406360Y7837391D01*
X7406360Y7837391D02*
X7368265Y7913581D01*
X7368265Y7913581D02*
X7330169Y8065962D01*
X7330169Y8065962D02*
X7330169Y8180248D01*
X7330169Y8180248D02*
X7368265Y8332629D01*
X7368265Y8332629D02*
X7406360Y8408820D01*
X7406360Y8408820D02*
X7482550Y8485010D01*
X7482550Y8485010D02*
X7596836Y8523105D01*
X7596836Y8523105D02*
X7673027Y8523105D01*
X7673027Y8523105D02*
X7787312Y8485010D01*
X7787312Y8485010D02*
X7825408Y8446915D01*
X8130169Y7951677D02*
X8511122Y7951677D01*
X8053979Y7723105D02*
X8320646Y8523105D01*
X8320646Y8523105D02*
X8587312Y7723105D01*
X8853979Y7723105D02*
X8853979Y8523105D01*
X8853979Y8523105D02*
X9311122Y7723105D01*
X9311122Y7723105D02*
X9311122Y8523105D01*
X9653978Y8446915D02*
X9692074Y8485010D01*
X9692074Y8485010D02*
X9768264Y8523105D01*
X9768264Y8523105D02*
X9958740Y8523105D01*
X9958740Y8523105D02*
X10034931Y8485010D01*
X10034931Y8485010D02*
X10073026Y8446915D01*
X10073026Y8446915D02*
X10111121Y8370724D01*
X10111121Y8370724D02*
X10111121Y8294534D01*
X10111121Y8294534D02*
X10073026Y8180248D01*
X10073026Y8180248D02*
X9615883Y7723105D01*
X9615883Y7723105D02*
X10111121Y7723105D01*
X10263503Y7646915D02*
X10873026Y7646915D01*
X11063503Y7723105D02*
X11063503Y8523105D01*
X11063503Y8142153D02*
X11520646Y8142153D01*
X11520646Y7723105D02*
X11520646Y8523105D01*
X-9954592Y-328704D02*
X-9992688Y-366800D01*
X-9992688Y-366800D02*
X-10106973Y-404895D01*
X-10106973Y-404895D02*
X-10183164Y-404895D01*
X-10183164Y-404895D02*
X-10297450Y-366800D01*
X-10297450Y-366800D02*
X-10373640Y-290609D01*
X-10373640Y-290609D02*
X-10411735Y-214419D01*
X-10411735Y-214419D02*
X-10449831Y-62038D01*
X-10449831Y-62038D02*
X-10449831Y52248D01*
X-10449831Y52248D02*
X-10411735Y204629D01*
X-10411735Y204629D02*
X-10373640Y280820D01*
X-10373640Y280820D02*
X-10297450Y357010D01*
X-10297450Y357010D02*
X-10183164Y395105D01*
X-10183164Y395105D02*
X-10106973Y395105D01*
X-10106973Y395105D02*
X-9992688Y357010D01*
X-9992688Y357010D02*
X-9954592Y318915D01*
X-9649831Y-176323D02*
X-9268878Y-176323D01*
X-9726021Y-404895D02*
X-9459354Y395105D01*
X-9459354Y395105D02*
X-9192688Y-404895D01*
X-8926021Y-404895D02*
X-8926021Y395105D01*
X-8926021Y395105D02*
X-8468878Y-404895D01*
X-8468878Y-404895D02*
X-8468878Y395105D01*
X-7935545Y395105D02*
X-7859355Y395105D01*
X-7859355Y395105D02*
X-7783164Y357010D01*
X-7783164Y357010D02*
X-7745069Y318915D01*
X-7745069Y318915D02*
X-7706974Y242724D01*
X-7706974Y242724D02*
X-7668879Y90343D01*
X-7668879Y90343D02*
X-7668879Y-100133D01*
X-7668879Y-100133D02*
X-7706974Y-252514D01*
X-7706974Y-252514D02*
X-7745069Y-328704D01*
X-7745069Y-328704D02*
X-7783164Y-366800D01*
X-7783164Y-366800D02*
X-7859355Y-404895D01*
X-7859355Y-404895D02*
X-7935545Y-404895D01*
X-7935545Y-404895D02*
X-8011736Y-366800D01*
X-8011736Y-366800D02*
X-8049831Y-328704D01*
X-8049831Y-328704D02*
X-8087926Y-252514D01*
X-8087926Y-252514D02*
X-8126022Y-100133D01*
X-8126022Y-100133D02*
X-8126022Y90343D01*
X-8126022Y90343D02*
X-8087926Y242724D01*
X-8087926Y242724D02*
X-8049831Y318915D01*
X-8049831Y318915D02*
X-8011736Y357010D01*
X-8011736Y357010D02*
X-7935545Y395105D01*
X-7516497Y-481085D02*
X-6906974Y-481085D01*
X-6716497Y-404895D02*
X-6716497Y395105D01*
X-6716497Y14153D02*
X-6259354Y14153D01*
X-6259354Y-404895D02*
X-6259354Y395105D01*
X-5128592Y7799296D02*
X-5166688Y7761200D01*
X-5166688Y7761200D02*
X-5280973Y7723105D01*
X-5280973Y7723105D02*
X-5357164Y7723105D01*
X-5357164Y7723105D02*
X-5471450Y7761200D01*
X-5471450Y7761200D02*
X-5547640Y7837391D01*
X-5547640Y7837391D02*
X-5585735Y7913581D01*
X-5585735Y7913581D02*
X-5623831Y8065962D01*
X-5623831Y8065962D02*
X-5623831Y8180248D01*
X-5623831Y8180248D02*
X-5585735Y8332629D01*
X-5585735Y8332629D02*
X-5547640Y8408820D01*
X-5547640Y8408820D02*
X-5471450Y8485010D01*
X-5471450Y8485010D02*
X-5357164Y8523105D01*
X-5357164Y8523105D02*
X-5280973Y8523105D01*
X-5280973Y8523105D02*
X-5166688Y8485010D01*
X-5166688Y8485010D02*
X-5128592Y8446915D01*
X-4823831Y7951677D02*
X-4442878Y7951677D01*
X-4900021Y7723105D02*
X-4633354Y8523105D01*
X-4633354Y8523105D02*
X-4366688Y7723105D01*
X-4100021Y7723105D02*
X-4100021Y8523105D01*
X-4100021Y8523105D02*
X-3642878Y7723105D01*
X-3642878Y7723105D02*
X-3642878Y8523105D01*
X-3338117Y8523105D02*
X-2842879Y8523105D01*
X-2842879Y8523105D02*
X-3109545Y8218343D01*
X-3109545Y8218343D02*
X-2995260Y8218343D01*
X-2995260Y8218343D02*
X-2919069Y8180248D01*
X-2919069Y8180248D02*
X-2880974Y8142153D01*
X-2880974Y8142153D02*
X-2842879Y8065962D01*
X-2842879Y8065962D02*
X-2842879Y7875486D01*
X-2842879Y7875486D02*
X-2880974Y7799296D01*
X-2880974Y7799296D02*
X-2919069Y7761200D01*
X-2919069Y7761200D02*
X-2995260Y7723105D01*
X-2995260Y7723105D02*
X-3223831Y7723105D01*
X-3223831Y7723105D02*
X-3300022Y7761200D01*
X-3300022Y7761200D02*
X-3338117Y7799296D01*
X-2690497Y7646915D02*
X-2080974Y7646915D01*
X-1509545Y7723105D02*
X-1890497Y7723105D01*
X-1890497Y7723105D02*
X-1890497Y8523105D01*
X3253408Y-328704D02*
X3215312Y-366800D01*
X3215312Y-366800D02*
X3101027Y-404895D01*
X3101027Y-404895D02*
X3024836Y-404895D01*
X3024836Y-404895D02*
X2910550Y-366800D01*
X2910550Y-366800D02*
X2834360Y-290609D01*
X2834360Y-290609D02*
X2796265Y-214419D01*
X2796265Y-214419D02*
X2758169Y-62038D01*
X2758169Y-62038D02*
X2758169Y52248D01*
X2758169Y52248D02*
X2796265Y204629D01*
X2796265Y204629D02*
X2834360Y280820D01*
X2834360Y280820D02*
X2910550Y357010D01*
X2910550Y357010D02*
X3024836Y395105D01*
X3024836Y395105D02*
X3101027Y395105D01*
X3101027Y395105D02*
X3215312Y357010D01*
X3215312Y357010D02*
X3253408Y318915D01*
X3558169Y-176323D02*
X3939122Y-176323D01*
X3481979Y-404895D02*
X3748646Y395105D01*
X3748646Y395105D02*
X4015312Y-404895D01*
X4281979Y-404895D02*
X4281979Y395105D01*
X4281979Y395105D02*
X4739122Y-404895D01*
X4739122Y-404895D02*
X4739122Y395105D01*
X5539121Y-404895D02*
X5081978Y-404895D01*
X5310550Y-404895D02*
X5310550Y395105D01*
X5310550Y395105D02*
X5234359Y280820D01*
X5234359Y280820D02*
X5158169Y204629D01*
X5158169Y204629D02*
X5081978Y166534D01*
X5691503Y-481085D02*
X6301026Y-481085D01*
X6872455Y-404895D02*
X6491503Y-404895D01*
X6491503Y-404895D02*
X6491503Y395105D01*
X3253408Y7799296D02*
X3215312Y7761200D01*
X3215312Y7761200D02*
X3101027Y7723105D01*
X3101027Y7723105D02*
X3024836Y7723105D01*
X3024836Y7723105D02*
X2910550Y7761200D01*
X2910550Y7761200D02*
X2834360Y7837391D01*
X2834360Y7837391D02*
X2796265Y7913581D01*
X2796265Y7913581D02*
X2758169Y8065962D01*
X2758169Y8065962D02*
X2758169Y8180248D01*
X2758169Y8180248D02*
X2796265Y8332629D01*
X2796265Y8332629D02*
X2834360Y8408820D01*
X2834360Y8408820D02*
X2910550Y8485010D01*
X2910550Y8485010D02*
X3024836Y8523105D01*
X3024836Y8523105D02*
X3101027Y8523105D01*
X3101027Y8523105D02*
X3215312Y8485010D01*
X3215312Y8485010D02*
X3253408Y8446915D01*
X3558169Y7951677D02*
X3939122Y7951677D01*
X3481979Y7723105D02*
X3748646Y8523105D01*
X3748646Y8523105D02*
X4015312Y7723105D01*
X4281979Y7723105D02*
X4281979Y8523105D01*
X4281979Y8523105D02*
X4739122Y7723105D01*
X4739122Y7723105D02*
X4739122Y8523105D01*
X5081978Y8446915D02*
X5120074Y8485010D01*
X5120074Y8485010D02*
X5196264Y8523105D01*
X5196264Y8523105D02*
X5386740Y8523105D01*
X5386740Y8523105D02*
X5462931Y8485010D01*
X5462931Y8485010D02*
X5501026Y8446915D01*
X5501026Y8446915D02*
X5539121Y8370724D01*
X5539121Y8370724D02*
X5539121Y8294534D01*
X5539121Y8294534D02*
X5501026Y8180248D01*
X5501026Y8180248D02*
X5043883Y7723105D01*
X5043883Y7723105D02*
X5539121Y7723105D01*
X5691503Y7646915D02*
X6301026Y7646915D01*
X6872455Y7723105D02*
X6491503Y7723105D01*
X6491503Y7723105D02*
X6491503Y8523105D01*
X8333408Y-328704D02*
X8295312Y-366800D01*
X8295312Y-366800D02*
X8181027Y-404895D01*
X8181027Y-404895D02*
X8104836Y-404895D01*
X8104836Y-404895D02*
X7990550Y-366800D01*
X7990550Y-366800D02*
X7914360Y-290609D01*
X7914360Y-290609D02*
X7876265Y-214419D01*
X7876265Y-214419D02*
X7838169Y-62038D01*
X7838169Y-62038D02*
X7838169Y52248D01*
X7838169Y52248D02*
X7876265Y204629D01*
X7876265Y204629D02*
X7914360Y280820D01*
X7914360Y280820D02*
X7990550Y357010D01*
X7990550Y357010D02*
X8104836Y395105D01*
X8104836Y395105D02*
X8181027Y395105D01*
X8181027Y395105D02*
X8295312Y357010D01*
X8295312Y357010D02*
X8333408Y318915D01*
X8638169Y-176323D02*
X9019122Y-176323D01*
X8561979Y-404895D02*
X8828646Y395105D01*
X8828646Y395105D02*
X9095312Y-404895D01*
X9361979Y-404895D02*
X9361979Y395105D01*
X9361979Y395105D02*
X9819122Y-404895D01*
X9819122Y-404895D02*
X9819122Y395105D01*
X10619121Y-404895D02*
X10161978Y-404895D01*
X10390550Y-404895D02*
X10390550Y395105D01*
X10390550Y395105D02*
X10314359Y280820D01*
X10314359Y280820D02*
X10238169Y204629D01*
X10238169Y204629D02*
X10161978Y166534D01*
X10771503Y-481085D02*
X11381026Y-481085D01*
X11571503Y-404895D02*
X11571503Y395105D01*
X11571503Y14153D02*
X12028646Y14153D01*
X12028646Y-404895D02*
X12028646Y395105D01*
D11*
%TO.C,J2*%
X63714Y-9537869D02*
X63714Y-10354298D01*
X63714Y-10354298D02*
X9285Y-10517583D01*
X9285Y-10517583D02*
X-99572Y-10626441D01*
X-99572Y-10626441D02*
X-262858Y-10680869D01*
X-262858Y-10680869D02*
X-371715Y-10680869D01*
X553571Y-9646726D02*
X607999Y-9592298D01*
X607999Y-9592298D02*
X716857Y-9537869D01*
X716857Y-9537869D02*
X988999Y-9537869D01*
X988999Y-9537869D02*
X1097857Y-9592298D01*
X1097857Y-9592298D02*
X1152285Y-9646726D01*
X1152285Y-9646726D02*
X1206714Y-9755583D01*
X1206714Y-9755583D02*
X1206714Y-9864441D01*
X1206714Y-9864441D02*
X1152285Y-10027726D01*
X1152285Y-10027726D02*
X499142Y-10680869D01*
X499142Y-10680869D02*
X1206714Y-10680869D01*
D12*
X-5334000Y-2592000D02*
X5334000Y-2592000D01*
X-5334000Y-12592000D02*
X-5334000Y-2592000D01*
X5334000Y-2592000D02*
X5334000Y-12592000D01*
X5334000Y-12592000D02*
X-5334000Y-12592000D01*
%TD*%
%LPC*%
D13*
%TO.C,J1*%
X-12192000Y6096000D03*
X-8128000Y6096000D03*
X-4064000Y6096000D03*
X0Y6096000D03*
X4064000Y6096000D03*
X8128000Y6096000D03*
X12192000Y6096000D03*
X-12192000Y2032000D03*
X-8128000Y2032000D03*
X-4064000Y2032000D03*
X0Y2032000D03*
X4064000Y2032000D03*
X8128000Y2032000D03*
X12192000Y2032000D03*
%TD*%
D14*
%TO.C,H1*%
X-16637000Y6858000D03*
%TD*%
D15*
%TO.C,J2*%
X-3600000Y-4370000D03*
X3590000Y-4330000D03*
D16*
X-4125000Y-5620000D03*
D17*
X-4485000Y-10010000D03*
X4485000Y-10010000D03*
D18*
X4125000Y-5620000D03*
D19*
X-2750000Y-3810000D03*
X-2250000Y-3810000D03*
X-1750000Y-3810000D03*
X-1250000Y-3810000D03*
X-750000Y-3810000D03*
X-250000Y-3810000D03*
X250000Y-3810000D03*
X750000Y-3810000D03*
X1250000Y-3810000D03*
X1750000Y-3810000D03*
X2250000Y-3810000D03*
X2750000Y-3810000D03*
D20*
X2800000Y-5020000D03*
X2400000Y-5720000D03*
X1600000Y-5720000D03*
X1200000Y-5020000D03*
X800000Y-5720000D03*
X400000Y-5020000D03*
X-400000Y-5020000D03*
X-800000Y-5720000D03*
X-1200000Y-5020000D03*
X-1600000Y-5720000D03*
X-2400000Y-5720000D03*
X-2800000Y-5020000D03*
%TD*%
D14*
%TO.C,H4*%
X8509000Y-8382000D03*
%TD*%
%TO.C,H3*%
X-8509000Y-8382000D03*
%TD*%
%TO.C,H2*%
X16637000Y6858000D03*
%TD*%
%LPD*%
M02*
