%TF.GenerationSoftware,KiCad,Pcbnew,7.0.5*%
%TF.CreationDate,2024-03-06T11:24:05-05:00*%
%TF.ProjectId,commapogo_fem,636f6d6d-6170-46f6-976f-5f66656d2e6b,rev?*%
%TF.SameCoordinates,Original*%
%TF.FileFunction,Copper,L1,Top*%
%TF.FilePolarity,Positive*%
%FSLAX46Y46*%
G04 Gerber Fmt 4.6, Leading zero omitted, Abs format (unit mm)*
G04 Created by KiCad (PCBNEW 7.0.5) date 2024-03-06 11:24:05*
%MOMM*%
%LPD*%
G01*
G04 APERTURE LIST*
%TA.AperFunction,ComponentPad*%
%ADD10O,1.700000X1.000000*%
%TD*%
%TA.AperFunction,SMDPad,CuDef*%
%ADD11R,0.300000X1.000000*%
%TD*%
%TA.AperFunction,ComponentPad*%
%ADD12C,0.600000*%
%TD*%
%TA.AperFunction,ComponentPad*%
%ADD13C,1.828800*%
%TD*%
%TA.AperFunction,Conductor*%
%ADD14C,0.400000*%
%TD*%
%TA.AperFunction,Conductor*%
%ADD15C,0.299800*%
%TD*%
%TA.AperFunction,Conductor*%
%ADD16C,0.300000*%
%TD*%
G04 APERTURE END LIST*
D10*
%TO.P,J2,1*%
%TO.N,N/C*%
X-4125000Y-5620000D03*
%TO.P,J2,2*%
X-4485000Y-10010000D03*
%TO.P,J2,3*%
X4485000Y-10010000D03*
%TO.P,J2,4*%
X4125000Y-5620000D03*
D11*
%TO.P,J2,A1,a1*%
%TO.N,GND*%
X-2750000Y-3810000D03*
%TO.P,J2,A2,a2*%
%TO.N,/CAN0_H*%
X-2250000Y-3810000D03*
%TO.P,J2,A3,a3*%
%TO.N,/CAN0_L*%
X-1750000Y-3810000D03*
%TO.P,J2,A4,a4*%
%TO.N,+12V*%
X-1250000Y-3810000D03*
%TO.P,J2,A5,a5*%
%TO.N,unconnected-(J2-a5-PadA5)*%
X-750000Y-3810000D03*
%TO.P,J2,A6,a6*%
%TO.N,unconnected-(J2-a6-PadA6)*%
X-250000Y-3810000D03*
%TO.P,J2,A7,a7*%
%TO.N,unconnected-(J2-a7-PadA7)*%
X250000Y-3810000D03*
%TO.P,J2,A8,A8*%
%TO.N,/SBU1*%
X750000Y-3810000D03*
%TO.P,J2,A9,a9*%
%TO.N,+12V*%
X1250000Y-3810000D03*
%TO.P,J2,A10,a10*%
%TO.N,/CAN1_L*%
X1750000Y-3810000D03*
%TO.P,J2,A11,a11*%
%TO.N,/CAN1_H*%
X2250000Y-3810000D03*
%TO.P,J2,A12,a12*%
%TO.N,GND*%
X2750000Y-3810000D03*
D12*
%TO.P,J2,B1,b1*%
X2800000Y-5020000D03*
%TO.P,J2,B2,b2*%
%TO.N,/CAN2_H*%
X2400000Y-5720000D03*
%TO.P,J2,B3,b3*%
%TO.N,/CAN2_L*%
X1600000Y-5720000D03*
%TO.P,J2,B4,b4*%
%TO.N,+12V*%
X1200000Y-5020000D03*
%TO.P,J2,B5,b5*%
%TO.N,unconnected-(J2-b5-PadB5)*%
X800000Y-5720000D03*
%TO.P,J2,B6,b6*%
%TO.N,unconnected-(J2-b6-PadB6)*%
X400000Y-5020000D03*
%TO.P,J2,B7,b7*%
%TO.N,unconnected-(J2-b7-PadB7)*%
X-400000Y-5020000D03*
%TO.P,J2,B8,b8*%
%TO.N,/SBU2*%
X-800000Y-5720000D03*
%TO.P,J2,B9,b9*%
%TO.N,+12V*%
X-1200000Y-5020000D03*
%TO.P,J2,B10,b10*%
%TO.N,/CAN3_L*%
X-1600000Y-5720000D03*
%TO.P,J2,B11,b11*%
%TO.N,/CAN3_H*%
X-2400000Y-5720000D03*
%TO.P,J2,B12,b12*%
%TO.N,GND*%
X-2800000Y-5020000D03*
%TD*%
D13*
%TO.P,J1,1,Pin_1a*%
%TO.N,GND*%
X-12192000Y6096000D03*
%TO.P,J1,2,Pin_2a*%
%TO.N,/CAN0_H*%
X-8128000Y6096000D03*
%TO.P,J1,3,Pin_3a*%
%TO.N,/CAN0_L*%
X-4064000Y6096000D03*
%TO.P,J1,4,Pin_4a*%
%TO.N,/SBU1*%
X0Y6096000D03*
%TO.P,J1,5,Pin_5a*%
%TO.N,/CAN1_L*%
X4064000Y6096000D03*
%TO.P,J1,6,Pin_6a*%
%TO.N,/CAN1_H*%
X8128000Y6096000D03*
%TO.P,J1,7,Pin_7a*%
%TO.N,+12V*%
X12192000Y6096000D03*
%TO.P,J1,8,Pin_1b*%
%TO.N,GND*%
X-12192000Y2032000D03*
%TO.P,J1,9,Pin_2b*%
%TO.N,/CAN2_H*%
X-8128000Y2032000D03*
%TO.P,J1,10,Pin_3b*%
%TO.N,/CAN2_L*%
X-4064000Y2032000D03*
%TO.P,J1,11,Pin_4b*%
%TO.N,/SBU2*%
X0Y2032000D03*
%TO.P,J1,12,Pin_5b*%
%TO.N,/CAN3_H*%
X4064000Y2032000D03*
%TO.P,J1,13,Pin_6b*%
%TO.N,/CAN3_L*%
X8128000Y2032000D03*
%TO.P,J1,14,Pin_7b*%
%TO.N,+12V*%
X12192000Y2032000D03*
%TD*%
D14*
%TO.N,+12V*%
X1200000Y-5020000D02*
X1250000Y-4970000D01*
D15*
X-1250000Y-4662100D02*
X-1250000Y-3810000D01*
D14*
X-1200000Y-5020000D02*
X-1250000Y-4970000D01*
X-1250000Y-4970000D02*
X-1250000Y-4662100D01*
X1250000Y-4970000D02*
X1250000Y-4662100D01*
D15*
X1250000Y-4662100D02*
X1250000Y-3810000D01*
D16*
%TO.N,/CAN0_H*%
X-2250000Y-1991800D02*
X-2250000Y-3810000D01*
X-8128000Y6096000D02*
X-8128000Y3886200D01*
X-8128000Y3886200D02*
X-2250000Y-1991800D01*
%TO.N,/CAN0_L*%
X-4064000Y6096000D02*
X-1750000Y3782000D01*
X-1750000Y3782000D02*
X-1750000Y-3810000D01*
D14*
%TO.N,GND*%
X-12192000Y6096000D02*
X-12192000Y2032000D01*
X6699100Y405600D02*
X6699100Y2688100D01*
X9397600Y6622300D02*
X8615700Y7404200D01*
X-6727200Y-3432800D02*
X-3127200Y-3432800D01*
X9397600Y5386600D02*
X9397600Y6622300D01*
D15*
X-2897700Y-3662300D02*
X-2750000Y-3810000D01*
X2750000Y-3543500D02*
X2750000Y-3810000D01*
D14*
X-12192000Y2032000D02*
X-6727200Y-3432800D01*
X2897700Y-3395800D02*
X6699100Y405600D01*
D15*
X2897700Y-3395800D02*
X2750000Y-3543500D01*
D14*
X6699100Y2688100D02*
X9397600Y5386600D01*
X-3127200Y-3432800D02*
X-2897700Y-3662300D01*
X8615700Y7404200D02*
X-10883800Y7404200D01*
X-10883800Y7404200D02*
X-12192000Y6096000D01*
D16*
%TO.N,/SBU1*%
X750000Y-3810000D02*
X750000Y-3008100D01*
X0Y6096000D02*
X-1250200Y4845800D01*
X-1250200Y4845800D02*
X-1250200Y-1007900D01*
X-1250200Y-1007900D02*
X750000Y-3008100D01*
%TO.N,/CAN1_L*%
X1750000Y-3810000D02*
X1750000Y3782000D01*
X1750000Y3782000D02*
X4064000Y6096000D01*
%TO.N,/CAN1_H*%
X6094700Y4062700D02*
X6094700Y836600D01*
X6094700Y836600D02*
X2250000Y-3008100D01*
X2250000Y-3810000D02*
X2250000Y-3008100D01*
X8128000Y6096000D02*
X6094700Y4062700D01*
%TO.N,/CAN3_L*%
X-1600000Y-5782700D02*
X-1600000Y-5720000D01*
X4841400Y-6432700D02*
X-950000Y-6432700D01*
X8128000Y2032000D02*
X8128000Y-3146100D01*
X8128000Y-3146100D02*
X4841400Y-6432700D01*
X-950000Y-6432700D02*
X-1600000Y-5782700D01*
%TD*%
M02*
