%TF.GenerationSoftware,KiCad,Pcbnew,7.0.5*%
%TF.CreationDate,2024-03-20T22:46:36-04:00*%
%TF.ProjectId,commapogo_female,636f6d6d-6170-46f6-976f-5f66656d616c,rev?*%
%TF.SameCoordinates,Original*%
%TF.FileFunction,Copper,L4,Bot*%
%TF.FilePolarity,Positive*%
%FSLAX46Y46*%
G04 Gerber Fmt 4.6, Leading zero omitted, Abs format (unit mm)*
G04 Created by KiCad (PCBNEW 7.0.5) date 2024-03-20 22:46:36*
%MOMM*%
%LPD*%
G01*
G04 APERTURE LIST*
%TA.AperFunction,ComponentPad*%
%ADD10O,1.000000X1.600000*%
%TD*%
%TA.AperFunction,ComponentPad*%
%ADD11O,1.000000X1.800000*%
%TD*%
%TA.AperFunction,ComponentPad*%
%ADD12O,1.000000X1.700000*%
%TD*%
%TA.AperFunction,ComponentPad*%
%ADD13C,0.600000*%
%TD*%
%TA.AperFunction,ViaPad*%
%ADD14C,0.800000*%
%TD*%
%TA.AperFunction,Conductor*%
%ADD15C,0.400000*%
%TD*%
G04 APERTURE END LIST*
D10*
%TO.P,J2,1*%
%TO.N,GND*%
X-4125000Y-5620000D03*
D11*
%TO.P,J2,2*%
X-4485000Y-10010000D03*
%TO.P,J2,3*%
X4485000Y-10010000D03*
D12*
%TO.P,J2,4*%
X4125000Y-5620000D03*
D13*
%TO.P,J2,B1,B1*%
X2800000Y-5020000D03*
%TO.P,J2,B2,Pin_2b*%
%TO.N,/CAN2_H*%
X2400000Y-5720000D03*
%TO.P,J2,B3,Pin_3b*%
%TO.N,/CAN2_L*%
X1600000Y-5720000D03*
%TO.P,J2,B4,Pin_4b*%
%TO.N,+12V*%
X1200000Y-5020000D03*
%TO.P,J2,B5,Pin_5b*%
%TO.N,unconnected-(J2-Pin_5b-PadB5)*%
X800000Y-5720000D03*
%TO.P,J2,B6,Pin_6b*%
%TO.N,unconnected-(J2-Pin_6b-PadB6)*%
X400000Y-5020000D03*
%TO.P,J2,B7,Pin_7b*%
%TO.N,/SBU2*%
X-400000Y-5020000D03*
%TO.P,J2,B8,Pin_8b*%
X-800000Y-5720000D03*
%TO.P,J2,B9,Pin_9b*%
%TO.N,+12V*%
X-1200000Y-5020000D03*
%TO.P,J2,B10,Pin_10b*%
%TO.N,/CAN3_L*%
X-1600000Y-5720000D03*
%TO.P,J2,B11,Pin_11b*%
%TO.N,/CAN3_H*%
X-2400000Y-5720000D03*
%TO.P,J2,B12,Pin_12b*%
%TO.N,GND*%
X-2800000Y-5020000D03*
%TD*%
D14*
%TO.N,/CAN0_H*%
X-3168488Y-2647463D03*
X-8128000Y254000D03*
%TO.N,GND*%
X12192000Y254000D03*
X-12192000Y254000D03*
%TO.N,/CAN1_L*%
X4064000Y-127000D03*
X2539990Y-2032000D03*
%TO.N,/CAN1_H*%
X3683000Y-2159000D03*
X8255000Y0D03*
%TO.N,/CAN2_H*%
X6096000Y6096000D03*
%TO.N,/CAN2_L*%
X4064000Y4064000D03*
%TO.N,/SBU2*%
X1904960Y6096000D03*
%TO.N,/CAN3_L*%
X-2032000Y5969000D03*
%TO.N,/CAN3_H*%
X-6096000Y6096000D03*
%TD*%
D15*
%TO.N,+12V*%
X-1200000Y-4595736D02*
X-1200000Y-5020000D01*
X1200000Y-5020000D02*
X1200000Y-4595736D01*
X974264Y-4370000D02*
X-974264Y-4370000D01*
X1200000Y-4595736D02*
X974264Y-4370000D01*
X-974264Y-4370000D02*
X-1200000Y-4595736D01*
%TO.N,GND*%
X3400000Y-5620000D02*
X4125000Y-5620000D01*
X-3400000Y-5620000D02*
X-4125000Y-5620000D01*
X-2800000Y-5020000D02*
X-3400000Y-5620000D01*
X2800000Y-5020000D02*
X3400000Y-5620000D01*
%TD*%
%TA.AperFunction,Conductor*%
%TO.N,GND*%
G36*
X-3133495Y-5102454D02*
G01*
X-3077561Y-5144325D01*
X-3053144Y-5209790D01*
X-3067996Y-5278063D01*
X-3071834Y-5284608D01*
X-3125789Y-5370476D01*
X-3185369Y-5540745D01*
X-3185370Y-5540750D01*
X-3205565Y-5719996D01*
X-3205565Y-5720001D01*
X-3204200Y-5732115D01*
X-3216254Y-5800937D01*
X-3263603Y-5852317D01*
X-3327420Y-5870000D01*
X-3875000Y-5870000D01*
X-3875000Y-5370000D01*
X-3503553Y-5370000D01*
X-3503553Y-5369999D01*
X-3264509Y-5130955D01*
X-3203186Y-5097470D01*
X-3133495Y-5102454D01*
G37*
%TD.AperFunction*%
%TA.AperFunction,Conductor*%
G36*
X3258981Y-5125756D02*
G01*
X3264508Y-5130955D01*
X3503553Y-5370000D01*
X3875000Y-5370000D01*
X3875000Y-5870000D01*
X3327420Y-5870000D01*
X3260381Y-5850315D01*
X3214626Y-5797511D01*
X3204200Y-5732115D01*
X3205565Y-5720001D01*
X3205565Y-5719996D01*
X3185369Y-5540750D01*
X3185368Y-5540745D01*
X3125787Y-5370473D01*
X3071834Y-5284608D01*
X3052833Y-5217372D01*
X3073200Y-5150537D01*
X3126468Y-5105322D01*
X3195724Y-5096084D01*
X3258981Y-5125756D01*
G37*
%TD.AperFunction*%
%TA.AperFunction,Conductor*%
G36*
X18430469Y10139815D02*
G01*
X18451111Y10123181D01*
X20283181Y8291112D01*
X20316666Y8229789D01*
X20319500Y8203431D01*
X20319500Y4496571D01*
X20299815Y4429532D01*
X20283181Y4408890D01*
X19049576Y3175284D01*
X19049575Y3175283D01*
X12081995Y-3792295D01*
X12081819Y-3792413D01*
X12064616Y-3809616D01*
X12064457Y-3809995D01*
X12064461Y-3834665D01*
X12064500Y-3834855D01*
X12064500Y-9473429D01*
X12044815Y-9540468D01*
X12028181Y-9561110D01*
X9561111Y-12028181D01*
X9499788Y-12061666D01*
X9473430Y-12064500D01*
X-9473431Y-12064500D01*
X-9540470Y-12044815D01*
X-9561112Y-12028181D01*
X-10782912Y-10806381D01*
X-11128580Y-10460713D01*
X-5485000Y-10460713D01*
X-5469582Y-10612338D01*
X-5408701Y-10806381D01*
X-5408696Y-10806391D01*
X-5309995Y-10984215D01*
X-5309995Y-10984216D01*
X-5177522Y-11138530D01*
X-5177521Y-11138531D01*
X-5016696Y-11263018D01*
X-4834093Y-11352589D01*
X-4735000Y-11378244D01*
X-4735000Y-10334624D01*
X-4720495Y-10407545D01*
X-4665240Y-10490240D01*
X-4582545Y-10545495D01*
X-4485000Y-10564898D01*
X-4387455Y-10545495D01*
X-4304760Y-10490240D01*
X-4249505Y-10407545D01*
X-4235000Y-10334624D01*
X-4235000Y-11383366D01*
X-4233056Y-11383069D01*
X-4233055Y-11383069D01*
X-4042340Y-11312436D01*
X-4042336Y-11312434D01*
X-3869733Y-11204850D01*
X-3722332Y-11064735D01*
X-3722331Y-11064733D01*
X-3606144Y-10897804D01*
X-3525941Y-10710907D01*
X-3485000Y-10511690D01*
X-3485000Y-10460713D01*
X3485000Y-10460713D01*
X3500418Y-10612338D01*
X3561299Y-10806381D01*
X3561304Y-10806391D01*
X3660005Y-10984215D01*
X3660005Y-10984216D01*
X3792478Y-11138530D01*
X3792479Y-11138531D01*
X3953304Y-11263018D01*
X4135907Y-11352589D01*
X4235000Y-11378244D01*
X4235000Y-10334624D01*
X4249505Y-10407545D01*
X4304760Y-10490240D01*
X4387455Y-10545495D01*
X4485000Y-10564898D01*
X4582545Y-10545495D01*
X4665240Y-10490240D01*
X4720495Y-10407545D01*
X4735000Y-10334624D01*
X4735000Y-11383366D01*
X4736944Y-11383069D01*
X4736945Y-11383069D01*
X4927660Y-11312436D01*
X4927664Y-11312434D01*
X5100267Y-11204850D01*
X5247668Y-11064735D01*
X5247669Y-11064733D01*
X5363856Y-10897804D01*
X5444059Y-10710907D01*
X5485000Y-10511690D01*
X5485000Y-10260000D01*
X4735000Y-10260000D01*
X4735000Y-9760000D01*
X5485000Y-9760000D01*
X5485000Y-9559286D01*
X5469581Y-9407661D01*
X5408700Y-9213618D01*
X5408695Y-9213608D01*
X5309994Y-9035784D01*
X5309994Y-9035783D01*
X5177521Y-8881469D01*
X5177520Y-8881468D01*
X5016695Y-8756981D01*
X4834093Y-8667411D01*
X4735000Y-8641753D01*
X4735000Y-9685376D01*
X4720495Y-9612455D01*
X4665240Y-9529760D01*
X4582545Y-9474505D01*
X4485000Y-9455102D01*
X4387455Y-9474505D01*
X4304760Y-9529760D01*
X4249505Y-9612455D01*
X4235000Y-9685376D01*
X4235000Y-8636633D01*
X4233053Y-8636931D01*
X4233047Y-8636933D01*
X4042342Y-8707562D01*
X4042335Y-8707565D01*
X3869732Y-8815149D01*
X3722331Y-8955264D01*
X3722330Y-8955266D01*
X3606143Y-9122195D01*
X3525940Y-9309092D01*
X3485000Y-9508309D01*
X3485000Y-9760000D01*
X4235000Y-9760000D01*
X4235000Y-10260000D01*
X3485000Y-10260000D01*
X3485000Y-10460713D01*
X-3485000Y-10460713D01*
X-3485000Y-10260000D01*
X-4235000Y-10260000D01*
X-4235000Y-9760000D01*
X-3485000Y-9760000D01*
X-3485000Y-9559286D01*
X-3500419Y-9407661D01*
X-3561300Y-9213618D01*
X-3561305Y-9213608D01*
X-3660006Y-9035784D01*
X-3660006Y-9035783D01*
X-3792479Y-8881469D01*
X-3792480Y-8881468D01*
X-3953305Y-8756981D01*
X-4135907Y-8667411D01*
X-4235000Y-8641753D01*
X-4235000Y-9685376D01*
X-4249505Y-9612455D01*
X-4304760Y-9529760D01*
X-4387455Y-9474505D01*
X-4485000Y-9455102D01*
X-4582545Y-9474505D01*
X-4665240Y-9529760D01*
X-4720495Y-9612455D01*
X-4735000Y-9685376D01*
X-4735000Y-8636633D01*
X-4736947Y-8636931D01*
X-4736953Y-8636933D01*
X-4927658Y-8707562D01*
X-4927665Y-8707565D01*
X-5100268Y-8815149D01*
X-5247669Y-8955264D01*
X-5247670Y-8955266D01*
X-5363857Y-9122195D01*
X-5444060Y-9309092D01*
X-5485000Y-9508309D01*
X-5485000Y-9760000D01*
X-4735000Y-9760000D01*
X-4735000Y-10260000D01*
X-5485000Y-10260000D01*
X-5485000Y-10460713D01*
X-11128580Y-10460713D01*
X-12028184Y-9561108D01*
X-12061667Y-9499788D01*
X-12064501Y-9473439D01*
X-12064501Y-8513187D01*
X-10259500Y-8513187D01*
X-10240847Y-8636933D01*
X-10220396Y-8772615D01*
X-10220395Y-8772617D01*
X-10220394Y-8772623D01*
X-10143062Y-9023326D01*
X-10029233Y-9259696D01*
X-10029232Y-9259697D01*
X-10029230Y-9259700D01*
X-10029228Y-9259704D01*
X-9928352Y-9407661D01*
X-9881433Y-9476479D01*
X-9702986Y-9668801D01*
X-9702982Y-9668804D01*
X-9702981Y-9668805D01*
X-9497857Y-9832386D01*
X-9270643Y-9963568D01*
X-9026416Y-10059420D01*
X-8770630Y-10117802D01*
X-8770624Y-10117802D01*
X-8770621Y-10117803D01*
X-8574516Y-10132499D01*
X-8574497Y-10132499D01*
X-8574494Y-10132500D01*
X-8574492Y-10132500D01*
X-8443508Y-10132500D01*
X-8443506Y-10132500D01*
X-8443504Y-10132499D01*
X-8443485Y-10132499D01*
X-8247380Y-10117803D01*
X-8247378Y-10117802D01*
X-8247370Y-10117802D01*
X-7991584Y-10059420D01*
X-7747357Y-9963568D01*
X-7520143Y-9832386D01*
X-7315019Y-9668805D01*
X-7136567Y-9476479D01*
X-6988772Y-9259704D01*
X-6874937Y-9023323D01*
X-6797604Y-8772615D01*
X-6758501Y-8513187D01*
X6758500Y-8513187D01*
X6777153Y-8636933D01*
X6797604Y-8772615D01*
X6797605Y-8772617D01*
X6797606Y-8772623D01*
X6874938Y-9023326D01*
X6988767Y-9259696D01*
X6988768Y-9259697D01*
X6988770Y-9259700D01*
X6988772Y-9259704D01*
X7089648Y-9407661D01*
X7136567Y-9476479D01*
X7315014Y-9668801D01*
X7315018Y-9668804D01*
X7315019Y-9668805D01*
X7520143Y-9832386D01*
X7747357Y-9963568D01*
X7991584Y-10059420D01*
X8247370Y-10117802D01*
X8247376Y-10117802D01*
X8247379Y-10117803D01*
X8443484Y-10132499D01*
X8443503Y-10132499D01*
X8443506Y-10132500D01*
X8443508Y-10132500D01*
X8574492Y-10132500D01*
X8574494Y-10132500D01*
X8574496Y-10132499D01*
X8574515Y-10132499D01*
X8770620Y-10117803D01*
X8770622Y-10117802D01*
X8770630Y-10117802D01*
X9026416Y-10059420D01*
X9270643Y-9963568D01*
X9497857Y-9832386D01*
X9702981Y-9668805D01*
X9881433Y-9476479D01*
X10029228Y-9259704D01*
X10143063Y-9023323D01*
X10220396Y-8772615D01*
X10259500Y-8513182D01*
X10259500Y-8250818D01*
X10220396Y-7991385D01*
X10143063Y-7740677D01*
X10131121Y-7715880D01*
X10029232Y-7504303D01*
X10029231Y-7504302D01*
X10029230Y-7504301D01*
X10029228Y-7504296D01*
X9881433Y-7287521D01*
X9871441Y-7276753D01*
X9702985Y-7095198D01*
X9663533Y-7063736D01*
X9497857Y-6931614D01*
X9270643Y-6800432D01*
X9026416Y-6704580D01*
X9026411Y-6704578D01*
X9026402Y-6704576D01*
X8780847Y-6648530D01*
X8770630Y-6646198D01*
X8770629Y-6646197D01*
X8770625Y-6646197D01*
X8770620Y-6646196D01*
X8574515Y-6631500D01*
X8574494Y-6631500D01*
X8443506Y-6631500D01*
X8443484Y-6631500D01*
X8247379Y-6646196D01*
X8247374Y-6646197D01*
X7991597Y-6704576D01*
X7991578Y-6704582D01*
X7747356Y-6800432D01*
X7520143Y-6931614D01*
X7315014Y-7095198D01*
X7136567Y-7287520D01*
X6988768Y-7504302D01*
X6988767Y-7504303D01*
X6874938Y-7740673D01*
X6797606Y-7991376D01*
X6797605Y-7991381D01*
X6797604Y-7991385D01*
X6782853Y-8089247D01*
X6758500Y-8250812D01*
X6758500Y-8513187D01*
X-6758501Y-8513187D01*
X-6758500Y-8513182D01*
X-6758500Y-8250818D01*
X-6797604Y-7991385D01*
X-6874937Y-7740677D01*
X-6886879Y-7715880D01*
X-6988768Y-7504303D01*
X-6988769Y-7504302D01*
X-6988770Y-7504301D01*
X-6988772Y-7504296D01*
X-7136567Y-7287521D01*
X-7146559Y-7276753D01*
X-7315015Y-7095198D01*
X-7354467Y-7063736D01*
X-7520143Y-6931614D01*
X-7747357Y-6800432D01*
X-7991584Y-6704580D01*
X-7991589Y-6704578D01*
X-7991598Y-6704576D01*
X-8237153Y-6648530D01*
X-8247370Y-6646198D01*
X-8247371Y-6646197D01*
X-8247375Y-6646197D01*
X-8247380Y-6646196D01*
X-8443485Y-6631500D01*
X-8443506Y-6631500D01*
X-8574494Y-6631500D01*
X-8574516Y-6631500D01*
X-8770621Y-6646196D01*
X-8770626Y-6646197D01*
X-9026403Y-6704576D01*
X-9026422Y-6704582D01*
X-9270644Y-6800432D01*
X-9497857Y-6931614D01*
X-9702986Y-7095198D01*
X-9881433Y-7287520D01*
X-10029232Y-7504302D01*
X-10029233Y-7504303D01*
X-10143062Y-7740673D01*
X-10220394Y-7991376D01*
X-10220395Y-7991381D01*
X-10220396Y-7991385D01*
X-10235147Y-8089247D01*
X-10259500Y-8250812D01*
X-10259500Y-8513187D01*
X-12064501Y-8513187D01*
X-12064501Y-5970713D01*
X-5125000Y-5970713D01*
X-5109582Y-6122338D01*
X-5048701Y-6316381D01*
X-5048696Y-6316391D01*
X-4949995Y-6494215D01*
X-4949995Y-6494216D01*
X-4817522Y-6648530D01*
X-4817521Y-6648531D01*
X-4656696Y-6773018D01*
X-4474093Y-6862589D01*
X-4375000Y-6888244D01*
X-4375000Y-5944624D01*
X-4360495Y-6017545D01*
X-4305240Y-6100240D01*
X-4222545Y-6155495D01*
X-4125000Y-6174898D01*
X-4027455Y-6155495D01*
X-3944760Y-6100240D01*
X-3889505Y-6017545D01*
X-3875000Y-5944624D01*
X-3875000Y-6893365D01*
X-3873056Y-6893069D01*
X-3873055Y-6893069D01*
X-3682340Y-6822436D01*
X-3682336Y-6822434D01*
X-3509733Y-6714850D01*
X-3362332Y-6574735D01*
X-3362331Y-6574733D01*
X-3246143Y-6407803D01*
X-3197663Y-6294829D01*
X-3153137Y-6240985D01*
X-3086569Y-6219761D01*
X-3019094Y-6237896D01*
X-2996031Y-6256047D01*
X-2902262Y-6349816D01*
X-2902260Y-6349817D01*
X-2751746Y-6444392D01*
X-2749522Y-6445789D01*
X-2579261Y-6505366D01*
X-2579255Y-6505368D01*
X-2579250Y-6505369D01*
X-2400004Y-6525565D01*
X-2400000Y-6525565D01*
X-2399996Y-6525565D01*
X-2220751Y-6505369D01*
X-2220749Y-6505368D01*
X-2220745Y-6505368D01*
X-2220742Y-6505366D01*
X-2220738Y-6505366D01*
X-2043905Y-6443489D01*
X-2043154Y-6445637D01*
X-1984872Y-6436035D01*
X-1956412Y-6444392D01*
X-1956095Y-6443489D01*
X-1779263Y-6505366D01*
X-1779257Y-6505367D01*
X-1779255Y-6505368D01*
X-1779254Y-6505368D01*
X-1779250Y-6505369D01*
X-1600004Y-6525565D01*
X-1600000Y-6525565D01*
X-1599996Y-6525565D01*
X-1420751Y-6505369D01*
X-1420749Y-6505368D01*
X-1420745Y-6505368D01*
X-1420742Y-6505366D01*
X-1420738Y-6505366D01*
X-1243905Y-6443489D01*
X-1243154Y-6445637D01*
X-1184872Y-6436035D01*
X-1156412Y-6444392D01*
X-1156095Y-6443489D01*
X-979263Y-6505366D01*
X-979257Y-6505367D01*
X-979255Y-6505368D01*
X-979254Y-6505368D01*
X-979250Y-6505369D01*
X-800004Y-6525565D01*
X-800000Y-6525565D01*
X-799996Y-6525565D01*
X-620751Y-6505369D01*
X-620748Y-6505368D01*
X-620745Y-6505368D01*
X-450478Y-6445789D01*
X-297738Y-6349816D01*
X-170184Y-6222262D01*
X-104993Y-6118510D01*
X-52659Y-6072221D01*
X16394Y-6061573D01*
X80243Y-6089948D01*
X104992Y-6118509D01*
X170184Y-6222262D01*
X297738Y-6349816D01*
X297740Y-6349817D01*
X448254Y-6444392D01*
X450478Y-6445789D01*
X620739Y-6505366D01*
X620745Y-6505368D01*
X620750Y-6505369D01*
X799996Y-6525565D01*
X800000Y-6525565D01*
X800004Y-6525565D01*
X979249Y-6505369D01*
X979251Y-6505368D01*
X979255Y-6505368D01*
X979258Y-6505366D01*
X979262Y-6505366D01*
X1156095Y-6443489D01*
X1156846Y-6445637D01*
X1215128Y-6436035D01*
X1243588Y-6444392D01*
X1243905Y-6443489D01*
X1420737Y-6505366D01*
X1420743Y-6505367D01*
X1420745Y-6505368D01*
X1420746Y-6505368D01*
X1420750Y-6505369D01*
X1599996Y-6525565D01*
X1600000Y-6525565D01*
X1600004Y-6525565D01*
X1779249Y-6505369D01*
X1779251Y-6505368D01*
X1779255Y-6505368D01*
X1779258Y-6505366D01*
X1779262Y-6505366D01*
X1956095Y-6443489D01*
X1956846Y-6445637D01*
X2015128Y-6436035D01*
X2043588Y-6444392D01*
X2043905Y-6443489D01*
X2220737Y-6505366D01*
X2220743Y-6505367D01*
X2220745Y-6505368D01*
X2220746Y-6505368D01*
X2220750Y-6505369D01*
X2399996Y-6525565D01*
X2400000Y-6525565D01*
X2400004Y-6525565D01*
X2579249Y-6505369D01*
X2579252Y-6505368D01*
X2579255Y-6505368D01*
X2749522Y-6445789D01*
X2902262Y-6349816D01*
X2981206Y-6270871D01*
X3042525Y-6237389D01*
X3112217Y-6242373D01*
X3168151Y-6284244D01*
X3187197Y-6321433D01*
X3201300Y-6366384D01*
X3201304Y-6366391D01*
X3300005Y-6544215D01*
X3300005Y-6544216D01*
X3432478Y-6698530D01*
X3432479Y-6698531D01*
X3593304Y-6823018D01*
X3775907Y-6912589D01*
X3875000Y-6938244D01*
X3875000Y-5944624D01*
X3889505Y-6017545D01*
X3944760Y-6100240D01*
X4027455Y-6155495D01*
X4125000Y-6174898D01*
X4222545Y-6155495D01*
X4305240Y-6100240D01*
X4360495Y-6017545D01*
X4375000Y-5944624D01*
X4374999Y-6943365D01*
X4376944Y-6943069D01*
X4376945Y-6943069D01*
X4567660Y-6872436D01*
X4567664Y-6872434D01*
X4740267Y-6764850D01*
X4887668Y-6624735D01*
X4887669Y-6624733D01*
X5003856Y-6457804D01*
X5084059Y-6270907D01*
X5125000Y-6071690D01*
X5125000Y-5870000D01*
X4375000Y-5870000D01*
X4375000Y-5370000D01*
X5125000Y-5370000D01*
X5125000Y-5219286D01*
X5109581Y-5067661D01*
X5048700Y-4873618D01*
X5048695Y-4873608D01*
X4949994Y-4695784D01*
X4949994Y-4695783D01*
X4817521Y-4541469D01*
X4817520Y-4541468D01*
X4656695Y-4416981D01*
X4474092Y-4327410D01*
X4474093Y-4327410D01*
X4277217Y-4276435D01*
X4277211Y-4276434D01*
X4265335Y-4275832D01*
X4199379Y-4252775D01*
X4156359Y-4197720D01*
X4151844Y-4184083D01*
X4150687Y-4179764D01*
X4139120Y-4151839D01*
X4092698Y-4039767D01*
X4000451Y-3919549D01*
X3880233Y-3827302D01*
X3880229Y-3827300D01*
X3795719Y-3792295D01*
X3740236Y-3769313D01*
X3726171Y-3767461D01*
X3627727Y-3754500D01*
X3627720Y-3754500D01*
X3552280Y-3754500D01*
X3552272Y-3754500D01*
X3439764Y-3769313D01*
X3439763Y-3769313D01*
X3299770Y-3827300D01*
X3299767Y-3827301D01*
X3299767Y-3827302D01*
X3218535Y-3889634D01*
X3179549Y-3919549D01*
X3087300Y-4039770D01*
X3040880Y-4151839D01*
X2997039Y-4206242D01*
X2930745Y-4228307D01*
X2912435Y-4227606D01*
X2800003Y-4214938D01*
X2799997Y-4214938D01*
X2620861Y-4235121D01*
X2620858Y-4235122D01*
X2450696Y-4294664D01*
X2436891Y-4303338D01*
X2436890Y-4303338D01*
X2800000Y-4666447D01*
X2989044Y-4855491D01*
X3022529Y-4916814D01*
X3017545Y-4986506D01*
X3000000Y-5009942D01*
X3000000Y-4974351D01*
X2960387Y-4892095D01*
X2889008Y-4835173D01*
X2822532Y-4820000D01*
X2777468Y-4820000D01*
X2710992Y-4835173D01*
X2639613Y-4892095D01*
X2613378Y-4946571D01*
X2579254Y-4934631D01*
X2579249Y-4934630D01*
X2400004Y-4914435D01*
X2393037Y-4914435D01*
X2393037Y-4911438D01*
X2337334Y-4901655D01*
X2304643Y-4878196D01*
X2083338Y-4656890D01*
X2041579Y-4661597D01*
X1972757Y-4649544D01*
X1921376Y-4602196D01*
X1908345Y-4560025D01*
X1905710Y-4560508D01*
X1898330Y-4520236D01*
X1893175Y-4492107D01*
X1892613Y-4488410D01*
X1890618Y-4471987D01*
X1885140Y-4426864D01*
X1882731Y-4420513D01*
X1881548Y-4417392D01*
X1875521Y-4395770D01*
X1873695Y-4385807D01*
X1873695Y-4385805D01*
X1848223Y-4329210D01*
X1846808Y-4325791D01*
X1824818Y-4267806D01*
X1819063Y-4259469D01*
X1808036Y-4239918D01*
X1806984Y-4237581D01*
X1803878Y-4230679D01*
X1784733Y-4206242D01*
X1765630Y-4181858D01*
X1763410Y-4178842D01*
X1728182Y-4127806D01*
X1723148Y-4123346D01*
X1681750Y-4086671D01*
X1679056Y-4084135D01*
X1485862Y-3890941D01*
X1483328Y-3888250D01*
X1442193Y-3841817D01*
X1442192Y-3841816D01*
X1442188Y-3841812D01*
X1395689Y-3809717D01*
X1391153Y-3806586D01*
X1388151Y-3804377D01*
X1339324Y-3766124D01*
X1339319Y-3766120D01*
X1330077Y-3761961D01*
X1310530Y-3750936D01*
X1308921Y-3749826D01*
X1302194Y-3745182D01*
X1244205Y-3723189D01*
X1240754Y-3721759D01*
X1184194Y-3696304D01*
X1174210Y-3694474D01*
X1152607Y-3688451D01*
X1143138Y-3684860D01*
X1143134Y-3684859D01*
X1081577Y-3677384D01*
X1077876Y-3676821D01*
X1016872Y-3665642D01*
X1016867Y-3665642D01*
X954961Y-3669387D01*
X951216Y-3669500D01*
X-951216Y-3669500D01*
X-954961Y-3669387D01*
X-1016868Y-3665642D01*
X-1016875Y-3665642D01*
X-1077878Y-3676821D01*
X-1081579Y-3677384D01*
X-1143136Y-3684859D01*
X-1143143Y-3684861D01*
X-1152617Y-3688454D01*
X-1174215Y-3694475D01*
X-1184196Y-3696305D01*
X-1184201Y-3696306D01*
X-1240759Y-3721761D01*
X-1244218Y-3723193D01*
X-1302194Y-3745181D01*
X-1302198Y-3745184D01*
X-1310541Y-3750942D01*
X-1330076Y-3761960D01*
X-1339316Y-3766119D01*
X-1339325Y-3766124D01*
X-1388140Y-3804368D01*
X-1391155Y-3806586D01*
X-1442196Y-3841818D01*
X-1483322Y-3888240D01*
X-1485889Y-3890966D01*
X-1679034Y-4084111D01*
X-1681760Y-4086678D01*
X-1728182Y-4127804D01*
X-1763414Y-4178845D01*
X-1765632Y-4181860D01*
X-1803876Y-4230675D01*
X-1803881Y-4230684D01*
X-1808040Y-4239924D01*
X-1819058Y-4259459D01*
X-1824813Y-4267797D01*
X-1824817Y-4267803D01*
X-1824818Y-4267806D01*
X-1824820Y-4267810D01*
X-1824821Y-4267813D01*
X-1846811Y-4325791D01*
X-1848243Y-4329249D01*
X-1873695Y-4385804D01*
X-1875523Y-4395778D01*
X-1881547Y-4417389D01*
X-1885140Y-4426863D01*
X-1885141Y-4426864D01*
X-1892616Y-4488421D01*
X-1893179Y-4492122D01*
X-1905710Y-4560507D01*
X-1908902Y-4559922D01*
X-1927910Y-4611991D01*
X-1983550Y-4654252D01*
X-2041575Y-4661596D01*
X-2083340Y-4656890D01*
X-2304645Y-4878196D01*
X-2365968Y-4911681D01*
X-2393037Y-4913064D01*
X-2393037Y-4914435D01*
X-2400004Y-4914435D01*
X-2579250Y-4934630D01*
X-2579255Y-4934631D01*
X-2613379Y-4946571D01*
X-2639613Y-4892095D01*
X-2710992Y-4835173D01*
X-2777468Y-4820000D01*
X-2822532Y-4820000D01*
X-2889008Y-4835173D01*
X-2960387Y-4892095D01*
X-3000000Y-4974351D01*
X-3000000Y-5010822D01*
X-3014678Y-4993530D01*
X-3023915Y-4924274D01*
X-2994244Y-4861017D01*
X-2989045Y-4855491D01*
X-2800000Y-4666447D01*
X-2436892Y-4303338D01*
X-2436892Y-4303337D01*
X-2450692Y-4294667D01*
X-2450702Y-4294662D01*
X-2620859Y-4235122D01*
X-2620862Y-4235121D01*
X-2799997Y-4214938D01*
X-2800004Y-4214938D01*
X-2937820Y-4230466D01*
X-3006641Y-4218411D01*
X-3058021Y-4171062D01*
X-3066264Y-4154699D01*
X-3077403Y-4127807D01*
X-3097302Y-4079767D01*
X-3189549Y-3959549D01*
X-3309767Y-3867302D01*
X-3309771Y-3867300D01*
X-3406340Y-3827300D01*
X-3449764Y-3809313D01*
X-3463829Y-3807461D01*
X-3562273Y-3794500D01*
X-3562280Y-3794500D01*
X-3637720Y-3794500D01*
X-3637728Y-3794500D01*
X-3750236Y-3809313D01*
X-3750237Y-3809313D01*
X-3890230Y-3867300D01*
X-3890233Y-3867301D01*
X-3890233Y-3867302D01*
X-3919336Y-3889634D01*
X-4010451Y-3959549D01*
X-4102700Y-4079770D01*
X-4160687Y-4219762D01*
X-4160688Y-4219766D01*
X-4161174Y-4223459D01*
X-4162450Y-4226340D01*
X-4162790Y-4227613D01*
X-4162989Y-4227559D01*
X-4189447Y-4287353D01*
X-4247775Y-4325818D01*
X-4265334Y-4329832D01*
X-4376940Y-4346930D01*
X-4567666Y-4417565D01*
X-4740268Y-4525149D01*
X-4887669Y-4665264D01*
X-4887670Y-4665266D01*
X-5003857Y-4832195D01*
X-5084060Y-5019092D01*
X-5125000Y-5218309D01*
X-5125000Y-5370000D01*
X-4375000Y-5370000D01*
X-4375000Y-5870000D01*
X-5125000Y-5870000D01*
X-5125000Y-5970713D01*
X-12064501Y-5970713D01*
X-12064501Y-3821619D01*
X-12064458Y-3810000D01*
X-12064578Y-3809714D01*
X-12064617Y-3809617D01*
X-12064618Y-3809616D01*
X-12081661Y-3792488D01*
X-12082096Y-3792197D01*
X-13226830Y-2647463D01*
X-4073948Y-2647463D01*
X-4054162Y-2835719D01*
X-4054161Y-2835722D01*
X-3995670Y-3015740D01*
X-3995667Y-3015747D01*
X-3901021Y-3179679D01*
X-3774360Y-3320351D01*
X-3774359Y-3320351D01*
X-3621223Y-3431611D01*
X-3621218Y-3431614D01*
X-3448296Y-3508605D01*
X-3448291Y-3508607D01*
X-3263134Y-3547963D01*
X-3263133Y-3547963D01*
X-3073844Y-3547963D01*
X-3073842Y-3547963D01*
X-2888685Y-3508607D01*
X-2715758Y-3431614D01*
X-2562617Y-3320351D01*
X-2435955Y-3179679D01*
X-2341309Y-3015747D01*
X-2282814Y-2835719D01*
X-2263028Y-2647463D01*
X-2282814Y-2459207D01*
X-2341309Y-2279179D01*
X-2435955Y-2115247D01*
X-2510911Y-2032000D01*
X1634530Y-2032000D01*
X1654316Y-2220256D01*
X1654317Y-2220259D01*
X1712808Y-2400277D01*
X1712811Y-2400284D01*
X1807457Y-2564216D01*
X1882413Y-2647463D01*
X1934119Y-2704888D01*
X2087255Y-2816148D01*
X2087260Y-2816151D01*
X2260182Y-2893142D01*
X2260187Y-2893144D01*
X2445344Y-2932500D01*
X2445345Y-2932500D01*
X2634634Y-2932500D01*
X2634636Y-2932500D01*
X2819793Y-2893144D01*
X2966223Y-2827948D01*
X3035474Y-2818663D01*
X3089545Y-2840909D01*
X3230265Y-2943148D01*
X3230270Y-2943151D01*
X3403192Y-3020142D01*
X3403197Y-3020144D01*
X3588354Y-3059500D01*
X3588355Y-3059500D01*
X3777644Y-3059500D01*
X3777646Y-3059500D01*
X3962803Y-3020144D01*
X4135730Y-2943151D01*
X4288871Y-2831888D01*
X4415533Y-2691216D01*
X4510179Y-2527284D01*
X4568674Y-2347256D01*
X4588460Y-2159000D01*
X4568674Y-1970744D01*
X4510179Y-1790716D01*
X4415533Y-1626784D01*
X4288871Y-1486112D01*
X4288870Y-1486111D01*
X4135734Y-1374851D01*
X4135729Y-1374848D01*
X3962807Y-1297857D01*
X3962802Y-1297855D01*
X3817000Y-1266865D01*
X3777646Y-1258500D01*
X3588354Y-1258500D01*
X3555897Y-1265398D01*
X3403197Y-1297855D01*
X3403192Y-1297857D01*
X3256765Y-1363052D01*
X3187515Y-1372337D01*
X3133446Y-1350092D01*
X2992720Y-1247849D01*
X2992719Y-1247848D01*
X2819797Y-1170857D01*
X2819792Y-1170855D01*
X2673990Y-1139865D01*
X2634636Y-1131500D01*
X2445344Y-1131500D01*
X2412887Y-1138398D01*
X2260187Y-1170855D01*
X2260182Y-1170857D01*
X2087260Y-1247848D01*
X2087255Y-1247851D01*
X1934119Y-1359111D01*
X1807456Y-1499785D01*
X1712811Y-1663715D01*
X1712808Y-1663722D01*
X1654317Y-1843740D01*
X1654316Y-1843744D01*
X1634530Y-2032000D01*
X-2510911Y-2032000D01*
X-2562617Y-1974575D01*
X-2567895Y-1970740D01*
X-2715754Y-1863314D01*
X-2715759Y-1863311D01*
X-2888681Y-1786320D01*
X-2888686Y-1786318D01*
X-3034487Y-1755328D01*
X-3073842Y-1746963D01*
X-3263134Y-1746963D01*
X-3295591Y-1753861D01*
X-3448291Y-1786318D01*
X-3448296Y-1786320D01*
X-3621218Y-1863311D01*
X-3621223Y-1863314D01*
X-3774359Y-1974574D01*
X-3901022Y-2115248D01*
X-3995667Y-2279178D01*
X-3995670Y-2279185D01*
X-4035017Y-2400284D01*
X-4054162Y-2459207D01*
X-4073948Y-2647463D01*
X-13226830Y-2647463D01*
X-15559034Y-315259D01*
X-16128293Y254000D01*
X-9033460Y254000D01*
X-9013674Y65744D01*
X-9013673Y65741D01*
X-8955182Y-114277D01*
X-8955179Y-114284D01*
X-8860533Y-278216D01*
X-8827179Y-315259D01*
X-8733871Y-418888D01*
X-8580735Y-530148D01*
X-8580730Y-530151D01*
X-8407808Y-607142D01*
X-8407803Y-607144D01*
X-8222646Y-646500D01*
X-8222645Y-646500D01*
X-8033356Y-646500D01*
X-8033354Y-646500D01*
X-7848197Y-607144D01*
X-7675270Y-530151D01*
X-7522129Y-418888D01*
X-7395467Y-278216D01*
X-7308163Y-127000D01*
X3158540Y-127000D01*
X3178326Y-315256D01*
X3178327Y-315259D01*
X3236818Y-495277D01*
X3236821Y-495284D01*
X3331467Y-659216D01*
X3443957Y-784148D01*
X3458129Y-799888D01*
X3611265Y-911148D01*
X3611270Y-911151D01*
X3784192Y-988142D01*
X3784197Y-988144D01*
X3969354Y-1027500D01*
X3969355Y-1027500D01*
X4158644Y-1027500D01*
X4158646Y-1027500D01*
X4343803Y-988144D01*
X4516730Y-911151D01*
X4669871Y-799888D01*
X4796533Y-659216D01*
X4891179Y-495284D01*
X4949674Y-315256D01*
X4969460Y-127000D01*
X4956112Y0D01*
X7349540Y0D01*
X7369326Y-188256D01*
X7369327Y-188259D01*
X7427818Y-368277D01*
X7427821Y-368284D01*
X7522467Y-532216D01*
X7589931Y-607142D01*
X7649129Y-672888D01*
X7802265Y-784148D01*
X7802270Y-784151D01*
X7975192Y-861142D01*
X7975197Y-861144D01*
X8160354Y-900500D01*
X8160355Y-900500D01*
X8349644Y-900500D01*
X8349646Y-900500D01*
X8534803Y-861144D01*
X8707730Y-784151D01*
X8860871Y-672888D01*
X8987533Y-532216D01*
X9082179Y-368284D01*
X9140674Y-188256D01*
X9160460Y0D01*
X9140674Y188256D01*
X9082179Y368284D01*
X8987533Y532216D01*
X8860871Y672888D01*
X8860870Y672889D01*
X8707734Y784149D01*
X8707729Y784152D01*
X8534807Y861143D01*
X8534802Y861145D01*
X8389001Y892135D01*
X8349646Y900500D01*
X8160354Y900500D01*
X8127897Y893602D01*
X7975197Y861145D01*
X7975192Y861143D01*
X7802270Y784152D01*
X7802265Y784149D01*
X7649129Y672889D01*
X7522466Y532215D01*
X7427821Y368285D01*
X7427818Y368278D01*
X7369327Y188260D01*
X7369326Y188256D01*
X7349540Y0D01*
X4956112Y0D01*
X4949674Y61256D01*
X4891179Y241284D01*
X4796533Y405216D01*
X4669871Y545888D01*
X4669870Y545889D01*
X4516734Y657149D01*
X4516729Y657152D01*
X4343807Y734143D01*
X4343802Y734145D01*
X4198001Y765135D01*
X4158646Y773500D01*
X3969354Y773500D01*
X3936897Y766602D01*
X3784197Y734145D01*
X3784192Y734143D01*
X3611270Y657152D01*
X3611265Y657149D01*
X3458129Y545889D01*
X3331466Y405215D01*
X3236821Y241285D01*
X3236818Y241278D01*
X3179784Y65744D01*
X3178326Y61256D01*
X3158540Y-127000D01*
X-7308163Y-127000D01*
X-7300821Y-114284D01*
X-7242326Y65744D01*
X-7222540Y254000D01*
X-7242326Y442256D01*
X-7300821Y622284D01*
X-7395467Y786216D01*
X-7522129Y926888D01*
X-7522130Y926889D01*
X-7675266Y1038149D01*
X-7675271Y1038152D01*
X-7848193Y1115143D01*
X-7848198Y1115145D01*
X-7993999Y1146135D01*
X-8033354Y1154500D01*
X-8222646Y1154500D01*
X-8255103Y1147602D01*
X-8407803Y1115145D01*
X-8407808Y1115143D01*
X-8580730Y1038152D01*
X-8580735Y1038149D01*
X-8733871Y926889D01*
X-8860534Y786215D01*
X-8955179Y622285D01*
X-8955182Y622278D01*
X-9013673Y442260D01*
X-9013674Y442256D01*
X-9033460Y254000D01*
X-16128293Y254000D01*
X-19049716Y3175424D01*
X-19049717Y3175425D01*
X-19056781Y3182489D01*
X-19056788Y3182495D01*
X-19938292Y4064000D01*
X3158540Y4064000D01*
X3178326Y3875744D01*
X3178327Y3875741D01*
X3236818Y3695723D01*
X3236821Y3695716D01*
X3331467Y3531784D01*
X3458129Y3391113D01*
X3458129Y3391112D01*
X3611265Y3279852D01*
X3611270Y3279849D01*
X3784192Y3202858D01*
X3784197Y3202856D01*
X3969354Y3163500D01*
X3969355Y3163500D01*
X4158644Y3163500D01*
X4158646Y3163500D01*
X4343803Y3202856D01*
X4516730Y3279849D01*
X4669871Y3391112D01*
X4796533Y3531784D01*
X4891179Y3695716D01*
X4949674Y3875744D01*
X4969460Y4064000D01*
X4949674Y4252256D01*
X4891179Y4432284D01*
X4796533Y4596216D01*
X4669871Y4736888D01*
X4669870Y4736889D01*
X4516734Y4848149D01*
X4516729Y4848152D01*
X4343807Y4925143D01*
X4343802Y4925145D01*
X4198000Y4956135D01*
X4158646Y4964500D01*
X3969354Y4964500D01*
X3936897Y4957602D01*
X3784197Y4925145D01*
X3784192Y4925143D01*
X3611270Y4848152D01*
X3611265Y4848149D01*
X3458129Y4736889D01*
X3331466Y4596215D01*
X3236821Y4432285D01*
X3236818Y4432278D01*
X3229219Y4408889D01*
X3178326Y4252256D01*
X3158540Y4064000D01*
X-19938292Y4064000D01*
X-20283181Y4408889D01*
X-20316666Y4470212D01*
X-20319500Y4496570D01*
X-20319500Y6726813D01*
X-18387500Y6726813D01*
X-18374699Y6641889D01*
X-18348396Y6467385D01*
X-18348395Y6467383D01*
X-18348394Y6467377D01*
X-18271062Y6216674D01*
X-18157233Y5980304D01*
X-18157232Y5980303D01*
X-18157230Y5980300D01*
X-18157228Y5980296D01*
X-18021175Y5780744D01*
X-18009433Y5763521D01*
X-17830986Y5571199D01*
X-17830982Y5571196D01*
X-17830981Y5571195D01*
X-17625857Y5407614D01*
X-17398643Y5276432D01*
X-17154416Y5180580D01*
X-16898630Y5122198D01*
X-16898624Y5122198D01*
X-16898621Y5122197D01*
X-16702516Y5107501D01*
X-16702497Y5107501D01*
X-16702494Y5107500D01*
X-16702492Y5107500D01*
X-16571508Y5107500D01*
X-16571506Y5107500D01*
X-16571504Y5107501D01*
X-16571485Y5107501D01*
X-16375380Y5122197D01*
X-16375378Y5122198D01*
X-16375370Y5122198D01*
X-16119584Y5180580D01*
X-15875357Y5276432D01*
X-15648143Y5407614D01*
X-15443019Y5571195D01*
X-15415627Y5600716D01*
X-15403055Y5614267D01*
X-15264567Y5763521D01*
X-15116772Y5980296D01*
X-15061052Y6096000D01*
X-7001460Y6096000D01*
X-6981674Y5907744D01*
X-6981673Y5907741D01*
X-6923182Y5727723D01*
X-6923179Y5727716D01*
X-6828533Y5563784D01*
X-6714183Y5436786D01*
X-6701871Y5423112D01*
X-6548735Y5311852D01*
X-6548730Y5311849D01*
X-6375808Y5234858D01*
X-6375803Y5234856D01*
X-6190646Y5195500D01*
X-6190645Y5195500D01*
X-6001356Y5195500D01*
X-6001354Y5195500D01*
X-5816197Y5234856D01*
X-5643270Y5311849D01*
X-5490129Y5423112D01*
X-5363467Y5563784D01*
X-5268821Y5727716D01*
X-5210326Y5907744D01*
X-5203888Y5969000D01*
X-2937460Y5969000D01*
X-2917674Y5780744D01*
X-2917673Y5780741D01*
X-2859182Y5600723D01*
X-2859179Y5600716D01*
X-2764533Y5436784D01*
X-2738268Y5407614D01*
X-2637871Y5296112D01*
X-2484735Y5184852D01*
X-2484730Y5184849D01*
X-2311808Y5107858D01*
X-2311803Y5107856D01*
X-2126646Y5068500D01*
X-2126645Y5068500D01*
X-1937356Y5068500D01*
X-1937354Y5068500D01*
X-1752197Y5107856D01*
X-1579270Y5184849D01*
X-1426129Y5296112D01*
X-1299467Y5436784D01*
X-1204821Y5600716D01*
X-1146326Y5780744D01*
X-1126540Y5969000D01*
X-1139888Y6096000D01*
X999500Y6096000D01*
X1019286Y5907744D01*
X1019287Y5907741D01*
X1077778Y5727723D01*
X1077781Y5727716D01*
X1172427Y5563784D01*
X1286777Y5436786D01*
X1299089Y5423112D01*
X1452225Y5311852D01*
X1452230Y5311849D01*
X1625152Y5234858D01*
X1625157Y5234856D01*
X1810314Y5195500D01*
X1810315Y5195500D01*
X1999604Y5195500D01*
X1999606Y5195500D01*
X2184763Y5234856D01*
X2357690Y5311849D01*
X2510831Y5423112D01*
X2637493Y5563784D01*
X2732139Y5727716D01*
X2790634Y5907744D01*
X2810420Y6096000D01*
X5190540Y6096000D01*
X5210326Y5907744D01*
X5210327Y5907741D01*
X5268818Y5727723D01*
X5268821Y5727716D01*
X5363467Y5563784D01*
X5477817Y5436786D01*
X5490129Y5423112D01*
X5643265Y5311852D01*
X5643270Y5311849D01*
X5816192Y5234858D01*
X5816197Y5234856D01*
X6001354Y5195500D01*
X6001355Y5195500D01*
X6190644Y5195500D01*
X6190646Y5195500D01*
X6375803Y5234856D01*
X6548730Y5311849D01*
X6701871Y5423112D01*
X6828533Y5563784D01*
X6923179Y5727716D01*
X6981674Y5907744D01*
X7001460Y6096000D01*
X6981674Y6284256D01*
X6923179Y6464284D01*
X6828533Y6628216D01*
X6739756Y6726813D01*
X14886500Y6726813D01*
X14899301Y6641889D01*
X14925604Y6467385D01*
X14925605Y6467383D01*
X14925606Y6467377D01*
X15002938Y6216674D01*
X15116767Y5980304D01*
X15116768Y5980303D01*
X15116770Y5980300D01*
X15116772Y5980296D01*
X15252825Y5780744D01*
X15264567Y5763521D01*
X15443014Y5571199D01*
X15443018Y5571196D01*
X15443019Y5571195D01*
X15648143Y5407614D01*
X15875357Y5276432D01*
X16119584Y5180580D01*
X16375370Y5122198D01*
X16375376Y5122198D01*
X16375379Y5122197D01*
X16571484Y5107501D01*
X16571503Y5107501D01*
X16571506Y5107500D01*
X16571508Y5107500D01*
X16702492Y5107500D01*
X16702494Y5107500D01*
X16702496Y5107501D01*
X16702515Y5107501D01*
X16898620Y5122197D01*
X16898622Y5122198D01*
X16898630Y5122198D01*
X17154416Y5180580D01*
X17398643Y5276432D01*
X17625857Y5407614D01*
X17830981Y5571195D01*
X17858373Y5600716D01*
X17870945Y5614267D01*
X18009433Y5763521D01*
X18157228Y5980296D01*
X18271063Y6216677D01*
X18348396Y6467385D01*
X18387500Y6726818D01*
X18387500Y6989182D01*
X18348396Y7248615D01*
X18271063Y7499323D01*
X18259121Y7524120D01*
X18157232Y7735697D01*
X18157231Y7735698D01*
X18157230Y7735699D01*
X18157228Y7735704D01*
X18009433Y7952479D01*
X17999441Y7963247D01*
X17830985Y8144802D01*
X17693060Y8254793D01*
X17625857Y8308386D01*
X17398643Y8439568D01*
X17154416Y8535420D01*
X17154411Y8535422D01*
X17154402Y8535424D01*
X16936818Y8585086D01*
X16898630Y8593802D01*
X16898629Y8593803D01*
X16898625Y8593803D01*
X16898620Y8593804D01*
X16702515Y8608500D01*
X16702494Y8608500D01*
X16571506Y8608500D01*
X16571484Y8608500D01*
X16375379Y8593804D01*
X16375374Y8593803D01*
X16119597Y8535424D01*
X16119578Y8535418D01*
X15875356Y8439568D01*
X15648143Y8308386D01*
X15443014Y8144802D01*
X15264567Y7952480D01*
X15116768Y7735698D01*
X15116767Y7735697D01*
X15002938Y7499327D01*
X14925606Y7248624D01*
X14925605Y7248619D01*
X14925604Y7248615D01*
X14910853Y7150753D01*
X14886500Y6989188D01*
X14886500Y6726813D01*
X6739756Y6726813D01*
X6701871Y6768888D01*
X6701870Y6768889D01*
X6548734Y6880149D01*
X6548729Y6880152D01*
X6375807Y6957143D01*
X6375802Y6957145D01*
X6225070Y6989183D01*
X6190646Y6996500D01*
X6001354Y6996500D01*
X5968897Y6989602D01*
X5816197Y6957145D01*
X5816192Y6957143D01*
X5643270Y6880152D01*
X5643265Y6880149D01*
X5490129Y6768889D01*
X5363466Y6628215D01*
X5268821Y6464285D01*
X5268818Y6464278D01*
X5210327Y6284260D01*
X5210326Y6284256D01*
X5190540Y6096000D01*
X2810420Y6096000D01*
X2790634Y6284256D01*
X2732139Y6464284D01*
X2637493Y6628216D01*
X2510831Y6768888D01*
X2510830Y6768889D01*
X2357694Y6880149D01*
X2357689Y6880152D01*
X2184767Y6957143D01*
X2184762Y6957145D01*
X2034030Y6989183D01*
X1999606Y6996500D01*
X1810314Y6996500D01*
X1777857Y6989602D01*
X1625157Y6957145D01*
X1625152Y6957143D01*
X1452230Y6880152D01*
X1452225Y6880149D01*
X1299089Y6768889D01*
X1172426Y6628215D01*
X1077781Y6464285D01*
X1077778Y6464278D01*
X1019287Y6284260D01*
X1019286Y6284256D01*
X999500Y6096000D01*
X-1139888Y6096000D01*
X-1146326Y6157256D01*
X-1204821Y6337284D01*
X-1299467Y6501216D01*
X-1426129Y6641888D01*
X-1426130Y6641889D01*
X-1579266Y6753149D01*
X-1579271Y6753152D01*
X-1752193Y6830143D01*
X-1752198Y6830145D01*
X-1897999Y6861135D01*
X-1937354Y6869500D01*
X-2126646Y6869500D01*
X-2159103Y6862602D01*
X-2311803Y6830145D01*
X-2311808Y6830143D01*
X-2484730Y6753152D01*
X-2484735Y6753149D01*
X-2637871Y6641889D01*
X-2764534Y6501215D01*
X-2859179Y6337285D01*
X-2859182Y6337278D01*
X-2898367Y6216677D01*
X-2917674Y6157256D01*
X-2937460Y5969000D01*
X-5203888Y5969000D01*
X-5190540Y6096000D01*
X-5210326Y6284256D01*
X-5268821Y6464284D01*
X-5363467Y6628216D01*
X-5490129Y6768888D01*
X-5490130Y6768889D01*
X-5643266Y6880149D01*
X-5643271Y6880152D01*
X-5816193Y6957143D01*
X-5816198Y6957145D01*
X-5966930Y6989183D01*
X-6001354Y6996500D01*
X-6190646Y6996500D01*
X-6223103Y6989602D01*
X-6375803Y6957145D01*
X-6375808Y6957143D01*
X-6548730Y6880152D01*
X-6548735Y6880149D01*
X-6701871Y6768889D01*
X-6828534Y6628215D01*
X-6923179Y6464285D01*
X-6923182Y6464278D01*
X-6981673Y6284260D01*
X-6981674Y6284256D01*
X-7001460Y6096000D01*
X-15061052Y6096000D01*
X-15002937Y6216677D01*
X-14925604Y6467385D01*
X-14886500Y6726818D01*
X-14886500Y6989182D01*
X-14925604Y7248615D01*
X-15002937Y7499323D01*
X-15014879Y7524120D01*
X-15116768Y7735697D01*
X-15116769Y7735698D01*
X-15116770Y7735699D01*
X-15116772Y7735704D01*
X-15264567Y7952479D01*
X-15274559Y7963247D01*
X-15443015Y8144802D01*
X-15580940Y8254793D01*
X-15648143Y8308386D01*
X-15875357Y8439568D01*
X-16119584Y8535420D01*
X-16119589Y8535422D01*
X-16119598Y8535424D01*
X-16337182Y8585086D01*
X-16375370Y8593802D01*
X-16375371Y8593803D01*
X-16375375Y8593803D01*
X-16375380Y8593804D01*
X-16571485Y8608500D01*
X-16571506Y8608500D01*
X-16702494Y8608500D01*
X-16702516Y8608500D01*
X-16898621Y8593804D01*
X-16898626Y8593803D01*
X-17154403Y8535424D01*
X-17154422Y8535418D01*
X-17398644Y8439568D01*
X-17625857Y8308386D01*
X-17830986Y8144802D01*
X-18009433Y7952480D01*
X-18157232Y7735698D01*
X-18157233Y7735697D01*
X-18271062Y7499327D01*
X-18348394Y7248624D01*
X-18348395Y7248619D01*
X-18348396Y7248615D01*
X-18363147Y7150753D01*
X-18387500Y6989188D01*
X-18387500Y6726813D01*
X-20319500Y6726813D01*
X-20319500Y8203431D01*
X-20299815Y8270470D01*
X-20283181Y8291112D01*
X-18451112Y10123181D01*
X-18389789Y10156666D01*
X-18363431Y10159500D01*
X-99Y10159500D01*
X18363430Y10159500D01*
X18430469Y10139815D01*
G37*
%TD.AperFunction*%
%TD*%
M02*
