%TF.GenerationSoftware,KiCad,Pcbnew,7.0.5*%
%TF.CreationDate,2024-03-20T22:46:36-04:00*%
%TF.ProjectId,commapogo_female,636f6d6d-6170-46f6-976f-5f66656d616c,rev?*%
%TF.SameCoordinates,Original*%
%TF.FileFunction,Copper,L2,Inr*%
%TF.FilePolarity,Positive*%
%FSLAX46Y46*%
G04 Gerber Fmt 4.6, Leading zero omitted, Abs format (unit mm)*
G04 Created by KiCad (PCBNEW 7.0.5) date 2024-03-20 22:46:36*
%MOMM*%
%LPD*%
G01*
G04 APERTURE LIST*
%TA.AperFunction,ComponentPad*%
%ADD10O,1.000000X1.600000*%
%TD*%
%TA.AperFunction,ComponentPad*%
%ADD11O,1.000000X1.800000*%
%TD*%
%TA.AperFunction,ComponentPad*%
%ADD12O,1.000000X1.700000*%
%TD*%
%TA.AperFunction,ComponentPad*%
%ADD13C,0.600000*%
%TD*%
%TA.AperFunction,ViaPad*%
%ADD14C,0.800000*%
%TD*%
%TA.AperFunction,Conductor*%
%ADD15C,0.300000*%
%TD*%
G04 APERTURE END LIST*
D10*
%TO.N,GND*%
%TO.C,J2*%
X-4125000Y-5620000D03*
D11*
X-4485000Y-10010000D03*
X4485000Y-10010000D03*
D12*
X4125000Y-5620000D03*
D13*
X2800000Y-5020000D03*
%TO.N,/CAN2_H*%
X2400000Y-5720000D03*
%TO.N,/CAN2_L*%
X1600000Y-5720000D03*
%TO.N,+12V*%
X1200000Y-5020000D03*
%TO.N,unconnected-(J2-Pin_5b-PadB5)*%
X800000Y-5720000D03*
%TO.N,unconnected-(J2-Pin_6b-PadB6)*%
X400000Y-5020000D03*
%TO.N,/SBU2*%
X-400000Y-5020000D03*
X-800000Y-5720000D03*
%TO.N,+12V*%
X-1200000Y-5020000D03*
%TO.N,/CAN3_L*%
X-1600000Y-5720000D03*
%TO.N,/CAN3_H*%
X-2400000Y-5720000D03*
%TO.N,GND*%
X-2800000Y-5020000D03*
%TD*%
D14*
%TO.N,/CAN0_H*%
X-3168488Y-2647463D03*
X-8128000Y254000D03*
%TO.N,GND*%
X12192000Y254000D03*
X-12192000Y254000D03*
%TO.N,/CAN1_L*%
X4064000Y-127000D03*
X2539990Y-2032000D03*
%TO.N,/CAN1_H*%
X3683000Y-2159000D03*
X8255000Y0D03*
%TO.N,/CAN2_H*%
X6096000Y6096000D03*
%TO.N,/CAN2_L*%
X4064000Y4064000D03*
%TO.N,/SBU2*%
X1904960Y6096000D03*
%TO.N,/CAN3_L*%
X-2032000Y5969000D03*
%TO.N,/CAN3_H*%
X-6096000Y6096000D03*
%TD*%
D15*
%TO.N,/CAN0_H*%
X-8128000Y254000D02*
X-5226537Y-2647463D01*
X-5226537Y-2647463D02*
X-3168488Y-2647463D01*
%TO.N,/CAN1_L*%
X4064000Y-507990D02*
X2539990Y-2032000D01*
X4064000Y-127000D02*
X4064000Y-507990D01*
%TO.N,/CAN2_H*%
X2400000Y-5720000D02*
X2200000Y-5520000D01*
X2200000Y-4631950D02*
X3972950Y-2859000D01*
X6096000Y-989950D02*
X6096000Y6096000D01*
X4226950Y-2859000D02*
X6096000Y-989950D01*
X2200000Y-5520000D02*
X2200000Y-4631950D01*
X3972950Y-2859000D02*
X4226950Y-2859000D01*
%TO.N,/CAN3_H*%
X-2200000Y-5520000D02*
X-2200000Y-2073000D01*
X-2200000Y-2073000D02*
X-1778000Y-1651000D01*
X-1778000Y1778000D02*
X-6096000Y6096000D01*
X-1778000Y-1651000D02*
X-1778000Y1778000D01*
X-2400000Y-5720000D02*
X-2200000Y-5520000D01*
%TD*%
M02*
