%TF.GenerationSoftware,KiCad,Pcbnew,7.0.5*%
%TF.CreationDate,2024-03-06T11:24:05-05:00*%
%TF.ProjectId,commapogo_fem,636f6d6d-6170-46f6-976f-5f66656d2e6b,rev?*%
%TF.SameCoordinates,Original*%
%TF.FileFunction,Copper,L2,Bot*%
%TF.FilePolarity,Positive*%
%FSLAX46Y46*%
G04 Gerber Fmt 4.6, Leading zero omitted, Abs format (unit mm)*
G04 Created by KiCad (PCBNEW 7.0.5) date 2024-03-06 11:24:05*
%MOMM*%
%LPD*%
G01*
G04 APERTURE LIST*
%TA.AperFunction,ComponentPad*%
%ADD10O,1.700000X1.000000*%
%TD*%
%TA.AperFunction,ComponentPad*%
%ADD11C,0.600000*%
%TD*%
%TA.AperFunction,ComponentPad*%
%ADD12C,1.828800*%
%TD*%
%TA.AperFunction,Conductor*%
%ADD13C,0.400000*%
%TD*%
%TA.AperFunction,Conductor*%
%ADD14C,0.300000*%
%TD*%
G04 APERTURE END LIST*
D10*
%TO.P,J2,1*%
%TO.N,N/C*%
X-4125000Y-5620000D03*
%TO.P,J2,2*%
X-4485000Y-10010000D03*
%TO.P,J2,3*%
X4485000Y-10010000D03*
%TO.P,J2,4*%
X4125000Y-5620000D03*
D11*
%TO.P,J2,B1,b1*%
%TO.N,GND*%
X2800000Y-5020000D03*
%TO.P,J2,B2,b2*%
%TO.N,/CAN2_H*%
X2400000Y-5720000D03*
%TO.P,J2,B3,b3*%
%TO.N,/CAN2_L*%
X1600000Y-5720000D03*
%TO.P,J2,B4,b4*%
%TO.N,+12V*%
X1200000Y-5020000D03*
%TO.P,J2,B5,b5*%
%TO.N,unconnected-(J2-b5-PadB5)*%
X800000Y-5720000D03*
%TO.P,J2,B6,b6*%
%TO.N,unconnected-(J2-b6-PadB6)*%
X400000Y-5020000D03*
%TO.P,J2,B7,b7*%
%TO.N,unconnected-(J2-b7-PadB7)*%
X-400000Y-5020000D03*
%TO.P,J2,B8,b8*%
%TO.N,/SBU2*%
X-800000Y-5720000D03*
%TO.P,J2,B9,b9*%
%TO.N,+12V*%
X-1200000Y-5020000D03*
%TO.P,J2,B10,b10*%
%TO.N,/CAN3_L*%
X-1600000Y-5720000D03*
%TO.P,J2,B11,b11*%
%TO.N,/CAN3_H*%
X-2400000Y-5720000D03*
%TO.P,J2,B12,b12*%
%TO.N,GND*%
X-2800000Y-5020000D03*
%TD*%
D12*
%TO.P,J1,1,Pin_1a*%
%TO.N,GND*%
X-12192000Y6096000D03*
%TO.P,J1,2,Pin_2a*%
%TO.N,/CAN0_H*%
X-8128000Y6096000D03*
%TO.P,J1,3,Pin_3a*%
%TO.N,/CAN0_L*%
X-4064000Y6096000D03*
%TO.P,J1,4,Pin_4a*%
%TO.N,/SBU1*%
X0Y6096000D03*
%TO.P,J1,5,Pin_5a*%
%TO.N,/CAN1_L*%
X4064000Y6096000D03*
%TO.P,J1,6,Pin_6a*%
%TO.N,/CAN1_H*%
X8128000Y6096000D03*
%TO.P,J1,7,Pin_7a*%
%TO.N,+12V*%
X12192000Y6096000D03*
%TO.P,J1,8,Pin_1b*%
%TO.N,GND*%
X-12192000Y2032000D03*
%TO.P,J1,9,Pin_2b*%
%TO.N,/CAN2_H*%
X-8128000Y2032000D03*
%TO.P,J1,10,Pin_3b*%
%TO.N,/CAN2_L*%
X-4064000Y2032000D03*
%TO.P,J1,11,Pin_4b*%
%TO.N,/SBU2*%
X0Y2032000D03*
%TO.P,J1,12,Pin_5b*%
%TO.N,/CAN3_H*%
X4064000Y2032000D03*
%TO.P,J1,13,Pin_6b*%
%TO.N,/CAN3_L*%
X8128000Y2032000D03*
%TO.P,J1,14,Pin_7b*%
%TO.N,+12V*%
X12192000Y2032000D03*
%TD*%
D13*
%TO.N,+12V*%
X-1200000Y-4842500D02*
X-699000Y-4341500D01*
X3002400Y-2801500D02*
X1200000Y-4603900D01*
X7358500Y-2801500D02*
X3002400Y-2801500D01*
X-699000Y-4341500D02*
X937600Y-4341500D01*
X937600Y-4341500D02*
X1200000Y-4603900D01*
X12192000Y2032000D02*
X7358500Y-2801500D01*
X1200000Y-4603900D02*
X1200000Y-5020000D01*
X-1200000Y-5020000D02*
X-1200000Y-4842500D01*
X12192000Y6096000D02*
X12192000Y2032000D01*
%TO.N,GND*%
X3519000Y-7854100D02*
X5347100Y-6026000D01*
X2646100Y-3946300D02*
X2646100Y-4866100D01*
X509200Y3335900D02*
X-8692800Y3335900D01*
X1282300Y2562800D02*
X509200Y3335900D01*
X3996400Y-3397800D02*
X3194600Y-3397800D01*
X5347100Y-6026000D02*
X5347100Y-4748500D01*
X3194600Y-3397800D02*
X2646100Y-3946300D01*
X-8692800Y3335900D02*
X-9443400Y2585300D01*
X-2673100Y-4893100D02*
X-2673100Y-3937900D01*
X-2673100Y-3937900D02*
X1282300Y17500D01*
X5347100Y-4748500D02*
X3996400Y-3397800D01*
X1282300Y17500D02*
X1282300Y2562800D01*
X-2800000Y-5020000D02*
X-2673100Y-4893100D01*
X-5394100Y-7854100D02*
X3519000Y-7854100D01*
X-9443400Y-3804800D02*
X-5394100Y-7854100D01*
X-9443400Y2585300D02*
X-9443400Y2032000D01*
X-9443400Y2032000D02*
X-9443400Y-3804800D01*
X-12192000Y2032000D02*
X-9443400Y2032000D01*
X2646100Y-4866100D02*
X2800000Y-5020000D01*
D14*
%TO.N,/CAN2_H*%
X-5186300Y-7352200D02*
X905000Y-7352200D01*
X-8128000Y2032000D02*
X-8128000Y-4410500D01*
X905000Y-7352200D02*
X2400000Y-5857200D01*
X-8128000Y-4410500D02*
X-5186300Y-7352200D01*
X2400000Y-5857200D02*
X2400000Y-5720000D01*
%TO.N,/CAN2_L*%
X-4064000Y2032000D02*
X-5747100Y348900D01*
X-5747100Y348900D02*
X-5747100Y-6152400D01*
X1600000Y-5850400D02*
X1600000Y-5720000D01*
X-4999200Y-6900300D02*
X550100Y-6900300D01*
X550100Y-6900300D02*
X1600000Y-5850400D01*
X-5747100Y-6152400D02*
X-4999200Y-6900300D01*
%TO.N,/SBU2*%
X-800000Y-5853700D02*
X-1382300Y-6436000D01*
X-5283500Y-3251500D02*
X0Y2032000D01*
X-800000Y-5720000D02*
X-800000Y-5853700D01*
X-1382300Y-6436000D02*
X-4811300Y-6436000D01*
X-4811300Y-6436000D02*
X-5283500Y-5963800D01*
X-5283500Y-5963800D02*
X-5283500Y-3251500D01*
%TO.N,/CAN3_H*%
X-2400000Y-5720000D02*
X-2400000Y-5570100D01*
X-1839200Y-5009300D02*
X-1839200Y-3871200D01*
X-2400000Y-5570100D02*
X-1839200Y-5009300D01*
X-1839200Y-3871200D02*
X4064000Y2032000D01*
%TD*%
M02*
