%TF.GenerationSoftware,KiCad,Pcbnew,8.0.1*%
%TF.CreationDate,2024-03-22T11:25:25-04:00*%
%TF.ProjectId,commapogo_female,636f6d6d-6170-46f6-976f-5f66656d616c,rev?*%
%TF.SameCoordinates,Original*%
%TF.FileFunction,Copper,L2,Inr*%
%TF.FilePolarity,Positive*%
%FSLAX46Y46*%
G04 Gerber Fmt 4.6, Leading zero omitted, Abs format (unit mm)*
G04 Created by KiCad (PCBNEW 8.0.1) date 2024-03-22 11:25:25*
%MOMM*%
%LPD*%
G01*
G04 APERTURE LIST*
%TA.AperFunction,ComponentPad*%
%ADD10O,1.000000X1.600000*%
%TD*%
%TA.AperFunction,ComponentPad*%
%ADD11O,1.000000X1.800000*%
%TD*%
%TA.AperFunction,ComponentPad*%
%ADD12O,1.000000X1.700000*%
%TD*%
%TA.AperFunction,ComponentPad*%
%ADD13C,0.600000*%
%TD*%
%TA.AperFunction,ViaPad*%
%ADD14C,0.800000*%
%TD*%
%TA.AperFunction,Conductor*%
%ADD15C,0.200000*%
%TD*%
G04 APERTURE END LIST*
D10*
%TO.N,GND*%
%TO.C,J2*%
X-4125000Y-5620000D03*
D11*
X-4485000Y-10010000D03*
X4485000Y-10010000D03*
D12*
X4125000Y-5620000D03*
D13*
X2800000Y-5020000D03*
%TO.N,/CAN2_P*%
X2400000Y-5720000D03*
%TO.N,/CAN2_N*%
X1600000Y-5720000D03*
%TO.N,+12V*%
X1200000Y-5020000D03*
%TO.N,unconnected-(J2-Pin_5b-PadB5)*%
X800000Y-5720000D03*
%TO.N,unconnected-(J2-Pin_6b-PadB6)*%
X400000Y-5020000D03*
%TO.N,unconnected-(J2-Pin_7b-PadB7)*%
X-400000Y-5020000D03*
%TO.N,/SBU2*%
X-800000Y-5720000D03*
%TO.N,+12V*%
X-1200000Y-5020000D03*
%TO.N,/CAN3_N*%
X-1600000Y-5720000D03*
%TO.N,/CAN3_P*%
X-2400000Y-5720000D03*
%TO.N,GND*%
X-2800000Y-5020000D03*
%TD*%
D14*
%TO.N,/CAN2_N*%
X5494800Y3708400D03*
%TO.N,/CAN1_P*%
X3987800Y-2709400D03*
X6646400Y355600D03*
%TO.N,/SBU1*%
X-45421Y-2747641D03*
X1955800Y3810000D03*
%TO.N,/CAN2_P*%
X6544800Y3708400D03*
%TO.N,/CAN1_N*%
X3987800Y-1659400D03*
X5596400Y355600D03*
%TO.N,/CAN0_P*%
X-6544800Y254000D03*
X-3530600Y-2709400D03*
%TO.N,/CAN3_N*%
X-5799600Y4114800D03*
%TO.N,/SBU2*%
X-1752594Y3860803D03*
%TO.N,/CAN3_P*%
X-6849600Y4114800D03*
%TO.N,/CAN0_N*%
X-3530600Y-1659400D03*
X-5494800Y254000D03*
%TD*%
D15*
%TO.N,/SBU2*%
X-4890000Y-343400D02*
X-4546600Y0D01*
X-4218073Y-6908800D02*
X-4890000Y-6236873D01*
X-1752594Y863606D02*
X-1752594Y3860803D01*
X-1988800Y-6908800D02*
X-4218073Y-6908800D01*
X-4890000Y-6236873D02*
X-4890000Y-343400D01*
X-2616200Y0D02*
X-1752594Y863606D01*
X-800000Y-5720000D02*
X-1988800Y-6908800D01*
X-4546600Y0D02*
X-2616200Y0D01*
%TD*%
M02*
