M48
; DRILL file {KiCad 8.0.1} date 2024-03-22T11:25:25-0400
; FORMAT={-:-/ absolute / inch / decimal}
; #@! TF.CreationDate,2024-03-22T11:25:25-04:00
; #@! TF.GenerationSoftware,Kicad,Pcbnew,8.0.1
; #@! TF.FileFunction,Plated,1,4,PTH
FMAT,2
INCH
; #@! TA.AperFunction,Plated,PTH,ViaDrill
T1C0.0157
; #@! TA.AperFunction,Plated,PTH,ComponentDrill
T2C0.0157
; #@! TA.AperFunction,Plated,PTH,ComponentDrill
T3C0.0197
%
G90
G05
T1
X-0.2697Y0.162
X-0.2577Y0.01
X-0.2283Y0.162
X-0.2163Y0.01
X-0.139Y-0.0653
X-0.139Y-0.1067
X-0.069Y0.152
X-0.0018Y-0.1082
X0.077Y0.15
X0.157Y-0.0653
X0.157Y-0.1067
X0.2163Y0.146
X0.2203Y0.014
X0.2577Y0.146
X0.2617Y0.014
T2
X-0.1102Y-0.1976
X-0.0945Y-0.2252
X-0.063Y-0.2252
X-0.0472Y-0.1976
X-0.0315Y-0.2252
X-0.0157Y-0.1976
X0.0157Y-0.1976
X0.0315Y-0.2252
X0.0472Y-0.1976
X0.063Y-0.2252
X0.0945Y-0.2252
X0.1102Y-0.1976
T3
G00X-0.1766Y-0.3823
M15
G01X-0.1766Y-0.4059
M16
G05
G00X-0.1624Y-0.2094
M15
G01X-0.1624Y-0.2331
M16
G05
G00X0.1624Y-0.2094
M15
G01X0.1624Y-0.2331
M16
G05
G00X0.1766Y-0.3823
M15
G01X0.1766Y-0.4059
M16
G05
M30
