%TF.GenerationSoftware,KiCad,Pcbnew,7.0.5*%
%TF.CreationDate,2024-03-20T22:46:36-04:00*%
%TF.ProjectId,commapogo_female,636f6d6d-6170-46f6-976f-5f66656d616c,rev?*%
%TF.SameCoordinates,Original*%
%TF.FileFunction,Copper,L1,Top*%
%TF.FilePolarity,Positive*%
%FSLAX46Y46*%
G04 Gerber Fmt 4.6, Leading zero omitted, Abs format (unit mm)*
G04 Created by KiCad (PCBNEW 7.0.5) date 2024-03-20 22:46:36*
%MOMM*%
%LPD*%
G01*
G04 APERTURE LIST*
%TA.AperFunction,SMDPad,CuDef*%
%ADD10C,2.500000*%
%TD*%
%TA.AperFunction,ComponentPad*%
%ADD11O,1.000000X1.600000*%
%TD*%
%TA.AperFunction,ComponentPad*%
%ADD12O,1.000000X1.800000*%
%TD*%
%TA.AperFunction,ComponentPad*%
%ADD13O,1.000000X1.700000*%
%TD*%
%TA.AperFunction,SMDPad,CuDef*%
%ADD14R,0.300000X1.000000*%
%TD*%
%TA.AperFunction,ComponentPad*%
%ADD15C,0.600000*%
%TD*%
%TA.AperFunction,ViaPad*%
%ADD16C,0.800000*%
%TD*%
%TA.AperFunction,Conductor*%
%ADD17C,0.400000*%
%TD*%
%TA.AperFunction,Conductor*%
%ADD18C,0.300000*%
%TD*%
G04 APERTURE END LIST*
D10*
%TO.P,J1,1,Pin_1a*%
%TO.N,+12V*%
X-12192000Y6096000D03*
%TO.P,J1,2,Pin_2a*%
%TO.N,/CAN3_H*%
X-8128000Y6096000D03*
%TO.P,J1,3,Pin_3a*%
%TO.N,/CAN3_L*%
X-4064000Y6096000D03*
%TO.P,J1,4,Pin_4a*%
%TO.N,/SBU2*%
X0Y6096000D03*
%TO.P,J1,5,Pin_5a*%
%TO.N,/CAN2_L*%
X4064000Y6096000D03*
%TO.P,J1,6,Pin_6a*%
%TO.N,/CAN2_H*%
X8128000Y6096000D03*
%TO.P,J1,7,Pin_7a*%
%TO.N,+12V*%
X12192000Y6096000D03*
%TO.P,J1,8,Pin_1b*%
%TO.N,GND*%
X-12192000Y2032000D03*
%TO.P,J1,9,Pin_2b*%
%TO.N,/CAN0_H*%
X-8128000Y2032000D03*
%TO.P,J1,10,Pin_3b*%
%TO.N,/CAN0_L*%
X-4064000Y2032000D03*
%TO.P,J1,11,Pin_4b*%
%TO.N,/SBU1*%
X0Y2032000D03*
%TO.P,J1,12,Pin_5b*%
%TO.N,/CAN1_L*%
X4064000Y2032000D03*
%TO.P,J1,13,Pin_6b*%
%TO.N,/CAN1_H*%
X8128000Y2032000D03*
%TO.P,J1,14,Pin_7b*%
%TO.N,GND*%
X12192000Y2032000D03*
%TD*%
D11*
%TO.P,J2,1*%
%TO.N,GND*%
X-4125000Y-5620000D03*
D12*
%TO.P,J2,2*%
X-4485000Y-10010000D03*
%TO.P,J2,3*%
X4485000Y-10010000D03*
D13*
%TO.P,J2,4*%
X4125000Y-5620000D03*
D14*
%TO.P,J2,A1,Pin_1a*%
X-2750000Y-3810000D03*
%TO.P,J2,A2,Pin_2a*%
%TO.N,/CAN0_H*%
X-2250000Y-3810000D03*
%TO.P,J2,A3,Pin_3a*%
%TO.N,/CAN0_L*%
X-1750000Y-3810000D03*
%TO.P,J2,A4,Pin_4a*%
%TO.N,+12V*%
X-1250000Y-3810000D03*
%TO.P,J2,A5,Pin_5a*%
%TO.N,unconnected-(J2-Pin_5a-PadA5)*%
X-750000Y-3810000D03*
%TO.P,J2,A6,Pin_6a*%
%TO.N,unconnected-(J2-Pin_6a-PadA6)*%
X-250000Y-3810000D03*
%TO.P,J2,A7,Pin_7a*%
%TO.N,unconnected-(J2-Pin_7a-PadA7)*%
X250000Y-3810000D03*
%TO.P,J2,A8,Pin_8a*%
%TO.N,/SBU1*%
X750000Y-3810000D03*
%TO.P,J2,A9,A9*%
%TO.N,+12V*%
X1250000Y-3810000D03*
%TO.P,J2,A10,Pin_10a*%
%TO.N,/CAN1_L*%
X1750000Y-3810000D03*
%TO.P,J2,A11,Pin_11a*%
%TO.N,/CAN1_H*%
X2250000Y-3810000D03*
%TO.P,J2,A12,Pin_12a*%
%TO.N,GND*%
X2750000Y-3810000D03*
D15*
%TO.P,J2,B1,B1*%
X2800000Y-5020000D03*
%TO.P,J2,B2,Pin_2b*%
%TO.N,/CAN2_H*%
X2400000Y-5720000D03*
%TO.P,J2,B3,Pin_3b*%
%TO.N,/CAN2_L*%
X1600000Y-5720000D03*
%TO.P,J2,B4,Pin_4b*%
%TO.N,+12V*%
X1200000Y-5020000D03*
%TO.P,J2,B5,Pin_5b*%
%TO.N,unconnected-(J2-Pin_5b-PadB5)*%
X800000Y-5720000D03*
%TO.P,J2,B6,Pin_6b*%
%TO.N,unconnected-(J2-Pin_6b-PadB6)*%
X400000Y-5020000D03*
%TO.P,J2,B7,Pin_7b*%
%TO.N,/SBU2*%
X-400000Y-5020000D03*
%TO.P,J2,B8,Pin_8b*%
X-800000Y-5720000D03*
%TO.P,J2,B9,Pin_9b*%
%TO.N,+12V*%
X-1200000Y-5020000D03*
%TO.P,J2,B10,Pin_10b*%
%TO.N,/CAN3_L*%
X-1600000Y-5720000D03*
%TO.P,J2,B11,Pin_11b*%
%TO.N,/CAN3_H*%
X-2400000Y-5720000D03*
%TO.P,J2,B12,Pin_12b*%
%TO.N,GND*%
X-2800000Y-5020000D03*
%TD*%
D16*
%TO.N,/CAN0_H*%
X-3168488Y-2647463D03*
X-8128000Y254000D03*
%TO.N,GND*%
X12192000Y254000D03*
X-12192000Y254000D03*
%TO.N,/CAN1_L*%
X4064000Y-127000D03*
X2539990Y-2032000D03*
%TO.N,/CAN1_H*%
X3683000Y-2159000D03*
X8255000Y0D03*
%TO.N,/CAN2_H*%
X6096000Y6096000D03*
%TO.N,/CAN2_L*%
X4064000Y4064000D03*
%TO.N,/SBU2*%
X1904960Y6096000D03*
%TO.N,/CAN3_L*%
X-2032000Y5969000D03*
%TO.N,/CAN3_H*%
X-6096000Y6096000D03*
%TD*%
D17*
%TO.N,+12V*%
X4395323Y-1282000D02*
X2127000Y-1282000D01*
X12192000Y6096000D02*
X9728000Y3632000D01*
X-10160000Y4064000D02*
X-12192000Y6096000D01*
X9728000Y3632000D02*
X7465258Y3632000D01*
X1250000Y-3810000D02*
X1250000Y-4970000D01*
X5664000Y1830742D02*
X5664000Y-13323D01*
X-1250000Y-2716498D02*
X-2413000Y-1553498D01*
X1250000Y-4970000D02*
X1200000Y-5020000D01*
X-2413000Y2643742D02*
X-3833258Y4064000D01*
X-1250000Y-4970000D02*
X-1250000Y-3810000D01*
X-3833258Y4064000D02*
X-10160000Y4064000D01*
X2127000Y-1282000D02*
X1250000Y-2159000D01*
X7465258Y3632000D02*
X5664000Y1830742D01*
X-1200000Y-5020000D02*
X-1250000Y-4970000D01*
X1250000Y-2159000D02*
X1250000Y-3810000D01*
X-1250000Y-3810000D02*
X-1250000Y-2716498D01*
X5664000Y-13323D02*
X4395323Y-1282000D01*
X-2413000Y-1553498D02*
X-2413000Y2643742D01*
D18*
%TO.N,/CAN0_H*%
X-2250000Y-3212396D02*
X-2814933Y-2647463D01*
X-2814933Y-2647463D02*
X-3168488Y-2647463D01*
X-8128000Y2032000D02*
X-8128000Y254000D01*
X-2250000Y-3810000D02*
X-2250000Y-3212396D01*
%TO.N,/CAN0_L*%
X-1750000Y-3076000D02*
X-1750000Y-3810000D01*
X-4064000Y2032000D02*
X-4064000Y-762000D01*
X-4064000Y-762000D02*
X-1750000Y-3076000D01*
D17*
%TO.N,GND*%
X2750000Y-3810000D02*
X2750000Y-4970000D01*
X2750000Y-4970000D02*
X2800000Y-5020000D01*
X-12192000Y254000D02*
X-12192000Y2032000D01*
X-2750000Y-4970000D02*
X-2800000Y-5020000D01*
X12192000Y2032000D02*
X12192000Y254000D01*
X-2750000Y-3810000D02*
X-2750000Y-4970000D01*
D18*
%TO.N,/SBU1*%
X750000Y-3810000D02*
X750000Y1282000D01*
X750000Y1282000D02*
X0Y2032000D01*
%TO.N,/CAN1_L*%
X4064000Y2032000D02*
X4064000Y-127000D01*
X1750000Y-3810000D02*
X1750000Y-2821990D01*
X1750000Y-2821990D02*
X2539990Y-2032000D01*
%TO.N,/CAN1_H*%
X2832000Y-3010000D02*
X3683000Y-2159000D01*
X2250000Y-3810000D02*
X2250000Y-3060000D01*
X8128000Y2032000D02*
X8128000Y127000D01*
X8128000Y127000D02*
X8255000Y0D01*
X2250000Y-3060000D02*
X2300000Y-3010000D01*
X2300000Y-3010000D02*
X2832000Y-3010000D01*
%TO.N,/CAN2_H*%
X8128000Y6096000D02*
X6096000Y6096000D01*
%TO.N,/CAN2_L*%
X4064000Y6096000D02*
X4064000Y4064000D01*
%TO.N,/SBU2*%
X0Y6096000D02*
X1904960Y6096000D01*
%TO.N,/CAN3_L*%
X-4064000Y6096000D02*
X-2159000Y6096000D01*
X-2159000Y6096000D02*
X-2032000Y5969000D01*
%TO.N,/CAN3_H*%
X-8128000Y6096000D02*
X-6096000Y6096000D01*
%TD*%
M02*
