%TF.GenerationSoftware,KiCad,Pcbnew,8.0.1*%
%TF.CreationDate,2024-03-26T16:51:19-04:00*%
%TF.ProjectId,commapogo_female,636f6d6d-6170-46f6-976f-5f66656d616c,rev?*%
%TF.SameCoordinates,Original*%
%TF.FileFunction,Copper,L4,Bot*%
%TF.FilePolarity,Positive*%
%FSLAX46Y46*%
G04 Gerber Fmt 4.6, Leading zero omitted, Abs format (unit mm)*
G04 Created by KiCad (PCBNEW 8.0.1) date 2024-03-26 16:51:19*
%MOMM*%
%LPD*%
G01*
G04 APERTURE LIST*
%TA.AperFunction,ComponentPad*%
%ADD10O,1.000000X1.600000*%
%TD*%
%TA.AperFunction,ComponentPad*%
%ADD11O,1.000000X1.800000*%
%TD*%
%TA.AperFunction,ComponentPad*%
%ADD12O,1.000000X1.700000*%
%TD*%
%TA.AperFunction,ComponentPad*%
%ADD13C,0.600000*%
%TD*%
%TA.AperFunction,ViaPad*%
%ADD14C,0.800000*%
%TD*%
%TA.AperFunction,Conductor*%
%ADD15C,0.250000*%
%TD*%
G04 APERTURE END LIST*
D10*
%TO.P,J2,1*%
%TO.N,GND*%
X-4125000Y-5620000D03*
D11*
%TO.P,J2,2*%
X-4485000Y-10010000D03*
%TO.P,J2,3*%
X4485000Y-10010000D03*
D12*
%TO.P,J2,4*%
X4125000Y-5620000D03*
D13*
%TO.P,J2,B1,B1*%
X2800000Y-5020000D03*
%TO.P,J2,B2,Pin_2b*%
%TO.N,/CAN2_P*%
X2400000Y-5720000D03*
%TO.P,J2,B3,Pin_3b*%
%TO.N,/CAN2_N*%
X1600000Y-5720000D03*
%TO.P,J2,B4,Pin_4b*%
%TO.N,+12V*%
X1200000Y-5020000D03*
%TO.P,J2,B5,Pin_5b*%
%TO.N,unconnected-(J2-Pin_5b-PadB5)*%
X800000Y-5720000D03*
%TO.P,J2,B6,Pin_6b*%
%TO.N,unconnected-(J2-Pin_6b-PadB6)*%
X400000Y-5020000D03*
%TO.P,J2,B7,Pin_7b*%
%TO.N,unconnected-(J2-Pin_7b-PadB7)*%
X-400000Y-5020000D03*
%TO.P,J2,B8,Pin_8b*%
%TO.N,/SBU2*%
X-800000Y-5720000D03*
%TO.P,J2,B9,Pin_9b*%
%TO.N,+12V*%
X-1200000Y-5020000D03*
%TO.P,J2,B10,Pin_10b*%
%TO.N,/CAN3_N*%
X-1600000Y-5720000D03*
%TO.P,J2,B11,Pin_11b*%
%TO.N,/CAN3_P*%
X-2400000Y-5720000D03*
%TO.P,J2,B12,Pin_12b*%
%TO.N,GND*%
X-2800000Y-5020000D03*
%TD*%
D14*
%TO.N,/CAN2_N*%
X5494800Y3708400D03*
%TO.N,/CAN1_P*%
X3987800Y-2709400D03*
X6646400Y355600D03*
%TO.N,/SBU1*%
X-45421Y-2747641D03*
X1955800Y3810000D03*
%TO.N,/CAN2_P*%
X6544800Y3708400D03*
%TO.N,/CAN1_N*%
X3987800Y-1659400D03*
X5596400Y355600D03*
%TO.N,/CAN0_P*%
X-6544800Y254000D03*
X-3530600Y-2709400D03*
%TO.N,/CAN3_N*%
X-5799600Y4114800D03*
%TO.N,/SBU2*%
X-1752594Y3860803D03*
%TO.N,/CAN3_P*%
X-6849600Y4114800D03*
%TO.N,/CAN0_N*%
X-3530600Y-1659400D03*
X-5494800Y254000D03*
%TD*%
D15*
%TO.N,+12V*%
X-1200000Y-4595736D02*
X-1200000Y-5020000D01*
X-1034264Y-4430000D02*
X-1200000Y-4595736D01*
X1200000Y-4595736D02*
X1034264Y-4430000D01*
X1034264Y-4430000D02*
X-1034264Y-4430000D01*
X1200000Y-5020000D02*
X1200000Y-4595736D01*
%TD*%
%TA.AperFunction,Conductor*%
%TO.N,GND*%
G36*
X-3133494Y-5102452D02*
G01*
X-3077560Y-5144323D01*
X-3053143Y-5209788D01*
X-3067995Y-5278061D01*
X-3071833Y-5284605D01*
X-3125788Y-5370474D01*
X-3185369Y-5540745D01*
X-3185370Y-5540750D01*
X-3205565Y-5719996D01*
X-3205565Y-5720001D01*
X-3204200Y-5732115D01*
X-3216254Y-5800937D01*
X-3263603Y-5852317D01*
X-3327420Y-5870000D01*
X-3875000Y-5870000D01*
X-3875000Y-5370000D01*
X-3503554Y-5370000D01*
X-3503554Y-5369999D01*
X-3264508Y-5130953D01*
X-3203185Y-5097468D01*
X-3133494Y-5102452D01*
G37*
%TD.AperFunction*%
%TA.AperFunction,Conductor*%
G36*
X3258980Y-5125754D02*
G01*
X3264507Y-5130953D01*
X3503554Y-5370000D01*
X3875000Y-5370000D01*
X3875000Y-5870000D01*
X3327420Y-5870000D01*
X3260381Y-5850315D01*
X3214626Y-5797511D01*
X3204200Y-5732115D01*
X3205565Y-5720001D01*
X3205565Y-5719996D01*
X3185369Y-5540750D01*
X3185368Y-5540745D01*
X3125788Y-5370476D01*
X3071832Y-5284606D01*
X3052832Y-5217370D01*
X3073200Y-5150534D01*
X3126467Y-5105320D01*
X3195724Y-5096082D01*
X3258980Y-5125754D01*
G37*
%TD.AperFunction*%
%TA.AperFunction,Conductor*%
G36*
X18430677Y10140315D02*
G01*
X18451319Y10123681D01*
X20283681Y8291319D01*
X20317166Y8229996D01*
X20320000Y8203638D01*
X20320000Y4496362D01*
X20300315Y4429323D01*
X20283681Y4408681D01*
X12065000Y-3809999D01*
X12065000Y-9473638D01*
X12045315Y-9540677D01*
X12028681Y-9561319D01*
X9561319Y-12028681D01*
X9499996Y-12062166D01*
X9473638Y-12065000D01*
X0Y-12065000D01*
X-9473638Y-12065000D01*
X-9540677Y-12045315D01*
X-9561319Y-12028681D01*
X-11081505Y-10508495D01*
X-5485000Y-10508495D01*
X-5446573Y-10701681D01*
X-5446570Y-10701693D01*
X-5371193Y-10883671D01*
X-5371186Y-10883684D01*
X-5261752Y-11047462D01*
X-5261749Y-11047466D01*
X-5122467Y-11186748D01*
X-5122463Y-11186751D01*
X-4958685Y-11296185D01*
X-4958672Y-11296192D01*
X-4776692Y-11371569D01*
X-4735000Y-11379862D01*
X-4735000Y-10359728D01*
X-4696940Y-10451614D01*
X-4626614Y-10521940D01*
X-4534728Y-10560000D01*
X-4435272Y-10560000D01*
X-4343386Y-10521940D01*
X-4273060Y-10451614D01*
X-4235000Y-10359728D01*
X-4235000Y-11379862D01*
X-4193310Y-11371569D01*
X-4193308Y-11371569D01*
X-4011329Y-11296192D01*
X-4011316Y-11296185D01*
X-3847538Y-11186751D01*
X-3847534Y-11186748D01*
X-3708252Y-11047466D01*
X-3708249Y-11047462D01*
X-3598815Y-10883684D01*
X-3598808Y-10883671D01*
X-3523431Y-10701693D01*
X-3523428Y-10701681D01*
X-3485001Y-10508495D01*
X3485000Y-10508495D01*
X3523427Y-10701681D01*
X3523430Y-10701693D01*
X3598807Y-10883671D01*
X3598814Y-10883684D01*
X3708248Y-11047462D01*
X3708251Y-11047466D01*
X3847533Y-11186748D01*
X3847537Y-11186751D01*
X4011315Y-11296185D01*
X4011328Y-11296192D01*
X4193308Y-11371569D01*
X4235000Y-11379862D01*
X4235000Y-10359728D01*
X4273060Y-10451614D01*
X4343386Y-10521940D01*
X4435272Y-10560000D01*
X4534728Y-10560000D01*
X4626614Y-10521940D01*
X4696940Y-10451614D01*
X4735000Y-10359728D01*
X4735000Y-11379862D01*
X4776690Y-11371569D01*
X4776692Y-11371569D01*
X4958671Y-11296192D01*
X4958684Y-11296185D01*
X5122462Y-11186751D01*
X5122466Y-11186748D01*
X5261748Y-11047466D01*
X5261751Y-11047462D01*
X5371185Y-10883684D01*
X5371192Y-10883671D01*
X5446569Y-10701693D01*
X5446572Y-10701681D01*
X5484999Y-10508495D01*
X5485000Y-10508492D01*
X5485000Y-10260000D01*
X4735000Y-10260000D01*
X4735000Y-9760000D01*
X5485000Y-9760000D01*
X5485000Y-9511508D01*
X5484999Y-9511504D01*
X5446572Y-9318318D01*
X5446569Y-9318306D01*
X5371192Y-9136328D01*
X5371185Y-9136315D01*
X5261751Y-8972537D01*
X5261748Y-8972533D01*
X5122466Y-8833251D01*
X5122462Y-8833248D01*
X4958684Y-8723814D01*
X4958671Y-8723807D01*
X4776691Y-8648429D01*
X4776683Y-8648427D01*
X4735000Y-8640135D01*
X4735000Y-9660272D01*
X4696940Y-9568386D01*
X4626614Y-9498060D01*
X4534728Y-9460000D01*
X4435272Y-9460000D01*
X4343386Y-9498060D01*
X4273060Y-9568386D01*
X4235000Y-9660272D01*
X4235000Y-8640136D01*
X4234999Y-8640135D01*
X4193316Y-8648427D01*
X4193308Y-8648429D01*
X4011328Y-8723807D01*
X4011315Y-8723814D01*
X3847537Y-8833248D01*
X3847533Y-8833251D01*
X3708251Y-8972533D01*
X3708248Y-8972537D01*
X3598814Y-9136315D01*
X3598807Y-9136328D01*
X3523430Y-9318306D01*
X3523427Y-9318318D01*
X3485000Y-9511504D01*
X3485000Y-9760000D01*
X4235000Y-9760000D01*
X4235000Y-10260000D01*
X3485000Y-10260000D01*
X3485000Y-10508495D01*
X-3485001Y-10508495D01*
X-3485000Y-10508492D01*
X-3485000Y-10260000D01*
X-4235000Y-10260000D01*
X-4235000Y-9760000D01*
X-3485000Y-9760000D01*
X-3485000Y-9511508D01*
X-3485001Y-9511504D01*
X-3523428Y-9318318D01*
X-3523431Y-9318306D01*
X-3598808Y-9136328D01*
X-3598815Y-9136315D01*
X-3708249Y-8972537D01*
X-3708252Y-8972533D01*
X-3847534Y-8833251D01*
X-3847538Y-8833248D01*
X-4011316Y-8723814D01*
X-4011329Y-8723807D01*
X-4193309Y-8648429D01*
X-4193317Y-8648427D01*
X-4235000Y-8640135D01*
X-4235000Y-9660272D01*
X-4273060Y-9568386D01*
X-4343386Y-9498060D01*
X-4435272Y-9460000D01*
X-4534728Y-9460000D01*
X-4626614Y-9498060D01*
X-4696940Y-9568386D01*
X-4735000Y-9660272D01*
X-4735000Y-8640136D01*
X-4735001Y-8640135D01*
X-4776684Y-8648427D01*
X-4776692Y-8648429D01*
X-4958672Y-8723807D01*
X-4958685Y-8723814D01*
X-5122463Y-8833248D01*
X-5122467Y-8833251D01*
X-5261749Y-8972533D01*
X-5261752Y-8972537D01*
X-5371186Y-9136315D01*
X-5371193Y-9136328D01*
X-5446570Y-9318306D01*
X-5446573Y-9318318D01*
X-5485000Y-9511504D01*
X-5485000Y-9760000D01*
X-4735000Y-9760000D01*
X-4735000Y-10260000D01*
X-5485000Y-10260000D01*
X-5485000Y-10508495D01*
X-11081505Y-10508495D01*
X-12028681Y-9561319D01*
X-12062166Y-9499996D01*
X-12065000Y-9473638D01*
X-12065000Y-8496741D01*
X-10259500Y-8496741D01*
X-10239529Y-8648427D01*
X-10229548Y-8724238D01*
X-10229547Y-8724240D01*
X-10170158Y-8945887D01*
X-10082350Y-9157876D01*
X-10082343Y-9157890D01*
X-9967608Y-9356617D01*
X-9827919Y-9538661D01*
X-9827911Y-9538670D01*
X-9665670Y-9700911D01*
X-9665662Y-9700918D01*
X-9483618Y-9840607D01*
X-9483615Y-9840608D01*
X-9483612Y-9840611D01*
X-9284888Y-9955344D01*
X-9284883Y-9955346D01*
X-9284877Y-9955349D01*
X-9193520Y-9993190D01*
X-9072887Y-10043158D01*
X-8851238Y-10102548D01*
X-8623734Y-10132500D01*
X-8623727Y-10132500D01*
X-8394273Y-10132500D01*
X-8394266Y-10132500D01*
X-8166762Y-10102548D01*
X-7945113Y-10043158D01*
X-7733112Y-9955344D01*
X-7534388Y-9840611D01*
X-7352339Y-9700919D01*
X-7352335Y-9700914D01*
X-7352330Y-9700911D01*
X-7190089Y-9538670D01*
X-7190086Y-9538665D01*
X-7190081Y-9538661D01*
X-7050389Y-9356612D01*
X-6935656Y-9157888D01*
X-6847842Y-8945887D01*
X-6788452Y-8724238D01*
X-6758501Y-8496741D01*
X6758500Y-8496741D01*
X6778471Y-8648427D01*
X6788452Y-8724238D01*
X6788453Y-8724240D01*
X6847842Y-8945887D01*
X6935650Y-9157876D01*
X6935657Y-9157890D01*
X7050392Y-9356617D01*
X7190081Y-9538661D01*
X7190089Y-9538670D01*
X7352330Y-9700911D01*
X7352338Y-9700918D01*
X7534382Y-9840607D01*
X7534385Y-9840608D01*
X7534388Y-9840611D01*
X7733112Y-9955344D01*
X7733117Y-9955346D01*
X7733123Y-9955349D01*
X7824480Y-9993190D01*
X7945113Y-10043158D01*
X8166762Y-10102548D01*
X8394266Y-10132500D01*
X8394273Y-10132500D01*
X8623727Y-10132500D01*
X8623734Y-10132500D01*
X8851238Y-10102548D01*
X9072887Y-10043158D01*
X9284888Y-9955344D01*
X9483612Y-9840611D01*
X9665661Y-9700919D01*
X9665665Y-9700914D01*
X9665670Y-9700911D01*
X9827911Y-9538670D01*
X9827914Y-9538665D01*
X9827919Y-9538661D01*
X9967611Y-9356612D01*
X10082344Y-9157888D01*
X10170158Y-8945887D01*
X10229548Y-8724238D01*
X10259500Y-8496734D01*
X10259500Y-8267266D01*
X10229548Y-8039762D01*
X10170158Y-7818113D01*
X10082344Y-7606112D01*
X9967611Y-7407388D01*
X9967608Y-7407385D01*
X9967607Y-7407382D01*
X9827918Y-7225338D01*
X9827911Y-7225330D01*
X9665670Y-7063089D01*
X9665661Y-7063081D01*
X9483617Y-6923392D01*
X9284890Y-6808657D01*
X9284876Y-6808650D01*
X9072887Y-6720842D01*
X8851238Y-6661452D01*
X8813215Y-6656446D01*
X8623741Y-6631500D01*
X8623734Y-6631500D01*
X8394266Y-6631500D01*
X8394258Y-6631500D01*
X8177715Y-6660009D01*
X8166762Y-6661452D01*
X8073076Y-6686554D01*
X7945112Y-6720842D01*
X7733123Y-6808650D01*
X7733109Y-6808657D01*
X7534382Y-6923392D01*
X7352338Y-7063081D01*
X7190081Y-7225338D01*
X7050392Y-7407382D01*
X6935657Y-7606109D01*
X6935650Y-7606123D01*
X6847842Y-7818112D01*
X6788453Y-8039759D01*
X6788451Y-8039770D01*
X6758500Y-8267258D01*
X6758500Y-8496741D01*
X-6758501Y-8496741D01*
X-6758500Y-8496734D01*
X-6758500Y-8267266D01*
X-6788452Y-8039762D01*
X-6847842Y-7818113D01*
X-6935656Y-7606112D01*
X-7050389Y-7407388D01*
X-7050392Y-7407385D01*
X-7050393Y-7407382D01*
X-7190082Y-7225338D01*
X-7190089Y-7225330D01*
X-7352330Y-7063089D01*
X-7352339Y-7063081D01*
X-7534383Y-6923392D01*
X-7733110Y-6808657D01*
X-7733124Y-6808650D01*
X-7945113Y-6720842D01*
X-8166762Y-6661452D01*
X-8204785Y-6656446D01*
X-8394259Y-6631500D01*
X-8394266Y-6631500D01*
X-8623734Y-6631500D01*
X-8623742Y-6631500D01*
X-8840285Y-6660009D01*
X-8851238Y-6661452D01*
X-8944924Y-6686554D01*
X-9072888Y-6720842D01*
X-9284877Y-6808650D01*
X-9284891Y-6808657D01*
X-9483618Y-6923392D01*
X-9665662Y-7063081D01*
X-9827919Y-7225338D01*
X-9967608Y-7407382D01*
X-10082343Y-7606109D01*
X-10082350Y-7606123D01*
X-10170158Y-7818112D01*
X-10229547Y-8039759D01*
X-10229549Y-8039770D01*
X-10259500Y-8267258D01*
X-10259500Y-8496741D01*
X-12065000Y-8496741D01*
X-12065000Y-6018495D01*
X-5125000Y-6018495D01*
X-5086573Y-6211681D01*
X-5086570Y-6211693D01*
X-5011193Y-6393671D01*
X-5011186Y-6393684D01*
X-4901752Y-6557462D01*
X-4901749Y-6557466D01*
X-4762467Y-6696748D01*
X-4762463Y-6696751D01*
X-4598685Y-6806185D01*
X-4598672Y-6806192D01*
X-4416692Y-6881569D01*
X-4375000Y-6889862D01*
X-4375000Y-5969728D01*
X-4336940Y-6061614D01*
X-4266614Y-6131940D01*
X-4174728Y-6170000D01*
X-4075272Y-6170000D01*
X-3983386Y-6131940D01*
X-3913060Y-6061614D01*
X-3875000Y-5969728D01*
X-3875000Y-6889862D01*
X-3833310Y-6881569D01*
X-3833308Y-6881569D01*
X-3651329Y-6806192D01*
X-3651316Y-6806185D01*
X-3487538Y-6696751D01*
X-3487534Y-6696748D01*
X-3348252Y-6557466D01*
X-3348249Y-6557462D01*
X-3238815Y-6393684D01*
X-3238811Y-6393677D01*
X-3198411Y-6296140D01*
X-3154570Y-6241736D01*
X-3088276Y-6219670D01*
X-3020577Y-6236948D01*
X-2996168Y-6255910D01*
X-2902262Y-6349816D01*
X-2811920Y-6406582D01*
X-2751746Y-6444392D01*
X-2749522Y-6445789D01*
X-2579261Y-6505366D01*
X-2579255Y-6505368D01*
X-2579250Y-6505369D01*
X-2400004Y-6525565D01*
X-2400000Y-6525565D01*
X-2399996Y-6525565D01*
X-2220751Y-6505369D01*
X-2220749Y-6505368D01*
X-2220745Y-6505368D01*
X-2220742Y-6505366D01*
X-2220738Y-6505366D01*
X-2043905Y-6443489D01*
X-2043154Y-6445637D01*
X-1984872Y-6436035D01*
X-1956412Y-6444392D01*
X-1956095Y-6443489D01*
X-1779263Y-6505366D01*
X-1779257Y-6505367D01*
X-1779255Y-6505368D01*
X-1779254Y-6505368D01*
X-1779250Y-6505369D01*
X-1600004Y-6525565D01*
X-1600000Y-6525565D01*
X-1599996Y-6525565D01*
X-1420751Y-6505369D01*
X-1420749Y-6505368D01*
X-1420745Y-6505368D01*
X-1420742Y-6505366D01*
X-1420738Y-6505366D01*
X-1243905Y-6443489D01*
X-1243154Y-6445637D01*
X-1184872Y-6436035D01*
X-1156412Y-6444392D01*
X-1156095Y-6443489D01*
X-979263Y-6505366D01*
X-979257Y-6505367D01*
X-979255Y-6505368D01*
X-979254Y-6505368D01*
X-979250Y-6505369D01*
X-800004Y-6525565D01*
X-800000Y-6525565D01*
X-799996Y-6525565D01*
X-620751Y-6505369D01*
X-620748Y-6505368D01*
X-620745Y-6505368D01*
X-450478Y-6445789D01*
X-297738Y-6349816D01*
X-170184Y-6222262D01*
X-104993Y-6118510D01*
X-52659Y-6072221D01*
X16394Y-6061573D01*
X80243Y-6089948D01*
X104992Y-6118509D01*
X170184Y-6222262D01*
X297738Y-6349816D01*
X388080Y-6406582D01*
X448254Y-6444392D01*
X450478Y-6445789D01*
X620739Y-6505366D01*
X620745Y-6505368D01*
X620750Y-6505369D01*
X799996Y-6525565D01*
X800000Y-6525565D01*
X800004Y-6525565D01*
X979249Y-6505369D01*
X979251Y-6505368D01*
X979255Y-6505368D01*
X979258Y-6505366D01*
X979262Y-6505366D01*
X1156095Y-6443489D01*
X1156846Y-6445637D01*
X1215128Y-6436035D01*
X1243588Y-6444392D01*
X1243905Y-6443489D01*
X1420737Y-6505366D01*
X1420743Y-6505367D01*
X1420745Y-6505368D01*
X1420746Y-6505368D01*
X1420750Y-6505369D01*
X1599996Y-6525565D01*
X1600000Y-6525565D01*
X1600004Y-6525565D01*
X1779249Y-6505369D01*
X1779251Y-6505368D01*
X1779255Y-6505368D01*
X1779258Y-6505366D01*
X1779262Y-6505366D01*
X1956095Y-6443489D01*
X1956846Y-6445637D01*
X2015128Y-6436035D01*
X2043588Y-6444392D01*
X2043905Y-6443489D01*
X2220737Y-6505366D01*
X2220743Y-6505367D01*
X2220745Y-6505368D01*
X2220746Y-6505368D01*
X2220750Y-6505369D01*
X2399996Y-6525565D01*
X2400000Y-6525565D01*
X2400004Y-6525565D01*
X2579249Y-6505369D01*
X2579252Y-6505368D01*
X2579255Y-6505368D01*
X2749522Y-6445789D01*
X2902262Y-6349816D01*
X2981525Y-6270552D01*
X3042844Y-6237070D01*
X3112536Y-6242054D01*
X3168470Y-6283925D01*
X3183764Y-6310783D01*
X3238809Y-6443675D01*
X3238814Y-6443684D01*
X3348248Y-6607462D01*
X3348251Y-6607466D01*
X3487533Y-6746748D01*
X3487537Y-6746751D01*
X3651315Y-6856185D01*
X3651328Y-6856192D01*
X3833308Y-6931569D01*
X3875000Y-6939862D01*
X3875000Y-5969728D01*
X3913060Y-6061614D01*
X3983386Y-6131940D01*
X4075272Y-6170000D01*
X4174728Y-6170000D01*
X4266614Y-6131940D01*
X4336940Y-6061614D01*
X4375000Y-5969728D01*
X4375000Y-6939862D01*
X4416690Y-6931569D01*
X4416692Y-6931569D01*
X4598671Y-6856192D01*
X4598684Y-6856185D01*
X4762462Y-6746751D01*
X4762466Y-6746748D01*
X4901748Y-6607466D01*
X4901751Y-6607462D01*
X5011185Y-6443684D01*
X5011192Y-6443671D01*
X5086569Y-6261693D01*
X5086572Y-6261681D01*
X5124999Y-6068495D01*
X5125000Y-6068492D01*
X5125000Y-5870000D01*
X4375000Y-5870000D01*
X4375000Y-5370000D01*
X5125000Y-5370000D01*
X5125000Y-5171508D01*
X5124999Y-5171504D01*
X5086572Y-4978318D01*
X5086569Y-4978306D01*
X5011192Y-4796328D01*
X5011185Y-4796315D01*
X4901751Y-4632537D01*
X4901748Y-4632533D01*
X4762466Y-4493251D01*
X4762462Y-4493248D01*
X4598684Y-4383814D01*
X4598671Y-4383807D01*
X4416693Y-4308430D01*
X4416681Y-4308427D01*
X4242324Y-4273745D01*
X4180413Y-4241360D01*
X4146740Y-4184221D01*
X4138672Y-4154111D01*
X4126281Y-4107865D01*
X4125638Y-4106752D01*
X4084563Y-4035608D01*
X4050515Y-3976635D01*
X3943365Y-3869485D01*
X3894525Y-3841287D01*
X3846309Y-3790720D01*
X3833087Y-3722113D01*
X3859055Y-3657248D01*
X3915969Y-3616720D01*
X3956525Y-3609900D01*
X4082444Y-3609900D01*
X4082446Y-3609900D01*
X4267603Y-3570544D01*
X4440530Y-3493551D01*
X4593671Y-3382288D01*
X4720333Y-3241616D01*
X4814979Y-3077684D01*
X4873474Y-2897656D01*
X4893260Y-2709400D01*
X4873474Y-2521144D01*
X4814979Y-2341116D01*
X4760293Y-2246397D01*
X4743821Y-2178500D01*
X4760294Y-2122401D01*
X4814979Y-2027684D01*
X4873474Y-1847656D01*
X4893260Y-1659400D01*
X4873474Y-1471144D01*
X4814979Y-1291116D01*
X4720333Y-1127184D01*
X4593671Y-986512D01*
X4593670Y-986511D01*
X4440534Y-875251D01*
X4440529Y-875248D01*
X4267607Y-798257D01*
X4267602Y-798255D01*
X4121801Y-767265D01*
X4082446Y-758900D01*
X3893154Y-758900D01*
X3860697Y-765798D01*
X3707997Y-798255D01*
X3707992Y-798257D01*
X3535070Y-875248D01*
X3535065Y-875251D01*
X3381929Y-986511D01*
X3255266Y-1127185D01*
X3160621Y-1291115D01*
X3160618Y-1291122D01*
X3102127Y-1471140D01*
X3102126Y-1471144D01*
X3082340Y-1659400D01*
X3102126Y-1847656D01*
X3102127Y-1847659D01*
X3160621Y-2027686D01*
X3160622Y-2027688D01*
X3215304Y-2122401D01*
X3231777Y-2190301D01*
X3215304Y-2246399D01*
X3160622Y-2341111D01*
X3160621Y-2341113D01*
X3102127Y-2521140D01*
X3102126Y-2521144D01*
X3082340Y-2709400D01*
X3102126Y-2897656D01*
X3102127Y-2897659D01*
X3160618Y-3077677D01*
X3160621Y-3077684D01*
X3255267Y-3241616D01*
X3381929Y-3382288D01*
X3535065Y-3493548D01*
X3535070Y-3493551D01*
X3588233Y-3517221D01*
X3641470Y-3562471D01*
X3661791Y-3629320D01*
X3642746Y-3696544D01*
X3590379Y-3742799D01*
X3537797Y-3754500D01*
X3514234Y-3754500D01*
X3367863Y-3793719D01*
X3236635Y-3869485D01*
X3236632Y-3869487D01*
X3129487Y-3976632D01*
X3129485Y-3976635D01*
X3053718Y-4107865D01*
X3053718Y-4107866D01*
X3046052Y-4136476D01*
X3009687Y-4196136D01*
X2946839Y-4226664D01*
X2912395Y-4227601D01*
X2800004Y-4214938D01*
X2799997Y-4214938D01*
X2620861Y-4235121D01*
X2620858Y-4235122D01*
X2450701Y-4294662D01*
X2450691Y-4294667D01*
X2436891Y-4303337D01*
X2436891Y-4303338D01*
X2800000Y-4666447D01*
X2989045Y-4855491D01*
X3022530Y-4916814D01*
X3017546Y-4986505D01*
X3000000Y-5009944D01*
X3000000Y-4980218D01*
X2969552Y-4906709D01*
X2913291Y-4850448D01*
X2839782Y-4820000D01*
X2760218Y-4820000D01*
X2686709Y-4850448D01*
X2630448Y-4906709D01*
X2613865Y-4946742D01*
X2579254Y-4934631D01*
X2579249Y-4934630D01*
X2400004Y-4914435D01*
X2393037Y-4914435D01*
X2393037Y-4911442D01*
X2337316Y-4901646D01*
X2304642Y-4878196D01*
X2083338Y-4656891D01*
X2063229Y-4659157D01*
X2052951Y-4668248D01*
X1983897Y-4678895D01*
X1920049Y-4650518D01*
X1895302Y-4621958D01*
X1830891Y-4519450D01*
X1814270Y-4477674D01*
X1801463Y-4413284D01*
X1782869Y-4368394D01*
X1758032Y-4308430D01*
X1754315Y-4299456D01*
X1754313Y-4299453D01*
X1754312Y-4299450D01*
X1711001Y-4234632D01*
X1685858Y-4197003D01*
X1685857Y-4197002D01*
X1685856Y-4197000D01*
X1595637Y-4106781D01*
X1595606Y-4106752D01*
X1524462Y-4035608D01*
X1524442Y-4035586D01*
X1432999Y-3944143D01*
X1406888Y-3926697D01*
X1381129Y-3909485D01*
X1330550Y-3875688D01*
X1330551Y-3875688D01*
X1330549Y-3875687D01*
X1279888Y-3854703D01*
X1229226Y-3833719D01*
X1221723Y-3830611D01*
X1216719Y-3828538D01*
X1216717Y-3828537D01*
X1216716Y-3828537D01*
X1156293Y-3816518D01*
X1095874Y-3804500D01*
X1095871Y-3804500D01*
X1095870Y-3804500D01*
X378172Y-3804500D01*
X311133Y-3784815D01*
X265378Y-3732011D01*
X255434Y-3662853D01*
X284459Y-3599297D01*
X327736Y-3567221D01*
X364670Y-3550776D01*
X407309Y-3531792D01*
X560450Y-3420529D01*
X687112Y-3279857D01*
X781758Y-3115925D01*
X840253Y-2935897D01*
X860039Y-2747641D01*
X840253Y-2559385D01*
X781758Y-2379357D01*
X687112Y-2215425D01*
X560450Y-2074753D01*
X560449Y-2074752D01*
X407313Y-1963492D01*
X407308Y-1963489D01*
X234386Y-1886498D01*
X234381Y-1886496D01*
X88580Y-1855506D01*
X49225Y-1847141D01*
X-140067Y-1847141D01*
X-172524Y-1854039D01*
X-325224Y-1886496D01*
X-325229Y-1886498D01*
X-498151Y-1963489D01*
X-498156Y-1963492D01*
X-651292Y-2074752D01*
X-777955Y-2215426D01*
X-872600Y-2379356D01*
X-872603Y-2379363D01*
X-918670Y-2521144D01*
X-931095Y-2559385D01*
X-950881Y-2747641D01*
X-931095Y-2935897D01*
X-931094Y-2935900D01*
X-872603Y-3115918D01*
X-872600Y-3115925D01*
X-777954Y-3279857D01*
X-685724Y-3382288D01*
X-651292Y-3420529D01*
X-498156Y-3531789D01*
X-498151Y-3531792D01*
X-418578Y-3567221D01*
X-365341Y-3612471D01*
X-345020Y-3679321D01*
X-364066Y-3746544D01*
X-416432Y-3792799D01*
X-469014Y-3804500D01*
X-1095875Y-3804500D01*
X-1156293Y-3816518D01*
X-1216716Y-3828537D01*
X-1216717Y-3828537D01*
X-1216720Y-3828538D01*
X-1216721Y-3828538D01*
X-1228443Y-3833394D01*
X-1229226Y-3833719D01*
X-1266656Y-3849222D01*
X-1330550Y-3875687D01*
X-1368396Y-3900976D01*
X-1381129Y-3909485D01*
X-1432997Y-3944142D01*
X-1520122Y-4031267D01*
X-1520125Y-4031270D01*
X-1598730Y-4109875D01*
X-1598733Y-4109878D01*
X-1625331Y-4136476D01*
X-1685858Y-4197002D01*
X-1697842Y-4214938D01*
X-1711001Y-4234632D01*
X-1737136Y-4273745D01*
X-1754316Y-4299456D01*
X-1782869Y-4368393D01*
X-1801462Y-4413279D01*
X-1801465Y-4413291D01*
X-1814271Y-4477672D01*
X-1830895Y-4519454D01*
X-1895304Y-4621959D01*
X-1947638Y-4668249D01*
X-2016692Y-4678897D01*
X-2060388Y-4659477D01*
X-2083340Y-4656892D01*
X-2304644Y-4878196D01*
X-2365967Y-4911681D01*
X-2393037Y-4913067D01*
X-2393037Y-4914435D01*
X-2400004Y-4914435D01*
X-2579250Y-4934630D01*
X-2579255Y-4934631D01*
X-2613867Y-4946742D01*
X-2630448Y-4906709D01*
X-2686709Y-4850448D01*
X-2760218Y-4820000D01*
X-2839782Y-4820000D01*
X-2913291Y-4850448D01*
X-2969552Y-4906709D01*
X-3000000Y-4980218D01*
X-3000000Y-5010823D01*
X-3014679Y-4993529D01*
X-3023916Y-4924273D01*
X-2994244Y-4861017D01*
X-2989046Y-4855490D01*
X-2800000Y-4666446D01*
X-2436894Y-4303338D01*
X-2450696Y-4294665D01*
X-2620862Y-4235121D01*
X-2799997Y-4214938D01*
X-2800004Y-4214938D01*
X-2932685Y-4229887D01*
X-3001507Y-4217832D01*
X-3052886Y-4170483D01*
X-3061133Y-4154111D01*
X-3063717Y-4147874D01*
X-3063719Y-4147865D01*
X-3139485Y-4016635D01*
X-3246635Y-3909485D01*
X-3322402Y-3865740D01*
X-3377866Y-3833718D01*
X-3385369Y-3830611D01*
X-3384059Y-3827447D01*
X-3430244Y-3799205D01*
X-3460683Y-3736314D01*
X-3452288Y-3666951D01*
X-3407726Y-3613137D01*
X-3364159Y-3594639D01*
X-3250797Y-3570544D01*
X-3250793Y-3570542D01*
X-3250792Y-3570542D01*
X-3163753Y-3531789D01*
X-3077870Y-3493551D01*
X-2924729Y-3382288D01*
X-2798067Y-3241616D01*
X-2703421Y-3077684D01*
X-2644926Y-2897656D01*
X-2625140Y-2709400D01*
X-2644926Y-2521144D01*
X-2703421Y-2341116D01*
X-2758107Y-2246397D01*
X-2774579Y-2178500D01*
X-2758106Y-2122401D01*
X-2703421Y-2027684D01*
X-2644926Y-1847656D01*
X-2625140Y-1659400D01*
X-2644926Y-1471144D01*
X-2703421Y-1291116D01*
X-2798067Y-1127184D01*
X-2924729Y-986512D01*
X-2924730Y-986511D01*
X-3077866Y-875251D01*
X-3077871Y-875248D01*
X-3250793Y-798257D01*
X-3250798Y-798255D01*
X-3396599Y-767265D01*
X-3435954Y-758900D01*
X-3625246Y-758900D01*
X-3657703Y-765798D01*
X-3810403Y-798255D01*
X-3810408Y-798257D01*
X-3983330Y-875248D01*
X-3983335Y-875251D01*
X-4136471Y-986511D01*
X-4263134Y-1127185D01*
X-4357779Y-1291115D01*
X-4357782Y-1291122D01*
X-4416273Y-1471140D01*
X-4416274Y-1471144D01*
X-4436060Y-1659400D01*
X-4416274Y-1847656D01*
X-4416273Y-1847659D01*
X-4357779Y-2027686D01*
X-4357778Y-2027688D01*
X-4303096Y-2122401D01*
X-4286623Y-2190301D01*
X-4303096Y-2246399D01*
X-4357778Y-2341111D01*
X-4357779Y-2341113D01*
X-4416273Y-2521140D01*
X-4416274Y-2521144D01*
X-4436060Y-2709400D01*
X-4416274Y-2897656D01*
X-4416273Y-2897659D01*
X-4357782Y-3077677D01*
X-4357779Y-3077684D01*
X-4263133Y-3241616D01*
X-4136471Y-3382288D01*
X-3983335Y-3493548D01*
X-3983330Y-3493551D01*
X-3810408Y-3570542D01*
X-3810403Y-3570544D01*
X-3774451Y-3578186D01*
X-3712969Y-3611378D01*
X-3679193Y-3672541D01*
X-3683845Y-3742256D01*
X-3725450Y-3798388D01*
X-3768137Y-3819250D01*
X-3822135Y-3833719D01*
X-3822137Y-3833719D01*
X-3822137Y-3833720D01*
X-3953365Y-3909485D01*
X-3953368Y-3909487D01*
X-4060513Y-4016632D01*
X-4060515Y-4016635D01*
X-4113187Y-4107866D01*
X-4136281Y-4147865D01*
X-4149447Y-4197002D01*
X-4160134Y-4236886D01*
X-4196500Y-4296546D01*
X-4255718Y-4326409D01*
X-4416682Y-4358427D01*
X-4416694Y-4358430D01*
X-4598672Y-4433807D01*
X-4598685Y-4433814D01*
X-4762463Y-4543248D01*
X-4762467Y-4543251D01*
X-4901749Y-4682533D01*
X-4901752Y-4682537D01*
X-5011186Y-4846315D01*
X-5011193Y-4846328D01*
X-5086570Y-5028306D01*
X-5086573Y-5028318D01*
X-5125000Y-5221504D01*
X-5125000Y-5370000D01*
X-4375000Y-5370000D01*
X-4375000Y-5870000D01*
X-5125000Y-5870000D01*
X-5125000Y-6018495D01*
X-12065000Y-6018495D01*
X-12065000Y-3810000D01*
X-16129000Y254000D01*
X-7450260Y254000D01*
X-7430474Y65744D01*
X-7430473Y65741D01*
X-7371982Y-114277D01*
X-7371979Y-114284D01*
X-7277333Y-278216D01*
X-7242152Y-317288D01*
X-7150671Y-418888D01*
X-6997535Y-530148D01*
X-6997530Y-530151D01*
X-6824608Y-607142D01*
X-6824603Y-607144D01*
X-6639446Y-646500D01*
X-6639445Y-646500D01*
X-6450156Y-646500D01*
X-6450154Y-646500D01*
X-6264997Y-607144D01*
X-6092070Y-530151D01*
X-6092062Y-530144D01*
X-6086443Y-526902D01*
X-6085740Y-528120D01*
X-6026881Y-507118D01*
X-5958827Y-522942D01*
X-5948320Y-529695D01*
X-5947535Y-530147D01*
X-5947530Y-530151D01*
X-5844214Y-576151D01*
X-5774608Y-607142D01*
X-5774603Y-607144D01*
X-5589446Y-646500D01*
X-5589445Y-646500D01*
X-5400156Y-646500D01*
X-5400154Y-646500D01*
X-5214997Y-607144D01*
X-5042070Y-530151D01*
X-4888929Y-418888D01*
X-4762267Y-278216D01*
X-4667621Y-114284D01*
X-4609126Y65744D01*
X-4589340Y254000D01*
X-4600018Y355600D01*
X4690940Y355600D01*
X4710726Y167344D01*
X4710727Y167341D01*
X4769218Y-12677D01*
X4769221Y-12684D01*
X4863867Y-176616D01*
X4990529Y-317288D01*
X5143665Y-428548D01*
X5143670Y-428551D01*
X5316592Y-505542D01*
X5316597Y-505544D01*
X5501754Y-544900D01*
X5501755Y-544900D01*
X5691044Y-544900D01*
X5691046Y-544900D01*
X5876203Y-505544D01*
X6049130Y-428551D01*
X6049138Y-428544D01*
X6054757Y-425302D01*
X6055460Y-426520D01*
X6114319Y-405518D01*
X6182373Y-421342D01*
X6192880Y-428095D01*
X6193665Y-428547D01*
X6193670Y-428551D01*
X6296986Y-474551D01*
X6366592Y-505542D01*
X6366597Y-505544D01*
X6551754Y-544900D01*
X6551755Y-544900D01*
X6741044Y-544900D01*
X6741046Y-544900D01*
X6926203Y-505544D01*
X7099130Y-428551D01*
X7252271Y-317288D01*
X7378933Y-176616D01*
X7473579Y-12684D01*
X7532074Y167344D01*
X7551860Y355600D01*
X7532074Y543856D01*
X7473579Y723884D01*
X7378933Y887816D01*
X7252271Y1028488D01*
X7252270Y1028489D01*
X7099134Y1139749D01*
X7099129Y1139752D01*
X6926207Y1216743D01*
X6926202Y1216745D01*
X6780401Y1247735D01*
X6741046Y1256100D01*
X6551754Y1256100D01*
X6519297Y1249202D01*
X6366597Y1216745D01*
X6366592Y1216743D01*
X6193670Y1139752D01*
X6188037Y1136499D01*
X6187334Y1137717D01*
X6128468Y1116719D01*
X6060416Y1132550D01*
X6049926Y1139292D01*
X6049129Y1139752D01*
X5876207Y1216743D01*
X5876202Y1216745D01*
X5730401Y1247735D01*
X5691046Y1256100D01*
X5501754Y1256100D01*
X5469297Y1249202D01*
X5316597Y1216745D01*
X5316592Y1216743D01*
X5143670Y1139752D01*
X5143665Y1139749D01*
X4990529Y1028489D01*
X4863866Y887815D01*
X4769221Y723885D01*
X4769218Y723878D01*
X4710727Y543860D01*
X4710726Y543856D01*
X4690940Y355600D01*
X-4600018Y355600D01*
X-4609126Y442256D01*
X-4667621Y622284D01*
X-4762267Y786216D01*
X-4888929Y926888D01*
X-4888930Y926889D01*
X-5042066Y1038149D01*
X-5042071Y1038152D01*
X-5214993Y1115143D01*
X-5214998Y1115145D01*
X-5360799Y1146135D01*
X-5400154Y1154500D01*
X-5589446Y1154500D01*
X-5621903Y1147602D01*
X-5774603Y1115145D01*
X-5774608Y1115143D01*
X-5947530Y1038152D01*
X-5953163Y1034899D01*
X-5953866Y1036117D01*
X-6012732Y1015119D01*
X-6080784Y1030950D01*
X-6091274Y1037692D01*
X-6092071Y1038152D01*
X-6264993Y1115143D01*
X-6264998Y1115145D01*
X-6410799Y1146135D01*
X-6450154Y1154500D01*
X-6639446Y1154500D01*
X-6671903Y1147602D01*
X-6824603Y1115145D01*
X-6824608Y1115143D01*
X-6997530Y1038152D01*
X-6997535Y1038149D01*
X-7150671Y926889D01*
X-7277334Y786215D01*
X-7371979Y622285D01*
X-7371982Y622278D01*
X-7430473Y442260D01*
X-7430474Y442256D01*
X-7450260Y254000D01*
X-16129000Y254000D01*
X-19989800Y4114800D01*
X-7755060Y4114800D01*
X-7735274Y3926544D01*
X-7735273Y3926541D01*
X-7676782Y3746523D01*
X-7676779Y3746516D01*
X-7582133Y3582584D01*
X-7501044Y3492526D01*
X-7455471Y3441912D01*
X-7302335Y3330652D01*
X-7302330Y3330649D01*
X-7129408Y3253658D01*
X-7129403Y3253656D01*
X-6944246Y3214300D01*
X-6944245Y3214300D01*
X-6754956Y3214300D01*
X-6754954Y3214300D01*
X-6569797Y3253656D01*
X-6396870Y3330649D01*
X-6396862Y3330656D01*
X-6391243Y3333898D01*
X-6390540Y3332680D01*
X-6331681Y3353682D01*
X-6263627Y3337858D01*
X-6253120Y3331105D01*
X-6252335Y3330653D01*
X-6252330Y3330649D01*
X-6149014Y3284649D01*
X-6079408Y3253658D01*
X-6079403Y3253656D01*
X-5894246Y3214300D01*
X-5894245Y3214300D01*
X-5704956Y3214300D01*
X-5704954Y3214300D01*
X-5519797Y3253656D01*
X-5346870Y3330649D01*
X-5193729Y3441912D01*
X-5067067Y3582584D01*
X-4972421Y3746516D01*
X-4935287Y3860803D01*
X-2658054Y3860803D01*
X-2638268Y3672547D01*
X-2638267Y3672544D01*
X-2579776Y3492526D01*
X-2579773Y3492519D01*
X-2485127Y3328587D01*
X-2382222Y3214300D01*
X-2358465Y3187915D01*
X-2205329Y3076655D01*
X-2205324Y3076652D01*
X-2032402Y2999661D01*
X-2032397Y2999659D01*
X-1847240Y2960303D01*
X-1847239Y2960303D01*
X-1657950Y2960303D01*
X-1657948Y2960303D01*
X-1472791Y2999659D01*
X-1299864Y3076652D01*
X-1146723Y3187915D01*
X-1020061Y3328587D01*
X-925415Y3492519D01*
X-866920Y3672547D01*
X-852473Y3810000D01*
X1050340Y3810000D01*
X1070126Y3621744D01*
X1070127Y3621741D01*
X1128618Y3441723D01*
X1128621Y3441716D01*
X1223267Y3277784D01*
X1349929Y3137112D01*
X1503065Y3025852D01*
X1503070Y3025849D01*
X1675992Y2948858D01*
X1675997Y2948856D01*
X1861154Y2909500D01*
X1861155Y2909500D01*
X2050444Y2909500D01*
X2050446Y2909500D01*
X2235603Y2948856D01*
X2408530Y3025849D01*
X2561671Y3137112D01*
X2688333Y3277784D01*
X2782979Y3441716D01*
X2841474Y3621744D01*
X2850582Y3708400D01*
X4589340Y3708400D01*
X4609126Y3520144D01*
X4609127Y3520141D01*
X4667618Y3340123D01*
X4667621Y3340116D01*
X4762267Y3176184D01*
X4888929Y3035512D01*
X5042065Y2924252D01*
X5042070Y2924249D01*
X5214992Y2847258D01*
X5214997Y2847256D01*
X5400154Y2807900D01*
X5400155Y2807900D01*
X5589444Y2807900D01*
X5589446Y2807900D01*
X5774603Y2847256D01*
X5947530Y2924249D01*
X5947538Y2924256D01*
X5953157Y2927498D01*
X5953860Y2926280D01*
X6012719Y2947282D01*
X6080773Y2931458D01*
X6091280Y2924705D01*
X6092065Y2924253D01*
X6092070Y2924249D01*
X6195386Y2878249D01*
X6264992Y2847258D01*
X6264997Y2847256D01*
X6450154Y2807900D01*
X6450155Y2807900D01*
X6639444Y2807900D01*
X6639446Y2807900D01*
X6824603Y2847256D01*
X6997530Y2924249D01*
X7150671Y3035512D01*
X7277333Y3176184D01*
X7371979Y3340116D01*
X7430474Y3520144D01*
X7450260Y3708400D01*
X7430474Y3896656D01*
X7371979Y4076684D01*
X7277333Y4240616D01*
X7150671Y4381288D01*
X7112968Y4408681D01*
X6997534Y4492549D01*
X6997529Y4492552D01*
X6824607Y4569543D01*
X6824602Y4569545D01*
X6678801Y4600535D01*
X6639446Y4608900D01*
X6450154Y4608900D01*
X6417697Y4602002D01*
X6264997Y4569545D01*
X6264992Y4569543D01*
X6092070Y4492552D01*
X6086437Y4489299D01*
X6085734Y4490517D01*
X6026868Y4469519D01*
X5958816Y4485350D01*
X5948326Y4492092D01*
X5947529Y4492552D01*
X5774607Y4569543D01*
X5774602Y4569545D01*
X5628801Y4600535D01*
X5589446Y4608900D01*
X5400154Y4608900D01*
X5367697Y4602002D01*
X5214997Y4569545D01*
X5214992Y4569543D01*
X5042070Y4492552D01*
X5042065Y4492549D01*
X4888929Y4381289D01*
X4762266Y4240615D01*
X4667621Y4076685D01*
X4667618Y4076678D01*
X4618837Y3926544D01*
X4609126Y3896656D01*
X4589340Y3708400D01*
X2850582Y3708400D01*
X2861260Y3810000D01*
X2841474Y3998256D01*
X2782979Y4178284D01*
X2688333Y4342216D01*
X2561671Y4482888D01*
X2561670Y4482889D01*
X2408534Y4594149D01*
X2408529Y4594152D01*
X2235607Y4671143D01*
X2235602Y4671145D01*
X2089801Y4702135D01*
X2050446Y4710500D01*
X1861154Y4710500D01*
X1828697Y4703602D01*
X1675997Y4671145D01*
X1675992Y4671143D01*
X1503070Y4594152D01*
X1503065Y4594149D01*
X1349929Y4482889D01*
X1223266Y4342215D01*
X1128621Y4178285D01*
X1128618Y4178278D01*
X1070127Y3998260D01*
X1070126Y3998256D01*
X1050340Y3810000D01*
X-852473Y3810000D01*
X-847134Y3860803D01*
X-866920Y4049059D01*
X-925415Y4229087D01*
X-1020061Y4393019D01*
X-1146723Y4533691D01*
X-1196069Y4569543D01*
X-1299860Y4644952D01*
X-1299865Y4644955D01*
X-1472787Y4721946D01*
X-1472792Y4721948D01*
X-1618593Y4752938D01*
X-1657948Y4761303D01*
X-1847240Y4761303D01*
X-1879697Y4754405D01*
X-2032397Y4721948D01*
X-2032402Y4721946D01*
X-2205324Y4644955D01*
X-2205329Y4644952D01*
X-2358465Y4533692D01*
X-2485128Y4393018D01*
X-2579773Y4229088D01*
X-2579776Y4229081D01*
X-2629292Y4076685D01*
X-2638268Y4049059D01*
X-2658054Y3860803D01*
X-4935287Y3860803D01*
X-4913926Y3926544D01*
X-4894140Y4114800D01*
X-4913926Y4303056D01*
X-4972421Y4483084D01*
X-5067067Y4647016D01*
X-5193729Y4787688D01*
X-5193730Y4787689D01*
X-5346866Y4898949D01*
X-5346871Y4898952D01*
X-5519793Y4975943D01*
X-5519798Y4975945D01*
X-5665599Y5006935D01*
X-5704954Y5015300D01*
X-5894246Y5015300D01*
X-5926703Y5008402D01*
X-6079403Y4975945D01*
X-6079408Y4975943D01*
X-6252330Y4898952D01*
X-6257963Y4895699D01*
X-6258666Y4896917D01*
X-6317532Y4875919D01*
X-6385584Y4891750D01*
X-6396074Y4898492D01*
X-6396871Y4898952D01*
X-6569793Y4975943D01*
X-6569798Y4975945D01*
X-6715599Y5006935D01*
X-6754954Y5015300D01*
X-6944246Y5015300D01*
X-6976703Y5008402D01*
X-7129403Y4975945D01*
X-7129408Y4975943D01*
X-7302330Y4898952D01*
X-7302335Y4898949D01*
X-7455471Y4787689D01*
X-7582134Y4647015D01*
X-7676779Y4483085D01*
X-7676782Y4483078D01*
X-7735273Y4303060D01*
X-7735274Y4303056D01*
X-7755060Y4114800D01*
X-19989800Y4114800D01*
X-20283681Y4408681D01*
X-20317166Y4470004D01*
X-20320000Y4496362D01*
X-20320000Y6743259D01*
X-18387500Y6743259D01*
X-18362554Y6553785D01*
X-18357548Y6515762D01*
X-18357547Y6515760D01*
X-18298158Y6294113D01*
X-18210350Y6082124D01*
X-18210343Y6082110D01*
X-18095608Y5883383D01*
X-17955919Y5701339D01*
X-17955911Y5701330D01*
X-17793670Y5539089D01*
X-17793662Y5539082D01*
X-17611618Y5399393D01*
X-17611615Y5399392D01*
X-17611612Y5399389D01*
X-17412888Y5284656D01*
X-17412883Y5284654D01*
X-17412877Y5284651D01*
X-17321520Y5246810D01*
X-17200887Y5196842D01*
X-16979238Y5137452D01*
X-16751734Y5107500D01*
X-16751727Y5107500D01*
X-16522273Y5107500D01*
X-16522266Y5107500D01*
X-16294762Y5137452D01*
X-16073113Y5196842D01*
X-15861112Y5284656D01*
X-15662388Y5399389D01*
X-15480339Y5539081D01*
X-15480335Y5539086D01*
X-15480330Y5539089D01*
X-15318089Y5701330D01*
X-15318086Y5701335D01*
X-15318081Y5701339D01*
X-15178389Y5883388D01*
X-15063656Y6082112D01*
X-14975842Y6294113D01*
X-14916452Y6515762D01*
X-14886501Y6743259D01*
X14886500Y6743259D01*
X14911446Y6553785D01*
X14916452Y6515762D01*
X14916453Y6515760D01*
X14975842Y6294113D01*
X15063650Y6082124D01*
X15063657Y6082110D01*
X15178392Y5883383D01*
X15318081Y5701339D01*
X15318089Y5701330D01*
X15480330Y5539089D01*
X15480338Y5539082D01*
X15662382Y5399393D01*
X15662385Y5399392D01*
X15662388Y5399389D01*
X15861112Y5284656D01*
X15861117Y5284654D01*
X15861123Y5284651D01*
X15952480Y5246810D01*
X16073113Y5196842D01*
X16294762Y5137452D01*
X16522266Y5107500D01*
X16522273Y5107500D01*
X16751727Y5107500D01*
X16751734Y5107500D01*
X16979238Y5137452D01*
X17200887Y5196842D01*
X17412888Y5284656D01*
X17611612Y5399389D01*
X17793661Y5539081D01*
X17793665Y5539086D01*
X17793670Y5539089D01*
X17955911Y5701330D01*
X17955914Y5701335D01*
X17955919Y5701339D01*
X18095611Y5883388D01*
X18210344Y6082112D01*
X18298158Y6294113D01*
X18357548Y6515762D01*
X18387500Y6743266D01*
X18387500Y6972734D01*
X18357548Y7200238D01*
X18298158Y7421887D01*
X18210344Y7633888D01*
X18095611Y7832612D01*
X18095608Y7832615D01*
X18095607Y7832618D01*
X17955918Y8014662D01*
X17955911Y8014670D01*
X17793670Y8176911D01*
X17793661Y8176919D01*
X17611617Y8316608D01*
X17412890Y8431343D01*
X17412876Y8431350D01*
X17200887Y8519158D01*
X16979238Y8578548D01*
X16941215Y8583554D01*
X16751741Y8608500D01*
X16751734Y8608500D01*
X16522266Y8608500D01*
X16522258Y8608500D01*
X16305715Y8579991D01*
X16294762Y8578548D01*
X16201076Y8553446D01*
X16073112Y8519158D01*
X15861123Y8431350D01*
X15861109Y8431343D01*
X15662382Y8316608D01*
X15480338Y8176919D01*
X15318081Y8014662D01*
X15178392Y7832618D01*
X15063657Y7633891D01*
X15063650Y7633877D01*
X14975842Y7421888D01*
X14916453Y7200241D01*
X14916451Y7200230D01*
X14886500Y6972742D01*
X14886500Y6743259D01*
X-14886501Y6743259D01*
X-14886500Y6743266D01*
X-14886500Y6972734D01*
X-14916452Y7200238D01*
X-14975842Y7421887D01*
X-15063656Y7633888D01*
X-15178389Y7832612D01*
X-15178392Y7832615D01*
X-15178393Y7832618D01*
X-15318082Y8014662D01*
X-15318089Y8014670D01*
X-15480330Y8176911D01*
X-15480339Y8176919D01*
X-15662383Y8316608D01*
X-15861110Y8431343D01*
X-15861124Y8431350D01*
X-16073113Y8519158D01*
X-16294762Y8578548D01*
X-16332785Y8583554D01*
X-16522259Y8608500D01*
X-16522266Y8608500D01*
X-16751734Y8608500D01*
X-16751742Y8608500D01*
X-16968285Y8579991D01*
X-16979238Y8578548D01*
X-17072924Y8553446D01*
X-17200888Y8519158D01*
X-17412877Y8431350D01*
X-17412891Y8431343D01*
X-17611618Y8316608D01*
X-17793662Y8176919D01*
X-17955919Y8014662D01*
X-18095608Y7832618D01*
X-18210343Y7633891D01*
X-18210350Y7633877D01*
X-18298158Y7421888D01*
X-18357547Y7200241D01*
X-18357549Y7200230D01*
X-18387500Y6972742D01*
X-18387500Y6743259D01*
X-20320000Y6743259D01*
X-20320000Y8203638D01*
X-20300315Y8270677D01*
X-20283681Y8291319D01*
X-18451319Y10123681D01*
X-18389996Y10157166D01*
X-18363638Y10160000D01*
X18363638Y10160000D01*
X18430677Y10140315D01*
G37*
%TD.AperFunction*%
%TD*%
M02*
