%TF.GenerationSoftware,KiCad,Pcbnew,7.0.5*%
%TF.CreationDate,2024-03-09T10:44:32-05:00*%
%TF.ProjectId,female_connector,66656d61-6c65-45f6-936f-6e6e6563746f,rev?*%
%TF.SameCoordinates,Original*%
%TF.FileFunction,Soldermask,Top*%
%TF.FilePolarity,Negative*%
%FSLAX46Y46*%
G04 Gerber Fmt 4.6, Leading zero omitted, Abs format (unit mm)*
G04 Created by KiCad (PCBNEW 7.0.5) date 2024-03-09 10:44:32*
%MOMM*%
%LPD*%
G01*
G04 APERTURE LIST*
%ADD10C,0.650000*%
%ADD11O,1.000000X1.600000*%
%ADD12O,1.000000X1.800000*%
%ADD13R,0.300000X1.000000*%
%ADD14C,0.600000*%
%ADD15C,3.000000*%
G04 APERTURE END LIST*
D10*
%TO.C,J2*%
X-3600000Y-4370000D03*
X3595000Y-4335000D03*
D11*
X-4125000Y-5620000D03*
D12*
X-4485000Y-10010000D03*
X4485000Y-10010000D03*
D11*
X4125000Y-5620000D03*
D13*
X-2750000Y-3810000D03*
X-2250000Y-3810000D03*
X-1750000Y-3810000D03*
X-1250000Y-3810000D03*
X-750000Y-3810000D03*
X-250000Y-3810000D03*
X250000Y-3810000D03*
X750000Y-3810000D03*
X1250000Y-3810000D03*
X1750000Y-3810000D03*
X2250000Y-3810000D03*
X2750000Y-3810000D03*
D14*
X2800000Y-5020000D03*
X2400000Y-5720000D03*
X1600000Y-5720000D03*
X1200000Y-5020000D03*
X800000Y-5720000D03*
X400000Y-5020000D03*
X-400000Y-5020000D03*
X-800000Y-5720000D03*
X-1200000Y-5020000D03*
X-1600000Y-5720000D03*
X-2400000Y-5720000D03*
X-2800000Y-5020000D03*
%TD*%
D15*
%TO.C,H1*%
X-16637000Y6858000D03*
%TD*%
%TO.C,H4*%
X8509000Y-8382000D03*
%TD*%
%TO.C,H3*%
X-8509000Y-8382000D03*
%TD*%
%TO.C,H2*%
X16637000Y6858000D03*
%TD*%
%TO.C,J1*%
X-12192000Y6096000D03*
X-8128000Y6096000D03*
X-4064000Y6096000D03*
X0Y6096000D03*
X4064000Y6096000D03*
X8128000Y6096000D03*
X12192000Y6096000D03*
X-12192000Y2032000D03*
X-8128000Y2032000D03*
X-4064000Y2032000D03*
X0Y2032000D03*
X4064000Y2032000D03*
X8128000Y2032000D03*
X12192000Y2032000D03*
%TD*%
M02*
