M48
; DRILL file {KiCad 7.0.5} date Sat Mar  9 10:44:33 2024
; FORMAT={-:-/ absolute / inch / decimal}
; #@! TF.CreationDate,2024-03-09T10:44:33-05:00
; #@! TF.GenerationSoftware,Kicad,Pcbnew,7.0.5
; #@! TF.FileFunction,Plated,1,2,PTH
FMAT,2
INCH
; #@! TA.AperFunction,Plated,PTH,ViaDrill
T1C0.0157
; #@! TA.AperFunction,Plated,PTH,ComponentDrill
T2C0.0157
; #@! TA.AperFunction,Plated,PTH,ComponentDrill
T3C0.0197
%
G90
G05
T1
X-0.216Y0.1813
X-0.0603Y0.1713
X0.0356Y0.1613
X0.0612Y0.025
X0.1339Y-0.0914
X0.2649Y0.1805
T2
X-0.1102Y-0.1976
X-0.0945Y-0.2252
X-0.063Y-0.2252
X-0.0472Y-0.1976
X-0.0315Y-0.2252
X-0.0157Y-0.1976
X0.0157Y-0.1976
X0.0315Y-0.2252
X0.0472Y-0.1976
X0.063Y-0.2252
X0.0945Y-0.2252
X0.1102Y-0.1976
T3
G00X-0.1766Y-0.3823
M15
G01X-0.1766Y-0.4059
M16
G05
G00X-0.1624Y-0.2094
M15
G01X-0.1624Y-0.2331
M16
G05
G00X0.1624Y-0.2094
M15
G01X0.1624Y-0.2331
M16
G05
G00X0.1766Y-0.3823
M15
G01X0.1766Y-0.4059
M16
G05
T0
M30
