%TF.GenerationSoftware,KiCad,Pcbnew,7.0.5*%
%TF.CreationDate,2024-03-06T10:31:56-05:00*%
%TF.ProjectId,female_connector,66656d61-6c65-45f6-936f-6e6e6563746f,rev?*%
%TF.SameCoordinates,Original*%
%TF.FileFunction,Copper,L1,Top*%
%TF.FilePolarity,Positive*%
%FSLAX46Y46*%
G04 Gerber Fmt 4.6, Leading zero omitted, Abs format (unit mm)*
G04 Created by KiCad (PCBNEW 7.0.5) date 2024-03-06 10:31:56*
%MOMM*%
%LPD*%
G01*
G04 APERTURE LIST*
%TA.AperFunction,ComponentPad*%
%ADD10O,1.700000X1.000000*%
%TD*%
%TA.AperFunction,SMDPad,CuDef*%
%ADD11R,0.300000X1.000000*%
%TD*%
%TA.AperFunction,ComponentPad*%
%ADD12C,0.600000*%
%TD*%
%TA.AperFunction,SMDPad,CuDef*%
%ADD13C,3.000000*%
%TD*%
%TA.AperFunction,ViaPad*%
%ADD14C,0.800000*%
%TD*%
%TA.AperFunction,Conductor*%
%ADD15C,0.300000*%
%TD*%
%TA.AperFunction,Conductor*%
%ADD16C,0.299800*%
%TD*%
%TA.AperFunction,Conductor*%
%ADD17C,0.400000*%
%TD*%
G04 APERTURE END LIST*
D10*
%TO.P,J2,1*%
%TO.N,N/C*%
X-4125000Y-5620000D03*
%TO.P,J2,2*%
X-4485000Y-10010000D03*
%TO.P,J2,3*%
X4485000Y-10010000D03*
%TO.P,J2,4*%
X4125000Y-5620000D03*
D11*
%TO.P,J2,A1,a1*%
%TO.N,GND*%
X-2750000Y-3810000D03*
%TO.P,J2,A2,a2*%
%TO.N,/CAN0_H*%
X-2250000Y-3810000D03*
%TO.P,J2,A3,a3*%
%TO.N,/CAN0_L*%
X-1750000Y-3810000D03*
%TO.P,J2,A4,a4*%
%TO.N,+12V*%
X-1250000Y-3810000D03*
%TO.P,J2,A5,a5*%
%TO.N,unconnected-(J2-a5-PadA5)*%
X-750000Y-3810000D03*
%TO.P,J2,A6,a6*%
%TO.N,unconnected-(J2-a6-PadA6)*%
X-250000Y-3810000D03*
%TO.P,J2,A7,a7*%
%TO.N,unconnected-(J2-a7-PadA7)*%
X250000Y-3810000D03*
%TO.P,J2,A8,A8*%
%TO.N,/SBU1*%
X750000Y-3810000D03*
%TO.P,J2,A9,a9*%
%TO.N,+12V*%
X1250000Y-3810000D03*
%TO.P,J2,A10,a10*%
%TO.N,/CAN1_L*%
X1750000Y-3810000D03*
%TO.P,J2,A11,a11*%
%TO.N,/CAN1_H*%
X2250000Y-3810000D03*
%TO.P,J2,A12,a12*%
%TO.N,GND*%
X2750000Y-3810000D03*
D12*
%TO.P,J2,B1,b1*%
X2800000Y-5020000D03*
%TO.P,J2,B2,b2*%
%TO.N,/CAN2_H*%
X2400000Y-5720000D03*
%TO.P,J2,B3,b3*%
%TO.N,/CAN2_L*%
X1600000Y-5720000D03*
%TO.P,J2,B4,b4*%
%TO.N,+12V*%
X1200000Y-5020000D03*
%TO.P,J2,B5,b5*%
%TO.N,unconnected-(J2-b5-PadB5)*%
X800000Y-5720000D03*
%TO.P,J2,B6,b6*%
%TO.N,unconnected-(J2-b6-PadB6)*%
X400000Y-5020000D03*
%TO.P,J2,B7,b7*%
%TO.N,unconnected-(J2-b7-PadB7)*%
X-400000Y-5020000D03*
%TO.P,J2,B8,b8*%
%TO.N,/SBU2*%
X-800000Y-5720000D03*
%TO.P,J2,B9,b9*%
%TO.N,+12V*%
X-1200000Y-5020000D03*
%TO.P,J2,B10,b10*%
%TO.N,/CAN3_L*%
X-1600000Y-5720000D03*
%TO.P,J2,B11,b11*%
%TO.N,/CAN3_H*%
X-2400000Y-5720000D03*
%TO.P,J2,B12,b12*%
%TO.N,GND*%
X-2800000Y-5020000D03*
%TD*%
D13*
%TO.P,J1,1,Pin_1a*%
%TO.N,GND*%
X-12192000Y6096000D03*
%TO.P,J1,2,Pin_2a*%
%TO.N,/CAN2_H*%
X-8128000Y6096000D03*
%TO.P,J1,3,Pin_3a*%
%TO.N,/CAN2_L*%
X-4064000Y6096000D03*
%TO.P,J1,4,Pin_4a*%
%TO.N,/SBU2*%
X0Y6096000D03*
%TO.P,J1,5,Pin_5a*%
%TO.N,/CAN3_H*%
X4064000Y6096000D03*
%TO.P,J1,6,Pin_6a*%
%TO.N,/CAN3_L*%
X8128000Y6096000D03*
%TO.P,J1,7,Pin_7a*%
%TO.N,+12V*%
X12192000Y6096000D03*
%TO.P,J1,8,Pin_1b*%
%TO.N,GND*%
X-12192000Y2032000D03*
%TO.P,J1,9,Pin_2b*%
%TO.N,/CAN0_H*%
X-8128000Y2032000D03*
%TO.P,J1,10,Pin_3b*%
%TO.N,/CAN0_L*%
X-4064000Y2032000D03*
%TO.P,J1,11,Pin_4b*%
%TO.N,/SBU1*%
X0Y2032000D03*
%TO.P,J1,12,Pin_5b*%
%TO.N,/CAN1_L*%
X4064000Y2032000D03*
%TO.P,J1,13,Pin_6b*%
%TO.N,/CAN1_H*%
X8128000Y2032000D03*
%TO.P,J1,14,Pin_7b*%
%TO.N,+12V*%
X12192000Y2032000D03*
%TD*%
D14*
%TO.N,/CAN3_H*%
X2313400Y3739400D03*
%TO.N,/CAN3_L*%
X6655200Y4623200D03*
%TO.N,/SBU2*%
X35100Y-404300D03*
%TO.N,GND*%
X-3342000Y-2949900D03*
X3475400Y-3174300D03*
%TD*%
D15*
%TO.N,/CAN3_H*%
X2313400Y4345400D02*
X2313400Y3739400D01*
X4064000Y6096000D02*
X2313400Y4345400D01*
%TO.N,/CAN3_L*%
X8128000Y6096000D02*
X6655200Y4623200D01*
%TO.N,/SBU2*%
X-158700Y-404300D02*
X35100Y-404300D01*
X-1836500Y1273500D02*
X-158700Y-404300D01*
X-1836500Y4259500D02*
X-1836500Y1273500D01*
X0Y6096000D02*
X-1836500Y4259500D01*
%TO.N,/CAN2_L*%
X1600000Y-5796300D02*
X1600000Y-5720000D01*
X974300Y-6422000D02*
X1600000Y-5796300D01*
X-4829900Y-6422000D02*
X974300Y-6422000D01*
X-9930600Y-1321300D02*
X-4829900Y-6422000D01*
X-9930600Y2839100D02*
X-9930600Y-1321300D01*
X-8705700Y4064000D02*
X-9930600Y2839100D01*
X-6096000Y4064000D02*
X-8705700Y4064000D01*
X-4064000Y6096000D02*
X-6096000Y4064000D01*
%TO.N,/CAN2_H*%
X2400000Y-5815700D02*
X2400000Y-5720000D01*
X1341500Y-6874200D02*
X2400000Y-5815700D01*
X-5039500Y-6874200D02*
X1341500Y-6874200D01*
X-10384800Y-1528900D02*
X-5039500Y-6874200D01*
X-10384800Y3839200D02*
X-10384800Y-1528900D01*
X-8128000Y6096000D02*
X-10384800Y3839200D01*
%TO.N,/CAN1_H*%
X7290100Y2032000D02*
X2250000Y-3008100D01*
X8128000Y2032000D02*
X7290100Y2032000D01*
X2250000Y-3810000D02*
X2250000Y-3008100D01*
%TO.N,/CAN1_L*%
X1751900Y-280100D02*
X4064000Y2032000D01*
X1751900Y-3808100D02*
X1751900Y-280100D01*
X1750000Y-3810000D02*
X1751900Y-3808100D01*
%TO.N,/SBU1*%
X745400Y1286600D02*
X0Y2032000D01*
X745400Y-3805400D02*
X745400Y1286600D01*
X750000Y-3810000D02*
X745400Y-3805400D01*
D16*
%TO.N,GND*%
X-2897700Y-3662300D02*
X-2750000Y-3810000D01*
D17*
X-3342000Y-3218000D02*
X-2897700Y-3662300D01*
X-3342000Y-2949900D02*
X-3342000Y-3218000D01*
X-12192000Y6096000D02*
X-12192000Y2032000D01*
D16*
X2897700Y-3662300D02*
X2750000Y-3810000D01*
D17*
X3475400Y-3262300D02*
X3475400Y-3174300D01*
X3297700Y-3262300D02*
X2897700Y-3662300D01*
X3475400Y-3262300D02*
X3297700Y-3262300D01*
X3924500Y-3262300D02*
X3475400Y-3262300D01*
X5347100Y-4684900D02*
X3924500Y-3262300D01*
X5347100Y-5953400D02*
X5347100Y-4684900D01*
X3852400Y-7448100D02*
X5347100Y-5953400D01*
X-5177400Y-7448100D02*
X3852400Y-7448100D01*
X-12192000Y-433500D02*
X-5177400Y-7448100D01*
X-12192000Y2032000D02*
X-12192000Y-433500D01*
D15*
%TO.N,/CAN0_L*%
X-1750000Y-282000D02*
X-1750000Y-3810000D01*
X-4064000Y2032000D02*
X-1750000Y-282000D01*
%TO.N,/CAN0_H*%
X-2250000Y-3810000D02*
X-2250000Y-3008100D01*
X-7290100Y2032000D02*
X-8128000Y2032000D01*
X-2250000Y-3008100D02*
X-7290100Y2032000D01*
D16*
%TO.N,+12V*%
X1250000Y-2957900D02*
X1250000Y-3810000D01*
D17*
X12192000Y2032000D02*
X12192000Y6096000D01*
X1250000Y-46300D02*
X1250000Y-2957900D01*
X1878700Y582400D02*
X1250000Y-46300D01*
X1878700Y2960700D02*
X1878700Y582400D01*
X1507400Y3332000D02*
X1878700Y2960700D01*
X1507400Y4386700D02*
X1507400Y3332000D01*
X1960000Y4839300D02*
X1507400Y4386700D01*
X1960000Y6674200D02*
X1960000Y4839300D01*
X3281900Y7996100D02*
X1960000Y6674200D01*
X10291900Y7996100D02*
X3281900Y7996100D01*
X12192000Y6096000D02*
X10291900Y7996100D01*
X-1250000Y-4970000D02*
X-1250000Y-4662100D01*
X-1200000Y-5020000D02*
X-1250000Y-4970000D01*
D16*
X-1250000Y-4662100D02*
X-1250000Y-3810000D01*
D17*
X1250000Y-4970000D02*
X1250000Y-4662100D01*
X1200000Y-5020000D02*
X1250000Y-4970000D01*
D16*
X1250000Y-4662100D02*
X1250000Y-3810000D01*
%TD*%
M02*
